<svg version="1.1" xmlns="http://www.w3.org/2000/svg" xmlns:xlink="http://www.w3.org/1999/xlink" width="90.88427" height="65.84044" viewBox="0,0,90.88427,65.84044"><g transform="translate(-184.23172,-165.25461)"><g data-paper-data="{&quot;isPaintingLayer&quot;:true}" fill="#000000" fill-rule="nonzero" stroke="none" stroke-width="0.5" stroke-linecap="butt" stroke-linejoin="miter" stroke-miterlimit="10" stroke-dasharray="" stroke-dashoffset="0" style="mix-blend-mode: normal"><path d="M264.22001,203.31801l-0.10564,-0.14444c-0.12243,-0.02495 -0.25242,-0.03736 -0.39049,-0.03613c0,0 -0.1017,-0.01453 -0.24261,-0.06441c-0.12165,0.55093 -0.29761,1.09196 -0.48258,1.62432c-0.73049,0.93771 -1.1784,2.17993 -2.17742,2.82403c-2.23893,1.4435 -4.8119,0.1079 -5.15447,-2.42115c-0.27922,-2.06141 1.22485,-4.04325 2.09989,-5.92616c0.70175,-1.51002 2.30819,-2.45318 1.09888,-4.17328c-2.37295,-3.37525 -7.47105,-2.7478 -7.61177,-7.41218c-0.14769,-1.03384 0.16965,-2.83009 -0.51414,-3.68924c-0.89968,-1.1304 -3.05902,-1.05363 -3.61854,-2.38561c-0.68899,-1.6402 0.15825,-4.42611 -1.43946,-5.86944c-0.68349,-0.61745 -2.43339,-0.33965 -3.18123,-0.51046c-0.97584,-0.22288 -1.69186,-1.14268 -2.28366,-1.94997c-0.7278,-0.99283 -3.85968,0.33116 -4.53525,0.8922c-3.01426,2.34495 -4.29334,8.3296 -4.74023,11.97664c-0.13143,1.07256 0.30328,2.61066 -0.42658,3.57816c-2.32493,3.08191 -7.7082,-0.20609 -10.5357,1.02396c-0.78388,0.34101 -1.20756,1.21664 -1.881,1.74318c-0.92348,0.31984 -1.75686,0.90326 -2.71016,1.11853c-0.54869,0.12391 -1.12495,0.05095 -1.68719,0.03344c-7.43505,-0.23146 -2.22501,-10.10023 -1.63792,-13.82337c0.33528,-2.12625 -1.73572,-2.41792 -1.99594,-4.4264c-0.31308,-2.41646 1.65367,-3.56292 3.19397,-4.94806c-0.45288,0.02442 -0.90899,0.04267 -1.36012,-0.00217c-1.83055,-0.18193 -2.51155,0.03242 -2.63634,-1.20356c-0.25996,0.31599 -0.53663,0.62072 -0.79158,0.9394c-0.54578,0.68223 -2.09562,3.0767 -2.70562,3.47167c-1.14712,0.74275 -1.86882,0.15075 -2.97013,0.48972c-1.07699,0.33149 -0.85572,2.3284 -2.15485,2.9794c-1.00873,0.50547 -3.57921,0.12337 -4.74149,0.12337c-2.52006,-0.18005 -1.62004,3.0073 -3.98624,3.92953c-0.56374,0.21972 -1.20886,0.05744 -1.81376,0.07047c-0.36041,0.00777 -1.13197,-0.07131 -1.55577,-0.17561c0.30899,0.83152 0.58243,3.76156 1.34826,4.35892c2.33223,1.81919 4.72661,3.15775 6.91969,4.94721l0.15033,-0.24053l1.58165,0.98853c0.36304,0.21873 0.60585,0.61674 0.60585,1.07147c0,0.69036 -0.55964,1.25 -1.25,1.25h-1.1044c-0.28054,0.26463 0.03985,0.99262 0.12096,1.43719c-0.50212,0.68464 -0.75015,1.66791 -1.50635,2.05394c-1.75971,0.8983 -3.2483,-0.97828 -4.71044,-1.30728c-0.75234,-0.16928 -3.49855,1.43091 -3.99747,1.90816c-0.30389,0.29068 0.71668,0.4476 1.03135,0.72656c0.72975,0.64694 1.72772,0.92415 2.50016,1.51948c1.75089,1.34942 1.34161,3.10118 1.31619,5.01193c-0.00681,0.51219 -0.48666,1.40059 0.00716,1.53669c0.78104,0.21526 1.69073,-0.2846 2.43003,0.04676c0.03441,0.01542 0.06855,0.03134 0.10243,0.04771l0.00567,-0.01701l1.17265,0.39088c0.51078,0.15708 0.88206,0.63267 0.88206,1.19497c0,0.44076 -0.22813,0.82825 -0.57276,1.05082l-1.18387,0.78925c-1.46439,0.97447 -3.16018,2.00087 -4.40949,3.24382c-0.07068,0.07032 -0.89757,1.04402 -1.42627,1.66355c0.54291,-0.22995 1.40228,-0.19272 1.45377,-0.19429c0.78922,-0.02403 1.68202,-0.30081 2.36696,0.09201c0.83338,0.47795 1.17704,1.51868 1.76556,2.27802c-1.10746,1.08617 -1.71234,1.89682 -3.04853,2.57593c-0.11675,0.05934 -0.31949,0.11762 -0.53135,0.16528c1.73939,0.27403 4.06358,3.15378 4.50365,4.28949c0.1929,0.49785 -0.01069,4.06402 0.89258,4.28395c1.8129,0.44142 3.74078,-1.76966 5.00193,-2.64685c1.56805,-1.09065 2.32082,-0.99662 4.11783,-1.07638c0.7894,-1.25317 1.54344,-2.97592 3.38327,-2.96405c0.55858,0.0036 1.52888,0.54219 2.02016,1.03919c0.20796,-0.49751 0.59201,-1.07558 0.92404,-1.23037c0.82049,-0.38249 1.83313,-0.79605 2.67569,-0.46499c0.37459,0.14719 1.3635,2.71673 1.45068,3.3054c0.0946,0.63872 -0.60438,1.78553 0.0233,1.93691c1.4377,0.34676 2.88995,-0.56553 4.49203,0.14042c1.70794,0.75261 3.60835,3.82044 5.12792,1.37371c0.18677,-0.57969 0.79903,-2.60744 1.12196,-2.8105c0.75949,-0.47756 1.77712,-0.55511 2.66119,-0.40249c0.42066,0.07262 0.42024,0.80506 0.8,1c0.35703,0.18327 0.99582,0.11778 1.18005,-0.23875c0.58096,-1.12435 0.1769,-3.82074 2.42165,-4.04142c1.73977,-0.17103 2.04311,1.46749 2.82192,2.35847c0.92274,1.05563 2.30049,0.06427 3.47834,0.48752c1.81356,0.65169 1.53193,2.50707 2.8,2.8c1.55327,0.35881 2.23962,-1.19854 3.05193,-2.17572c0.54647,-0.27167 3.36718,-0.70179 3.70196,-1.1118c0.63774,-0.78107 0.96595,-1.9084 1.84998,-2.39345c1.07707,-0.59097 2.48529,-0.21063 3.68524,0.05287c1.88993,0.41502 4.17786,-0.31485 6.0695,0.21635c3.22595,0.90589 8.34455,8.90762 11.34461,4.48346c0.36201,-1.2798 0.9036,-3.96022 -0.17922,-5.0224c-0.82824,-0.81245 -2.08787,-1.26722 -2.60911,-2.30375c-0.78043,-1.55195 0.10124,-3.21382 -0.25664,-4.73543c-0.1588,-0.67516 -1.28925,-0.62063 -1.72993,-1.15622c-0.467,-0.56758 -0.72901,-1.29512 -0.91501,-2.00621c-0.38779,-1.48253 -0.10996,-5.46511 -1.4962,-6.89442c-0.43675,-0.04799 -0.75998,-0.33891 -0.75998,-0.33891zM261.01348,202.6859c0.04596,-0.09542 0.09632,-0.18878 0.15072,-0.28005c0.04164,-0.1209 0.08372,-0.24166 0.12616,-0.3623c0.02504,0.01944 0.05085,0.03795 0.07736,0.05548c0.67052,-0.91511 1.74971,-1.58505 2.81593,-1.93715l1.50277,1.14145c1.77735,1.11309 2.6115,3.28703 3.04066,5.55512c0.11471,0.60623 -0.13098,3.40705 0.48303,3.98403c0.74199,0.69724 1.91265,1.09039 2.27007,2.04378c0.48772,1.30097 -0.47428,3.21543 0.14336,4.46457c0.8495,1.71805 2.64317,1.33811 3.28523,3.62835c0.49322,1.75933 0.01308,4.15239 -0.47356,5.8455c-0.55205,0.83721 -1.4804,2.51916 -2.52889,2.85768c-2.49723,0.80627 -6.60903,-1.71437 -8.41364,-3.22857c-0.93393,-0.78363 -2.02188,-2.42947 -3.31286,-2.74565c-2.19464,-0.53751 -4.95683,-0.36153 -7.15823,-0.76063c-1.16619,-0.21142 -1.54624,1.79243 -2.03705,2.23639c-1.44045,1.30296 -2.44506,0.55166 -3.89804,1.2882c-1.29106,1.71246 -2.86344,3.45942 -5.34807,2.62428c-2.54093,-0.85406 -1.36537,-2.74636 -3.83777,-2.74636c-1.79866,0 -2.0203,0.17879 -3.48388,-1.16611c-0.22216,-0.20415 -0.56442,-0.63706 -0.77803,-1.00779c-0.1227,0.24282 -0.28265,0.50642 -0.34495,0.69662c-0.36398,1.11131 -1.16862,2.37189 -2.30595,2.64385c-0.69779,0.16685 -1.45835,0.34537 -2.14745,0.14562c-0.43972,-0.12746 -0.83068,-1.44735 -0.93881,-1.00249c-0.16109,0.66275 -0.25736,1.34414 -0.47804,1.9895c-0.36522,0.5293 -0.59914,1.17921 -1.09564,1.58791c-2.82039,2.32161 -5.09289,-0.68055 -7.37644,-1.8142c-1.34892,-0.66966 -3.37063,0.58701 -4.70798,-0.25958c-0.97932,-0.61994 -1.80534,-3.85781 -1.37725,-5.03826c-0.13322,0.26692 -0.38677,0.74033 -0.55656,0.91276c-0.5955,0.60474 -1.03914,1.66523 -1.88669,1.70977c-0.86731,0.04558 -1.0175,-1.82433 -1.88562,-1.79812c-0.40426,0.0122 -2.10389,2.50807 -2.21672,2.63595c-1.00702,0.18846 -2.07331,0.02726 -3.05776,0.31096c-2.70531,0.7796 -4.59869,5.00674 -8.22249,3.56581c-2.61107,-1.03824 -1.60304,-3.86061 -2.30741,-5.71605c-0.79077,-2.08301 -4.67423,-2.50436 -5.18717,-4.16778c-0.40763,-1.32189 0.6264,-2.67143 1.87777,-3.42507c-1.30086,0.13224 -2.71643,0.11436 -2.94192,-0.10897c-0.63789,-0.63179 -0.50738,-1.77517 -0.38912,-2.66515c0.30431,-2.29022 3.06061,-4.23442 5.2856,-5.66981c-0.46591,-0.05415 -0.88773,-0.17557 -1.13464,-0.34604c-2.17941,-1.50475 -0.76558,-4.25313 -1.12237,-6.24955c-0.12476,-0.69811 -1.29513,-0.58803 -1.89719,-0.96279c-1.19685,-0.74499 -3.40325,-2.73494 -2.92557,-4.393c0.51127,-1.77466 5.1047,-3.89798 6.80253,-3.69183c0.58619,0.07118 3.15929,1.97409 3.38321,1.14667c-0.06286,-0.7919 0.24402,-1.60932 0.72046,-2.30375c-1.20238,-0.29517 -2.13289,-1.5639 -3.25177,-2.40746c-2.84221,-2.14283 -5.50213,-2.63436 -5.50213,-6.8016c0,-1.08804 -0.86809,-2.38818 -0.21332,-3.25716c1.16375,-1.54448 3.41324,-0.44553 4.84956,-0.72237c0.56205,-0.10833 1.19239,-2.51869 1.44168,-2.80631c1.32957,-1.53407 1.56017,-1.19376 3.37208,-1.26415c0.91647,0 2.82065,0.38747 3.65851,0.12337c0.55379,-0.17456 1.20035,-2.53095 2.24515,-3.0206c0.79928,-0.37459 1.87621,0.14924 2.62987,-0.31028c0.68112,-0.41529 0.59917,-1.50291 1.09438,-2.12833c0.73559,-0.92901 1.7488,-2.35937 2.79121,-2.99024c0.67507,-0.40856 1.38882,-1.27965 2.1349,-1.02274c0.80178,0.27609 1.02212,1.39071 1.27983,2.19859c0.08077,0.25319 -0.46388,0.47624 -0.34998,0.71634c0.09041,0.19057 0.30894,-0.32653 0.51612,-0.36612c0.45837,-0.08758 0.93365,-0.01722 1.4,0c1.55912,0.05757 3.37945,-0.24505 3.44235,2.38804c0.01693,0.70873 -0.93913,1.06224 -1.4087,1.59337c-0.60587,0.60587 -3.02989,2.05001 -2.79979,3.06836c0.47066,2.08301 2.3659,2.46114 2.00406,5.17361c-0.38007,2.84912 -2.18792,5.27134 -2.18792,8.22663c0,0.46368 -0.11022,2.6083 0.53982,2.8979c1.091,0.48605 2.99954,-0.67425 4.01282,-0.99594c0.72288,-0.59953 1.24937,-1.50221 2.119,-1.85682c1.54463,-0.62985 4.60586,-0.09515 6.27836,-0.09515c0.31907,0 2.99674,0.29382 3.18595,-0.08089c0.3639,-0.72066 -0.12842,-1.62096 -0.02658,-2.42184c0.56722,-4.46088 2.09064,-10.70875 5.65977,-13.62335c1.88711,-1.47004 5.72911,-2.5314 7.86476,-0.7078c0.32065,0.2738 0.15072,0.85995 0.4,1.2c0.37779,0.51536 1.2854,-0.05111 1.91635,0.05003c0.33807,0.05418 2.86046,0.9498 3.01877,1.08954c1.89075,1.66897 1.89036,4.74088 2.16053,6.93055c0.00969,0.0786 3.04505,1.44951 3.18146,1.61439c1.21633,1.47014 0.83912,3.38358 1.08586,5.11076c-0.11428,2.54957 2.09939,1.80104 3.88404,3.07455c1.56036,1.11346 3.74108,2.99782 4.09358,4.96273c0.49951,2.78436 -2.52188,6.19585 -3.69784,8.39282c-0.29154,0.54466 0.4856,2.54596 1.35276,1.63713c0.56027,-0.58719 0.90469,-1.35108 1.42258,-1.97597c0.03735,-0.11947 0.07538,-0.23873 0.11401,-0.35779c0.0154,-0.26352 0.09684,-0.45896 0.09684,-0.45896z"/></g></g></svg>