<svg version="1.1" xmlns="http://www.w3.org/2000/svg" xmlns:xlink="http://www.w3.org/1999/xlink" width="180.13187" height="71.37696" viewBox="0,0,180.13187,71.37696"><g transform="translate(-149.93406,-144.31153)"><g data-paper-data="{&quot;isPaintingLayer&quot;:true}" fill-rule="nonzero" stroke="none" stroke-linecap="butt" stroke-linejoin="miter" stroke-miterlimit="10" stroke-dasharray="" stroke-dashoffset="0" style="mix-blend-mode: normal"><path d="M179.18267,188.94338c-0.68039,-1.02093 -3.52041,-5.14807 -4.03519,-6.4193c-2.06098,-5.08949 -2.88865,-11.12177 -2.87218,-16.59242c0.00884,-2.93935 -0.32551,-4.98851 1.41583,-7.68912c2.70338,-4.19264 5.79856,-3.21446 10.03118,-3.21446c2.674,0 6.07587,-0.56477 8.67742,0.05833c1.99137,0.47695 4.66692,1.77218 6.48035,2.76635c1.40981,-3.78881 3.44213,-4.6469 6.23804,-7.13414c1.5286,-1.35984 2.84884,-3.23647 4.81311,-3.80869c0.72618,-0.21154 1.53064,0.14499 2.26901,-0.01899c0.95521,-0.21214 1.76972,-0.88064 2.7255,-1.0902c1.58532,-0.34759 3.25593,-0.17747 4.83987,-0.53132c3.43511,-0.76741 8.99456,-1.41121 12.42636,-0.53989c1.12202,0.28488 5.45798,2.59235 6.8556,3.68877c0.62966,0.49397 1.16219,1.10242 1.7034,1.69198c0.31621,0.34447 0.40102,1.16935 0.86417,1.105c0.76235,-0.10592 1.09238,-1.12404 1.7788,-1.47223c2.13914,-1.0851 5.10425,-1.81056 7.44233,-2.29324c6.49921,-1.58079 13.9889,-0.59822 20.647,-0.59822c3.62219,0 6.59224,-0.50216 9.81595,1.38473c1.82868,1.07037 4.25369,2.60316 5.5803,4.42662c0.54656,0.75126 0.91763,1.6212 1.27157,2.48018c0.16913,0.41049 -0.09485,1.07314 0.28632,1.30077c0.40074,0.23931 0.90752,-0.21942 1.36439,-0.31502c1.82415,-0.38171 3.57142,-1.12245 5.23586,-1.96082c5.47443,-2.75745 9.77331,-2.96138 15.87258,-2.94825c1.31617,0.23782 2.70836,0.21256 3.94849,0.71347c4.9426,1.99642 9.59747,9.62873 7.80545,15.04274c-0.27578,0.83316 -0.76652,1.56921 -1.26485,2.30183c1.89087,0.83654 3.71053,3.90038 4.66873,5.11147c2.96245,3.74435 4.73487,10.64557 3.7014,15.39224c-0.98242,4.51221 -4.51035,5.8263 -8.55845,7.11388c-1.5034,0.47819 -3.0483,0.88765 -4.61952,1.02948c-0.37479,0.03383 -0.89942,-0.8845 -1.00093,-0.52214c-0.19096,0.68169 0.64471,1.3402 0.57443,2.04463c-0.16872,1.69133 -0.50069,3.42309 -1.27102,4.93823c-2.31126,4.54602 -4.39971,4.38798 -8.23509,6.07641c-1.04947,0.462 -1.88596,1.37205 -2.97786,1.72215c-0.83417,0.26746 -1.75128,0.04993 -2.62692,0.0749c-2.23845,0.28001 -4.43265,1.30575 -6.67863,1.09441c-3.90983,-0.36792 -8.09001,-2.38468 -10.07185,-6.01197c-0.24551,-0.44935 0.30662,-1.11842 0.01042,-1.53609c-0.17569,-0.24775 -0.5604,0.238 -0.82408,0.38874c-1.1175,0.63884 -2.18647,1.36175 -3.31643,1.97828c-1.15667,0.63111 -2.30973,1.28631 -3.53854,1.76193c-4.47922,1.73373 -8.57629,2.40844 -13.32822,2.32891c-1.50197,-0.02513 -3.06323,0.30926 -4.50517,-0.11189c-3.05921,-0.89349 -5.34699,-4.45981 -6.23077,-7.23016c-0.27741,-0.86957 0.23333,-2.22457 -0.55712,-2.68096c-0.68883,-0.39771 -1.38605,0.78109 -2.08909,1.1531c-0.48951,0.25901 -3.76194,1.89143 -4.17614,2.09853c-5.29634,2.64816 -10.68142,6.92337 -16.78295,6.77137c-1.18755,-0.02958 -2.47892,0.32665 -3.55987,-0.16597c-2.16762,-0.98784 -3.82291,-3.9064 -4.8926,-5.87105c-0.37939,-0.6968 -1.34164,-1.77548 -1.30363,-2.68372c-0.99327,0.73687 -2.09626,1.31846 -3.14304,1.97889c-1.23307,0.77797 -2.46789,1.55326 -3.70911,2.31815c-3.70643,2.28406 -9.38308,6.62538 -14.20657,4.80284c-1.43572,-0.54248 -3.43651,-3.54201 -4.29092,-4.68379c-1.16484,-3.15765 -2.35352,-0.7994 -4.56009,0.66307c-1.81377,1.20215 -3.82497,2.09275 -5.83321,2.93052c-2.13337,0.88996 -4.08947,2.2627 -6.32952,2.83313c-0.7802,0.19868 -1.62065,-0.08949 -2.41493,0.04199c-4.50842,0.74628 -8.91496,1.63476 -13.56362,1.09592c-2.07228,-0.2402 -3.93529,-1.43684 -5.75925,-2.44938c-0.89998,-0.49961 -2.12143,-0.45119 -2.85755,-1.1707c-1.14485,-1.11902 -3.03223,-2.57 -2.52182,-4.08735c0.5364,-1.59463 2.96244,-1.68626 4.59742,-2.08299c3.65773,-0.88756 4.83917,0.42689 8.26561,-0.99505c6.06266,-1.52913 15.23129,-3.50984 18.32568,-9.76446c0.52896,-1.06915 0.75649,-2.28533 0.8483,-3.52899c-0.15986,-0.14599 -0.2979,-0.31547 -0.40868,-0.50297c-0.61662,-0.1561 -1.12856,-0.57494 -1.40974,-1.13041c-0.66711,-0.2847 -1.05573,-0.86763 -1.05573,-0.86763zM185.1459,196.84748c-3.78362,7.51519 -13.4645,10.19414 -20.92144,12.0395c-1.72947,0.67035 -3.6552,1.22888 -5.59825,1.39454c0.24755,0.18159 0.54245,0.36249 0.91149,0.53655c1.10724,0.52224 3.48621,0.35738 4.56104,0.3552c3.71565,-0.00753 6.41593,-0.46986 10.09048,-1.07386c0.64018,-0.10523 1.31554,0.19561 1.94585,0.04199c3.34015,-0.81406 7.81912,-3.18465 10.73141,-5.13833c1.43527,-0.96283 3.47727,-2.97745 5.33948,-3.08346c3.92861,-0.22363 3.83229,1.09765 5.3632,3.74653c0.74306,0.98786 1.09009,2.521 2.25027,2.9476c1.77327,0.65203 5.55034,-1.67336 6.60546,-2.26812c1.42011,-0.80052 5.96586,-3.67655 7.33033,-4.52196c1.3466,-0.83436 2.53163,-2.03264 4.04873,-2.48863c1.56955,-0.47176 3.48203,-1.00475 4.91247,-0.20483c1.00253,0.56063 0.38567,2.27288 0.7397,3.3656c0.4686,1.44639 2.15347,4.95619 3.61826,5.57286c1.1699,0.49253 2.54388,-0.00628 3.80512,-0.14963c2.35269,-0.2674 4.31938,-1.91653 6.30349,-3.01789c2.14677,-1.19164 4.41894,-2.21126 6.61531,-3.30945c2.37984,-1.18993 7.52729,-4.50628 10.08774,-3.28956c3.24534,1.54218 2.15265,8.71306 6.29448,9.71245c1.01365,0.24458 2.0837,-0.08991 3.12621,-0.11189c4.26326,-0.08989 7.6712,-0.46893 11.74634,-2.03187c2.57941,-0.98929 4.61988,-3.29592 7.3176,-3.89117c6.66167,-1.46989 4.43141,3.90564 8.82993,6.22714c2.7873,1.47112 6.75119,0.0538 9.58248,-0.29988c1.48448,0.06413 2.85148,-0.86494 4.20699,-1.47354c2.83946,-1.27486 4.32518,-0.54642 6.00266,-3.99604c1.18713,-2.44125 -0.25157,-5.8793 1.41864,-8.01923c0.75038,-0.96141 2.37779,-0.54379 3.56782,-0.81061c2.59771,-0.58244 9.09815,-1.20685 9.50823,-4.65053c0.33787,-2.83731 -0.14004,-7.46187 -1.46301,-10.09772c-1.48563,-2.95993 -4.66931,-4.50856 -6.5717,-6.94381c-0.02498,-0.03197 -0.04964,-0.06414 -0.07402,-0.09649l-0.0136,0.0136l-1.6353,-1.6353c-0.39456,-0.39456 -0.6386,-0.93964 -0.6386,-1.54173c0,-1.20416 0.97617,-2.18033 2.18033,-2.18033h1.07501c0.60748,-5.39654 -2.34622,-10.11768 -7.79603,-10.90955c-2.94381,0.00707 -6.13242,-0.51856 -8.96113,0.44677c-3.84059,1.31064 -7.18672,4.26323 -11.35795,4.45594c-1.36479,0.06306 -2.89675,0.35645 -4.0866,-0.31502c-1.32023,-0.74504 -1.91784,-3.66712 -2.80291,-4.94063c-0.83304,-1.19866 -3.35981,-2.66403 -4.23148,-3.20477c-2.26864,-1.40733 -5.03231,-0.79565 -7.62722,-0.79565c-6.27209,0 -13.58626,-1.08428 -19.69032,0.49198c-2.28754,0.44006 -4.57583,1.20464 -6.73025,2.06754c-1.26525,0.50677 -2.31102,1.8681 -3.67219,1.79837c-1.36918,-0.07014 -2.39426,-1.3505 -3.49663,-2.16559c-2.20885,-1.63323 -3.796,-3.70056 -6.70376,-4.43103c-1.07179,-0.26924 -2.20972,0.04765 -3.31476,0.05833c-3.99638,0.03859 -8.24583,0.17634 -12.12496,1.05086c-0.95453,0.21519 -1.77034,0.8778 -2.7255,1.0902c-1.61976,0.36018 -2.12063,-0.59407 -3.37607,0.62316c-0.6205,0.60161 -0.88778,1.51643 -1.53398,2.09035c-0.96485,0.8569 -2.31094,1.22956 -3.22722,2.13821c-1.80324,1.78821 -2.98688,4.12241 -4.70732,5.99041c-3.04071,-0.72353 -5.87105,-1.91344 -8.78243,-2.68465c-2.18358,-0.57841 -5.39054,0.05833 -7.67554,0.05833c-1.72146,0 -3.50263,-0.6252 -5.16171,-0.16597c-2.30926,0.6392 -1.93224,5.20512 -1.92464,6.70555c0.02527,4.99149 0.74632,10.37175 2.5788,15.02333c0.12906,0.32759 1.03867,1.73617 1.91072,3.05514c0.41077,1.02977 1.01215,1.96285 1.76053,2.75569c0.49755,0.16885 0.91442,0.51246 1.17748,0.95773c0.50586,0.12807 0.94127,0.43295 1.23661,0.84504c0.37003,0.18705 0.7552,0.3485 1.15319,0.48203c-0.00245,2.64659 -0.12283,5.44741 -1.30737,7.80018z" fill="#000000" stroke-width="0.5"/><path d="M186.41022,189.05427c-0.39798,-0.13353 -0.78323,-0.29548 -1.15326,-0.48252c-0.29534,-0.41209 -0.73086,-0.71773 -1.23673,-0.8458c-0.26306,-0.44528 -0.68003,-0.78968 -1.17758,-0.95853c-0.74838,-0.79283 -1.34994,-1.72801 -1.76071,-2.75777c-0.87205,-1.31898 -1.78175,-2.72976 -1.91081,-3.05734c-1.83249,-4.65158 -2.55256,-10.04165 -2.57783,-15.03315c-0.0076,-1.50043 -0.38343,-6.07074 1.92583,-6.70994c1.65908,-0.45923 3.44058,0.165 5.16205,0.165c2.28501,0 5.49271,-0.63869 7.67629,-0.06027c2.91137,0.77121 5.74202,1.96038 8.78273,2.68391c1.72044,-1.868 2.9075,-4.20862 4.71074,-5.99683c0.91629,-0.90865 2.26445,-1.28426 3.2293,-2.14116c0.64621,-0.57391 0.91514,-1.49077 1.53565,-2.09238c1.25544,-1.21723 1.75826,-0.26508 3.37802,-0.62526c0.95516,-0.2124 1.77311,-0.87703 2.72764,-1.09222c3.87913,-0.87451 8.1392,-1.01916 12.13558,-1.05776c1.10504,-0.01067 2.2467,-0.32908 3.31849,-0.05984c2.90776,0.73046 4.50257,2.79586 6.71141,4.42909c1.10236,0.81508 2.13298,2.09494 3.50216,2.16507c1.36118,0.06973 2.4131,-1.29135 3.67835,-1.79812c2.15442,-0.8629 4.45194,-1.62542 6.73948,-2.06548c6.10406,-1.57625 13.43525,-0.48126 19.70735,-0.48126c2.59491,0 5.36222,-0.60747 7.63086,0.79987c0.87168,0.54074 3.40104,2.00995 4.23408,3.2086c0.88506,1.27351 1.48506,4.20014 2.80529,4.94517c1.18986,0.67147 2.72247,0.37959 4.08726,0.31654c4.17124,-0.19271 7.5174,-3.14521 11.35799,-4.45585c2.8287,-0.96533 6.01795,-0.43805 8.96175,-0.44512c5.44981,0.79187 8.40539,5.52006 7.7979,10.91659l-1.07502,-0.0001c-1.20416,0 -2.18015,0.97719 -2.18015,2.18135c0,0.60208 0.24418,1.14811 0.63874,1.54267l1.63543,1.63634l0.0136,-0.01361c0.02438,0.03236 0.04905,0.06458 0.07403,0.09655c1.90239,2.43525 5.08631,3.98792 6.57194,6.94786c1.32297,2.63585 1.80064,7.26568 1.46276,10.10299c-0.41008,3.44369 -6.91099,4.07134 -9.5087,4.65378c-1.19003,0.26682 -2.8176,-0.14994 -3.56798,0.81147c-1.67022,2.13993 -0.23277,5.58272 -1.4199,8.02397c-1.67747,3.44962 -3.16447,2.72457 -6.00392,3.99943c-1.35551,0.6086 -2.72333,1.5395 -4.20781,1.47537c-2.83129,0.35368 -6.79674,1.77399 -9.58405,0.30287c-4.39852,-2.32151 -2.16779,-7.69787 -8.82946,-6.22798c-2.69773,0.59525 -4.74217,2.90792 -7.32158,3.89721c-4.07514,1.56295 -7.49098,1.94978 -11.75425,2.03967c-1.04251,0.02198 -2.1153,0.35839 -3.12895,0.11381c-4.14184,-0.99939 -3.04918,-8.17025 -6.29452,-9.71243c-2.56045,-1.21673 -7.72811,2.10645 -10.10795,3.29638c-2.19637,1.09819 -4.48042,2.11711 -6.62719,3.30875c-1.98412,1.10135 -3.95861,2.74815 -6.31131,3.01556c-1.26123,0.14335 -2.63953,0.64014 -3.80943,0.14761c-1.4648,-0.61667 -3.1569,-4.13136 -3.62551,-5.57775c-0.35402,-1.09272 0.25962,-2.80791 -0.74291,-3.36854c-1.43044,-0.79992 -3.346,-0.27041 -4.91555,0.20135c-1.5171,0.45599 -2.70255,1.65373 -4.04916,2.48808c-1.36447,0.84542 -5.91074,3.72075 -7.33085,4.52127c-1.05512,0.59477 -4.83322,2.91869 -6.60649,2.26666c-1.16018,-0.4266 -1.50888,-1.96241 -2.25194,-2.95027c-1.53091,-2.64889 -1.43673,-3.9744 -5.36534,-3.75077c-1.86221,0.10601 -3.82455,2.08515 -5.25981,3.04798c-2.91229,1.95369 -7.47067,4.36034 -10.81082,5.1744c-0.63032,0.15362 -1.30588,-0.14768 -1.94606,-0.04245c-3.67456,0.604 -6.37546,1.06485 -10.09111,1.07238c-1.07483,0.00218 -3.45416,0.16611 -4.5614,-0.35613c-0.36904,-0.17406 -0.58209,-0.38505 -0.82963,-0.56664c1.94306,-0.16565 3.86868,-0.72448 5.59815,-1.39483c7.45694,-1.84537 17.05511,-4.49681 20.83873,-12.01201c1.18454,-2.35276 1.30369,-5.15897 1.30614,-7.80555z" data-paper-data="{&quot;noHover&quot;:false,&quot;origItem&quot;:[&quot;Path&quot;,{&quot;applyMatrix&quot;:true,&quot;segments&quot;:[[[164.0262,199.31758],[1.35821,-2.69772],[-4.33836,8.61705]],[[140.03732,213.12228],[8.55025,-2.11593],[-1.98304,0.76864]],[[133.61827,214.72128],[2.22794,-0.18994],[0.28384,0.20821]],[[134.6634,215.3365],[-0.42315,-0.19958],[1.26958,0.59881]],[[139.89317,215.74378],[-1.23242,0.0025],[4.26043,-0.00863]],[[151.46309,214.51247],[-4.21331,0.69256],[0.73404,-0.12066]],[[153.69424,214.56062],[-0.72273,0.17614],[3.82987,-0.93341]],[[165.99906,208.66892],[-3.33928,2.24013],[1.6457,-1.104]],[[172.1214,205.13337],[-2.13524,0.12155],[4.50461,-0.25642]],[[178.27094,209.42921],[-1.75537,-3.03726],[0.852,1.1327]],[[180.85114,212.80898],[-1.33028,-0.48915],[2.03326,0.74763]],[[188.42507,210.20831],[-1.20982,0.68197],[1.62832,-0.91789]],[[196.83015,205.02335],[-1.56452,0.96937],[1.54404,-0.95669]],[[201.47249,202.16984],[-1.73953,0.52285],[1.79967,-0.54093]],[[207.10521,201.93498],[-1.64017,-0.9172],[1.14952,0.64283]],[[207.95336,205.79403],[-0.40593,-1.25293],[0.53731,1.65845]],[[212.10212,212.18397],[-1.67956,-0.70709],[1.34143,0.56474]],[[216.46513,212.0124],[-1.44615,0.16437],[2.69764,-0.30661]],[[223.69282,208.55204],[-2.27502,1.26283],[2.46152,-1.36636]],[[231.27805,204.75737],[-2.5184,1.2592],[2.72877,-1.36439]],[[242.84482,200.98551],[-2.93585,-1.39512],[3.72116,1.76829]],[[250.06218,212.12197],[-4.7491,-1.14592],[1.16227,0.28044]],[[253.64675,211.99368],[-1.19536,0.0252],[4.88833,-0.10307]],[[267.1153,209.6639],[-4.67262,1.7921],[2.9576,-1.13434]],[[275.50579,205.20222],[-3.09326,0.68252],[7.63838,-1.6854]],[[285.63034,212.34237],[-5.04342,-2.66188],[3.19597,1.68681]],[[296.61777,211.99852],[-3.2464,0.40554],[1.70213,0.07353]],[[301.44158,210.30893],[-1.55425,0.69783],[3.25577,-1.46178]],[[308.32433,205.727],[-1.92342,3.95539],[1.36118,-2.79918]],[[309.95097,196.53202],[-1.9151,2.45368],[0.8604,-1.10237]],[[314.04189,195.60256],[-1.36451,0.30594],[2.97858,-0.66783]],[[324.94419,190.27018],[-0.47021,3.94859],[0.38741,-3.25331]],[[323.26668,178.69196],[1.51694,3.02231],[-1.70345,-3.39391]],[[315.73146,170.73007],[2.18131,2.7923],[-0.02864,-0.03666]],[[315.64659,170.61943],[0.02795,0.0371],[0,0]],[315.631,170.63502],[[313.75594,168.75996],[0,0],[-0.45241,-0.45241]],[[313.02371,166.99219],[0,0.69036],[0,-1.38071]],[[315.52371,164.49219],[-1.38071,0],[0,0]],[[316.75633,164.49219],[0,0],[0.69655,-6.18776]],[[307.81727,151.98312],[6.24884,0.90797],[-3.37542,0.00811]],[[297.54229,152.49539],[3.24344,-1.10686],[-4.40368,1.5028]],[[284.51907,157.60465],[4.78281,-0.22097],[-1.56489,0.0723]],[[279.8333,157.24344],[1.36431,0.76992],[-1.5138,-0.85427]],[[276.61944,151.57843],[1.01483,1.46023],[-0.95518,-1.3744]],[[271.76755,147.90379],[0.99948,0.62002],[-2.60126,-1.61367]],[[263.02205,146.99148],[2.97537,0],[-7.19169,0]],[[240.44479,147.55559],[6.99902,-1.80736],[-2.62293,0.50458]],[[232.72777,149.92627],[2.47029,-0.98942],[-1.45076,0.58107]],[[228.51717,151.98831],[1.56075,0.07995],[-1.56993,-0.08042]],[[224.50788,149.5052],[1.26399,0.93459],[-2.5327,-1.87269]],[[216.82123,144.42452],[3.33409,0.83756],[-1.22893,-0.30872]],[[213.02047,144.4914],[1.26706,-0.01224],[-4.58232,0.04425]],[[199.11778,145.69633],[4.44788,-1.00273],[-1.09448,0.24674]],[[195.99268,146.94636],[1.0952,-0.24354],[-1.85724,0.41299]],[[192.12162,147.6609],[1.43951,-1.3957],[-0.71148,0.68982]],[[190.36273,150.05773],[0.74095,-0.65806],[-1.10631,0.98254]],[[186.66234,152.50944],[1.05063,-1.04187],[-2.06762,2.05039]],[[181.26485,159.37814],[1.97268,-2.14188],[-3.48653,-0.82961]],[[171.19477,156.29988],[3.33823,0.88428],[-2.50373,-0.66322]],[[162.39386,156.36676],[2.62003,0],[-1.97386,0]],[[156.47535,156.17647],[1.90233,-0.52656],[-2.64784,0.73292]],[[154.26852,163.86516],[-0.00871,-1.72042],[0.02897,5.72333]],[[157.22542,181.09117],[-2.10116,-5.33358],[0.14798,0.37562]],[[159.41628,184.59425],[-0.99991,-1.51236],[0.471,1.18075]],[[161.43494,187.75396],[-0.8581,-0.90907],[0.5705,0.19361]],[[162.78506,188.85212],[-0.30163,-0.51056],[0.58003,0.14685]],[[164.20298,189.82106],[-0.33864,-0.47251],[0.42428,0.21447]],[[165.52525,190.37376],[-0.45633,-0.15311],[-0.00281,3.03462]]],&quot;closed&quot;:true}]}" fill="#ffffff" stroke-width="0.5"/><text transform="translate(196.62002,174.96893) scale(0.43607,0.43607)" font-size="40" xml:space="preserve" fill="#000000" fill-rule="nonzero" stroke="none" stroke-width="1" stroke-linecap="butt" stroke-linejoin="miter" stroke-miterlimit="10" stroke-dasharray="" stroke-dashoffset="0" font-family="Sans Serif" font-weight="normal" text-anchor="start" style="mix-blend-mode: normal"><tspan x="0" dy="0">𝐖𝐡𝐚𝐭 𝐰𝐨𝐮𝐥𝐝</tspan><tspan x="0" dy="46.15px">  𝐛𝐞 𝐮𝐬𝐞𝐟𝐮𝐥?</tspan></text></g></g></svg>