<svg version="1.1" xmlns="http://www.w3.org/2000/svg" xmlns:xlink="http://www.w3.org/1999/xlink" width="92.4424" height="104.29984" viewBox="0,0,92.4424,104.29984"><g transform="translate(-219.64691,-72.83697)"><g data-paper-data="{&quot;isPaintingLayer&quot;:true}" fill="#000000" fill-rule="nonzero" stroke="none" stroke-width="0.5" stroke-linecap="butt" stroke-linejoin="miter" stroke-miterlimit="10" stroke-dasharray="" stroke-dashoffset="0" style="mix-blend-mode: normal"><path d="M277.8557,116.48525c2.96702,0.38868 5.63861,1.13185 8.53215,1.79818c2.43325,0.56034 5.03281,0.06819 7.31017,1.31853c3.14392,1.72612 4.55446,5.6004 5.04008,8.92125c0.60345,4.28819 -1.48006,6.87192 -3.08259,10.65513c-0.80363,1.89718 -0.45859,3.88887 -2.1276,5.45874c-0.8572,0.80628 -2.25805,1.37102 -3.1936,2.19431c-1.20965,1.0645 -1.32959,2.61445 -3.01989,3.24813c-1.12521,0.42183 -3.29813,0.07026 -4.52515,0.06732c-3.64299,0.47757 -5.61794,4.74794 -8.61492,6.60606c-1.77448,1.10017 -6.08644,0.07061 -7.00144,1.78955c-1.67863,3.15353 1.25727,4.44505 0.22577,7.75488c-1.66003,2.12313 -2.73095,5.65288 -4.98307,7.22799c-1.393,0.97425 -3.76732,0.46245 -5,1.4c-2.19473,1.66926 -4.1324,2.95335 -7.21129,1.72189c-2.69228,-1.07682 -4.26764,-3.74615 -6.23508,-5.71359c-0.39388,-0.49092 -1.40293,-2.28112 -2.1451,-2.41462c-1.04654,-0.18825 -2.26182,0.77948 -3.18065,0.24428c-0.86016,-0.50102 -0.59673,-1.93328 -1.16818,-2.74835c-1.36595,-1.94827 -5.2807,-2.71215 -7.46327,-2.8681c-1.01251,-0.07235 -2.59698,-0.23871 -3.53803,0.26389c-1.29578,0.69206 -1.32575,1.88541 -3.43362,1.05143c-1.85904,-0.73552 -1.53405,-2.12855 -1.58974,-3.56218c0,-0.32794 0.33474,-3.54732 0.18669,-3.74284c-0.23472,-0.30996 -0.83665,-0.13573 -1.081,-0.43816c-1.03994,-1.28712 -1.27415,-4.03346 -0.24907,-5.37774c1.70554,-2.23663 6.93126,-3.10024 9.42067,-3.8344c2.18144,-0.64333 3.3068,-3.00605 5.21369,-3.92489c0.85412,-0.41156 2.41708,-0.32998 3.35902,-0.33197c1.46378,0.00351 4.19148,-0.04918 5.17466,-1.46496c1.37954,-1.98654 0.0102,-4.51429 2.14146,-6.56892c1.46446,-1.4118 5.04649,-0.81323 6.05854,-2.43108c1.61047,-2.57448 0.82439,-5.39162 3.19169,-7.81645c1.9548,-1.48487 4.61913,-0.77964 6.38892,-2.38996c2.11473,-1.92418 2.8775,-4.59154 5.69554,-6.00152c1.53544,-0.76824 3.66828,-0.68854 5.11528,-1.55444c1.03704,-0.62058 1.04077,-1.93086 2.48832,-1.84421l-0.01709,-0.12528c-0.71182,-2.96997 -3.41303,-3.2102 -4.82738,-5.44313c-0.88812,-1.40212 -0.3766,-4.42046 -0.3766,-6.0267c0,-4.64662 -0.32929,-9.43631 0.18638,-14.05444c0.67633,-2.71134 2.30835,-3.84647 3.44468,-6.16943c0.67795,-1.3859 1.29685,-4.08924 2.38158,-5.1394c1.93031,-1.8688 3.73589,0.2134 5.59234,-0.62492c0.77551,-0.3502 1.10607,-1.34588 1.84994,-1.75903c0.42846,-0.23797 0.84878,-0.39523 1.26835,-0.49831c0.44759,-0.68773 1.3299,-0.46715 1.3299,-0.46715l1.14069,0.28517c0.29005,0.00477 0.58586,0.01084 0.88947,0.01084c0,0 1.09997,0 1.23621,1.03185c2.00009,1.64101 2.61932,4.63555 3.25699,7.25212c0.48766,1.44384 5.36002,0.12535 6.83799,1.07398c1.73746,1.1152 0.89405,2.46766 2.05268,3.67484c1.38624,1.44433 3.77755,-0.03425 5.05039,2.2919c0.94301,1.72338 -0.30304,3.92625 0.39677,5.63728c0.54274,1.32699 1.94472,1.32658 2.57299,2.25811c0.49239,0.73005 0.53627,1.67754 0.80439,2.51631c-0.73684,0.77122 -3.48055,2.55592 -3.86642,3.60582c-0.15013,0.4085 -0.36793,1.0537 -0.01301,1.30558c2.00881,1.42562 5.32085,-1.70829 6.2288,2.51755c0.14454,0.67271 0.18253,1.42282 -0.06962,2.06302c-1.50979,3.8333 -7.64541,4.52502 -10.76432,6.30725c-2.5802,1.06103 -5.61711,0.63106 -8.39053,0.63106c-5.0417,0 -10.95351,0.79033 -15.97165,-0.15582c0.27788,0.53563 0.5897,1.0436 1.07669,1.30774zM279.27981,119.23755c-0.46307,0.21877 -0.97444,0.04831 -0.97444,0.04831l-1.28307,-0.431c-0.00899,-0.00481 -0.01799,-0.00963 -0.027,-0.01444c-0.08009,-0.03315 -0.16671,-0.07664 -0.25163,-0.13339c-1.12496,-0.5945 -2.34361,-1.24949 -2.28205,-2.65027c-0.00884,0.02327 -0.01884,0.04299 -0.03008,0.0573c-0.31444,0.40057 -0.65498,0.81037 -1.09698,1.06329c-1.56907,0.89782 -3.66889,0.83839 -5.28472,1.64556c-2.52629,1.26197 -3.16765,3.86651 -5.10446,5.59848c-1.94127,1.73597 -4.68554,0.88892 -6.41108,2.41004c-2.11068,2.03352 -1.15745,5.13972 -2.80831,7.38355c-1.6321,2.21833 -4.75968,1.07736 -6.34146,2.76892c-1.70777,1.82631 -0.47416,4.26037 -1.85854,6.23108c-1.52834,2.17564 -4.85004,2.53002 -7.22534,2.53504c-3.41909,-0.0082 -4.60091,3.11937 -7.82729,4.14314c-2.168,0.68793 -6.56911,1.20381 -8.17933,2.9656c-1.27749,1.39775 1.18185,2.44474 1.46993,2.98409c0.56698,1.06153 0.18669,3.84029 0.18669,5.05716c-0.02941,0.41157 -0.39908,1.18587 0.01026,1.23782c0.45749,0.05806 2.63465,-1.39074 3.16637,-1.47574c1.86413,-0.29799 4.23556,-0.00797 6.06057,0.42136c2.03144,0.47789 5.09909,1.72996 6.33815,3.5016c0.40054,0.5727 -0.22555,1.8144 0.43182,2.05165c0.77831,0.2809 1.61716,-0.75863 2.41935,-0.55572c1.59849,0.40434 2.51404,2.0055 3.4549,3.18538c1.72746,1.72746 3.06774,4.06616 5.36492,5.08641c2.4204,1.07498 3.20579,-0.42188 4.78871,-1.47811c1.45092,-0.96814 3.59967,-0.41821 5,-1.4c1.87163,-1.31222 2.77152,-4.61442 4.21693,-6.37201c0.60855,-1.54341 -0.52769,-1.11156 -1.05682,-2.52429c-0.563,-1.50316 0.08761,-4.02104 0.8826,-5.32083c1.789,-2.92498 4.2725,-1.36049 6.89954,-2.15067c2.07416,-0.62388 2.86261,-2.73958 4.38686,-3.97894c1.90729,-1.5508 3.81222,-3.1004 6.29724,-3.47477c1.10212,-0.00233 2.81026,0.31771 3.87485,0.06732c0.51583,-0.12132 1.78293,-2.38813 2.18011,-2.75187c0.97245,-0.89059 2.24833,-1.40486 3.2064,-2.20569c1.15001,-0.96126 0.94815,-3.26616 1.4724,-4.54126c1.37654,-3.34802 3.45606,-5.63716 2.91741,-9.34487c-0.3453,-2.48593 -1.35463,-5.77999 -3.75992,-7.07875c-1.9958,-1.07765 -4.53004,-0.58217 -6.68983,-1.08147c-2.2377,-0.51731 -4.32233,-1.08001 -6.53365,-1.47901zM292.75066,112.83334c2.22164,0 5.25228,0.5585 7.27614,-0.36895c2.61863,-1.49636 8.00905,-2.10273 9.56901,-5.02608c0.92692,-1.73705 -4.84201,-1.12709 -5.50748,-1.75276c-2.67906,-2.5188 0.61644,-6.60626 3.12058,-7.42193c-1.27884,-0.98299 -2.59441,-1.46588 -3.28928,-3.22559c-0.66807,-1.69185 0.33539,-3.75379 -0.2699,-5.36272c-0.31729,-0.84337 -3.81538,-0.92101 -4.61628,-1.7081c-0.74284,-0.73004 -0.78409,-2.87148 -1.61398,-3.32515c-1.89211,-1.03435 -4.79919,0.78251 -6.69551,-0.51866c-0.57088,-0.39171 -0.75544,-1.16045 -1.13316,-1.74068c-0.55058,-2.1533 -1.07309,-6.26258 -3.47663,-6.75337l-0.06748,-0.01687c-0.70333,-0.01864 -1.40722,0.02908 -2.00094,0.38474c-0.60771,0.36405 -1.66859,1.70649 -2.15006,1.90763c-0.59857,0.25007 -4.44527,-0.42763 -4.74099,0.04175c-0.81939,1.3006 -1.23598,3.11993 -1.95175,4.52726c-1.09044,2.14397 -2.61578,3.07915 -3.22198,5.49724c-0.49313,4.46527 -0.14696,9.1196 -0.14696,13.61223c0,0.81332 -0.50465,4.03287 -0.04327,4.63996c0.48393,0.63675 1.44098,0.74797 2.01048,1.30949c1.55467,1.5329 2.6035,2.74949 3.16213,4.91405l0.03486,0.23547c4.83988,1.05154 10.8483,0.15103 15.75246,0.15103z"/></g></g></svg>