<svg version="1.1" xmlns="http://www.w3.org/2000/svg" xmlns:xlink="http://www.w3.org/1999/xlink" width="32.25807" height="32.90084" viewBox="0,0,32.25807,32.90084"><g transform="translate(3.31822,-420.16342)"><g data-paper-data="{&quot;isPaintingLayer&quot;:true}" fill="#000000" fill-rule="nonzero" stroke="none" stroke-width="0.5" stroke-linecap="butt" stroke-linejoin="miter" stroke-miterlimit="10" stroke-dasharray="" stroke-dashoffset="0" style="mix-blend-mode: normal"><path d="M-3.20861,427.82138c-0.46424,-1.1606 0.69636,-1.62483 0.69636,-1.62483l0.61951,-0.24315c1.44796,-0.71123 2.66659,-2.22077 4.22535,-2.65804c1.78304,-0.50018 3.81059,1.51014 5.32549,0.32743c1.8318,-1.43012 2.35198,-4.08752 5.35278,-3.32434c1.75718,0.44689 2.52418,2.15902 3.50505,3.44168c2.03341,2.65905 3.24021,4.55071 4.25244,7.74148c0.4338,0.5446 0.5714,1.50865 1.24739,1.67539c2.04326,0.50398 4.08599,-1.02019 5.49347,1.94865c0.91402,1.92796 0.75489,5.6989 -0.69366,7.29809c-0.25849,0.28537 -0.82908,0.07641 -1.10118,0.34884c-0.52884,0.52948 0.2815,1.47303 0.34075,2.21902c0.20935,2.63575 0.84228,3.99849 2.56021,6.00064c0,0 0.81349,0.94907 -0.13558,1.76256c-0.94907,0.81349 -1.76256,-0.13558 -1.76256,-0.13558c-2.03849,-2.38059 -2.90184,-4.29578 -3.15408,-7.42794c-0.06275,-0.77921 -0.36333,-3.07677 0.05503,-3.78098c0.28448,-0.47886 1.05146,-0.42679 1.47025,-0.79401c0.77119,-0.67624 0.48224,-3.58484 0.16348,-4.4162c-0.67125,-1.75071 -2.89877,-0.2743 -3.9351,-0.62278c-0.94404,-0.31744 -2.19228,-2.16346 -2.75261,-2.89604c-1.06451,-3.09575 -2.02579,-4.77618 -4.03328,-7.40137c-0.63819,-0.83457 -1.14873,-2.11397 -2.20923,-2.55832c-0.91754,-0.38444 -3.78396,3.52384 -5.19474,3.75042c-1.44055,0.23136 -2.86188,-1.17695 -4.12699,-0.74734c-1.31586,0.44684 -2.50176,1.83914 -3.77465,2.48482l-0.80906,0.32828c0,0 -1.1606,0.46424 -1.62483,-0.69636z"/></g></g></svg>