<svg version="1.1" xmlns="http://www.w3.org/2000/svg" xmlns:xlink="http://www.w3.org/1999/xlink" width="195.88129" height="104.85374" viewBox="0,0,195.88129,104.85374"><g transform="translate(-122.75169,-247.4252)"><g data-paper-data="{&quot;isPaintingLayer&quot;:true}" fill="#000000" fill-rule="nonzero" stroke="none" stroke-width="0.5" stroke-linecap="butt" stroke-linejoin="miter" stroke-miterlimit="10" stroke-dasharray="" stroke-dashoffset="0" style="mix-blend-mode: normal"><path d="M244.94638,261.07138l-0.69987,0.60915c-5.27692,2.62452 -10.99241,1.54406 -16.63426,2.24469c-2.35702,0.29271 -3.67534,1.88417 -6.29976,1.88728c0,0 -1.25,0 -1.25,-1.25c0,-0.13957 0.01558,-0.26355 0.04327,-0.37369c-0.04619,-0.26859 -0.09428,-0.53572 -0.18061,-0.77358c0.0083,-0.85381 1.48311,-4.39229 1.19468,-4.90812c-0.35056,-0.62693 -4.27151,-1.29187 -4.73571,-1.04417c-0.53367,0.28476 -0.75977,1.27069 -1.36061,1.20076c-0.79096,-0.09206 -1.24041,-1.00385 -1.8016,-1.56879c-1.2238,-1.23199 -2.50915,-2.36922 -3.82697,-3.54646c-1.87313,-1.67332 -4.98776,-1.76447 -7.26657,-2.67973c-0.52123,-0.08436 -2.92746,-0.86858 -3.46,-0.58331c-2.18284,1.16931 -4.20846,2.57573 -6.41512,3.72708c0.00501,0.09464 0.00054,0.19718 -0.01533,0.30828c-0.17677,1.23744 -1.41421,1.06066 -1.41421,1.06066c-0.48254,-0.07004 -0.9387,-0.11146 -1.37175,-0.12518c-0.0028,0.001 -0.00559,0.002 -0.00839,0.00301c-0.00054,-0.0011 -0.00108,-0.00221 -0.00162,-0.00331c-3.52314,-0.10821 -5.51693,1.61959 -7.76445,4.68644c-0.49866,0.68045 -2.07163,3.34413 -2.01198,3.95045c0.01931,0.19624 0.34842,-0.20597 0.54376,-0.23303c0.95807,-0.13272 1.70986,0.07785 2.65823,0.23564l0.08391,0.05746l0.01005,-0.03017l1.2378,0.4126c0.51078,0.15708 0.88206,0.63267 0.88206,1.19497c0,0.47328 -0.26304,0.88514 -0.6509,1.09734l-1.45493,0.83139l-0.16952,-0.29665c-3.57745,2.18662 -7.38361,2.07094 -11.7465,3.16564c-4.46796,1.12106 -8.5268,3.20657 -12.8623,4.63886c-1.2956,0.21555 -3.07769,0.53755 -4.38394,0.21428c-1.11061,-0.27486 -4.21183,-2.72355 -5.49705,-1.98765c-1.98323,1.13558 -3.33898,4.68966 -5.23793,6.17118c-2.3424,1.82748 -7.26164,2.57005 -10.11586,3.38494c-0.02705,0.00903 -0.05398,0.01799 -0.08076,0.02691c-2.21334,1.4934 -6.77645,0.64655 -7.50832,3.62522c-0.63833,2.59797 1.86487,3.23594 2.8612,5.22988c1.2621,2.52583 0.993,6.47617 0.65546,9.17643c0.00081,0.80744 0.00161,1.61489 0.00241,2.42233v0.11208c0,0 0,0.33661 -0.17468,0.66048l0.07131,0.93144c0.34662,0.71985 2.07344,-0.19818 2.79748,-0.02227c1.33784,0.32504 2.00321,1.49581 2.77497,2.46021c0.22541,1.48571 0.72767,3.91223 -0.08331,5.33424c-0.17771,0.3116 -0.80499,0.66327 -1.30543,0.85971c0.44544,0.34933 0.88868,1.25747 0.95743,1.79115c0.14283,1.10884 -0.79545,2.09432 -1.30185,3.09106c-0.34054,0.67027 0.36888,4.84673 0.66508,5.49977c0.43163,0.95162 2.09088,-0.15357 3.13363,-0.08601c2.24831,0.14567 4.03478,0.91006 5.94948,2.03099c0.47798,0.55917 0.53717,1.58546 1.23018,1.83218c0.58868,0.20957 0.98314,-0.77935 1.52601,-1.0888c0.58594,-0.334 1.38772,-0.44452 1.75199,-1.01214c0.22873,-0.35643 -0.53517,-1.11811 -0.59331,-1.1977c-1.033,-1.41408 -2.16124,-2.42439 -2.30864,-4.29163c-0.13645,-1.72856 1.09046,-3.46497 0.42446,-5.21193c-0.40179,-1.05393 -1.36972,-2.11795 -1.07793,-3.20748c0.39827,-1.48713 3.45902,-3.19159 4.69061,-4.01504c2.90025,-1.93111 5.27522,-2.2996 8.70377,-2.2996c1.96186,0 4.13057,-0.5708 4.87992,2.03643c0.74363,2.58733 -3.5437,5.99205 -3.29948,8.60388c0.01605,0.17169 0.21175,-0.2971 0.37283,-0.35865c0.44584,-0.17037 0.93339,-0.20086 1.39623,-0.31735c1.55625,-0.39168 2.87946,-0.38667 4.48675,-0.38667c2.17548,0 5.70474,0.98495 7.65986,0.11545c1.65259,-0.73496 0.92508,-2.44925 1.6876,-3.81101c1.20955,-2.16013 3.16932,-4.005 5.04002,-5.8396c0.07084,-0.53706 0.54342,-0.87461 0.54342,-0.87461c0.54209,-0.38684 2.06445,-1.52052 2.60662,-1.66751c1.70861,-0.46323 2.8841,0.44694 4.40831,0.89317c1.44412,0.42278 2.96812,0.59692 4.2311,1.51902c1.22595,0.89508 1.87308,2.01958 2.06006,3.19788c0.85005,0.71806 0.17919,1.65726 0.17919,1.65726c-1.12954,1.37746 -0.56692,3.39576 -1.967,4.94594c-0.75921,0.8406 -2.15935,1.0768 -3.27763,0.89669c-0.64155,-0.10332 -2.53708,-0.05698 -1.93937,0.19796c2.20038,0.93853 5.50564,1.15765 7.97684,1.17679c-0.02777,-0.05358 -0.05585,-0.10677 -0.08425,-0.15958c1.27101,-0.03099 3.19334,-0.07269 3.86391,0.29955c0.63291,0.35133 1.03396,1.05309 1.33947,1.70935c0.20215,0.43422 -0.27608,1.57329 0.17956,1.42565c2.27626,-0.73757 3.04336,-3.47348 4.37428,-5.06025c1.35217,-1.61211 3.49973,-2.42377 4.4038,-4.43728c0.61281,-1.36484 -0.18338,-2.92436 0.40327,-4.193c0.36858,-0.79706 1.15011,-1.32736 1.72517,-1.99104c0.84117,0.29235 1.87038,0.2717 2.52352,0.87705c0.60011,0.55621 0.06028,1.70925 0.49068,2.40514c0.23013,0.37209 0.83237,-0.28848 1.26608,-0.34605c0.64095,-0.08508 1.3344,-0.18877 1.93931,0.03957c0.69565,0.26259 1.37643,0.72796 1.76817,1.35995c0.41352,0.66713 -0.19797,1.74691 0.32504,2.33217c0.72714,0.81367 1.66093,1.6847 1.73989,2.77308c0.14402,1.98531 -1.70249,3.83296 -2.73057,5.35692c-0.36133,0.53561 -1.39707,1.95514 -1.05321,2.72758c0.39331,0.88355 1.72694,1.74824 2.50077,2.22068c1.44796,1.09457 3.80482,2.86821 4.35079,4.69075c0.40405,1.34881 -0.13403,3.05376 0.0323,4.44543c0.0486,0.40662 -0.08496,1.32743 0.30118,1.19105c1.57192,-0.55521 2.58617,-2.69802 4.48024,-2.83235c2.16146,-0.15328 4.5899,2.34247 6.4087,3.2448c0,0 1.11803,0.55901 0.55901,1.67705c-0.05801,0.11602 -0.12203,0.21397 -0.1902,0.29637l-0.1165,0.58617c-0.78992,1.08376 -0.97794,1.48741 -0.95367,2.83294c0,0.44493 0.0383,0.89153 0,1.33481c-0.02477,0.28668 -0.42042,1.03848 -0.21623,0.83573c1.91832,-1.90478 5.75265,0.64107 8.46371,-0.75244c0.78921,-0.40566 1.05706,-1.63787 1.9202,-1.84378c0.82442,-0.19667 1.74491,0.06568 2.50373,0.44321c0.3813,0.18971 0.27806,0.8681 0.62588,1.11385c0.56342,0.39808 1.37379,-0.1572 2.06365,-0.1567c2.77576,0.00204 3.48465,0.05382 4.9787,-2.33462c0.96362,-0.09031 1.99697,0.29187 2.90311,-0.04814c0.78326,-0.2939 0.51008,-1.78544 1.24962,-2.17654c2.23365,-1.18124 6.83344,2.54489 8.36341,4.18385c2.26592,2.42734 -0.36914,5.85511 1.23161,8.0564c0.79463,1.09274 3.09028,-0.81259 3.56522,-1.45249c0.36361,-1.82437 0.24905,-3.75571 0.6659,-5.55911c1.64718,-7.12619 9.31166,-11.32631 16.05878,-12.08174c0,0 0.12831,-0.01426 0.30703,0.00763c0.73482,-0.09684 1.45815,-0.32477 2.13119,-0.6327c3.57159,-1.332 6.75709,-1.41326 10.04987,-3.46596c0.9675,-0.60314 3.29307,-1.2894 3.77868,-2.465c0.20639,-0.49963 -0.99547,-2.51493 -1.17737,-3.00345c-0.6088,-1.63501 -1.25902,-1.62032 -2.21663,-2.97088c-0.72165,-1.01778 -1.02051,-2.89327 -1.46656,-4.08736c-2.44377,-4.88754 -3.73392,-11.07631 -4.5398,-16.48068c-0.19764,-1.3254 -1.36841,-4.18652 0.10174,-5.232c0.67651,-0.48109 1.65343,0.15705 2.47518,0.27468c2.27673,0.32592 4.43391,0.9506 6.65625,1.45343c1.54258,-0.00802 3.51783,0.05428 4.94918,-0.62138c0.6535,-0.30849 1.79999,-1.62961 2.27127,-1.80141c0.72133,-0.26295 1.56415,-0.39524 2.29723,-0.16708c0.9189,0.28599 1.35602,2.22924 2.23217,1.83107c0.46096,-0.20948 -0.15062,-2.13179 -0.18773,-2.26268c-0.547,-1.9291 -1.10048,-3.85446 -2.86903,-4.90953c0,0 -0.51756,-0.32347 -0.60335,-0.88c-1.79496,-1.84003 -3.63867,-4.25026 -4.48861,-6.33612c-1.06316,-2.60913 1.12047,-8.15301 -1.24392,-10.01856c-0.842,-0.66436 -2.59981,-0.62399 -3.5783,-0.82146c-1.52729,-0.57527 -3.30676,-1.29376 -4.16379,-2.82515c-0.11467,-0.20489 -0.29977,-3.11284 -0.63227,-3.2669c-3.17932,-1.47319 -7.22152,1.002 -10.20607,0.79892c-2.94689,-0.20051 -5.42501,-3.62672 -7.7859,-5.3358c-0.44201,-0.16897 -0.85191,-0.46965 -1.24933,-0.7895c-1.74194,-0.98128 -3.09307,-2.50813 -4.4507,-4.0136l-0.18048,-0.24922c-0.01342,0.01366 -0.02684,0.02731 -0.04028,0.04096c-0.10527,-0.23623 -0.20746,-0.39197 -0.30259,-0.40703c-0.89848,-0.14223 -1.85663,0.28752 -2.72885,0.0292c-0.90482,-0.26797 -1.50926,-1.16679 -2.37699,-1.53769c-2.0824,-0.8901 -2.48151,0.86634 -4.43452,1.26228c-1.82486,0.36996 -3.14207,-0.35984 -4.52817,-1.32029c-1.41188,0.76259 -1.23015,3.15729 -3.24713,3.53876c-1.85818,0.35144 -4.34641,-3.46157 -5.94432,-2.62641c-0.61269,0.32023 -0.63086,1.23398 -1.01602,1.80808c-0.46079,0.68683 -1.16365,1.19227 -1.60719,1.89037c-0.42935,0.67577 -0.26275,1.81025 -0.44824,2.48084c-0.23525,0.85053 -0.61145,1.55006 -1.08926,2.17589c-0.07486,-0.04616 -0.15033,-0.09137 -0.22667,-0.13568c-0.36765,0.55118 -0.74843,1.07668 -1.14813,1.58553c-0.0015,-0.00004 -0.003,-0.00007 -0.00451,-0.00011c-0.064,0.08754 -0.11366,0.1372 -0.11366,0.1372zM227.26274,261.44978c5.27275,-0.76696 10.80538,0.47634 15.7487,-1.94718c0.53403,-0.67118 1.02991,-1.37398 1.50724,-2.13845c0,0 0.02686,-0.04297 0.07841,-0.1062c0.42436,-1.14829 0.44751,-2.35227 1.25309,-3.74458c0.42904,-0.74152 1.18278,-1.25139 1.65567,-1.96574c0.37482,-0.56621 1.39095,-2.38894 1.95022,-2.64129c1.68733,-0.76134 3.99166,0.33394 5.32914,1.30002c0.43983,0.3177 0.66109,1.2582 1.18475,1.11619c0.39703,-0.10767 1.47257,-2.81756 1.70726,-3.00292c0.27531,-0.21743 0.60742,-0.3321 0.95252,-0.42327c0.58614,-0.80836 1.54007,-0.33139 1.54007,-0.33139l0.07265,0.03796c0.20957,0.03531 0.43647,0.1257 0.62297,0.32549l0.06515,0.03404c3.44461,2.48938 4.9952,-1.5176 8.8174,0.01849c0.7785,0.31286 1.26667,1.19447 2.07237,1.42855c0.9051,0.26296 1.95711,-0.31936 2.83344,0.00006c0.63843,-0.02602 1.05087,0.5514 1.05087,0.5514l0.21217,0.30241c0.0183,0.01861 0.03642,0.03738 0.05435,0.05632c-0.00286,0.00297 -0.00571,0.00596 -0.00857,0.00893l0.27901,0.39768c0.98784,1.09996 2.04153,2.4006 3.30701,3.23204c0.00709,-0.01227 0.01416,-0.02454 0.02122,-0.03683c0.09426,0.07539 0.18869,0.15093 0.28393,0.22547c0.25689,0.14876 0.52251,0.27713 0.79797,0.37993c0,0 0.35328,0.14132 0.59205,0.46293c0.005,0.00187 0.01002,0.00372 0.01504,0.00556c2.01975,1.43004 3.8832,3.82657 5.92906,5.0408c0.9908,0.58804 2.09921,-0.41375 2.86127,-0.6689c1.87086,-0.62639 7.76143,-0.86695 9.40584,0.28657c2.11408,1.48298 0.50893,2.50371 1.4441,4.1487c0.49294,0.8671 1.80174,1.30494 2.65857,1.62421c0.93655,0.18523 1.91953,0.15716 2.82881,0.4481c5.79598,1.85451 1.97903,7.92824 3.62069,11.84857c0.98026,2.34091 3.36838,5.1449 5.29256,6.79188c0,0 0.43169,0.37002 0.46323,0.90208c2.24268,2.88387 4.50136,8.20493 1.22332,9.8646c-2.32237,1.17581 -2.96915,-0.71977 -4.29356,-1.72842c-0.16388,-0.12481 -2.41273,1.82294 -2.55048,1.88763c-1.88993,0.88757 -4.28391,0.86959 -6.32254,0.86173c-1.84436,-0.40451 -3.59174,-0.83193 -5.44798,-1.20331c-0.30722,-0.06146 -0.95019,-0.05882 -1.43424,-0.26046c0.10841,0.19881 0.19675,0.39465 0.22706,0.53045c0.32076,1.43712 0.54211,3.08385 0.7605,4.5484c0.63097,4.23146 1.8401,9.03395 3.76567,12.88511c0.35698,0.94874 0.60294,2.84544 1.20306,3.62488c1.46012,1.89641 4.62712,5.35154 3.72497,8.26362c-0.40524,1.30808 -2.62247,2.63079 -3.71092,3.21317c-1.70711,0.91341 -3.21272,2.13098 -5.0861,2.75115c-2.10395,0.69649 -4.34064,0.65893 -6.4436,1.45281c-0.74549,0.32351 -1.53229,0.57069 -2.33328,0.72267c-0.18316,0.15243 -0.44253,0.26036 -0.80984,0.26036c-0.22893,0 -0.41592,-0.04193 -0.56868,-0.11042c-5.49794,0.78906 -12.06055,4.19455 -13.29759,10.08856c-0.41631,1.98353 -0.34591,4.01614 -0.81723,6.00923c-1.50851,2.15506 -5.20218,4.69333 -7.70649,2.10701c-1.97855,-2.04334 0.68998,-6.36109 -1.14139,-7.96131c-1.29336,-1.13012 -2.77046,-2.04359 -4.05934,-3.17843c-0.34587,-0.30453 -0.91849,-0.99335 -1.22197,-0.64656c-1.4348,1.63961 -1.26695,3.0197 -4.15274,2.22468c-0.77713,2.80813 -7.05018,3.82566 -9.5686,2.55129c-0.51794,-0.26209 -0.66653,-1.86723 -1.02312,-1.40919c-1.87238,2.40503 -4.5684,2.94173 -7.62285,2.43885c-0.73904,-0.12167 -1.44713,-0.83858 -2.16155,-0.61366c-0.47747,0.15033 -0.68934,0.95382 -1.18863,0.91783c-0.88943,-0.06412 -1.85383,-0.47378 -2.40254,-1.17672c-0.22535,-0.28869 -0.18669,-2.84994 -0.18669,-3.4751c0.02086,-1.61975 0.29612,-2.56378 1.08801,-3.79519c-1.31264,-0.94155 -3.06276,-2.38646 -4.16432,-2.34557c-1.62109,0.06017 -2.9054,3.22506 -5.01173,2.80351c-3.57215,-0.71492 -1.823,-5.24831 -2.33614,-7.41499c-0.26566,-1.1217 -2.48607,-2.66825 -3.36144,-3.31811c-2.63762,-1.68034 -4.4088,-3.85556 -2.94527,-7.0511c0.50027,-1.09229 4.06939,-4.57685 2.94329,-5.84373c-1.17231,-1.31886 -1.29403,-1.70865 -1.58909,-3.43352c-0.13925,-0.81403 -1.62623,0.46312 -2.44803,0.3814c-0.73755,-0.07335 -1.52218,-0.31222 -2.07038,-0.81105c-0.21812,-0.19847 -0.44798,-0.54231 -0.62716,-0.91791c0.00698,1.00391 0.02241,1.96741 -0.45932,3.05866c-1.05092,2.38058 -3.21843,3.2178 -4.79155,5.0547c-1.24463,1.45334 -1.83611,3.12067 -3.40521,4.44278c-0.68801,0.57971 -2.23598,1.6626 -3.19561,1.47206c-0.77805,-0.15449 -1.49103,-0.71217 -1.95681,-1.35426c-0.40548,-0.55897 0.29623,-1.89781 -0.38026,-2.03648c-0.21992,-0.04508 -0.47055,-0.07072 -0.73888,-0.08331c-0.34584,0.22185 -0.7406,0.22185 -0.7406,0.22185h-0.74156c-2.62521,-0.00205 -5.18548,-0.40188 -7.71572,-1.07474c-1.33655,-0.35543 -3.03908,-0.40588 -3.17335,-2.49303c-0.23368,-3.63259 4.13114,-2.32637 5.58183,-2.31507c0.52811,0.00412 0.53706,-0.91102 0.76521,-1.38732c0.60567,-1.26446 0.40948,-2.11605 0.93672,-3.25524c-0.05721,-1.99912 -3.29943,-2.73244 -4.78436,-3.17104c-0.74973,-0.22145 -2.15091,-1.1807 -3.00729,-0.88657c-0.54172,0.18606 -0.97305,0.58908 -1.41825,0.96377c0.02778,0.06464 0.05575,0.12905 0.0839,0.19325c-1.92328,1.90879 -4.03515,3.7903 -5.34317,6.00578c-1.15264,1.95229 -0.22244,3.66485 -2.84001,4.89594c-2.39712,1.12741 -6.08011,0.11544 -8.70919,0.11544c-1.94386,0 -3.74643,0.67987 -5.61019,0.6891c-0.81329,0.00403 -1.85791,0.2354 -2.41339,-0.35865c-2.52796,-2.70351 2.29601,-7.44521 2.62125,-9.85485c0.10854,-0.80421 -1.62242,-0.05323 -2.43392,-0.05323c-2.96192,0 -4.8177,0.21132 -7.31701,1.87973c-0.68231,0.4534 -3.40898,1.87901 -3.66807,2.60224c-0.03877,0.10823 1.23967,3.08955 1.26191,3.41971c0.09777,1.45111 -1.04116,3.74757 -0.30718,5.08417c1.032,1.8793 3.55113,3.17888 2.45539,5.79789c-0.50789,1.21396 -4.81377,3.77738 -6.1255,3.4715c-0.52961,-0.12349 -1.78545,-1.76627 -2.2526,-2.34716c-1.44635,-0.796 -2.82537,-1.35172 -4.49886,-1.45179c-1.4333,-0.08571 -3.74616,0.47978 -4.87676,-0.78256c-1.00852,-1.12605 -1.59536,-6.72287 -1.07631,-8.08308c0.25143,-0.6589 1.23901,-1.08713 1.1361,-1.78483c-0.12482,-0.84618 -1.63176,-1.16999 -1.57774,-2.02361c0.06796,-1.074 1.7095,-1.37524 2.27457,-2.29109c0.35127,-0.56934 -0.03299,-2.35533 -0.08331,-3.02443c-0.04955,-0.05426 -0.85413,-0.99301 -1.05609,-1.02257c-0.98039,-0.14349 -2.05514,0.70292 -2.95786,0.29446c-0.7026,-0.31791 -1.03899,-1.13989 -1.55849,-1.70983l-0.26786,-1.73581c0,0 -0.0554,-0.44321 0.16496,-0.83287c-0.00047,-0.01218 -0.00048,-0.01873 -0.00048,-0.01873v-0.11208c0.0008,-0.85922 0.00161,-1.71845 0.00241,-2.57767c0.27806,-2.22453 0.65837,-5.79597 -0.38937,-7.88919c-1.34512,-2.68736 -3.99039,-3.27281 -3.05953,-6.95983c0.88424,-3.50236 3.28676,-3.44209 5.67342,-3.92286c1.16792,-0.68989 2.25452,-1.06997 3.60421,-1.51954c1.94516,-0.55615 3.81331,-1.42345 5.76127,-1.9167c1.10324,-0.27935 2.58742,-0.24723 3.52176,-1.02409c1.93556,-1.60934 3.46171,-5.40088 5.72665,-6.48027c2.53223,-1.20675 4.97033,1.25314 7.1544,1.80778c0.91011,0.23113 2.29963,-0.05585 3.20693,-0.20743c4.32463,-1.45645 8.39206,-3.52488 12.8623,-4.63887c2.07466,-0.517 4.29084,-0.32274 6.32573,-0.84343c0.73041,-0.1869 1.57869,-0.62367 2.43769,-1.00185c-0.73545,-0.14101 -1.38936,-0.41701 -1.766,-0.99727c-0.51104,-0.78731 0.87974,-4.44934 1.27167,-5.18484c2.29824,-4.31294 5.72556,-6.98702 10.28667,-7.09861c2.11626,-0.73331 4.31572,-1.76299 6.12951,-2.84664c0.92362,-0.55182 1.57149,-1.55156 2.56955,-1.95337c1.38811,-0.55885 3.70325,0.24849 5.09035,0.48548c2.71125,1.08019 5.95095,1.23806 8.23093,3.19862c1.01865,0.87594 2.32693,1.78809 3.27125,2.73242c0.35657,0.35657 0.728,0.73546 0.91771,1.20268c0.00555,0.01368 0.00909,0.02948 0.01088,0.04697c1.23495,-1.5989 7.31556,0.08608 8.1231,1.7472c0.96454,1.98408 -0.97546,3.85 -0.94291,5.77981c-0.00951,0.01407 -0.01843,0.02752 -0.02678,0.04038c1.75607,-0.34754 2.88235,-1.46942 4.87653,-1.75949z"/></g></g></svg>