<svg version="1.1" xmlns="http://www.w3.org/2000/svg" xmlns:xlink="http://www.w3.org/1999/xlink" width="308" height="203.93655" viewBox="0,0,308,203.93655"><g transform="translate(-167.28453,-64.09949)"><g stroke-miterlimit="10"><path d="M321.29931,114.68277c39.49038,0 71.50365,29.24354 71.50365,65.31727c0,36.07373 -32.01328,65.31727 -71.50365,65.31727c-39.49037,0 -71.50365,-29.24353 -71.50365,-65.31727c0,-36.07373 32.01328,-65.31727 71.50365,-65.31727z" fill="#404040" stroke="#000000" stroke-width="8.5" stroke-linecap="butt"/><path d="M229.78453,223.03604c0,-5 5,-5 5,-5l2.98058,0.0971c2.82057,0.66419 4.6485,2.23159 7.34141,2.47093c0,0 4.93197,0.82199 4.10997,5.75396c-0.82199,4.93197 -5.75396,4.10997 -5.75396,4.10997c-1.38167,-0.27838 -2.82779,-0.33368 -4.145,-0.83513c-1.21513,-0.46258 -2.2215,-1.54889 -3.51359,-1.69394l-1.01942,0.0971c0,0 -5,0 -5,-5z" fill="#000000" stroke="none" stroke-width="0.5" stroke-linecap="butt"/><path d="M210.78453,246.53604c-2.50945,0 -3.75943,-1.25946 -4.38206,-2.51417c-1.96248,-1.40984 -3.84207,-2.67792 -5.65348,-4.4503c0,0 -3.53553,-3.53553 0,-7.07107c3.53553,-3.53553 7.07107,0 7.07107,0c1.79865,1.86047 3.88898,2.98672 5.96447,4.53553l2,4.5c0,0 0,5 -5,5z" fill="#000000" stroke="none" stroke-width="0.5" stroke-linecap="butt"/><path d="M259.78453,253.53604c0,5 -5,5 -5,5l0.58114,-0.25658c-1,0.33333 -2,0.66667 -3,1c0,0 -4.74342,1.58114 -6.32456,-3.16228c-1.58114,-4.74342 3.16228,-6.32456 3.16228,-6.32456c1,-0.33333 2,-0.66667 3,-1l2.58114,-0.25658c0,0 5,0 5,5z" fill="#000000" stroke="none" stroke-width="0.5" stroke-linecap="butt"/><path d="M203.78453,215.53604c0,-2.76142 2.23858,-5 5,-5c2.76142,0 5,2.23858 5,5c0,2.76142 -2.23858,5 -5,5c-2.76142,0 -5,-2.23858 -5,-5z" fill="#000000" stroke="none" stroke-width="0.5" stroke-linecap="butt"/><path d="M167.28453,235.53604c0,-2.76142 2.23858,-5 5,-5c2.76142,0 5,2.23858 5,5c0,2.76142 -2.23858,5 -5,5c-2.76142,0 -5,-2.23858 -5,-5z" fill="#000000" stroke="none" stroke-width="0.5" stroke-linecap="butt"/><path d="M200.78453,260.53604c0,-2.76142 2.23858,-5 5,-5c2.76142,0 5,2.23858 5,5c0,2.76142 -2.23858,5 -5,5c-2.76142,0 -5,-2.23858 -5,-5z" fill="#000000" stroke="none" stroke-width="0.5" stroke-linecap="butt"/><path d="M264.28453,240.03604c0,-2.76142 2.23858,-5 5,-5c2.76142,0 5,2.23858 5,5c0,2.76142 -2.23858,5 -5,5c-2.76142,0 -5,-2.23858 -5,-5z" fill="#000000" stroke="none" stroke-width="0.5" stroke-linecap="butt"/><path d="M373.78453,245.53604c0,-2.76142 2.23858,-5 5,-5c2.76142,0 5,2.23858 5,5c0,2.76142 -2.23858,5 -5,5c-2.76142,0 -5,-2.23858 -5,-5z" fill="#000000" stroke="none" stroke-width="0.5" stroke-linecap="butt"/><path d="M394.78453,234.53604c0,-2.76142 2.23858,-5 5,-5c2.76142,0 5,2.23858 5,5c0,2.76142 -2.23858,5 -5,5c-2.76142,0 -5,-2.23858 -5,-5z" fill="#000000" stroke="none" stroke-width="0.5" stroke-linecap="butt"/><path d="M400.28453,256.03604c0,-2.76142 2.23858,-5 5,-5c2.76142,0 5,2.23858 5,5c0,2.76142 -2.23858,5 -5,5c-2.76142,0 -5,-2.23858 -5,-5z" fill="#000000" stroke="none" stroke-width="0.5" stroke-linecap="butt"/><path d="M443.28453,255.03604c0,5 -5,5 -5,5l-3.64876,-0.13376c-1.36243,-0.63137 -2.72487,-1.26274 -4.0873,-1.89411c0,0 -4.47214,-2.23607 -2.23607,-6.7082c2.23607,-4.47214 6.7082,-2.23607 6.7082,-2.23607c0.63757,0.36863 1.27513,0.73726 1.9127,1.10589l1.35124,-0.13376c0,0 5,0 5,5z" fill="#000000" stroke="none" stroke-width="0.5" stroke-linecap="butt"/><path d="M466.42691,230.17909c1.85695,4.64238 -2.78543,6.49934 -2.78543,6.49934l-3.00968,1.17268c-1.17509,0.20564 -2.35019,0.41127 -3.52528,0.61691c0,0 -4.93197,0.82199 -5.75396,-4.10997c-0.82199,-4.93197 4.10997,-5.75396 4.10997,-5.75396c0.82491,-0.1277 1.64981,-0.2554 2.47472,-0.38309l1.99032,-0.82732c0,0 4.64238,-1.85695 6.49934,2.78543z" fill="#000000" stroke="none" stroke-width="0.5" stroke-linecap="butt"/><path d="M421.78453,228.53604c0,-5 5,-5 5,-5l-0.21268,0.14929c2.66667,-0.66667 5.33333,-1.33333 8,-2c0,0 4.85071,-1.21268 6.06339,3.63803c1.21268,4.85071 -3.63803,6.06339 -3.63803,6.06339c-2.66667,0.66667 -5.33333,1.33333 -8,2l-2.21268,0.14929c0,0 -5,0 -5,-5z" fill="#000000" stroke="none" stroke-width="0.5" stroke-linecap="butt"/><path d="M347.93382,253.82336c1.21268,-4.85071 6.06339,-3.63803 6.06339,-3.63803l3.21554,0.97993c2.41317,1.34139 4.83796,2.66483 7.30785,3.89865c0,0 4.47214,2.23607 2.23607,6.7082c-2.23607,4.47214 -6.7082,2.23607 -6.7082,2.23607c-2.59853,-1.30037 -5.15175,-2.69077 -7.69215,-4.10135l-0.78446,-0.02007c0,0 -4.85071,-1.21268 -3.63803,-6.06339z" fill="#000000" stroke="none" stroke-width="0.5" stroke-linecap="butt"/><path d="M297.52794,262.61718c-1.58114,4.74342 -6.32456,3.16228 -6.32456,3.16228l-1.77581,-0.60103c-1.42395,-0.59189 -2.94113,-0.97451 -4.46504,-1.21041c0,0 -4.93197,-0.82199 -4.10997,-5.75396c0.82199,-4.93197 5.75396,-4.10997 5.75396,-4.10997c2.22472,0.38931 4.43054,0.96963 6.53496,1.78959l1.22419,0.39897c0,0 4.74342,1.58114 3.16228,6.32456z" fill="#000000" stroke="none" stroke-width="0.5" stroke-linecap="butt"/><path d="M311.28453,263.03604c0,-2.76142 2.23858,-5 5,-5c2.76142,0 5,2.23858 5,5c0,2.76142 -2.23858,5 -5,5c-2.76142,0 -5,-2.23858 -5,-5z" fill="#000000" stroke="none" stroke-width="0.5" stroke-linecap="butt"/><path d="M401.28453,214.85465c0,-5 5,-5 5,-5c0.83333,0 4.16667,0 5,0c0,0 5,0 5,5c0,5 -5,5 -5,5c-0.83333,0 -1.66667,0 -2.5,0h-2.5c0,0 -5,0 -5,-5z" fill="#000000" stroke="none" stroke-width="0.5" stroke-linecap="butt"/><path d="M465.28453,253.85465c0,-2.76142 2.23858,-5 5,-5c2.76142,0 5,2.23858 5,5c0,2.76142 -2.23858,5 -5,5c-2.76142,0 -5,-2.23858 -5,-5z" fill="#000000" stroke="none" stroke-width="0.5" stroke-linecap="butt"/><path d="M173.28453,253.35465c0,-4.13124 3.41343,-4.84905 4.59961,-4.97377c1.83726,-0.63381 3.64552,-1.3543 5.43079,-2.12195c0,0 4.59573,-1.9696 6.56532,2.62613c1.9696,4.59573 -2.62613,6.56532 -2.62613,6.56532c-2.26207,0.96658 -4.55577,1.8668 -6.88846,2.64769l-2.08114,0.25658c0,0 -5,0 -5,-5z" fill="#000000" stroke="none" stroke-width="0.5" stroke-linecap="butt"/><g fill="#000000" stroke="none" stroke-width="0.5" stroke-linecap="butt"><path d="M348.4093,197.79723l-2.04043,-2.01186c-10.71408,-9.53457 -21.42548,-19.07103 -32.13766,-28.60695c0,0 -3.22171,-2.86792 0.38468,-5.42996c3.60639,-2.56202 6.82807,0.30591 6.82807,0.30591c10.76582,9.58366 21.53236,19.1668 32.29632,28.75176l2.19447,2.15981c0,0 3.03764,2.99228 -0.72509,5.40791c-3.76273,2.41563 -6.80036,-0.57663 -6.80036,-0.57663z"/><path d="M314.79035,198.37386c-3.76273,-2.41565 -0.7251,-5.40791 -0.7251,-5.40791l2.19447,-2.15981c10.76396,-9.58497 21.53051,-19.1681 32.29632,-28.75176c0,0 3.2217,-2.86795 6.82807,-0.30591c3.60638,2.56202 0.38468,5.42997 0.38468,5.42997c-10.71218,9.5359 -21.4236,19.07236 -32.13766,28.60694l-2.04042,2.01186c0,0 -3.03763,2.99228 -6.80036,0.57663z"/></g><g><path d="M415.06425,73.07462c1.64103,3.4279 3.73994,6.62711 5.87465,9.77139c1.24658,1.83613 4.55004,5.04601 5.16945,6.81133c1.92341,5.48167 1.13583,10.43118 1.01582,15.92377c-0.04167,1.90731 -0.42288,7.72445 0.72605,9.55125c0.5352,0.85096 1.85012,0.87017 2.58036,1.56107c2.82396,2.67184 5.76357,5.36232 7.78894,8.68066c0.46586,0.76327 2.23752,6.03705 2.69294,7.36392l0.00848,3.68633c0.65401,0.40216 1.30323,0.98138 1.92164,1.79085c3.83483,5.01965 -1.18482,8.85449 -1.18482,8.85449c-3.11278,2.36528 -7.37021,5.10729 -9.51475,8.40682c-2.67929,4.12229 -3.8723,8.62419 -5.44281,13.22123l-5.76214,4.29537c0,0 -1.1962,0.16032 -2.61295,-0.18205c-2.68649,0.01682 -4.69358,-2.02536 -4.69358,-2.02536l-2.75559,-2.88157c-2.14593,-3.69542 -5.22912,-7.22291 -7.08281,-11.03696c-2.55208,-5.25102 -2.31432,-10.93973 -3.7011,-16.38736c-0.69913,-2.74632 -4.3177,-4.8042 -5.51095,-6.60356c-2.42234,-3.65279 -3.06388,-9.18225 -3.46841,-14.37039c-0.21445,-0.04848 -0.43168,-0.11181 -0.6511,-0.19175c0.74078,-3.17159 1.26225,-6.22501 1.47881,-7.62314c0.4086,-2.638 1.43598,-4.25617 2.34669,-6.75344c1.24961,-3.42659 0.11275,-7.56382 1.03799,-10.96826c1.46607,-5.39444 3.16789,-11.19142 3.75904,-16.72099c0.26435,-2.47275 1.0225,-4.94909 1.97931,-7.41536c0.20488,-0.24069 0.39855,-0.49121 0.58021,-0.75076c0.64599,-0.82928 1.39605,-1.722 1.94379,-1.72751c0.60773,-0.00611 4.8642,-0.36348 7.58776,0.21c0.84502,0.85123 1.67216,1.71698 2.50808,2.56727c0.27388,0.67087 0.61852,1.30533 1.02466,1.8941c0.08106,0.36091 0.19514,0.71184 0.35635,1.0486zM404.34693,90.18965c-1.02444,5.58209 -1.86791,11.1935 -2.83185,16.80639c1.22563,1.55204 1.47259,3.3947 1.47259,3.3947c0.58735,4.38241 1.19847,8.76236 1.76215,13.14786c0.15891,1.2363 -0.22263,2.73873 0.57742,3.69455c2.52122,3.01211 5.62092,5.85553 6.85601,9.58432c1.54722,4.67111 0.74282,10.01916 2.99885,14.58143c0.74152,1.49955 1.72222,2.90258 2.72708,4.30017c1.06629,-2.63444 2.31742,-5.19215 3.984,-7.60857c1.88486,-2.73292 4.54598,-5.14678 7.28933,-7.35079c-1.05336,-1.92278 -0.81272,-4.06718 -0.81272,-4.06718l0.59317,0.16684c-1.76265,-5.13555 -2.89975,-6.67666 -7.15203,-10.90943c-1.40425,-1.39781 -3.52089,-2.14947 -4.51965,-3.86069c-3.46192,-5.93146 -2.99385,-14.20156 -2.66966,-20.7601c0.10799,-2.18475 0.56895,-4.53331 -0.13273,-6.69198c-0.63769,-1.96181 -2.86182,-2.99773 -4.02185,-4.7035c-1.47746,-2.17253 -2.92496,-4.38178 -4.24994,-6.65697c-0.76388,2.26905 -1.43569,4.56547 -1.87018,6.93295z" fill="#000000" stroke="none" stroke-width="0.5" stroke-linecap="butt"/><path d="M406.20167,83.19545c1.32499,2.27519 2.77764,4.48336 4.2551,6.6559c1.16004,1.70578 3.39227,2.74088 4.02996,4.70269c0.70168,2.15867 0.24544,4.63349 0.13744,6.81823c-0.32419,6.55854 -0.7569,14.81606 2.70502,20.74752c0.99876,1.71122 3.12221,2.45698 4.52646,3.85479c4.25227,4.23277 5.38365,5.77895 7.1463,10.9145l-0.59401,-0.16619c0,0 -0.24432,2.14699 0.80904,4.06977c-2.74335,2.20401 -5.42483,4.6265 -7.3097,7.35942c-1.66658,2.41642 -2.92734,4.97556 -3.99363,7.61c-1.00486,-1.39759 -1.99034,-2.80046 -2.73186,-4.30001c-2.25603,-4.56227 -1.46265,-9.91133 -3.00987,-14.58245c-1.23509,-3.72879 -4.3734,-6.59569 -6.89462,-9.6078c-0.80005,-0.95582 -0.42754,-2.47431 -0.58645,-3.71061c-0.56369,-4.3855 -1.16671,-8.82547 -1.75406,-13.20787c0,0 -0.24297,-1.84757 -1.4686,-3.39961c0.96393,-5.61289 1.83209,-11.24112 2.85653,-16.82321c0.43449,-2.36748 1.11307,-4.66601 1.87695,-6.93506z" fill="#ffffff" stroke="none" stroke-width="0.5" stroke-linecap="butt"/><path d="M368.92932,204.56054l35.62596,-132.96105" fill="#000000" stroke="#804d00" stroke-width="15" stroke-linecap="round"/></g><g fill="#000000" stroke="none" stroke-width="0.5" stroke-linecap="butt"><path d="M288.4093,197.79722l-2.04042,-2.01187c-10.71409,-9.53457 -21.42548,-19.07103 -32.13767,-28.60695c0,0 -3.22171,-2.86792 0.38468,-5.42996c3.60639,-2.56203 6.82807,0.30591 6.82807,0.30591c10.76583,9.58366 21.53236,19.1668 32.29632,28.75177l2.19447,2.15981c0,0 3.03764,2.99227 -0.72509,5.40791c-3.76273,2.41564 -6.80036,-0.57663 -6.80036,-0.57663z"/><path d="M254.79036,198.37385c-3.76273,-2.41565 -0.7251,-5.40791 -0.7251,-5.40791l2.19447,-2.15981c10.76396,-9.58497 21.53051,-19.16809 32.29631,-28.75176c0,0 3.2217,-2.86795 6.82808,-0.30591c3.60638,2.56203 0.38468,5.42997 0.38468,5.42997c-10.71218,9.5359 -21.42361,19.07236 -32.13766,28.60693l-2.04041,2.01187c0,0 -3.03763,2.99228 -6.80036,0.57663z"/></g></g></g></svg>