<svg version="1.1" xmlns="http://www.w3.org/2000/svg" xmlns:xlink="http://www.w3.org/1999/xlink" width="136.21935" height="128.79407" viewBox="0,0,136.21935,128.79407"><g transform="translate(-289.66633,-71.6639)"><g data-paper-data="{&quot;isPaintingLayer&quot;:true}" fill="#000000" fill-rule="nonzero" stroke="none" stroke-width="0.5" stroke-linecap="butt" stroke-linejoin="miter" stroke-miterlimit="10" stroke-dasharray="" stroke-dashoffset="0" style="mix-blend-mode: normal"><path d="M391.20947,200.31378c-4.52807,0.49669 -9.74079,-0.05773 -10.93224,-5.41144c-0.15204,-0.68318 0.4138,-2.92159 0.17465,-3.43549c-0.00624,-0.0134 -2.16989,-0.18291 -2.20307,-0.15927c-0.34929,0.24891 -0.25789,0.94501 -0.65475,1.10767c-2.65671,1.08894 -2.53471,0.18081 -3.7422,-1.56599c-0.20576,-0.32899 -0.41152,-0.65798 -0.61728,-0.98696c-2.53974,-0.16962 -5.21076,0.90325 -7.73606,0.28283c-1.51724,-0.37276 -2.21794,-1.84204 -3.49007,-2.35298c-0.92691,-0.37229 -2.12963,0.02067 -2.94438,-0.55722c-1.53779,-1.09072 -1.87719,-3.71899 -2.66793,-5.29126c-0.54501,-1.08367 -1.54044,-1.47704 -2.44473,-2.25947c-3.3102,-1.77572 -4.52576,1.38188 -7.46898,2.03669c-1.6803,0.37383 -2.7504,-0.15838 -4.32552,-0.41561c-1.67784,-0.274 -3.66532,0.01614 -5.3712,0.01614l-0.05625,0.01422c-0.31403,0.22905 -0.67651,0.2653 -0.67651,0.2653c-1.77414,0.17556 -5.88692,1.4976 -7.44463,0.56379c-2.60489,-1.56158 -0.17164,-2.62905 -1.32228,-3.97042c-0.53013,-0.61801 -1.81032,0.24292 -2.42534,-0.29069c-0.53305,-0.46249 -0.51522,-1.3154 -0.72379,-1.98961c-0.52233,-1.68841 -1.38319,-3.09796 -1.96044,-4.71778c-0.47008,-1.31907 0.23136,-1.89783 -1.06624,-2.56539c-1.90358,-0.7448 -4.05246,-2.9351 -3.68615,-5.26561c0.03323,-0.21146 1.46315,-4.13644 1.51923,-4.20593c0.20828,-0.25808 0.67987,-0.52616 1.13621,-0.68385c-0.83371,-0.89993 -1.14068,-2.34594 -0.41172,-3.4719c0.94684,-1.46249 4.57117,-0.63366 5.30524,-2.65124c0.13912,-0.38237 -0.68723,-0.43627 -1.02162,-0.6681c-0.9622,-0.66708 -1.56446,-1.81338 -1.95804,-2.91605c-0.10529,-1.22402 -0.47058,-3.86374 1.58905,-3.60672c0.56826,0.07091 -1.21187,-0.2379 -1.5787,-0.67765c-1.17284,-1.40596 -0.89659,-2.89511 -0.89659,-4.55522l-0.10553,-0.26826c0,0 -0.046,-0.18398 -0.0305,-0.42652c-0.91952,-0.52528 -1.97934,-0.80611 -2.74063,-1.52323c-1.39962,-1.31842 -1.2683,-5.10476 -4.23264,-3.92112c-0.84548,0.33759 -1.2986,2.20349 -1.83593,2.81143c-1.51652,1.71582 -3.63594,0.8536 -4.98578,1.98631c-0.46621,0.39122 -0.53506,1.39529 -1.143,1.4238c-0.84395,0.03958 -1.46338,-0.84483 -2.19507,-1.26725c-1.07944,-1.69629 -1.45106,-4.61626 -2.79339,-5.93127c-1.25865,-1.23304 -2.61112,-0.80075 -3.64044,-2.56808c-0.91973,-1.57916 0.02019,-3.32491 -1.28046,-4.78636c-1.56302,-1.75626 -4.01831,-3.18084 -4.2949,-5.67876c-0.26977,-2.43644 1.68045,-4.1146 3.09852,-5.87569c2.08774,-0.70342 3.78576,-1.22834 6.00116,-1.225c1.21055,0.00182 2.71119,0.57383 3.88337,0.31295c0.8643,-0.19236 1.53745,-0.94037 2.40087,-1.13665c0.86089,-0.19571 2.72031,0.50662 3.50122,0.00184c0.73079,-0.47239 1.39317,-1.9139 1.98057,-2.70499c-0.97222,-0.74986 -1.79996,-1.6455 -2.94164,-2.06139c-1.24385,-0.4531 -4.88414,-0.77317 -5.70827,-1.84931c-1.72307,-2.24998 0.15455,-3.63943 1.57142,-5.05348c0.44944,-0.44854 1.68544,-0.33336 1.64135,-0.9668c-0.00315,-0.0452 -2.35201,-1.95554 -2.45701,-2.09433c-0.8055,-1.06464 -0.83593,-1.81521 -1.11442,-3.06145c-0.00086,-0.16247 0.19675,-3.14171 0.12759,-3.20769c-0.50905,-0.48565 -2.58289,-0.93332 -3.33942,-1.49277c-1.16238,-0.85958 -1.65308,-2.31563 -2.7051,-3.13617c-1.73133,-1.35036 -4.46954,-0.54821 -6.40947,-2.38757c-0.8519,-0.80774 -2.0211,-2.28619 -1.60733,-3.62092c0.42772,-1.37973 3.90541,-2.7353 5.16144,-2.32795c0.98259,0.31867 1.59731,1.36008 2.54829,1.76338c1.21468,0.62171 2.53155,1.24103 3.60776,0.35453c0.88497,-0.35774 1.34201,-0.56972 1.42024,-1.2241h0.22422v-0.38721c0.86363,-1.27691 1.13014,-3.10751 2.68176,-4.14351c0.21426,-0.14306 2.66091,-0.63145 3.05708,-0.67032c0.70666,-0.06933 1.51517,-0.45215 2.1281,-0.09368c1.01304,0.59247 1.59744,3.81723 2.07703,4.78854c0.29536,0.59819 0.76152,-1.28936 1.41702,-1.41339c1.00046,-0.18931 2.28936,0.48521 2.70798,1.41339c0.1106,0.24523 0.1629,-0.51303 0.231,-0.77329c0.09626,-0.36788 0.14027,-0.74749 0.2104,-1.12124c0.26422,-0.63732 0.28473,-1.44505 0.79265,-1.91195c0.41932,-0.38546 1.13225,-0.17085 1.67175,-0.35346c1.98734,-0.67269 3.07462,-3.33656 5.58826,-2.15918c0.4572,0.21415 1.49318,2.06604 1.89972,2.58834c1.11034,1.42653 2.47413,2.75596 3.82946,3.94443c0.9479,0.8312 2.91104,1.69665 3.41937,2.87608c0.99671,2.31254 -2.82121,5.73855 -4.25436,7.6013c-0.9425,0.62973 -1.97864,1.17839 -3.08251,1.43597c-0.54712,0.12767 -1.4113,-0.26384 -1.66893,0.23542c-0.23346,0.45242 0.42459,0.92554 0.64633,1.38382c0.7718,1.59511 2.03545,2.89372 2.85237,4.45478c0.24421,0.46667 1.44879,5.11834 2.14372,4.95694c1.65997,-0.38553 2.01212,-1.10073 3.82893,-0.89118c0.53197,-0.0602 0.9713,0.3059 0.9713,0.3059l0.83366,0.70139c2.29057,2.32483 4.6068,2.37432 7.58818,1.29018c0.63625,-0.03229 1.30955,-0.31322 1.90876,-0.09686c2.51213,0.90708 1.20234,2.3507 2.34304,3.78194c0.84701,1.06275 2.27977,0.92886 3.11584,2.42123c0.50515,0.90169 0.21571,2.90344 0.74191,3.5578c0.86622,1.0772 2.96682,-0.80469 3.6655,-0.91954c0.96765,-0.15908 1.85923,0.63298 2.81255,0.86286c0.81926,0.19756 1.5253,-0.92337 2.36728,-0.88764c1.27348,0.05405 2.25339,1.01217 3.64154,1.01217c1.17999,0.04747 -0.29869,-5.18716 0.46483,-6.18073c0.64448,-0.83867 2.0383,-0.629 2.95431,-1.15781c0.74406,-0.42954 1.13439,-1.34072 1.8862,-1.75656c4.6773,-2.58709 11.87476,1.78812 15.36831,4.57149c0.2586,0.60077 0.78111,2.95353 1.42045,3.41469c0.90596,0.65348 1.98222,1.36378 2.30397,2.43348c0.45887,1.5256 -0.53238,3.23254 0.71168,4.57501c0.9013,0.97259 4.64993,2.92542 4.43923,4.47411c-0.24491,1.80017 -2.64404,1.86042 -3.79899,1.72481c-0.59551,-0.06992 -1.25616,-1.1018 -1.67013,-0.66804c-0.63075,0.66089 -0.23266,2.12827 -1.05298,2.53039c-1.47829,0.72466 -2.40812,-0.24737 -3.35559,-0.95797c-1.3933,-0.61186 2.13815,2.34435 2.33157,2.99663c0.5756,1.9411 -0.77661,2.37536 -0.82286,4.04829c-0.11172,4.04119 3.22863,5.1319 6.86466,5.44408c0,0 0.37176,0.03379 0.6905,0.26761c2.52665,0.36033 5.11654,0.60286 7.47911,1.3789c2.68703,0.89568 5.33802,2.75365 8.20472,2.73585c0.71697,-0.00445 1.50331,0.51083 2.14283,0.18669c0.55994,-0.2838 0.25964,-1.23609 0.50232,-1.81504c0.73674,-1.75765 0.5187,-3.77164 3.15485,-3.77164c0.77353,0 1.6366,0.27921 2.15969,0.84906c0.36967,0.40273 0.5153,2.64932 0.66282,3.34024c0.39864,1.86701 1.16021,3.49703 1.40224,5.41073c1.04743,3.68464 5.4391,2.02885 6.21317,6.07659c0.51484,2.69223 0.60981,8.35678 -0.785,10.64706c-1.60039,2.62786 -4.18097,3.66884 -4.21906,6.92608c1.1979,3.44033 4.42191,4.225 4.21614,8.20023c-0.0356,0.68762 0.19751,1.48578 -0.18669,2.05716c-1.88127,2.79785 -4.85365,-0.02825 -7.16698,0.89007c-3.29282,1.30715 -1.82899,5.48564 -3.21093,7.67275c-0.38365,0.60718 -1.11444,0.90636 -1.67165,1.35954c-1.42757,0.04996 -4.17516,-0.41009 -5.36082,0.73425c-2.18421,2.10808 -1.22836,5.71983 -3.10862,7.70522c-2.30903,2.43813 -9.07508,0.76916 -12.16754,1.21843c0,0 -0.06164,0.00881 -0.15938,0.00873c-0.26127,0.14026 -0.50788,0.16766 -0.50788,0.16766zM375.27428,188.40893c0.24366,0.39012 0.48733,0.78025 0.73099,1.17037c0.07031,0.26999 0.11686,0.54731 0.21094,0.80996c0.1698,0.47405 0.37043,-1.04281 0.82068,-1.26827c1.30898,-0.65547 4.62513,-0.21536 5.51122,0.98359c1.20668,1.63273 -0.40008,4.32824 1.08,6.19759c1.72239,2.17539 4.83004,1.80585 7.30528,1.52691c0,0 0.0478,-0.00531 0.1257,-0.00447c0.24234,-0.1304 0.46409,-0.16208 0.46409,-0.16208c2.50365,-0.35232 5.05052,-0.21257 7.57677,-0.21257c0.44313,0 2.68225,0.34445 3.05568,-0.169c0.5901,-0.81135 0.47015,-2.59994 0.74074,-3.5185c1.3141,-4.46095 4.45245,-5.89968 8.78981,-5.64203c0.59425,-0.43517 0.4771,-1.92819 0.57632,-2.59724c0.26351,-1.77689 0.74257,-2.80631 1.86135,-4.20409c1.22334,-1.52841 2.04791,-2.29879 4.08747,-2.46598c0.21103,-0.0173 4.14512,0.6545 4.2253,0.38969c0.70274,-2.32111 -1.01068,-3.10985 -2.2681,-4.50919c-1.10274,-1.2272 -1.60152,-2.48766 -2.10245,-4.03342c-0.00788,-1.0239 -0.1157,-2.51756 0.28662,-3.49657c0.90609,-2.20485 4.27788,-3.60135 4.73068,-5.99086c0.45299,-2.39054 0.11516,-5.69689 -0.02136,-8.13943c-0.09627,-1.72243 -3.71453,-1.55119 -4.84596,-2.68949c-0.75534,-0.75992 -1.0617,-2.26049 -1.34087,-3.23392c-0.30606,-2.47871 -0.99982,-5.25666 -1.53494,-7.64903c-0.07783,-0.34797 -0.35564,0.62715 -0.44717,0.97178c-0.23649,0.89046 -1.42243,3.84467 -2.13598,4.2906c-0.3583,0.22393 -2.83504,0.19003 -3.45716,0.18668c-3.2475,-0.01747 -5.97474,-1.85729 -8.99529,-2.86414c-2.87876,-0.97666 -6.22211,-1.07274 -9.26257,-1.64282c0.00413,-0.03657 0.00816,-0.07318 0.01212,-0.1098c-4.17769,-0.75426 -7.80499,-2.93673 -7.49027,-7.83179c0.0478,-0.7435 1.17877,-2.52639 0.92714,-3.20171c-0.71843,-1.92813 -4.10794,-1.65095 -2.84124,-4.69641c0.95761,-2.30235 2.24118,-1.56265 3.92282,-1.30696c0.41273,0.30955 1.0216,1.54312 1.14441,1.04203c0.20988,-0.85631 0.19047,-2.01691 0.94702,-2.46961c0.13991,-0.08371 1.54228,0.05064 2.70896,0.2538c-0.96078,-0.68631 -2.01743,-1.71076 -2.23886,-1.97292c-1.6066,-1.90208 -0.98458,-3.5071 -1.28832,-5.67499c-0.0831,-0.59314 -0.99662,-0.6706 -1.44603,-1.06652c-1.15515,-1.01764 -1.36032,-2.47929 -1.82955,-3.83531c-2.56189,-1.72524 -5.75236,-3.87515 -8.9395,-4.01165c-0.70751,-0.0303 -2.56802,-0.32872 -3.19218,0.08314c-0.71006,0.46854 -1.12793,1.31659 -1.8638,1.74344c-0.6836,0.39653 -1.63124,0.16434 -2.29569,0.59219c-0.13603,0.0876 0.24194,0.23843 0.28177,0.39525c0.20617,0.81172 0.2119,1.66338 0.25,2.5c0.11624,2.55247 -0.18141,3.25186 -2.56694,4.17401c-1.55223,0 -2.82303,-0.90341 -4.10846,-0.98783c-0.92147,-0.06051 -1.71562,0.97049 -2.63272,0.86236c-0.08116,-0.00957 -1.36909,-1.06848 -1.93745,-0.88714c-2.03951,0.65072 -4.06647,2.36145 -6.0845,0.08046c-1.09697,-1.23991 -0.29744,-2.6421 -1.00809,-3.9422c-0.66685,-1.21998 -2.03446,-1.01838 -2.88416,-2.07877c-0.71814,-0.8962 -0.2149,-3.21206 -1.7482,-2.81493c-3.77869,1.37407 -7.01222,0.90532 -9.91182,-1.95982l-0.37952,-0.31246c-2.26104,-0.39624 -3.22378,2.01434 -5.62048,-0.06254c-1.38136,-1.19703 -1.40728,-3.76438 -2.22239,-5.30195c-0.84126,-1.58689 -2.13184,-2.90241 -2.89763,-4.54522c-0.42176,-0.90478 -1.1424,-2.60997 -0.60367,-3.61618c0.91058,-1.70073 3.79392,-1.36287 5.24856,-2.32861c1.24198,-1.71697 2.24941,-3.13463 3.83953,-4.46956c0.05613,-0.04712 -2.77705,-2.17428 -2.92451,-2.30305c-2.14958,-1.87725 -3.47721,-4.15901 -5.27082,-6.21722c-0.60506,-0.69432 -1.46829,1.11869 -2.25943,1.59016c-0.91825,0.54722 -2.246,0.43428 -2.1879,1.23525c-0.4061,1.93342 -1.08585,4.17817 -3.80859,3.60547c-0.55283,-0.11628 -0.62894,-1.72197 -1.04202,-1.33661c-0.9605,0.89605 -0.92254,2.0763 -3.08298,1.33661c-1.82572,-0.62509 -1.61639,-4.13963 -2.42297,-4.96146c-0.12861,-0.13104 -0.20003,0.34174 -0.3719,0.40632c-0.69196,0.25997 -1.53551,-0.00826 -2.19292,0.32968c-0.56539,0.29064 -0.99691,2.64707 -1.41853,3.19524c-0.61676,0.80187 -1.40794,1.42989 -2.28877,1.882l-0.13666,0.28761c-2.14321,1.6782 -4.13086,1.33857 -6.48983,0.18137c-1.42822,-0.65691 -2.77693,-2.54737 -4.29027,-0.85029c-0.30036,0.33683 0.62837,0.64894 0.9641,0.95051c1.86967,1.67941 4.24811,0.82416 6.16197,2.18386c1.12814,0.80148 1.5661,2.31026 2.72347,3.14954c0.82864,0.60089 3.28788,1.27913 3.80343,1.93581c0.75603,0.96296 0.42097,3.3274 0.41332,4.5066c0.44338,2.0128 3.73202,3.73296 3.57142,5.70136c-0.06077,0.7448 -1.77871,1.88054 -2.35865,2.46177c-0.29881,0.29948 -0.51733,0.67386 -0.82388,0.96543c-0.22452,0.21355 -1.05709,0.5384 -0.74755,0.55252c3.8528,0.17576 6.04059,3.21157 9.36854,4.26946c0,0 1.18586,0.39528 0.79057,1.58114c-0.19101,0.57304 -0.56664,0.77687 -0.90385,0.8345l-0.33294,0.44085c-0.84635,0.98168 -1.60609,2.74461 -2.73452,3.40124c-1.60745,0.93536 -2.68669,-0.09179 -4.21308,0.28755c-0.87723,0.21801 -1.57045,0.96909 -2.45627,1.14907c-1.62657,0.33048 -1.75825,-0.10468 -3.2398,-0.26457c-2.04674,-0.22088 -3.78724,0.31384 -5.73282,0.78109c-0.70441,1.06765 -2.9036,2.86538 -1.92929,4.33187c1.212,1.82424 3.51099,2.88787 4.48755,4.96764c0.5919,1.26056 0.10186,2.66812 0.67919,3.78826c0.48264,0.93641 2.43669,1.21435 3.2167,2.00334c1.52717,1.54474 1.73802,3.98861 2.81513,5.88864c0.12851,-0.24388 0.56775,-0.61963 1.74712,-0.93995c1.11901,-0.30392 2.07039,-0.01325 2.89194,-1.02283c1.02995,-1.26568 1.02671,-2.70072 2.7355,-3.47427c1.42482,-0.645 4.07436,-0.22648 5.21858,0.81427c1.04113,0.947 0.70274,2.67391 1.69164,3.55033c0.93029,0.82446 2.37811,1.11437 3.40112,1.97576c0,0 0.89014,0.76297 0.20738,1.67317l0.08627,0.41875c0,0.63988 -0.34118,2.33742 0.24626,2.87335c1.08054,0.98578 2.44241,0.54378 2.13558,3.03664c-0.11619,0.94403 -1.71035,1.45511 -1.55381,2.39328c0.61467,2.1487 3.22344,1.49399 3.02035,4.41584c-0.16156,2.32441 -3.90913,4.10897 -5.83762,3.92019c-0.35838,-0.03508 0.64347,0.38275 0.83116,0.69007c0.42824,0.70118 1.32477,1.42027 1.09393,2.20878c-0.27189,0.92873 -2.0965,0.4232 -2.62917,1.23112c-1.29124,1.95851 -1.29939,5.05103 1.26165,5.67132c2.075,1.39676 2.67581,3.92552 3.62223,6.22392c0.22962,0.55764 0.73032,2.13915 0.77967,2.77862c0.01542,0.19988 -0.32535,0.48049 -0.15236,0.58183c0.79841,0.4677 2.08752,-0.11127 2.71752,0.56645c0.47095,0.50663 0.47585,1.30602 0.6,1.98649c0.08817,0.48326 -0.39601,1.34165 0.07771,1.47167c1.28361,0.35229 3.94774,-0.53242 5.55705,-0.80528c0.23269,-0.14103 0.44898,-0.18428 0.44898,-0.18428l0.95943,-0.16713c1.85193,0 3.94427,-0.26429 5.77166,0.01614c1.29897,0.19933 2.0303,0.74288 3.38876,0.44153c1.70902,-0.37912 1.54329,-1.38179 2.93388,-2.15023c1.76751,-0.97672 4.82777,-0.31233 6.45428,0.47262c1.29163,1.09761 2.42363,1.62518 3.26956,3.16912c0.56825,1.03714 0.90719,3.69834 1.9035,4.42302c0.67452,0.49061 1.71462,-0.02172 2.48419,0.29993c1.10721,0.46277 1.83857,1.94852 3.08136,2.21845c1.89746,0.41212 3.92732,-0.13123 5.90247,-0.30058c0.14784,0.16 0.38176,0.16 0.38176,0.16l0.02159,-0.01493c0.7013,0.17104 1.51041,0.26032 2.32345,0.25124z"/><path d=""/></g></g></svg>