<svg version="1.1" xmlns="http://www.w3.org/2000/svg" xmlns:xlink="http://www.w3.org/1999/xlink" width="87.03091" height="178.45767" viewBox="0,0,87.03091,178.45767"><g transform="translate(-153.49842,-15.02773)"><g data-paper-data="{&quot;isPaintingLayer&quot;:true}" fill="#000000" fill-rule="nonzero" stroke="none" stroke-width="0.5" stroke-linecap="butt" stroke-linejoin="miter" stroke-miterlimit="10" stroke-dasharray="" stroke-dashoffset="0" style="mix-blend-mode: normal"><path d=""/><path d=""/><path d=""/><path d=""/><path d=""/><path d=""/><path d=""/><path d=""/><g><path d="M192.8306,17.54436c-2.55444,0.26083 -4.00271,3.21284 -5.17478,5.2587c-0.70009,1.222 -1.06273,2.70125 -1.87824,3.84531c-0.75391,1.05764 -2.04538,1.81798 -2.7243,2.94213c-1.0569,1.75001 -1.4863,4.3942 -2.0867,6.35128c-1.65808,2.79592 -2.29032,5.29495 -2.30336,8.5322c-0.00244,0.6065 -0.35417,1.36181 0.0444,1.81896c0.84904,0.97382 6.31825,0.50816 7.13283,-0.32458c0.40909,-0.41821 1.46264,-2.13511 1.77832,-2.32761c0.82861,-0.50527 2.28144,-0.34022 2.63177,-1.24529c0.87709,-2.19806 1.68648,-4.62767 3.16021,-6.51364c0.65849,-0.84269 2.37774,-1.42265 2.75852,-2.31352c0.59414,-1.39004 -0.18023,-3.41284 -0.2435,-4.82744c-0.04077,-0.91165 0.06477,-1.85957 0.19793,-2.81267c0.00259,-0.46014 0.01991,-0.9168 0.06469,-1.36495c0.04338,-0.43417 0.21408,-1.09023 0.31629,-1.74394c0.03056,-0.55196 0.02484,-1.0937 -0.0422,-1.61865c-0.02241,-0.05505 -0.04836,-0.10715 -0.07817,-0.1559c-0.65537,-1.07171 -1.87586,-2.37968 -2.83264,-3.4194l-0.47802,-0.00137c0,0 -0.10287,-0.02057 -0.24305,-0.0796zM194.18893,15.3462l1.10226,0.30634c0.41087,0.32638 0.82174,0.65276 1.23261,0.97914c0.86301,1.26833 2.03833,2.2988 2.36033,3.86805c0.51856,2.52724 -0.57103,5.5105 -0.46052,8.13722c0.08116,1.92901 0.92337,4.14425 -0.0025,6.01727c-0.57798,1.16924 -1.48951,1.42934 -2.29841,2.03012c-0.25117,0.27835 -0.51958,0.54528 -0.79462,0.8097c-1.27293,1.75923 -1.99644,3.92885 -2.79693,5.92555c-1.24523,2.24034 -1.85392,1.40262 -3.63406,2.36961c-1.10536,0.60045 -1.27402,2.40029 -2.87402,2.99641c-1.97154,0.73454 -7.67374,0.91356 -9.18126,-0.82873c-0.80793,-0.93375 -0.67482,-2.37719 -0.67858,-3.48291c-0.00474,-1.39162 0.09962,-2.70007 0.34108,-3.96059c0.17401,-1.21164 0.50568,-2.33855 0.95269,-3.18671c0.3331,-0.80262 0.73792,-1.59748 1.22275,-2.39502c0.61315,-2.09922 1.13103,-4.78679 2.25118,-6.66236c0.71264,-1.19323 2.01068,-1.98417 2.81856,-3.08271c2.84086,-3.86297 3.53996,-10.03383 9.56932,-10.15885c0,0 0.50235,0 0.87014,0.31846z"/><path d="M212.76798,57.28538l0.11507,1.04217c0.01026,0.21354 -0.09354,1.39926 0.32672,1.68703c0.417,0.28554 1.07087,0.21634 1.38816,0.60972c0.34323,0.42554 0.15073,1.10123 0.38881,1.59338c1.18997,2.45992 2.77411,3.35824 2.78463,6.43598c0.39464,2.45723 2.69403,3.10344 3.38456,5.26337c0.68482,2.14207 -1.14915,4.96678 -1.51044,7.05699c-0.70744,4.09288 -0.26228,5.84947 2.20016,9.01531c0,0 0.08622,0.11085 0.1637,0.28714l0.60785,0.48652c0.66084,0.48987 2.63211,1.89663 3.57776,1.01309c0.69182,-0.64638 0.5086,-2.02782 1.32059,-2.51475c1.45229,-0.8709 7.61326,0.64388 8.98692,1.5349c2.64664,1.71674 1.35662,4.42536 3.12225,6.25402c0.5065,1.90118 0.6917,3.67958 -1.1412,5.0504c-0.94674,0.70807 -3.92609,0.43385 -4.33392,1.84763c-0.46726,1.61977 0.69906,2.83304 -0.72824,4.45811c-0.63986,0.72853 -1.82987,0.70109 -2.62104,1.26166c-1.37242,0.97241 -2.42301,2.33634 -3.63556,3.43899c-2.02396,1.84051 -5.97298,2.72218 -7.27723,-0.27541c-1.5505,0.15135 -1.84665,-1.22828 -2.92126,-1.38572c-1.72146,-0.25222 -1.37043,2.18776 -4.14715,1.07662c-0.43412,-0.17372 -0.66836,-1.23143 -1.03737,-0.94425c-2.66559,2.07449 -0.92032,8.33423 0.4824,10.64647c0,0 0.11062,0.18438 0.16365,0.44607c1.44371,2.99321 4.56643,5.30989 4.45801,8.80058c-0.05294,1.70473 -1.61588,3.80562 -1.44794,5.29161c0.15152,1.3406 1.87602,1.44876 0.8565,3.36136c-0.26454,0.49629 -1.42417,1.02907 -2.3554,1.04347c0.33674,0.40216 0.57112,0.93988 0.61415,1.39237c0.04718,0.49603 -1.21368,1.3375 -0.71607,1.31211c1.03623,-0.05288 1.93309,-0.91226 3.05208,0.1529c1.95049,1.85666 -0.56171,5.13754 -1.9466,6.41517c-1.19592,1.1033 -2.6043,1.02654 -3.82259,1.92948c-1.69303,1.2548 0.70587,3.58483 -1.98117,4.97609c-0.31359,0.16237 -0.72569,0.23667 -1.15291,0.23147c0.49085,0.59249 0.80656,1.18289 0.94549,2.14458c0.15635,0.20701 0.22792,0.42778 0.25316,0.5213c2.80619,1.24255 5.87246,0.21304 8.81443,1.09486c4.74295,1.42164 5.33446,6.02 10.66606,4.53972c3.1449,-0.71012 4.48006,0.63127 7.33736,1.21062c1.05145,0.21319 2.29029,-0.10506 3.18041,0.49383c1.18841,0.79959 1.60385,2.62661 1.19185,3.91343c-0.79993,2.49846 -4.73308,3.12425 -6.29261,5.23209c-1.53223,2.07095 -2.0674,4.94997 -3.30601,7.2099c-0.76504,2.12286 -0.57549,5.94322 -2.99426,6.97385c-1.93169,0.82309 -4.97649,-0.77915 -7.11468,-0.57954c-2.72115,0.25403 -5.21336,5.13096 -8.5351,2.241c-0.46975,-0.40869 -0.71701,-1.80024 -0.86338,-2.72636c-1.14182,-2.19389 -1.34628,-4.98929 -0.73523,-7.38582c0.41241,-1.61745 1.52668,-2.18565 2.21967,-3.43378c0.07423,-0.1337 -2.9926,-3.14866 -3.0998,-3.60724c-0.4195,-1.79455 0.53477,-2.8452 1.42849,-4.0948c-0.93192,0.18607 -2.35236,0.06516 -2.62886,-1.27958c-0.00586,0.05768 -0.01869,0.10724 -0.04197,0.13714c-0.28959,0.37202 -0.73607,0.5893 -1.10441,0.88357c-0.73016,0.58331 -1.36253,1.28197 -2.08856,1.87042c-1.48381,1.20263 -2.4932,0.79909 -4.07939,1.40946c-1.56681,0.60291 -1.9831,3.12212 -3.72424,3.80133c-2.71094,1.05751 -3.81942,-1.53466 -4.41048,1.77785c-0.81104,1.07299 -1.26635,1.99586 -2.65795,2.46814c-1.63227,0.55397 -3.73394,-0.20164 -5.44128,0.1399c-2.5344,0.50699 -2.78712,4.04106 -5.93485,3.09479c-0.71772,-0.21576 -1.45997,-0.62498 -1.86519,-1.25544c-0.34318,-0.53392 -0.1407,-1.2629 -0.16117,-1.89726c-0.00863,-0.26758 0.21296,-0.9325 -0.02128,-0.80287c-2.30008,1.27292 -5.03393,1.14237 -7.06392,2.75995c-2.44925,0.62921 -10.74628,0.78536 -10.33582,-3.58868c0.08769,-0.93446 1.67315,-1.14609 1.93204,-2.04824c0.35005,-1.21981 -0.1881,-2.72667 0.20324,-4.05085c0.67749,-2.29246 2.58006,-3.97261 3.82988,-6.0016c-3.33069,-0.17356 -7.05402,-0.91826 -9.75822,-2.71866c-0.93097,-0.61982 -2.32674,-1.72196 -2.22566,-3.05439c0.08712,-1.14844 1.3392,-1.87425 1.99796,-2.81898l0.35737,-0.47762c0,0 0.15321,-0.20428 0.41346,-0.35893c1.39612,-3.51987 1.602,-7.07201 2.56813,-10.82157c0.01221,-1.31248 0.76747,-5.71682 1.93085,-6.5858c0.06209,-0.04638 0.14763,-0.07525 0.24805,-0.09019c-0.82438,-1.08972 -0.37707,-3.56755 -0.15095,-4.47445c0.47588,-1.90858 1.412,-3.59243 2.03034,-5.43583c1.0592,-3.15775 1.49353,-6.65963 2.303,-9.8975c2.4094,-9.6376 1.57295,-19.63447 3.99313,-29.3044c0.92872,-4.64356 3.06386,-8.76579 4.71385,-13.15945c0.61633,-1.6412 0.71507,-3.363 0.93173,-5.05238c0.49292,-3.84349 1.6573,-7.2495 1.6573,-11.1806c0,-3.33836 0.65084,-9.87167 4.02432,-11.7847c0.27259,-0.15458 2.71017,-0.1378 3.22568,-0.13197c1.42046,0.01608 2.51938,-0.1779 3.64172,1.13451c1.15133,1.34631 0.60828,4.4758 0.60828,6.11549c0,0.70667 -0.3656,2.53596 0.30055,3.11612c0.65027,0.56633 1.57053,0.71355 2.3418,1.09919c2.69566,1.34783 4.33665,1.24634 7.28826,0.87739c0.90481,-0.1131 2.51404,0.1523 3.26884,-0.64324c1.20035,-1.26514 0.77296,-3.04547 2.73886,-3.93763c1.16208,-0.52737 2.71882,0.37364 3.86248,-0.26624c1.72381,-0.96447 1.02439,-2.07068 3.3127,-2.7916c0,0 0.79711,-0.19928 1.26038,0.37155c0.34248,0.33024 0.39625,0.8142 0.39625,0.8142zM217.18354,80.53949c0.2317,-1.32516 2.06352,-4.57652 1.60068,-5.8319c-0.32367,-0.87789 -2.00393,-1.88682 -2.52869,-2.71378c-0.79477,-1.25244 -0.73528,-1.72623 -0.97564,-3.13396c0.01003,-2.73885 -1.48538,-3.29314 -2.54871,-5.56402c-0.15192,-0.32444 0.17187,-0.79656 -0.05564,-1.07329c-0.23128,-0.28132 -0.7899,-0.03084 -1.05629,-0.27917c-1.00904,-0.94064 -1.09827,-1.5829 -1.16496,-2.56795c-0.31768,0.53032 -0.5705,1.19895 -1.42391,1.6913c-1.47181,0.84913 -2.82906,-0.07651 -4.13752,0.40044c-0.89735,0.32709 -1.34574,2.82904 -1.9278,3.3957c-1.35253,1.31675 -3.07796,1.1501 -4.73116,1.35675c-3.40654,0.42582 -5.56581,0.45037 -8.71175,-1.1226c-0.36776,-0.18388 -2.83124,-1.39674 -2.99153,-1.56749c-1.70952,-1.821 -1.0413,-5.26418 -1.03278,-7.55055c0.00234,-0.62846 0.32248,-1.38459 -0.05838,-1.88451c-0.43326,-0.56869 -2.49955,-0.16593 -3.02495,-0.19882c-1.32609,-0.08303 -1.27854,0.77148 -1.88197,1.97568c-1.18948,2.37372 -1.5347,4.81873 -1.5347,7.44098c0,4.03634 -1.19787,7.54609 -1.67603,11.48606c-0.22765,1.87582 -0.3887,3.79991 -1.06828,5.61429c-1.60686,4.29006 -3.71313,8.30886 -4.61947,12.84055c-2.41852,9.68447 -1.59086,19.69825 -4.00687,29.36227c-1.07086,4.28346 -1.83137,8.68442 -3.37366,12.79718c-0.32111,0.85629 -1.84423,3.42666 -1.35084,4.42129c0.57676,1.1627 2.40881,0.14762 2.09515,2.47836c-0.12986,0.965 -1.07819,1.70906 -1.91634,2.20464c-0.32279,0.19087 -0.65178,-0.51266 -1.02388,-0.46611c-0.20244,0.02533 0.24862,0.36099 0.23622,0.56464c-0.02954,0.48544 -0.20179,0.95372 -0.35664,1.41475c-0.30097,0.89604 -0.62537,1.82295 -0.6154,2.76814c-1.10716,4.54469 -1.32922,8.81952 -3.45594,13.07296l-1.14069,0.54307c-0.27586,0.24096 -0.5444,0.48708 -0.73313,0.79575c-0.44285,0.72429 1.41903,0.94245 2.18507,1.30835c2.69116,1.28539 5.96613,1.76604 8.90404,1.76604c0,0 1.25,0 1.25,1.25c0,0.02772 -0.00061,0.05482 -0.00181,0.08132c0.26538,0.52071 0.00088,1.1026 0.00088,1.1026c-1.07854,2.3501 -3.57183,4.27518 -4.26996,6.71704c-0.71093,2.48663 0.61991,4.41352 -2.08695,5.90091c-0.32657,0.17945 0.73592,0.13127 1.09058,0.24561c0.37624,0.1213 0.73046,0.30951 1.11272,0.41022c1.40607,0.37048 3.16444,0.53208 4.57199,0.19993c1.73392,-1.39273 3.29434,-1.13358 5.3014,-1.7422c0.7315,-0.22182 2.38536,-1.34301 2.96802,-1.27563c0.81705,0.09448 1.62754,0.59971 2.12436,1.2552c0.20798,0.27441 -0.27657,3.55427 1.01599,2.83903c1.65726,-0.91705 2.0108,-2.67444 4.2105,-3.17722c2.26756,-0.51829 4.74369,0.76124 6.34522,-1.16973c0.17674,-1.15068 0.16348,-2.29351 1.41787,-3.03039c1.28852,-0.75692 3.13483,0.37344 4.39387,-0.08065c0.87436,-0.31536 1.61552,-2.1029 2.20505,-2.69296c1.42732,-1.42861 2.4698,-0.87837 4.09966,-1.51797c1.50267,-0.58968 2.63278,-2.5195 4.03202,-3.37985c0.63908,-0.39296 1.25968,-1.12153 2.00369,-1.02511c0.86129,0.11162 1.02714,1.6482 1.88192,1.80188c1.07676,0.19359 2.89108,-0.7846 3.65098,0.60313c0.42039,0.76771 -0.54597,1.66322 -0.81896,2.49483c-0.27907,0.43764 -1.75358,1.97032 -1.51553,2.6658c0.691,2.0188 3.64464,1.95134 3.12242,4.8372c-0.179,0.98917 -1.29754,1.55095 -1.78837,2.42821c-0.88716,1.58559 -0.95536,4.10659 -0.20595,6.05496c0.3725,0.31054 0.45473,0.8039 0.45473,0.8039c0.10012,0.60533 -0.30691,1.43636 0.16065,1.83364c1.24844,1.06077 5.30425,-2.69472 6.57601,-2.87011c1.94432,-0.26815 4.80087,1.26101 6.44087,0.75379c0.774,-0.23938 1.35739,-4.83303 1.6724,-5.69281c1.32553,-2.44107 1.93339,-5.43364 3.58288,-7.67899c0.82803,-1.12715 2.17827,-2.30562 3.38119,-3.00339c0.6209,-0.36016 2.23357,-0.70912 2.54843,-1.5423c0.53743,-1.42212 -1.81834,-0.99972 -2.51664,-1.14829c-2.49765,-0.53142 -3.59564,-1.85539 -6.2182,-1.23382c-2.40606,0.64602 -5.64938,1.02525 -7.57109,-1.04668c-1.71907,-1.85345 -1.69986,-2.67813 -4.42952,-3.52472c-3.32406,-1.03094 -6.50916,0.18578 -9.78595,-1.54022l-0.33812,-0.64106c-0.65259,-0.31573 -0.65259,-1.12619 -0.65259,-1.12619c0.13365,-1.20085 -0.54301,-1.36465 -1.29184,-2.24069l-0.96906,-0.35238c-0.49429,-0.16674 -0.85021,-0.63416 -0.85021,-1.1847c0,-0.53019 0.33008,-0.98329 0.79596,-1.16499l1.3066,-0.54442l0.01632,0.03917c0.07163,-0.03944 0.14466,-0.07657 0.2193,-0.11105c0.73152,-0.33794 1.60505,0.23398 2.40976,0.19209c0.41308,-0.0215 0.01276,-0.82729 0.0309,-1.24053c0.06632,-1.5105 0.07719,-2.22806 1.32126,-3.33893c1.47455,-1.31667 3.14718,-1.00459 4.36643,-2.68482c0.25077,-0.34557 0.4869,-0.70156 0.73486,-1.04914c0.20541,-0.28793 1.02827,-0.89579 0.68507,-0.81028c-2.13243,0.5313 -3.65548,0.37513 -3.88074,-2.4067c-0.03264,-0.40308 0.57189,-0.62276 0.6612,-1.01718c0.19796,-0.87428 -1.19152,-1.33969 -1.77727,-2.01827c0.67556,-0.60913 1.22219,-1.40284 2.02667,-1.82738c0.24415,-0.12885 0.7655,-0.08662 1.20132,-0.00027c-0.35357,-0.40669 -0.52486,-1.16578 -0.55769,-1.69022c-0.12092,-1.93142 1.33713,-3.62554 1.44096,-5.59728c0.13798,-2.6203 -3.03292,-5.29564 -4.23274,-7.67052c-0.09099,-0.10654 -0.30028,-0.38573 -0.34283,-0.74255c-1.47691,-2.78175 -2.04897,-6.23695 -1.63822,-9.35836c0.18397,-1.39803 1.11496,-3.82735 2.65117,-4.33545c1.06185,-0.3512 2.32471,0.34088 3.18484,1.05575c0.88888,0.73875 2.03423,-1.46201 3.18618,-1.36783c1.7712,0.14481 2.04995,1.59376 3.96763,1.72539c2.57962,4.08003 5.75604,-1.36471 8.19832,-3.05865c0.67459,-0.46788 1.65323,-0.4163 2.26785,-0.96056c0.44846,-0.39713 0.07889,-1.19589 0.09018,-1.7948c0.03346,-1.77412 -0.20601,-2.09658 1.35305,-3.41652c1.38156,-1.16966 5.12025,-0.57544 4.35341,-3.21032c-1.30706,-1.57029 -0.55568,-3.09876 -1.52072,-4.71755c-0.72895,-1.22275 -3.04716,-1.07205 -4.20326,-1.32347c-0.12403,-0.02697 -2.73876,-0.9216 -2.83351,-0.83673c-0.65217,0.5842 -0.4358,1.83264 -1.12384,2.37414c-2.09385,1.6479 -4.89026,0.27035 -6.64446,-0.98691l-1.13374,-0.90657c0,0 -0.41727,-0.33382 -0.4879,-0.83776c-2.52315,-3.41156 -3.07498,-6.00882 -2.29553,-10.4667z"/><path d="M176.42128,51.0962c-0.22328,-0.0457 -0.46051,-0.1278 -0.73573,-0.25476c-0.04388,-0.02024 -1.41265,-0.91518 -1.44704,-0.70899c-0.27223,1.63236 -1.04611,4.72121 0.91714,3.16153c0.12989,-0.21262 0.25854,-0.4225 0.38893,-0.63016c0.24999,-0.55854 0.52001,-1.09172 0.8767,-1.56761zM177.82512,49.71337c0.16915,-0.0878 0.43975,-0.14857 0.71034,0.12203c0.44194,0.44194 0,0.88388 0,0.88388l-0.49077,0.48906c-0.87187,0.6622 -1.24077,1.7037 -1.70147,2.67556c-0.59074,0.54739 -1.34963,1.55532 -2.29996,1.40872c-0.34374,-0.05303 -0.61689,-0.29781 -0.82607,-0.66092c-0.4891,-0.579 -0.59503,-1.63962 -0.5462,-2.64776c-0.00248,-0.54971 0.04688,-1.08724 0.14155,-1.53995c0.03013,-0.53769 0.07314,-1.09771 0.58702,-1.42363c0.57285,-0.36332 1.06447,-0.2541 1.51468,0.00364c0.90519,0.28894 1.90602,0.95127 2.78361,0.70817c0,0 0.05095,-0.0139 0.12727,-0.0188z"/></g></g></g></svg>