<svg version="1.1" xmlns="http://www.w3.org/2000/svg" xmlns:xlink="http://www.w3.org/1999/xlink" width="97.55031" height="94.99997" viewBox="0,0,97.55031,94.99997"><g transform="translate(-36.2598,-261.29956)"><g data-paper-data="{&quot;isPaintingLayer&quot;:true}" fill="#000000" fill-rule="nonzero" stroke="none" stroke-width="0.5" stroke-linecap="butt" stroke-linejoin="miter" stroke-miterlimit="10" stroke-dasharray="" stroke-dashoffset="0" style="mix-blend-mode: normal"><path d=""/><path d=""/><path d=""/><path d=""/><path d=""/><path d=""/><path d=""/><path d=""/><path d="M125.26455,281.6557c-1.64151,-0.43918 -3.4919,-0.45677 -5.11488,-1.06668c-0.72996,-0.27432 -2.43333,-1.15839 -3.24248,-0.77571c-0.01924,0.0091 -0.15481,1.98676 -0.4102,2.93431c0.39276,-0.12516 0.9545,-0.20028 1.26698,-0.23826c0.49174,-0.05977 0.99071,-0.01321 1.48606,-0.00937c2.49615,0.01934 3.462,0.56402 4.21268,2.94683c0.0353,0.80192 0.5732,1.75311 0.10591,2.40577c-0.43012,0.60075 -1.4458,0.30578 -2.16586,0.47137c-4.02495,0.92561 -7.08279,-0.84622 -10.97213,-1.33333c-0.63751,-0.07984 -2.82093,-0.33704 -3.36892,-0.08579c-3.25038,1.49029 -3.54919,4.93024 -0.41414,6.49777c3.79347,3.71837 7.71335,3.03813 12.36946,4.8417c2.25505,0.87351 3.84958,3.83575 6.56598,3.63438c0.54477,-0.04039 0.30578,-1.04978 0.49464,-1.56237c0.53563,-1.45376 0.93485,-1.99215 0.92236,-3.56632c0,-1.34647 0.43238,-3.55311 -0.21201,-4.79612c-0.45823,-0.88392 -1.48378,-1.37982 -1.95908,-2.25467c-1.15905,-2.13341 -0.66069,-5.81991 0.30305,-7.84156zM127.91164,282.17637l-0.54359,0.79932c-0.62766,1.17271 -1.14855,4.22996 -0.36362,5.49177c0.55631,0.89429 1.5783,1.46584 2.04093,2.41199c0.83428,1.70626 0.45466,4.03327 0.45466,5.87055c-0.01343,2.13051 -0.84474,6.7221 -3.24966,7.53798c-2.62192,0.8895 -5.35742,-1.9412 -7.06456,-3.19059c-1.64348,-1.20281 -4.19182,-1.18166 -6.08851,-1.44009c-3.05697,-0.41651 -5.81465,-2.07324 -7.91149,-4.22658c-4.83401,-2.41701 -3.94957,-8.81894 0.9192,-10.83557c2.86784,-1.18784 7.3182,0.56561 10.11486,1.27551c1.25055,0.31743 5.77753,0.62919 4.81748,0.18251c-0.31689,-2.82876 -5.12037,0.46489 -6.6712,-1.08595c-1.16562,-1.16562 0.08726,-6.46713 1.22672,-7.28053c0.30558,-0.21814 3.60501,-0.22681 3.94436,-0.15325c2.46368,0.53404 6.04998,1.37268 8.27182,2.43186c0,0 1.11803,0.55901 0.55902,1.67705c-0.12918,0.25837 -0.28822,0.42717 -0.45641,0.53402z"/><path d="M91.61779,288.83609c0.21393,0.97749 0.87053,1.95982 0.93084,3.06145l0.19413,-0.01849c-0.38347,1.23802 -1.35994,2.50486 -2.57297,3.09965c1.47696,-0.42501 2.92953,-1.02227 4.40713,-1.43309c4.00817,0.04601 4.30436,2.80732 7.32256,4.31502c2.07867,1.03836 4.62482,0.51601 6.64817,1.62487c0.76156,0.41735 2.08498,1.66771 2.38218,2.48426c0.32481,0.89242 -0.07609,1.93663 0.21361,2.84105c0.39781,1.24189 1.21196,2.29033 1.74142,3.44804c0.29771,0.65098 -0.28273,1.88412 0.39633,2.11061c0.3452,0.11514 0.7129,-0.14654 1.06934,-0.21981c1.53758,0.50721 2.31888,1.65819 3.46003,2.27168c0.52375,0.28157 2.39366,-1.50043 2.64341,-1.58506c2.52898,-0.8569 3.10206,1.24045 5.40914,0.73068c0.7794,-0.17222 1.22929,-1.09163 1.99086,-1.33067c2.00956,-0.63078 5.62751,1.47456 5.94455,3.88056c0.11211,0.85074 -0.61882,1.59199 -0.90752,2.41181c0.03556,-0.0013 0.07107,-0.00261 0.10651,-0.00396c0.07937,0.84572 0.1902,1.68535 0.1902,2.12125c0,2.24478 0.94663,7.08978 -1.44099,8.36804c-1.33175,0.71298 -2.62616,-0.11575 -3.74337,-0.68286l-0.08978,-0.17956c-0.04009,-0.08456 -0.12623,-0.14304 -0.22603,-0.14304c-0.00152,0 -0.00304,0.00002 -0.00455,0.00004c-0.20725,-1.0236 -0.52089,-4.27689 -0.87918,-4.72873c-0.09868,-0.12445 -2.19745,0.19057 -2.41537,0.28202c-1.87073,0.785 -3.46844,1.0505 -5.57392,0.82801c-3.93567,-0.41589 -5.19141,-3.31964 -8.06494,-5.20036c-1.06583,-0.69758 -2.49077,-0.9978 -3.61734,-1.67374c-2.88148,-1.24311 -3.94751,-7.17053 -7.58214,-5.0301c-3.86925,2.27859 -2.2522,5.84785 -3.41423,9.51648c-0.59035,1.86379 -1.66261,2.68146 -3.18797,3.78495c-3.39343,0.73129 -8.01707,0.92613 -11.12262,-0.80142c-1.05677,-0.58786 -1.82388,-1.4323 -2.637,-2.23582c-0.00483,-0.10667 -0.01051,-0.21328 -0.0169,-0.3195c-0.58609,-0.5462 -1.28532,-1.15285 -1.82132,-1.21296c-1.95907,-0.21967 -3.36611,1.08029 -4.90187,-1.24403c-0.31358,-0.47458 0.00717,-1.14697 -0.11447,-1.70263c-0.22919,-1.04692 -1.58952,-1.48749 -1.40433,-2.75535c0.08495,-0.58154 1.02633,-0.61483 1.40684,-1.06273c0.0952,-0.11205 -0.01777,-1.57787 -0.03802,-2.69493c-0.34125,0.49426 -0.70321,1.00326 -0.98125,1.4183c-1.50103,1.50885 -3.07178,2.67881 -4.98811,3.18528c-0.01287,0.07975 -0.02505,0.15912 -0.03656,0.23807c-1.45562,0.5519 -2.7582,0.19132 -4.22778,0.04051c-4.4048,-0.45204 -10.20347,-1.16122 -11.26796,-6.4837c-1.46677,-1.83137 -2.86908,-3.94559 -4.49275,-5.62633c-0.64762,-0.67039 -1.88521,-0.65683 -2.4012,-1.43309c-0.63006,-0.94786 -0.22785,-3.7664 0.08691,-4.80697c1.57023,-5.19103 7.44396,-4.51997 10.3143,-8.2777c2.30188,-1.73042 7.77818,-2.93158 10.06213,-0.45329c1.2857,1.39511 0.66849,2.6082 1.42385,3.99735c0.60693,1.11617 2.16331,1.14434 2.95837,1.88817c0.84602,0.79151 1.57737,4.72962 2.9444,3.97593c0,0 0.06255,-0.01251 0.16222,-0.01775c-0.40717,-1.02573 -0.36235,-2.5136 -0.91877,-3.21538c-1.43703,-1.92543 -4.38464,-2.18275 -5.23403,-4.60073c-0.41532,-1.1823 -0.47122,-2.69292 0.81691,-3.22258c1.48165,-0.60922 3.26621,0.01385 4.7609,-0.4222c0.39913,-1.33895 1.04415,-1.86865 2.50352,-1.75144c1.9864,0.15954 3.85816,1.70571 5.7963,2.15654c1.69154,0.39346 3.85871,-0.40449 5.5091,-0.72797c2.5327,-0.00993 4.42476,0.3941 5.68609,1.76021l0.18324,0.41228l0.04117,-0.0183c0.00378,0.04097 0.00754,0.08193 0.01132,0.1229l0.10366,0.07043l-0.04162,0.02882l0.57766,0.8344c-0.01078,0.00223 -0.02159,0.00445 -0.03242,0.00665zM130.31285,316.60675c0.13591,-0.841 0.9151,-1.50786 0.98922,-2.35654c0.05854,-0.67028 -1.18415,-0.68394 -1.63566,-1.18279c-1.0768,-1.1897 -2.89589,1.12146 -5.00473,0.96297c-0.66039,-0.04963 -2.73356,-1.19151 -3.21506,-0.89961c-1.40212,0.85 -2.61185,2.22485 -4.55659,1.61494c-0.89734,-0.28142 -1.8072,-1.7436 -2.93997,-2.12832c-0.71022,-0.07327 -1.54286,0.1855 -2.13066,-0.21981c-0.85782,-0.5915 -0.80319,-2.23067 -1.20367,-3.08939c-0.57971,-1.24304 -1.45574,-2.40175 -1.85858,-3.75195c-0.26353,-0.88327 0.05581,-1.8696 -0.1864,-2.75895c-0.34059,-1.2506 -2.45845,-1.44294 -3.39724,-1.57632c-2.09238,-0.29728 -4.03516,-0.75383 -5.76104,-2.02841c-1.70722,-1.26081 -2.05536,-3.22643 -4.4888,-3.17111c-2.01552,0.59638 -4.44366,1.92504 -6.57338,1.81208c-0.72399,-0.0384 -1.51059,-0.06063 -2.13089,-0.43595c-0.4692,-0.28389 -0.4244,-1.64252 -0.90319,-1.37511c-0.76059,0.4248 -1.2994,1.23564 -2.11979,1.52874c-1.17048,0.41817 -2.83227,0.43448 -3.92644,-0.34839c-0.57335,1.77327 -2.94566,3.59712 -4.31946,3.81457c-1.02574,0.16236 -2.21589,-0.32551 -3.16966,-0.6397c-0.45799,-0.13075 -0.91598,-0.2615 -1.37397,-0.39225l-0.75977,-0.18923c0,0 -0.90866,-0.22717 -0.95623,-1.07479c-0.29758,-0.3329 -0.57792,-0.74215 -0.85529,-1.23564c-0.20243,-0.36016 -0.19578,-1.74445 -0.70837,-2.13817c-1.222,-0.9386 -2.64955,-1.02383 -3.54163,-2.61183c-0.66025,-1.17532 -0.21684,-2.39284 -1.07615,-3.50265c-1.01011,-1.30458 -5.29192,-0.30927 -6.43788,0.54671c-0.27578,0.37682 -1.40348,1.94248 -1.62352,2.10827c-2.65395,1.99965 -6.94196,1.33336 -8.06218,5.11404c-0.07836,0.26448 -0.49426,2.60552 -0.4131,2.69303c0.53368,0.57542 1.5376,0.51828 2.0988,1.06691c1.83386,1.79278 3.51126,4.29237 5.00725,6.37367c0.87977,4.39886 5.59257,4.661 9.23204,5.0163c0.30418,0.0297 0.63184,0.09774 0.96838,0.16193c0.32707,-0.18044 0.67104,-0.18044 0.67104,-0.18044h0.4c0.76794,0.02308 1.47624,-0.13729 2.13594,-0.42103c0.19927,-0.10782 0.40017,-0.21957 0.60019,-0.33379c-0.00517,0.01486 -0.01031,0.02972 -0.01543,0.04458c0.84273,-0.47089 1.60483,-1.12926 2.31263,-1.83225c0.98086,-1.48075 3.77803,-6.06445 5.92153,-2.28587c0.35479,0.62543 -0.93254,2.39914 -0.90577,3.23039c0.03625,1.12577 0.54322,2.41227 -0.03502,3.37886c-0.17157,0.28679 -0.69923,-0.02178 -0.99316,0.13727c-0.18607,0.10068 0.49513,-0.10316 0.63202,0.05815c0.37974,0.4475 0.62566,1.01605 0.76364,1.5865c0.08647,0.35746 -0.2096,0.74212 -0.11447,1.09737c0.26717,0.99766 2.08106,-0.2237 3.09813,-0.04404c1.44547,0.25534 2.68663,1.58256 3.78064,2.45777c0,0 0.43839,0.35072 0.49254,0.87587c0.31504,0.26832 0.65137,0.51494 1.0264,0.72294c2.41687,1.34044 6.20873,1.15383 8.87738,0.69858c4.40963,-3.52909 0.48868,-10.03952 6.39781,-13.19858c1.9091,-1.02062 4.82535,-1.21398 6.35456,0.57935c1.31391,1.54085 1.43921,3.6338 3.56331,4.39055c1.19988,0.71993 2.74891,1.06147 3.88267,1.82626c2.42739,1.63741 3.59447,4.49083 6.93505,4.79964c0.80504,0.07442 2.53412,0.28592 3.29316,0.03927c1.70393,-0.55369 4.40143,-2.17294 6.21755,-0.42924c0.79218,0.76059 1.10074,3.96871 1.07711,5.08451c0.32914,0.04506 0.66097,0.27401 0.97999,0.18134c0.24667,-0.07166 0.05902,-2.37395 0.05902,-2.38197c0,-1.55626 0,-3.11253 0,-4.66879c-0.47455,-0.42244 -0.37484,-1.12041 -0.37484,-1.12041zM91.29598,291.81988c-0.06621,-1.02154 -0.57889,-1.8302 -0.84093,-2.73762c-0.95269,-1.83581 -2.62299,-2.20743 -5.24318,-2.21964c-1.83846,0.37642 -4.03126,1.10595 -5.91947,0.70061c-2.40761,-0.51684 -5.76677,-3.69978 -7.12875,-0.73776c-1.28719,0.56731 -2.57006,0.47042 -3.95178,0.60859c-0.08908,0.00891 -1.46743,-0.03598 -1.52993,0.1352c-0.99088,2.71399 4.07338,4.3004 5.25405,5.86784c0.54284,0.75185 0.58078,3.35853 1.29449,3.79116c0.25296,0.15334 2.79022,-2.74324 3.04928,-3.00096c1.98289,-1.97262 3.33688,-0.55854 5.46222,-1.02807c1.20272,-0.24054 2.36691,-0.84714 3.61273,-0.72338c1.33617,0.13274 1.73154,0.94649 2.74902,1.47311c1.19271,0.61732 2.43263,-0.47924 3.08941,-1.64953c-0.04845,-0.19929 0.03377,-0.37512 0.10282,-0.47955zM76.62739,296.63433c0.14945,-0.31158 0.29507,-0.92688 0.47129,-1.51017c-1.03835,1.08569 -2.03651,2.71641 -3.16858,3.20845c1.12056,0.12266 2.01071,-0.26677 2.69729,-1.69828zM81.98713,294.42496c-0.34547,0.06399 -0.66742,0.05268 -0.97763,0.00764c-0.04189,0.32803 -0.17674,0.72232 -0.0613,0.99818c0.17667,0.42215 0.93635,-0.03226 1.35594,-0.21493c0.6992,-0.3044 1.22678,-1.03365 1.90904,-1.42232c-0.75029,0.15743 -1.50613,0.48744 -2.22606,0.63143zM87.62539,295.10381c-0.17561,-0.07209 -0.32646,-0.15864 -0.46262,-0.25287c0.17543,0.18169 0.34743,0.36011 0.5184,0.51853c0.32849,0.30439 0.83884,0.1183 1.31845,-0.05358c-0.44809,0.03983 -0.91077,-0.02182 -1.37423,-0.21209z"/><path d="M72.73507,280.3969c0,0 -0.0467,0.04671 -0.12493,0.09457c-0.44308,0.80822 -0.97756,1.76028 -1.69699,2.09906c-0.30615,0.14417 0.624,-0.26977 0.90854,-0.45294c0.41224,-0.26538 1.21167,-0.6255 1.49182,-1.04897c0.21592,-0.32638 -0.05281,-0.63317 -0.38839,-0.88177c-0.06335,0.06335 -0.1267,0.12669 -0.19005,0.19004zM71.8512,279.51302c0.19048,-0.19047 0.38096,-0.38096 0.57143,-0.57143l1.2172,0.20763c0,0 0.19022,0.1268 0.26387,0.34208c0.01472,-0.00007 0.02944,-0.00013 0.04417,-0.00017c0.13863,0.10718 0.23926,0.18766 0.25369,0.20623c2.14275,2.7563 -4.15853,5.13177 -4.52844,3.05061c-0.09864,-0.55494 1.13488,-2.08092 1.82871,-2.98904c0.07272,-0.02035 0.14588,-0.03923 0.21945,-0.05671c0.05698,-0.11624 0.12992,-0.18918 0.12992,-0.18918z"/><path d="M128.25445,331.30889c-0.64947,1.67483 -1.9661,2.83603 -3.26168,4.45551c-3.65342,4.56678 -7.74779,9.67881 -13.3808,11.60499c-1.73516,0.57133 -5.09692,0.19861 -6.52882,1.07166c-1.43481,0.87482 -0.71626,2.3761 -2.89375,3.13563c-0.98039,0.34197 -2.77833,-0.01461 -3.65775,0.6322c-1.39572,1.02654 -1.79102,3.4335 -3.7012,3.95419c-2.69318,0.73413 -4.38535,-1.62318 -4.0456,-3.97632c-2.93178,1.42293 -7.94254,3.39472 -9.71539,-0.30688c-0.53759,-1.12246 -0.46966,-3.67735 -0.28663,-4.89656c0.05086,-0.3388 0.99264,-2.27323 0.54998,-2.71589c-0.20554,-0.20554 -2.87728,0.16585 -3.11612,0.16611c-2.58074,0.00281 -4.63177,-0.2733 -7.07836,-1.09515c-2.52295,-1.28672 -3.99693,-2.88629 -6.80884,-3.53829c-0.29064,-0.06739 -1.43841,-0.62389 -1.89905,-0.43703c-0.84467,0.34265 -1.43724,1.2371 -2.32657,1.43703c-0.88844,0.19972 -3.06793,-0.80477 -3.74571,-0.48993c-2.42854,1.12811 -0.11709,5.28108 -0.51091,6.69284c-0.60349,2.16345 -1.65396,1.91148 -3.34197,2.22738c-1.77697,-0.00955 -5.86376,-0.02866 -7.50237,-0.66732c-2.23784,-0.87221 -1.20889,-2.2383 -2.61349,-3.44244c-1.54176,-1.32171 -3.55752,-1.45842 -4.51998,-3.64076c-1.19908,-2.71889 -3.60327,-11.43056 1.60305,-11.59966c-1.40255,-1.1062 -3.54261,-4.53704 -2.56304,-6.4768c0.81285,-1.60962 3.3569,-1.46097 4.73385,-1.65778c2.1702,-0.3102 4.76219,-0.29047 6.88619,-0.77864c4.00137,-0.91965 6.56828,-4.6103 10.86806,-1.35953c1.32763,1.07389 2.91917,3.40735 4.70632,3.75952c2.10731,0.41527 4.91219,-0.23125 6.92657,0.43703c2.85793,0.94813 5.06258,5.78924 8.2134,5.72983c2.17961,-0.0411 2.49579,-0.8145 4.75869,0.27763c1.19662,1.82077 3.70118,0.19656 5.50276,0.32522c0.64395,0.04599 1.36801,1.02448 1.84493,0.58934c1.35135,-1.23297 1.52504,-3.10018 3.19277,-4.19541c1.23418,-0.8105 3.35299,-0.87934 4.21037,-2.20425c0.66324,-1.0249 -0.01056,-2.74316 0.24675,-3.83002c0.53557,-2.26213 2.08951,-3.00131 4.12795,-3.35967c3.29436,0.02535 3.21908,0.9534 4.74153,3.37317c0.47777,0.75937 1.49332,1.11966 1.87371,1.9322c0.52496,1.12135 -0.28102,2.27111 0.85922,3.16941c0.87423,0.68874 2.19674,0.52326 3.21416,0.52208c2.39141,-0.00277 5.20748,0.10385 7.40264,-1.04802c0.71171,-0.37346 0.95436,-1.38677 1.68239,-1.72732c0.76809,-0.35928 1.66542,-0.32018 2.49813,-0.48028c0.73927,1.56207 1.52782,3.1723 2.20445,4.80085c0.00095,1.05993 0.36347,2.29913 0.74282,3.44995c-0.0252,0.05982 -0.05572,0.12063 -0.09267,0.18019zM125.9776,330.42668c-0.50583,-1.37294 -1.77423,-3.03173 -1.84399,-4.52121c-0.53309,0.95488 -2.3907,1.61619 -3.12164,1.86392c-2.87382,0.974 -7.40528,1.57302 -10.368,0.60729c-2.99013,-0.97467 -2.24999,-2.74303 -3.15392,-4.85166c-0.31525,-0.73539 -1.29436,-0.99428 -1.72629,-1.66779c-0.42146,-0.65719 -0.35691,-1.56949 -0.83097,-2.18981c-0.32949,-0.43115 -1.0849,-0.04337 -1.6275,-0.03703c-3.06082,0.23437 -1.2084,4.08306 -2.4253,6.01031c-1.20991,1.91618 -3.24751,1.9431 -4.98962,2.99575c-1.4783,0.89324 -1.67226,3.35092 -3.20723,4.20459c-0.9793,0.54464 -2.24008,-0.09913 -3.35507,-0.21065c-2.57723,-0.25778 -4.73292,1.51789 -6.89723,-0.87477c-1.26265,-0.6951 -1.82517,0.29357 -3.24131,0.27762c-0.17124,-0.00193 -2.75216,-0.83148 -2.9702,-0.95168c-2.09923,-1.15724 -3.71625,-4.14492 -6.0164,-4.9185c-1.88586,-0.63425 -4.64903,0.15141 -6.67343,-0.36298c-2.34503,-0.59585 -3.91254,-2.83501 -5.69368,-4.24048c-2.89167,-2.54159 -5.94251,1.19484 -8.73194,1.84048c-1.78923,0.41413 -3.89499,0.1594 -5.71382,0.42136c-0.40087,0.05773 -4.10353,0.39563 -4.26615,0.74221c-0.42301,0.90157 1.92427,3.19882 2.17011,3.78596c0.33213,0.79321 0.31123,1.69149 0.46685,2.53724c-0.8591,0.58939 -1.86894,0.9887 -2.60709,1.72393c-1.47781,1.47196 0.43568,6.36761 1.01014,7.87641c0.62726,1.64749 2.77257,1.73603 3.88002,2.75924c0.21634,0.19988 1.3594,2.87523 1.78651,2.95756c1.85695,0.35792 4.59464,0.54763 6.49763,0.53268c1.77442,-0.07876 0.54998,-0.87045 0.44176,-2.46454c-0.12508,-1.84233 0.52233,-5.31928 2.50537,-6.21524c1.82631,-0.82515 2.64786,0.70009 4.2543,0.31007c0.80375,-0.19513 1.28113,-1.12559 2.07343,-1.36298c4.05463,-1.21485 7.352,2.50278 10.49211,4.02468c2.4896,0.82248 4.79357,1.08469 7.43304,0.908c1.33613,-0.08944 2.3621,-0.64742 3.5725,0.56297c2.5794,2.57939 -2.87982,9.22256 2.6275,8.83702c0.84343,-0.05905 1.43988,-0.18167 2.21026,-0.50799c0.75597,-0.32022 1.46824,-0.73514 2.20466,-1.09807c0.67591,-0.3153 1.33024,-1.21006 2.02772,-0.9459c1.47136,0.55725 1.31961,2.67315 1.29597,3.79882c-0.00893,0.42545 -0.30551,1.12011 0.09149,1.27337c1.02218,0.39462 2.88604,-3.24984 3.54355,-3.69871c1.28026,-0.87403 2.92174,-0.63277 4.34225,-0.9678c1.3406,-0.31619 1.11872,-2.09546 2.30625,-2.86437c1.72894,-1.11946 5.06766,-0.65073 7.07118,-1.32835c5.13599,-1.65476 8.92386,-6.67583 12.2192,-10.79501c1.00982,-1.26228 2.42706,-2.34128 2.93701,-3.77598z"/><path d="M104.97715,270.93187c3.00405,0.19723 9.84201,0.80902 10.27128,5.05516c0.02359,0.23336 -1.24905,2.66275 -1.44777,3.0891c-0.24119,0.51746 -1.01481,2.51378 -1.32351,2.75905c-1.42373,1.13124 -2.85967,0.14416 -4.28641,0.84985c-2.939,1.45369 -4.70458,2.77246 -8.17678,2.77246c-1.61566,-0.4162 -2.41933,-1.57136 -3.77281,-2.06529c-1.99344,-0.72749 -4.0545,1.19685 -5.7812,-1.14863c-0.8776,-1.19209 -0.73645,-4.40001 -1.29702,-5.92114c-0.21216,-0.57572 -0.19603,-1.43946 -0.76243,-1.67539c-0.81458,-0.33931 -1.79965,-0.23932 -2.55365,-0.69774c-2.17414,-1.32186 -2.38321,-3.3786 -4.48676,-0.85282c-0.41387,0.72845 -1.12897,2.09878 -1.74298,2.59414c-2.0151,1.62569 -7.59435,2.38576 -9.28603,0.27321c-1.0806,-1.34942 -0.92869,-3.16731 -0.73808,-4.73534c0.71522,-5.884 3.56515,-8.48823 9.25428,-9.91893c0.22545,-0.00142 2.85447,-0.02749 3.04243,0.01069c0.8647,0.17568 1.41572,1.21332 2.29082,1.32638c0.31521,0.04073 0.49526,-0.46796 0.81139,-0.50083c1.00784,-0.1048 1.94158,0.58153 2.91991,0.84533c0.97414,0.26267 2.55766,-1.05904 3.58819,-1.02427c1.02029,0.03442 1.79799,0.96741 2.69686,1.45135c0.62801,0.33811 1.42323,-0.11801 2.13648,-0.11801c0.88057,0 1.75498,-0.04706 2.62697,-0.07274c1.55244,0.26603 2.77534,1.07002 3.94092,2.06182c0.46954,1.93932 1.62703,3.67678 2.07591,5.6426zM100.44144,265.73172c-2.35725,0.01722 -5.2862,0.79989 -7.30495,-0.04953c-0.62628,-0.26352 -0.95909,-1.26851 -1.63647,-1.21532c-1.52857,0.12002 -2.3722,1.25142 -4.07848,0.97573c-0.9496,-0.15343 -1.13099,-0.98098 -2.08009,-0.82134c-0.52651,0.08856 -0.99518,0.58617 -1.52195,0.49917c-0.57679,-0.09526 -0.93873,-0.70243 -1.4479,-0.98967c-0.98871,-0.55777 -2.13526,-0.33132 -3.21885,-0.33992c-4.72832,1.1708 -6.47405,3.05317 -7.07905,7.74775c-0.12776,0.99138 -0.30776,2.01894 0.26192,2.93132c0.51237,0.82059 1.6781,0.207 2.36123,0.03429c2.62287,-0.66312 3.21874,-0.41235 4.60976,-2.8336c1.66129,-1.99271 3.55218,-3.40892 6.10704,-1.62265c0.67793,0.47399 1.03898,1.32995 1.73953,1.76982c1.66766,1.04711 2.46512,0.06882 3.76072,2.10403c1.3661,2.14594 0.7226,4.88086 1.62618,6.93503c0.23048,0.52396 4.10099,0.02537 4.55214,0.18471c1.31436,0.46422 1.80295,1.59784 3.22719,1.93471c2.99536,0 4.27577,-1.4187 6.82322,-2.56088c0.64706,-0.29012 3.26972,-0.08486 3.71359,-0.48348c0.50197,-0.45078 0.39092,-1.29636 0.67649,-1.90761c0.31979,-0.6845 1.17368,-1.15674 1.2189,-1.9109c0.03612,-0.60252 -0.98609,-0.69641 -1.47814,-1.046c-2.45004,-1.74066 -5.16059,-1.37058 -7.91724,-2.23218c-1.13515,-2.20123 -2.37606,-4.64294 -2.91479,-7.10347z"/><path d=""/></g></g></svg>