<svg version="1.1" xmlns="http://www.w3.org/2000/svg" xmlns:xlink="http://www.w3.org/1999/xlink" width="69.02298" height="174.03583" viewBox="0,0,69.02298,174.03583"><g transform="translate(-267.8997,-256.90395)"><g data-paper-data="{&quot;isPaintingLayer&quot;:true}" fill="#000000" fill-rule="nonzero" stroke="none" stroke-width="0.5" stroke-linecap="butt" stroke-linejoin="miter" stroke-miterlimit="10" stroke-dasharray="" stroke-dashoffset="0" style="mix-blend-mode: normal"><path d="M294.67914,369.06576c0.10837,0.29303 0.26565,0.71348 0.42278,1.16814c0.34888,0.53129 0.65933,1.03159 0.57002,1.64848c-0.03418,-0.03014 -0.06885,-0.06 -0.10397,-0.08956c0.09715,0.4325 0.13166,0.7843 0.04613,0.9464c-0.43709,0.82836 -2.40097,-0.43959 -2.77862,0.4175c-0.12871,0.2921 0.38652,0.60634 0.29322,0.9116c-0.17297,0.56594 -0.99344,0.98012 -0.85554,1.55562c0.15834,0.66086 0.88344,1.37135 0.54953,1.96322c-1.02429,1.8156 -3.76476,0.23809 -3.93392,2.10222c0.02398,0.00063 0.04805,0.0013 0.07219,0.00201c0.01002,0.35219 0.04693,0.66321 0.06854,0.82708c0,0 0.00227,0.02267 0.00313,0.06219c0.00308,0.03941 0.00307,0.06219 0.00307,0.06219v0.42858c0,2.16282 0.50823,5.19496 -0.20995,7.26117c-0.72123,2.07498 -2.84267,2.68526 -4.03268,4.33605c-0.19529,0.27091 -0.38023,0.61474 -0.57204,0.97577c1.79062,-0.74009 4.33308,-0.2432 4.23449,2.5747c-0.05498,1.57132 -1.96245,2.34238 -2.53103,3.65346c-0.45173,1.04163 -0.94294,2.21587 -1.89975,2.82707c-0.22825,0.1458 -0.59669,0.04201 -0.82498,0.15385c0.00417,0.38831 -0.17633,0.70418 -0.17633,0.70418l-0.38802,0.61401c-1.06882,3.49854 -2.61865,2.73699 -5.09983,4.41089c-1.49217,1.00668 -1.25408,3.62089 -1.10367,5.10555c0,0 0.01919,0.19187 -0.03287,0.43244c1.12452,2.45993 4.28293,2.12617 5.43465,5.14231c0.24897,0.65202 1.28023,3.89795 1.16857,4.38146c-0.23367,1.0119 -1.63475,1.36918 -2.10933,2.29294c-1.13315,2.20565 0.17041,2.49739 1.61145,2.22397c0.15517,-0.13857 0.29374,-0.20785 0.29374,-0.20785c1.54876,-0.731 2.19506,-2.05765 3.1966,-3.3741c0.49552,-0.65134 0.76587,-1.76977 1.57651,-1.88219c2.1721,-0.30124 3.03483,3.16773 4.56947,3.94203c1.04973,0.52963 2.55305,-0.97485 3.74852,-0.61271c0.66911,0.20269 0.96855,1.80892 1.547,1.41627c2.15287,-1.46137 3.15953,-1.12609 5.2752,0.53959c2.04068,-0.72066 4.06753,-2.04506 6.36147,-1.556c0.788,0.168 4.03024,1.71516 4.79235,0.41654c0.39981,-0.68125 -0.73627,-1.38138 -1.07214,-1.59762c-1.28818,-0.82934 -3.84081,-2.56781 -4.41115,-4.04334c-1.50455,-3.8924 2.46895,-4.43468 4.67759,-2.31915c-0.04226,-0.31443 -0.12705,-1.166 -0.08763,-1.52076l0.15222,-0.9246c0,0 0.03557,-0.21338 0.16587,-0.44781c0.05953,-0.30698 0.14391,-0.58347 0.26128,-0.81294c0.64642,-1.2638 1.91522,-1.63978 2.5444,-3.09166c0.39965,-0.60172 0.58895,-1.41827 1.19896,-1.80514c0.87631,-0.55576 2.79823,0.44178 3.50893,-0.41021c1.03096,-1.23592 -2.00454,-2.10809 -2.22405,-2.56957c-0.92226,-1.93885 0.02401,-2.75987 1.24431,-3.8872c0.15405,-0.14231 1.21179,-0.55466 1.14357,-1.10993c-0.14375,-1.17005 -2.74867,-1.78346 -3.48462,-2.06365c-3.40476,-1.29627 -5.11073,-1.61787 -5.0738,-5.65376c0.00264,-0.00799 0.41083,-1.40142 0.91055,-2.33885c-1.52092,0.2541 -3.72006,0.0254 -4.94485,-0.24002c-0.19222,-0.04165 -1.58115,-0.6673 -2.01245,-0.47712c-1.42495,0.62835 -2.55012,2.13448 -4.49257,1.31492c-3.66972,-1.54834 -1.32948,-2.51445 -0.30588,-4.60795c0.24908,-0.50942 -3.36295,-2.8475 -3.45162,-3.00379c-0.30944,-0.54546 -0.0986,-1.25036 -0.1479,-1.87554c0,-1.35665 -0.42152,-4.09398 0.75356,-5.11791c0.55897,-0.48708 2.33893,-0.13045 3.123,-0.36072c0.62108,-0.1824 1.14156,-0.83667 1.7849,-0.76503c0.38577,0.04296 2.29182,1.62021 2.72357,2.04079c0.36505,0.3556 0.72302,1.35897 1.12054,1.04008c2.92997,-2.35039 1.7073,-7.46851 5.81059,-8.38749c0.2046,-0.20779 0.42618,-0.30627 0.42618,-0.30627c0.99049,-0.43904 2.55316,-0.70941 3.30136,-1.56046c1.26375,-1.43746 2.01801,-3.19545 3.49986,-4.50014c0.75427,-0.6641 1.81089,-0.9169 2.79042,-1.14155c0.72587,-0.16648 1.32135,-1.51357 1.72462,-1.74099c0.88854,-0.50109 4.30648,0.01923 4.93362,-0.70044c0.12311,-0.14127 -0.03226,-0.66178 -0.17077,-0.53558c-1.12903,-0.01227 -3.36876,0.21833 -3.79811,-1.43828c-0.1615,-0.62316 2.11798,-2.72197 3.25225,-3.45373c-0.88169,0.25874 -2.42257,0.69362 -2.67197,0.90278c-1.17591,0.98609 -4.38079,3.59004 -6.11232,2.68412c-0.73453,-0.3843 -0.78908,-2.31279 -1.20564,-3.07905c-1.54035,-2.83346 -2.88429,-5.22412 0.3812,-7.40004c0.96362,-0.1056 -0.11817,-2.76759 -0.18281,-3.83399l0.85653,-1.12273c-0.00071,-0.00234 -0.00142,-0.00469 -0.00213,-0.00704c-0.35919,-1.19729 0.8381,-1.55647 0.8381,-1.55647c0.80296,-0.23796 3.38733,-0.7888 3.5862,-1.86161c0.31783,-1.71458 -0.59005,-3.00572 0.8891,-4.53928c0.59596,-0.61789 1.72834,-0.36052 2.42858,-0.85714c1.01155,-0.7174 -0.2782,-2.68014 0.43466,-3.6949c1.13067,-1.60953 5.83164,-2.01445 5.77257,-4.20463c-0.00291,-2.06734 0.09732,-4.25934 0.08041,-6.19903c-0.00667,-0.76526 -1.87322,0.15275 -2.23595,-0.52112c-1.62435,-3.01765 1.29953,-2.66667 1.96861,-4.41656c0.50678,-1.32542 0.18501,-3.53993 0.18501,-4.93703c0,-0.70606 0.01077,-1.41643 0.02346,-2.12893c0.05521,-0.42541 0.08369,-0.85919 0.08369,-1.29964c0,-0.33039 -0.01602,-0.65704 -0.04733,-0.97921c0.00052,-0.05507 0.00099,-0.11015 0.00142,-0.16522c0.34193,-0.81858 0.28634,-1.68903 -0.03045,-2.55919c-0.02483,-0.65978 -0.06586,-1.31692 -0.13018,-1.96967c-0.50324,-1.12758 -1.1817,-1.78703 -2.05735,-2.40174c-0.52835,-0.7945 -1.21265,-1.47894 -2.00114,-2.02479c0.00801,-0.06141 0.02127,-0.12514 0.04053,-0.1912c-2.25714,-2.8832 -3.51738,-6.26528 -5.89658,-9.2165c-1.32139,-1.63908 -3.17208,-2.75711 -3.54135,-5.00654c-0.37732,-2.29841 1.08178,-4.28343 2.49201,-5.9215c-0.66123,0.11633 -1.56151,0.25211 -1.61759,0.25508c-2.15814,0.11435 -4.5945,-0.08074 -6.05438,-1.9074c-1.06917,-1.33778 -2.10372,-6.25438 -1.02377,-7.7928c0.39412,-0.56143 2.05984,-0.11018 1.90496,-0.77842c-0.46398,-2.00198 -4.57891,-1.66387 -5.96506,-1.66425c-1.82891,-0.20062 -3.2045,-0.09065 -4.58722,-1.56935c-1.18668,-1.26905 -3.32295,-5.43041 -5.59483,-5.15686c-0.73831,0.0889 0.70327,1.31398 0.97939,2.00447c0.32519,0.81317 0.09901,2.68151 0.76805,3.347c1.27631,1.26953 3.96022,2.024 5.55368,2.85177c1.68928,1.91949 2.20085,3.53971 2.341,6.0629c0.07799,1.40407 -0.32574,3.32425 0.29852,4.65296c0.49225,1.04774 2.14571,1.455 2.86722,2.36118c2.81123,3.53079 4.72345,9.38765 4.08441,13.75088c-0.94016,0.15479 -1.8809,0.62261 -2.82049,0.46435c-0.65897,-0.111 -0.86214,-1.61545 -1.47753,-1.35496c-1.49171,0.63142 -2.61297,2.3782 -4.21827,2.9468c-1.14548,0.40573 -3.19927,0.34461 -4.40407,0.20473c-1.0106,-0.11734 -1.98981,-0.45254 -2.95556,-0.83594c-0.19828,-0.33564 -0.41336,-0.66026 -0.64633,-0.97425c-0.83603,-0.29624 -1.75936,-0.42968 -2.6097,-0.46962c-0.26235,-0.01232 -0.69261,0.00694 -1.04232,-0.02519c0.17955,0.36176 0.34797,0.8319 0.4346,1.09966c0.43617,1.34816 0.34501,1.60533 0.34856,2.9628c0.00977,3.72949 0.19898,7.15092 1.61592,10.65681c2.50889,5.64614 10.81312,14.82723 2.60709,19.57379c-2.36244,1.36649 -5.30757,1.79516 -7.87815,2.64909c-1.57889,0.70033 -3.17505,1.18932 -4.76754,1.66163c-0.33034,0.35955 -0.83213,0.4153 -0.83213,0.4153c-0.30592,0.03214 -0.62166,0.07052 -0.94465,0.11556c-0.24374,0.07479 -0.48719,0.15088 -0.73031,0.22901c-0.00869,-0.03764 -0.01738,-0.07536 -0.02607,-0.11318c-2.8317,0.47265 -6.04528,1.45087 -8.05209,3.18961l-0.64389,0.6491c0,0 -0.12883,0.12883 -0.33731,0.23894c-0.01503,0.20166 -0.04303,0.40182 -0.07855,0.60097c-0.79173,1.23686 -1.47113,2.52157 -2.68908,3.53956c-0.46425,0.38803 -1.34587,0.53772 -1.41331,1.139c-0.16039,1.42993 -0.16965,3.47088 0.2287,4.86082c0.19682,0.68677 1.00045,1.35789 0.72478,2.01698c-1.04408,2.49631 -6.55005,0.63579 -2.32945,2.11332c0.40549,0.14195 0.83924,0.18435 1.25886,0.27652c2.26282,1.00846 4.06394,2.77662 6.22192,3.8862c1.72091,0.88484 4.07661,-1.96602 5.93979,-1.65711c2.94452,0.48818 2.19008,2.16521 3.03034,4.194c0.31578,0.76244 0.84752,2.57089 1.44986,2.00678c0.65985,-0.61796 0.9775,-1.71862 1.83867,-1.99368c2.07824,-0.66379 3.54164,1.11552 4.78665,2.36053c1.47933,2.10933 1.6767,3.25716 -0.23786,5.16473c-0.37637,0.375 -1.92324,1.3886 -2.15203,2.15321c0.24511,0.26056 0.31758,0.60201 0.339,0.78111zM286.44434,380.68688c-0.12573,-1.94198 0.26873,-3.54724 2.28993,-4.41407c0.20733,-0.08892 0.58465,-0.10971 0.9507,-0.08824c0.00634,-0.90683 1.02855,-2.782 1.06259,-2.8779c0.17716,-0.49916 -0.32576,-1.20841 0.04322,-1.5884c0.34788,-0.35825 1.33185,-0.60582 2.04157,-0.65749c-0.23993,-0.39265 -0.44236,-0.97365 -0.56895,-1.3211l-0.00049,-0.00358c-0.22201,-0.3075 -0.42751,-0.61881 -0.43652,-0.98208c-0.06853,-2.76234 4.7126,-4.16622 3.01502,-6.14931c-0.16292,-0.16292 -1.61631,-1.91162 -2.07049,-1.63946c-1.82302,1.09239 -1.22853,3.18358 -4.23429,1.58511c-2.20756,-1.17399 -1.69631,-3.83098 -2.68899,-5.50995c-0.40503,-0.68505 -4.59401,1.54052 -5.28015,1.56491c-2.84062,0.10098 -5.36908,-2.94627 -7.88741,-4.06103c-2.00531,-0.45055 -6.15495,-1.52223 -4.32579,-4.6476c0.37587,-0.64223 1.36097,-0.6035 2.05416,-0.87412c0.38326,-0.14962 0.76048,-0.36453 1.1664,-0.41398c-0.7301,-1.26514 -0.61213,-5.5664 -0.44047,-6.22523c0.29026,-1.11397 1.38342,-1.88011 2.30098,-2.57529c1.29073,-0.97791 1.73834,-3.38673 2.87087,-4.59568c0.14243,-0.15204 0.38598,-0.34856 0.67506,-0.5607c0.03263,0.07528 0.06462,0.14949 0.0959,0.22258l0.03789,-0.03764c2.59745,-2.20666 6.57917,-3.35534 10.05929,-3.86979c2.00882,-0.6091 4.02859,-1.17552 6.01648,-2.06084c2.46999,-0.82583 5.24953,-1.25196 7.55042,-2.49377c3.00679,-1.62279 2.44526,-3.89887 1.45046,-6.46024c-1.3578,-3.496 -3.60286,-6.5326 -5.12908,-9.96596c-1.7316,-4.36681 -1.34389,-8.26592 -1.80518,-12.77821c-0.15532,-1.51932 -1.92786,-3.38912 -0.68428,-4.97516c0.46285,-0.59032 1.4673,-0.32549 2.21253,-0.41124c0.17904,-0.0206 0.36003,-0.0355 0.54244,-0.04483c-0.01189,-0.00763 -0.02382,-0.01526 -0.03575,-0.02287c0.04284,0.00592 0.086,0.01213 0.1295,0.01857c2.18931,-0.08882 4.5702,0.61817 6.2563,1.90126c0.98901,0.28652 2.02362,0.47487 3.18124,0.43549c2.22726,-0.07578 3.45327,-2.90199 5.58319,-3.12863c0.84812,-0.09025 1.89119,0.22276 2.46074,0.89909c-0.14745,-0.62011 -0.05688,-1.31149 -0.1957,-1.96851c-0.45059,-2.13268 -2.26639,-6.02279 -3.62151,-7.7846c-0.92717,-1.20542 -2.35575,-1.274 -3.13277,-2.78168c-1.61897,-3.14132 0.53571,-7.00514 -1.93191,-9.85556c-1.73803,-0.82034 -4.58659,-1.69665 -5.87489,-3.14823c-1.19757,-1.34935 -0.61021,-2.62662 -1.23195,-4.08157c-1.05532,-2.46958 -1.9792,-5.97434 2.44397,-5.26164c1.89101,0.30469 4.68925,3.13316 5.7389,4.64553c0.43175,0.62208 0.48685,1.40774 1.29131,1.69457c0.68742,0.24511 1.45508,0.11808 2.1803,0.1998c2.57056,-0.00072 8.75367,0.18874 8.32065,4.33575c-0.08411,0.80559 -0.64033,1.55074 -1.25046,2.08347c-0.28381,0.24781 -0.82564,-0.22643 -1.13029,-0.00475c-0.18031,0.1312 0.35477,0.32681 0.38383,0.5479c0.18558,1.41211 -0.39862,2.92441 0.5924,4.23073c1.96319,2.5878 8.2572,-1.41749 8.97589,2.82351c0.13124,0.77447 -0.88936,1.29506 -1.33405,1.94259c-0.88358,1.00031 -2.21664,2.47896 -1.96467,3.9458c0.2744,1.59738 2.08266,2.65881 3.03008,3.85061c2.89044,3.63601 4.0946,8.03099 7.69241,11.11483c0,0 0.02819,0.02416 0.0707,0.06903c-0.03831,0.00549 -0.07655,0.01115 -0.11473,0.01698c1.17681,0.91553 2.00511,1.91762 2.72281,3.53636c0.48192,4.03345 0.40943,8.47772 0.18439,12.53869c-0.01819,0.32833 -0.34841,3.05225 -0.3845,3.13671c-0.23424,0.54823 -0.70901,0.96294 -1.12256,1.39234c-0.04494,0.04665 -0.10857,0.09851 -0.18346,0.15165c0.74363,0.30112 1.52481,1.33858 1.61011,1.51834c0.28706,0.60496 -0.1629,1.32988 -0.20947,1.99787c-0.11854,1.69999 0.29211,3.49298 0.28989,5.23167c-0.42044,2.52727 -2.04294,3.44355 -4.23298,4.60616c-0.64465,0.34222 -1.55721,0.31912 -1.99445,0.9035c-0.82344,1.10055 0.53451,2.66399 -0.7082,4.01939c-0.58015,0.63276 -1.79019,0.28319 -2.42857,0.85715c-0.68998,0.62036 -0.02785,2.75764 -0.25376,3.46072c-0.61694,1.92015 -2.56097,2.71857 -4.36214,3.28866c-0.04291,0.42966 -0.31892,0.75166 -0.31892,0.75166l-0.61167,0.55469c0.65267,2.50473 1.44497,3.69623 -1.03994,5.30887c-1.96287,0.60152 0.10402,2.943 0.6669,4.02853c0.20039,0.38645 0.49934,1.02528 0.5284,1.49519c0.63479,-0.43374 1.43372,-0.60657 2.05287,-1.06528c1.52961,-1.13324 6.92453,-4.40817 8.23971,-0.57649c0.19958,0.58147 -1.02549,2.19515 -2.08951,3.22478c0.63795,0.0127 1.34072,-0.09815 1.75946,0.33234c0.54273,0.55794 0.45675,3.62176 -0.05466,4.24116c-1.43902,1.74289 -4.20961,0.34039 -5.63781,1.29956c-1.31219,0.88126 -1.90483,1.44011 -3.47202,1.94409c-1.73239,0.5571 -2.78728,3.75834 -3.94165,4.95893c-0.99966,1.03968 -2.24761,1.40069 -3.50973,1.89684c-0.31647,0.65045 -1.12516,0.65044 -1.12516,0.65044c-1.28152,-0.18611 -1.18565,0.61041 -1.7669,1.64717c-1.00738,1.79685 -1.88192,5.96692 -4.06009,6.69419c-2.01984,0.67441 -2.52706,-0.44066 -3.7366,-1.53135c-0.46677,-0.42089 -0.65056,-1.4453 -1.27643,-1.38778c-0.34157,0.03139 -0.4619,0.55278 -0.78654,0.66354c-0.72773,0.24829 -1.60278,-0.38701 -2.30557,-0.075c-0.14623,0.06492 0.158,0.28794 0.17466,0.44705c0.01022,0.09755 0.00747,2.7086 0.00747,2.72075c-0.29695,1.39713 2.44,1.8918 3.10758,3.21402c0.69189,1.37037 0.63426,3.71932 -1.27844,4.09427c-0.68364,0.13401 1.42099,-0.18201 2.01928,-0.5389c0.97224,-0.57996 2.11953,-1.12841 3.24467,-1.00325c2.12653,0.23657 4.32225,0.21146 6.45179,0.41398c0.79771,0.07587 1.9194,-0.17295 2.35085,0.50229c0.98054,1.5346 -1.03211,3.61564 -1.48329,4.94639c0.00784,0.55976 -0.37937,1.22575 -0.05036,1.67868c0.42829,0.58962 1.39777,0.41497 2.08577,0.65526c2.15026,0.75101 6.42032,1.86032 6.54902,4.80579c0.08384,1.91884 -0.79865,2.21351 -1.99928,3.17579c-0.26515,0.21251 -1.06004,0.53309 -0.75569,0.68424c1.98987,0.98824 3.93551,3.00828 2.06167,5.43042c-1.41805,1.83298 -3.96278,0.20881 -4.43496,1.78465c-0.6333,1.39557 -1.97726,2.09812 -2.59846,3.19405c-0.04674,0.08246 -0.08088,0.19967 -0.10494,0.3425c-0.00957,0.00002 -0.01914,0.00005 -0.02872,0.00008c-0.00367,0.06929 -0.01062,0.11096 -0.01062,0.11096l-0.13349,0.78968c-0.32886,2.95975 -0.00519,3.29976 -3.24746,3.60575c-0.41131,-0.32423 -0.81843,-0.65386 -1.23392,-0.97271c-0.19707,-0.15124 -0.7735,-0.61621 -0.60807,-0.43088c1.84163,2.06309 7.83154,4.7591 5.62471,8.31698c-1.9907,3.20943 -6.01914,0.40028 -8.35549,0.72823c-1.88153,0.2641 -3.46632,1.22715 -5.34783,1.56088c-0.0709,-0.03948 -2.68462,-1.86532 -3.0245,-1.64857c-0.43239,0.27575 -0.62473,0.95126 -1.12887,1.0453c-1.09776,0.20478 -2.04744,-0.90002 -3.02443,-1.44087c-0.63871,-0.35358 -1.32209,0.72075 -2.05051,0.76947c-2.09483,0.14014 -2.99529,-0.99703 -4.22362,-2.42955c-0.17123,-0.1997 -0.46243,-0.5724 -0.68672,-0.9084c-0.16294,0.42715 -0.55269,0.94572 -0.78541,1.26356c-0.68299,0.93279 -1.36257,1.68577 -2.20387,2.31507c-0.16161,0.61993 -0.83679,0.84499 -0.83679,0.84499c-1.45929,0.47886 -3.59754,1.21713 -5.02169,0.08511c-1.44717,-1.15031 -1.34695,-4.09709 -0.62367,-5.56539c0.37521,-0.76169 1.62796,-0.89963 1.89067,-1.70706c0.21033,-0.64647 -0.78876,-1.13565 -0.98226,-1.78735c-0.82617,-2.78255 -1.77266,-1.9536 -4.00794,-3.80437c-1.59824,-1.32331 -1.82014,-2.67114 -2.04133,-4.62338c0.00115,-0.44519 0.02088,-1.0197 0.07304,-1.6465c0.08815,0.03884 0.17632,0.07767 0.26449,0.11647c0.11704,-1.83916 0.66512,-3.66381 2.21552,-4.7824c2.16522,-1.56216 3.31565,-0.24337 4.15017,-3.08911l0.40356,-0.7491c0.09602,-0.43379 0.15814,-0.89896 0.41818,-1.22799c0.54416,-0.68849 1.82457,-0.60289 2.2468,-1.37221c0.46999,-0.85633 0.61191,-1.89745 1.21239,-2.66792c0.45825,-0.58798 1.96362,-1.20494 1.42676,-1.72214c-0.60991,-0.58756 -1.27014,1.15201 -2.02737,1.53125c-0.72848,0.36485 -1.52701,0.56871 -2.29052,0.85307c-0.41105,-0.90192 -1.12101,-1.72096 -1.23317,-2.70576c-0.39878,-3.50162 5.25574,-5.24348 6.06247,-7.86798c0.56558,-1.83999 0.07576,-4.54497 0.07576,-6.45311v-0.03158c-0.07573,-0.19645 -0.09138,-0.35298 -0.09138,-0.35298z"/></g></g></svg>