<svg version="1.1" xmlns="http://www.w3.org/2000/svg" xmlns:xlink="http://www.w3.org/1999/xlink" width="529.0173" height="191.44992" viewBox="0,0,529.0173,191.44992"><g transform="translate(89.35236,-302.31253)"><g stroke="none" stroke-miterlimit="10"><path d="M126.73118,477.94065l-1.07819,-0.13196c-2.09717,-1.04903 -3.55191,-1.78442 -5.90634,-1.77321c-0.82328,-0.1541 -1.78541,0.02051 -2.46982,-0.46231c-1.03014,-0.72671 -1.9086,-4.86089 -2.55735,-6.09359c-3.14822,-5.982 -8.27655,-12.59914 -9.71192,-19.24071c-0.85054,-1.48212 -1.27894,-3.01303 -1.44439,-5.06757c-0.06275,-0.77921 -0.36333,-3.07677 0.05503,-3.78098c0.28448,-0.47886 1.05146,-0.42679 1.47025,-0.79401c0.77119,-0.67624 0.48224,-3.58484 0.16348,-4.4162c-0.67125,-1.75071 -2.89877,-0.2743 -3.9351,-0.62278c-0.94404,-0.31744 -2.19228,-2.16346 -2.75261,-2.89604c-1.06451,-3.09575 -2.02579,-4.77618 -4.03328,-7.40137c-0.63819,-0.83457 -1.14873,-2.11397 -2.20923,-2.55832c-0.91754,-0.38444 -3.78396,3.52384 -5.19474,3.75042c-1.44055,0.23136 -2.86188,-1.17695 -4.12699,-0.74734c-1.31586,0.44684 -2.50176,1.83914 -3.77465,2.48482l-0.80906,0.32828c0,0 -0.49845,0.19938 -0.9727,0.01016c0.02942,-0.02992 0.05883,-0.05983 0.08825,-0.08975c0.81589,0.08351 1.02694,-0.76072 1.02694,-0.76072c0.2651,-1.06763 0.63065,-1.92597 1.10308,-2.75638c0.85013,-0.65607 1.69364,-1.35158 2.67081,-1.62571c1.78304,-0.50018 3.81059,1.51014 5.32549,0.32743c1.8318,-1.43012 2.35198,-4.08752 5.35278,-3.32434c1.75718,0.44689 2.52418,2.15902 3.50505,3.44168c2.03341,2.65905 3.24021,4.55071 4.25244,7.74148c0.4338,0.5446 0.5714,1.50865 1.24739,1.67539c2.04326,0.50398 4.08599,-1.02019 5.49347,1.94865c0.91402,1.92796 0.75489,5.6989 -0.69366,7.29809c-0.25849,0.28537 -0.82908,0.07641 -1.10118,0.34884c-0.52884,0.52948 0.2815,1.47303 0.34075,2.21902c0.11589,1.45913 0.3616,2.52813 0.84934,3.53145c0.37389,0.30525 0.46277,0.7941 0.46277,0.7941c0.00245,0.01402 0.00491,0.02804 0.0074,0.04207c0.33251,0.52161 0.74065,1.05023 1.24071,1.63302c0,0 0.81349,0.94907 -0.13558,1.76256c-0.04063,0.03483 -0.08102,0.06643 -0.1211,0.09501c2.00796,5.34729 6.06902,10.72807 8.57904,15.49681c0.83387,1.58425 1.36789,5.39544 2.93343,5.21195c2.68993,0.01154 4.51748,0.84334 6.89985,2.03404l-0.03985,-0.13197c0,0 1.24592,0.00611 1.24999,1.24999c0,1.25 -1.25,1.25 -1.25,1.25z" fill="#000000" stroke-width="0.5"/><path d="M127.98118,476.69066l-0.00001,-0.00612c0.00001,0.00204 0.00001,0.00407 0.00001,0.00612z" fill="#000000" stroke-width="0.5"/><path d="M79.38869,426.67794c1.18586,0.39529 0.79057,1.58113 0.79057,1.58113l-0.95497,2.11877c-1.88052,0.16334 -4.50141,0.23347 -5.66757,2.14311c-1.60638,2.63052 1.24895,4.40151 -2.58496,6.49768c-0.57928,0.31672 -1.3189,0.06343 -1.97835,0.09515c-2.25942,-0.02145 -5.11513,-0.50081 -6.51405,-2.51911c-0.37209,-0.53683 -0.38356,-1.2875 -0.80495,-1.78657c-0.27439,-0.32497 -2.05454,-0.19432 -2.181,-0.19432c-1.98703,0 -3.89459,-0.20015 -5.06332,-2.09283c-0.56627,-0.91704 -0.1861,-2.18018 -0.59154,-3.17881c-0.15355,-0.37822 -0.71235,-0.46319 -0.90846,-0.82119c-0.18502,-0.33776 0.14669,-0.92051 -0.16757,-1.14311c-0.34148,-0.24187 -0.87008,0.32158 -1.24747,0.14079c-0.65554,-0.31404 -1.18758,-0.88905 -1.58496,-1.49768c-0.58922,-0.90247 -0.26096,-2.15296 -0.59154,-3.17881c-0.25729,-0.79845 -2.73083,-1.90661 -3.39434,-2.35546c-1.54751,-0.52303 -5.00907,0.31573 -6.18169,-0.60884c-1.90915,-1.50529 -0.54771,-3.74602 -0.92397,-5.5357c-0.19496,-0.92735 -2.08009,-0.5526 -2.46318,-1.41933c-0.0598,-0.13531 0.79459,-5.11149 0.96318,-5.53737c0.27645,-0.69835 1.52807,-0.98877 1.43829,-1.73446c-0.08252,-0.68545 -1.37382,-0.32966 -1.9406,-0.72388c-1.59451,-1.10902 -1.87349,-1.86239 -1.5767,-3.76354c0.38106,-2.44094 1.95529,-3.19189 4.0767,-3.86309c2.58959,-2.13966 -4.32442,-6.29065 -4.99769,-7.95833c-0.56224,-1.39267 0.16507,-3.3195 -0.07901,-4.77812c-0.6294,-3.76132 -2.5274,-6.59845 -3.47882,-10.39706c0,0 -0.05707,-0.2283 -0.02264,-0.51154c0.00577,-0.00129 0.01155,-0.00257 0.01732,-0.00385c0.77839,0 1.63665,0 2.4536,0c0.96128,3.77768 2.86299,6.68863 3.49826,10.51199c0.18709,1.12603 -0.48086,3.19734 -0.07901,4.22188c1.23696,3.15369 7.49984,4.68313 5.5,9.45671c-0.28086,0.67042 -0.99845,1.05664 -1.49768,1.58496c-0.53599,0.18653 -1.0902,0.32722 -1.60797,0.55958c-4.28148,1.9214 1.81969,3.47056 2.16737,5.08992c0.29683,1.38252 -1.27692,3.20754 -1.4827,4.48742c-0.09427,0.58628 -0.28331,1.1635 -0.54801,1.69505c-0.11702,0.23498 -0.74018,0.34771 -0.56782,0.5457c0.22743,0.26126 0.74515,-0.18747 1.03913,-0.0043c0.61692,0.38439 1.2324,0.90822 1.49768,1.58496c0.54318,1.38565 -1.20711,3.71024 0.07604,4.4643c0.65562,0.38528 1.50867,-0.23978 2.26911,-0.23595c1.20137,0.00606 2.40846,0.25017 3.54919,0.62711c1.38065,0.90927 3.89072,2.02434 4.60566,3.64454c0.21914,0.4966 -0.2587,3.00242 0.82351,3.32351c0.56185,0.1667 1.28881,-0.21758 1.75254,0.14079c0.53672,0.41478 0.46931,1.28396 0.83243,1.85689c0.28668,0.45232 0.89442,0.68088 1.09153,1.17881c0.44567,1.12581 -0.36659,2.6429 1.00232,3.41504c1.61582,0.9114 3.57123,-0.10576 5.2512,0.55064c1.05583,2.54921 3.76715,6.22273 7.15174,4.65433c2.10454,-0.97523 1.86776,-3.43484 2.91869,-4.96038c0.72821,-1.05707 3.12981,-2.1812 4.26871,-2.80254c0.26363,-0.26812 0.52725,-0.53623 0.79088,-0.80435c0.81589,0.08351 1.02694,-0.76072 1.02694,-0.76072c0.09536,-0.38406 0.20373,-0.74104 0.32539,-1.07938c0.14948,-0.00559 0.31715,0.01739 0.50456,0.07986z" fill="#000101" stroke-width="0.5"/><path d="M90.36926,337.28408c1.57312,-0.87239 3.1646,-1.82627 4.86238,-2.44172c1.04009,-0.37703 2.62713,-0.42236 3.21052,-1.65192c0.22498,-0.47418 0.19098,-0.98145 0.0488,-1.48163c0.47654,0.33609 1.09762,0.67465 1.36646,0.94417c0.8056,0.80761 -0.95748,5.48168 3.27587,3.54808c1.55388,-0.70974 0.37909,-5.34623 -0.15861,-6.71108c0.56063,0.97521 1.15581,1.86156 2.57411,2.04212c2.71348,0.34544 6.05818,-3.21625 8.70349,-3.91111c0.22362,-0.05874 3.02838,-0.45557 3.14963,-0.27368c0.47687,0.71533 -0.36947,1.80978 0.01564,2.57841c0.27737,0.55357 1.2471,0.7409 1.26533,1.3598c-1.16473,1.46747 -3.35107,3.09705 -3.28524,5.21822c0.03395,1.09384 1.35644,1.72725 1.90042,2.67685c0.86459,1.50929 -0.56698,2.69474 1.30514,4.24353c0.89902,0.74375 2.2453,0.65897 3.31348,1.12844c1.47947,0.65023 0.35662,2.63454 2.14155,3.63292c1.36919,0.76584 4.62731,0.23884 6.53261,-0.05744c0.34139,0.07608 0.64508,0.00007 0.64508,0.00007c1.69781,-0.43515 3.9068,-0.96563 4.50863,-2.94421c0.31133,-1.02355 -1.50068,-4.56823 -1.20256,-4.73716c2.27082,-1.28676 2.59908,0.27835 4.50279,0.56142c2.08924,0.31066 1.7577,-0.61452 3.14153,-1.28045c0.89657,-0.43145 4.32632,1.86847 5.19041,2.30052c3.53471,1.76508 6.62476,1.55038 10.41318,1.99655c0.63351,0.07462 3.27727,0.33555 3.69553,0.89708c0.40471,0.54335 -0.23915,1.33324 -0.33104,2.00449c-0.30957,2.2614 -0.71302,4.87962 1.49886,6.29767c2.29475,1.47117 5.79472,0.85918 7.71628,-0.73657c2.78001,-2.64194 -1.59698,4.40695 3.72944,3.63777c2.03173,-0.2934 2.11819,-2.79209 3.73915,-3.58455c1.19391,-0.58367 2.75623,0.03377 3.97829,-0.67951c1.79176,-1.0458 1.99961,-2.89986 3.9461,-3.78943c0.06631,0.04102 0.12854,0.07277 0.1802,0.09641l0.07344,0.09581c0,0 0.09672,0.01372 0.23983,0.00661c6.74111,1.75921 11.949,-5.73294 16.4035,-9.69286c2.01574,-1.79194 4.04175,-2.9456 5.10414,-5.52426c0.18577,-0.66161 0.53149,-2.52028 0.81514,-1.89436c0.93943,2.07298 1.18284,4.13335 3.09573,5.70397c1.04994,0.86207 2.40436,1.14198 3.50365,1.76017c0.73992,0.4161 -0.64804,1.65131 -1.03982,2.40439c-0.68181,1.31057 -1.5986,3.40226 -0.76839,4.85263c0.74938,1.30915 4.54302,2.62831 5.72087,1.13065c0.47488,-0.60383 -0.10958,-1.53258 -0.16458,-2.2988c-0.42583,-1.48644 0.48839,-1.39486 1.23735,-2.68273c0.83939,-1.44336 1.31146,-3.60104 0.59144,-5.17833c-1.32066,-2.89305 -4.63228,-1.66372 -6.1235,-3.72165c-0.78715,-1.08628 0.13058,-2.90667 -0.73048,-4.22147c-0.78652,-1.20096 -1.66326,-1.10404 -2.77384,-1.66634c-0.1841,-0.09321 -0.65527,-0.5415 -0.44919,-0.55197c1.13839,-0.05786 2.38486,0.07488 3.53575,0.07488c1.55081,-0.01286 4.78654,0.17647 6.15838,0.97317c3.2355,1.87905 6.77636,4.0451 9.61597,-0.24412c2.74943,-4.15301 -3.09939,-4.8224 -3.90239,-8.24272c-0.38257,-1.62948 1.05683,-3.46078 0.66688,-5.46641c-0.28922,-0.41183 -1.21612,-0.94247 -0.82791,-1.26269c0.47847,-0.39468 1.1866,-0.3692 1.76293,-0.59842l0.83941,-0.19796c0,0 0.3733,-0.09325 0.65384,-0.3831c0.01789,-0.00442 0.02759,-0.00732 0.02759,-0.00732c2.38975,-0.74098 6.47222,-4.83316 9.31172,-3.41811c0.6746,0.33619 -1.02688,3.55185 -1.11017,3.81733c-1.17743,3.753 -0.99914,7.88618 4.07491,6.59489c2.17535,-0.79012 4.39063,-1.24949 6.73417,-0.94892c1.48968,0.19106 3.67196,1.06391 5.17517,0.44095c3.32196,-1.37668 0.70497,-3.59331 2.5772,-5.39733c0.45117,-0.43472 1.83178,-0.61097 2.19112,-0.85572c2.59381,-1.76663 3.55028,-5.4589 6.24205,-6.83669c0.40427,0.01115 0.8091,0.02248 1.21337,0.03362l0.44125,0.36812c0,0 0.10308,0.05151 0.26211,0.09198c0.23854,0.31291 0.58313,0.45073 0.58313,0.45073c1.5949,0.57809 1.39082,1.49892 2.75946,2.49624c0.43573,0.31751 1.4867,0.13032 1.47334,0.66929c-0.01858,0.74974 -0.79911,1.38532 -1.15193,2.04711c-0.19234,0.36077 -0.69578,2.96726 -1.2224,3.01267c-1.87121,0.16133 -4.52381,-1.23379 -5.74668,1.14917c-1.86088,3.62623 2.88452,4.14429 4.99693,4.33633c1.58343,0.13086 3.98631,-0.3663 5.46582,0.06674c2.42785,0.71062 3.78787,3.19182 6.81446,2.80507c3.64984,-0.46639 4.05361,-3.62594 6.39984,-5.53978c1.38992,-1.13378 2.87559,-1.44078 3.4545,-3.37921c0.41148,-1.37783 0.17183,-3.21046 0.25845,-4.65052c0.17917,-0.35778 0.36139,-0.82999 0.58954,-1.1587c0.0842,-0.12131 0.25528,-0.32404 0.40839,-0.50783c-0.16213,0.69048 0.36047,1.88947 0.37363,1.90331c1.68969,1.77722 3.21626,0.34717 4.96166,0.85898c0.57757,0.16937 0.52276,2.83599 0.58865,3.02838c0.2311,0.67476 1.22611,1.1527 1.07664,1.8501c-0.14438,0.6736 -0.98026,0.98697 -1.33554,1.57718c-2.22307,3.69311 -2.37254,6.51489 0.31474,9.92578c1.47149,1.12081 2.33955,1.70341 2.64796,3.58353l-0.02004,0.52651c0,0 0.00001,0.01342 0.0014,0.03746c-0.27213,2.18548 0.95321,6.64859 3.71053,6.95438c2.45521,0.27228 3.02378,-2.73895 5.05215,-2.49359c1.12524,0.13611 2.8739,1.36473 3.90087,1.68271c0.46376,0.1436 -0.25626,0.93688 -0.37553,1.40749c-0.36444,1.43806 -0.52385,2.7534 -0.65734,4.23642c0.23093,4.07423 3.06465,3.78094 6.23791,3.1615c1.40131,-0.27354 3.09186,0.25934 4.37511,-0.59184c0.97397,-0.64603 0.65418,-1.96218 2.14324,-1.76552c2.60885,0.34455 5.27176,2.9149 8.23006,1.34942c0.75476,-0.39941 0.76211,-1.50767 1.47048,-1.98453c0.60734,-0.40884 1.54972,-0.12147 2.2818,-0.12958c0.67083,-0.32533 1.43769,-0.36295 1.92537,-0.92689c0.52301,-0.60478 -0.06942,-1.82873 0.47177,-2.4173c1.73227,-1.88391 2.5006,1.61344 2.75913,2.07159c1.16114,2.05774 3.61574,1.24353 4.4637,3.17423c0.81161,1.84791 -0.82149,4.35067 -0.01329,6.09315c0.85543,1.84431 1.76849,1.75316 3.16655,1.77023c-0.01536,0.12799 -0.01759,0.25672 -0.00084,0.38622c0.56802,4.39004 5.39127,3.29972 8.09987,4.64118c1.69475,0.83934 2.94516,1.95271 5.00681,1.59188c1.67075,-0.29241 2.60604,-0.99314 4.38866,-0.9773l0.10529,0.04488c0.71531,3.64983 1.76677,6.34751 6.05115,6.26513l1.38997,-1.04553c0,0 0.48428,-0.32702 0.58467,-0.795c0.69837,0.30135 1.18257,1.76561 0.52713,2.80165l-0.28228,0.35715c0,0 -0.05241,0.06992 -0.11104,0.18659c-1.35939,0.5904 -2.30049,1.42917 -2.13052,3.45862c0.06175,0.73734 1.44284,1.14463 1.2252,1.85182c-0.22229,0.72227 -1.62176,0.18943 -2.14466,0.73502c-1.58306,1.65176 -0.31889,4.15619 -1.50896,5.51513c-0.60755,0.69375 -1.94185,0.39976 -2.53654,1.10457c-1.7704,2.09823 -0.81173,6.31718 -1.01988,8.85471c-0.86494,2.18251 -2.95213,3.38987 -4.25303,5.31458l-0.28863,0.72695c0,0 -0.09576,0.28755 -0.0516,0.62648c-0.64147,1.35727 -1.10861,3.05393 0.12779,3.81866c0.76369,0.47235 1.69615,-0.23925 2.53447,-0.56108c0.4295,-0.16489 1.46219,-1.22307 1.18378,-0.85681c-0.69983,0.92066 -1.82447,1.48934 -2.32654,2.58667c-1.23381,2.69664 -2.22641,7.08361 -5.85861,7.18555c-2.60705,2.09111 -5.84793,8.85291 -2.54136,11.8247c1.23228,1.10752 3.72721,0.87058 4.34946,2.85849c0.84574,2.70186 -2.29753,8.31966 0.82412,10.2763c1.7706,1.1098 4.29133,-0.21032 5.7015,-1.04931c0.06456,-0.23282 1.01978,-2.8607 1.4302,-4.14825c0.19329,0.49109 0.76259,1.12918 1.07061,1.44468c1.34014,1.3727 2.70254,2.33365 4.70056,2.0436c0.33913,-0.04923 0.69301,-0.40748 1.03561,-0.40037c0.89937,0.01866 1.09829,1.5884 1.99256,1.68588c1.05832,0.11537 1.80576,-1.53052 2.86382,-1.41279c0.88412,0.09838 1.48662,1.0594 2.35388,1.25739c2.56561,0.5857 4.83613,-0.32958 7.32467,-0.54297c1.23966,0.00105 4.16285,-0.52052 5.25555,0.12792c0.48337,0.28685 0.83663,0.89091 1.11221,1.59276c-0.00887,0.22372 0.03241,0.38906 0.03241,0.38906l0.42636,1.06574c0.04515,0.16984 0.08797,0.33739 0.12916,0.49966c0.01586,-0.01927 0.03173,-0.03855 0.04761,-0.05779l0.12773,0.31927c2.14276,1.60738 3.51003,1.41026 6.04155,1.52686c0.23602,0.01087 3.0388,0.10006 3.20399,0.521c0.29154,0.74287 -0.04262,1.60274 0.06152,2.39395c0.76913,1.19193 3.20276,2.98538 3.36898,4.34477c0.30691,2.5099 -0.34003,4.23408 0.61767,6.76427c0.22104,0.58398 0.09312,1.399 0.58886,1.77864c0.37057,0.28379 0.79859,0.46174 1.24885,0.54733c-0.02529,-0.11756 -0.04492,-0.24246 -0.05819,-0.37513c-0.24876,-2.48759 2.23883,-2.73635 2.23883,-2.73635c1.42624,-0.08007 3.83205,-0.51146 5.53373,0.24508l0.04743,0.00949c0.16821,0.01443 0.33163,0.04821 0.49106,0.09821l0.87141,0.17428c0.95622,0.17175 1.72371,0.88723 1.97098,1.81499l1.46081,1.27821l0.26337,0.14181c0.52039,0.26711 0.93488,0.71137 1.16382,1.25317c1.03919,-0.2348 1.99333,-0.1257 2.35895,0.97236h1.8372c1.38071,0 2.5,1.11929 2.5,2.5c0,1.22065 -0.87483,2.23698 -2.0317,2.45621l-1.00752,0.21211c-0.00674,0.01272 -0.01358,0.02538 -0.02053,0.03797c0.38821,0.27407 0.69484,0.65596 0.87636,1.10209l3.93904,0.45451c1.26062,0.12805 2.24434,1.19269 2.24434,2.48709c0,0.32594 -0.06237,0.63731 -0.17584,0.92283l2.12946,0.67755c1.03815,0.30391 1.79638,1.26322 1.79638,2.39962c0,1.31881 -1.02118,2.39911 -2.31595,2.49333l-1.34874,0.1124c0.1064,0.27768 0.1647,0.57917 0.1647,0.89428c0,0.88227 -0.45703,1.6578 -1.14725,2.10275c-0.44495,0.69022 -1.22048,1.14725 -2.10275,1.14725c-0.06863,0 -0.13662,-0.00277 -0.20386,-0.00819l-1.06833,-0.07631c0.01463,0.10942 0.02218,0.22108 0.02218,0.3345c0,1.38071 -1.11929,2.5 -2.5,2.5h-0.76234c-0.12543,1.26333 -1.19132,2.25 -2.48766,2.25c-0.04192,0 -0.08359,-0.00103 -0.125,-0.00307c-0.04135,0.00204 -0.08296,0.00307 -0.12482,0.00307c-0.4561,0.60722 -1.18227,1 -2.00018,1c-0.23758,0 -0.46741,-0.03314 -0.68514,-0.09505l-3.13121,-0.81578c-2.34261,-0.31932 -4.64906,-0.71878 -6.94383,-1.17399c-2.22377,-0.23625 -4.39452,-0.59068 -6.29872,-1.22841l-4.89204,-0.44473c-0.66318,-0.05275 -1.25346,-0.36429 -1.66982,-0.83362l-1.83018,-0.16638c-1.28675,-0.10234 -2.29905,-1.17897 -2.29905,-2.49204c0,-0.67521 0.26768,-1.2879 0.7027,-1.73774c0.38295,-0.8895 1.2674,-1.51226 2.2973,-1.51226h0.83446c0.05397,-0.09329 0.11379,-0.18277 0.17896,-0.26794c-0.14479,0.01914 -0.28874,0.03961 -0.43173,0.06173c-8.26888,1.27929 -16.52792,3.29194 -24.83237,4.48608c-26.17613,-0.07088 -52.136,-2.49174 -78.33455,-2.49174c-23.80371,0.02088 -47.31849,-3.77556 -71.07193,-3.98013c0.22654,-0.55719 0.40291,-1.08297 0.48754,-1.53575c0.65473,-3.50299 -0.71714,-4.36012 1.20265,-7.28557c0,0 1.27143,-2.04484 -0.8723,-3.33108c-2.14373,-1.28624 -3.43271,0.85697 -3.43271,0.85697c-0.58852,1.03963 -1.40496,1.87567 -1.74329,3.02142c-0.68187,2.30917 0.34185,3.46748 -0.04653,5.69436c-0.05713,0.32756 -0.59082,1.52759 -1.11994,2.60898c-7.68203,0.15298 -15.65736,0.67002 -23.21407,-0.03167c-3.84276,-0.35683 -7.6858,-1.18568 -11.54556,-1.50719c-4.82612,-0.402 -9.86432,-0.01264 -14.71101,-0.01264l-2.50067,-0.00067c0,0 -2.42898,-0.0704 -2.42898,2.4296c0,2.5 2.49871,2.49875 2.49871,2.49875l2.49931,-0.00064c4.70755,0 9.60255,-0.40304 14.28908,-0.0123c3.83199,0.3195 7.63723,1.15288 11.4546,1.49312c6.93789,0.61837 14.15832,0.27691 21.23749,0.09723c-1.32199,2.77469 -2.73401,5.57746 -4.21926,8.30428c-0.87713,1.61036 -2.12205,5.00173 -3.98933,5.9985c-2.05356,1.0962 -5.22783,1.007 -7.50099,1.20932c-3.49375,0.31097 -6.06928,1.39683 -9.25478,2.67103c-2.53238,1.01295 -5.20959,2.39205 -7.92077,2.8441c-2.70878,0.45166 -5.90413,-0.02589 -8.65621,-0.02589c-2.56967,0 -5.56086,0.41106 -8.10199,0.03064c-3.23108,-0.48372 -4.43889,-3.48339 -7.72981,-4.44213c-4.52302,-1.31768 -9.46324,-1.25708 -14.00363,-2.50336c-3.96925,-1.08952 -7.99698,-2.17034 -11.93754,-3.48386c-2.34989,-0.66822 -4.60186,-1.64808 -6.90283,-2.46906c-6.92271,-2.47001 -13.26714,-4.57862 -18.57332,-9.91771c-3.06786,-3.08688 -6.43108,-6.99693 -4.43793,-11.83461c0.20468,-0.49677 0.66698,-1.20318 1.16736,-1.9022c0.41794,0.31414 1.02878,0.45933 1.59187,0.45933c1.38071,0 2.40875,-1.07838 2.40875,-2.45909c0,-0.08438 -0.00421,-0.16785 -0.01238,-0.25008c0.00817,-0.08222 0.01231,-0.1657 0.01231,-0.25007c0,-0.71008 -0.29632,-1.35166 -0.77171,-1.80677c0.87587,-0.80404 0.08918,-1.72213 0.08918,-1.72213c-1.71793,-2.00215 -2.35171,-3.36712 -2.56106,-6.00287c-0.05925,-0.74599 -0.86985,-1.6903 -0.34101,-2.21978c0.2721,-0.27243 0.84269,-0.06346 1.10118,-0.34883c1.44855,-1.59919 1.60694,-5.37254 0.69292,-7.3005c-1.40748,-2.96884 -3.45053,-1.44585 -5.49379,-1.94983c-0.67599,-0.16674 -0.81376,-1.13147 -1.24756,-1.67607c-1.01223,-3.19077 -2.21965,-5.08539 -4.25306,-7.74444c-0.98087,-1.28266 -1.74809,-2.99616 -3.50527,-3.44305c-3.0008,-0.76318 -3.42219,1.87874 -5.25399,3.30886c-1.5149,1.18271 -3.54239,-0.82723 -5.32543,-0.32705c-0.9698,0.27205 -1.80797,0.95892 -2.65162,1.61042l0.1365,0.61427l0.038,0.06649l-0.01672,0.02926l0.04008,0.18037l-1.00208,1.50312l-0.89629,1.5685l-0.17926,0.04481l-0.01869,0.02804l-0.07647,-0.00425l-0.81009,0.20252l-0.00464,0.00519l-0.00895,-0.00179l-0.77691,0.19423h-0.4l-0.19246,0.04811l-0.41318,0.24791l-0.27665,-0.07545l-0.71772,0.17943h-0.11475l-0.0082,0.0041l-0.72841,0.16187c-0.04251,0.90534 -0.40606,1.7267 -0.97937,2.35282c0.30785,0.54435 0.48356,1.17331 0.48356,1.84331c0,2.07107 -1.67893,3.75 -3.75,3.75c-1.36877,0 -2.56626,-0.73334 -3.221,-1.82856l-0.55888,-0.27944l-0.23246,-0.19925l-0.1868,-0.01038l-0.48376,-0.56439l-0.56439,-0.48376l-0.01038,-0.1868l-0.19925,-0.23246l-0.38846,-0.77692l-0.08496,-0.1416l-0.03412,-0.00853h-0.96555c-0.01813,0.02426 -0.03576,0.04645 -0.05286,0.0664c-0.50681,0.59127 -2.90835,0.69686 -3.70579,0.74116c-0.69623,0.03868 -0.96724,-1.0082 -1.39488,-1.55898c-0.72891,-0.93881 -0.98368,-1.81934 -0.954,-2.68278l-0.01938,-0.03875l-0.18692,-0.84113l-0.068,-0.27202l-0.02901,-0.05439l-0.10016,-0.40064l-0.41591,-0.83181l-0.03879,-0.17455c-0.09483,-0.10576 -0.18374,-0.21694 -0.2662,-0.33301l-0.08538,-0.07318l-0.00318,-0.05716c-0.0235,-0.03621 -0.0464,-0.07285 -0.06868,-0.1099l-0.18368,-0.04592h-0.2l-0.71772,-0.17943l-0.27665,0.07545l-0.41318,-0.24791l-0.46746,-0.11686l-0.14227,-0.24897l-0.63438,-0.38063l-0.4,-0.4l-0.31015,-0.51691l-0.39231,-0.45769l-1.09062,-2.18124l-0.40693,-0.24416l-0.3,-0.3l-0.09622,-0.05773l-0.62918,-0.13982l-0.09346,-0.04673l-0.10449,-0.02612l-0.0209,-0.03657l-0.58115,-0.29058l-0.23246,-0.19925l-0.1868,-0.01038l-0.08698,-0.10147l-0.01108,0.00302l-0.41318,-0.24791l-0.46746,-0.11686l-0.14227,-0.24897l-0.56946,-0.34167l-0.39913,-0.13304l-0.22771,-0.14491l-0.26348,-0.05855l-0.16163,-0.08082l-0.34717,-0.11572l-0.13983,-0.08898l-0.629,-0.15725l-0.23117,0.04623l-0.11989,-0.134l-1.3082,0.10401l-1.2737,-0.38161l0.18185,-2.40481l0.045,-0.58504l-0.08921,-0.15612l0.11696,-0.20469l0.05974,-0.77665l-0.27836,-0.16701l-0.4,-0.4l-0.31015,-0.51691l-0.39231,-0.45769l-0.2,-0.4l-0.0457,-0.20565l-0.04622,-0.07703l0.01603,-0.05879l-0.34338,-1.54521l0.24226,-0.36339l-0.11491,-0.42135l0.99437,-1.65728l0.4,-0.4l0.28553,-0.17132l0.01202,-0.05408l0.0041,-0.0082v-0.47007l-0.02336,-0.03505l0.02336,-0.10514v-0.10449l0.07941,-0.31765l-0.00441,-0.0011l-0.0209,-0.03657l-0.18115,-0.09058l-0.45769,-0.39231l-0.51691,-0.31015l-0.33044,-0.33044l-0.96238,-0.8249l-0.04486,-0.80746l-0.05669,-0.09448l0.03749,-0.13748l-0.56484,-0.84726l0.41926,-1.88668l0.2,-0.4l1.25779,-1.46742l0.14785,-0.00821l0.07347,-0.12857l1.875,-0.46875h1.337l0.12339,-0.14396l-0.01449,-0.02899l-0.06363,-0.28631l-0.02031,-0.08123v-0.01015l-0.10299,-0.46343l-0.20898,-0.83592v-0.00226l-0.00756,-0.01188l-0.31572,-0.94717l-0.00492,-0.00984l-0.5718,-0.42885l-0.40038,-0.49278l-0.46981,-0.4271l-0.4,-0.6l-0.01847,-0.05173l-0.04141,-0.04832l-0.56439,-0.48376l-0.00809,-0.14557l-0.42953,-0.42953l-0.96238,-0.8249l-0.00821,-0.14785l-0.12857,-0.07347l-0.15098,-0.60393l-0.01942,-0.01942l-0.31015,-0.51691l-0.39231,-0.45769l-1.09058,-2.18115l-0.03657,-0.0209l-0.02612,-0.10449l-0.04673,-0.09346l-0.16,-0.72l-0.04,-0.08l-0.18692,-0.84113l-0.20898,-0.83592v-0.10449l-0.02336,-0.10514l0.02336,-0.03505v-2.67007l-0.0041,-0.0082l-0.18692,-0.84113l-0.05709,-0.22838l-0.16368,-0.2728l-0.39231,-0.45769l-0.4,-0.8l-0.05855,-0.26348l-0.07186,-0.11293c-0.1311,-0.1508 -0.2207,-0.28657 -0.25995,-0.40433c-0.9195,-2.75849 -0.49755,-4.24092 0.56598,-4.90633l0.5964,-0.5112l0.73044,-0.73044l0.51691,-0.31015l0.45769,-0.39231l0.13074,-0.06537l0.45,-0.525l0.1868,-0.01038l0.23246,-0.19925l0.19118,-0.09559l0.40574,-0.2705l0.4717,-0.16846l0.42257,-0.26891l0.07556,-0.02519l0.43325,-0.37135l0.4,-0.2l0.20565,-0.0457l0.07703,-0.04622l0.02326,0.00634l0.10569,-0.06726l0.08534,-0.07315l0.48376,-0.56439l0.1868,-0.01038l0.23246,-0.19925l0.8,-0.4l0.26348,-0.05855l0.22771,-0.14491l0.07556,-0.02519l0.43325,-0.37135l0.19118,-0.09559l0.40574,-0.2705l0.14209,-0.05075l0.06304,-0.11032l0.19481,-0.0487l0.18387,-0.21452l0.13604,-0.00756l0.23263,-0.25589l0.63133,-0.73655l0.05739,-0.00319l0.24983,-0.16656l0.13743,-0.13743l0.01828,-0.01097l0.01854,-0.06591l0.82181,-0.4383l0.79866,-0.47919l0.06605,0.01801l0.01881,-0.01003l0.08995,-0.02249l0.34251,-0.29358l1.2,-0.6l0.26348,-0.05855l0.22771,-0.14491l0.29669,-0.0989l0.01417,-0.02479l0.10449,-0.02612l0.09346,-0.04673l0.52169,-0.11593l0.07523,-0.05015l0.14209,-0.05075l0.06304,-0.11032l0.19481,-0.0487l0.18387,-0.21452l0.14785,-0.00821l0.07347,-0.12857l1.70449,-0.42612l0.07038,-0.03519l0.36539,-0.21923l0.45769,-0.39231l0.4,-0.2l0.20565,-0.0457l0.07703,-0.04622l0.02326,0.00634l0.18525,-0.11789l0.12358,-0.04119l0.18215,-0.12143l0.68619,-0.24507l0.6585,-0.31192l0.63891,-0.12778l0.03213,-0.01714l0.38734,-0.332l0.19118,-0.09559l0.09678,-0.06452l0.27487,-0.27487l0.56656,-0.84983l0.00319,-0.05739l0.525,-0.45l0.06537,-0.13074l0.19925,-0.23246l0.01038,-0.1868l0.56439,-0.48376l0.48376,-0.56439l0.1868,-0.01038l0.23246,-0.19925l0.37692,-0.18846l0.36539,-0.21923l0.45769,-0.39231l0.4,-0.2l0.20565,-0.0457l0.07703,-0.04622l0.02326,0.00634l0.18525,-0.11789l0.09913,-0.03304l0.17393,-0.10436l0.72694,-0.4626l0.09913,-0.03304l0.09236,-0.05541l0.00212,0.00058l0.11212,-0.07475l0.15091,-0.0539l0.07757,-0.07757l0.51691,-0.31015l0.45769,-0.39231l0.18115,-0.09058l0.0209,-0.03657l0.10449,-0.02612l0.09346,-0.04673l0.0217,-0.00482l0.15904,-0.18555l0.1868,-0.01038l0.23246,-0.19925l0.59118,-0.29559l1.00574,-0.6705l0.22316,-0.0797l0.17992,-0.15421l0.18115,-0.09058l0.0209,-0.03657l0.10449,-0.02612l0.09346,-0.04673l0.47549,-0.10566l0.12656,-0.22148l0.46746,-0.11686l0.41318,-0.24791l0.27665,0.07545l0.54721,-0.1368l0.27461,-0.13731l0.0209,-0.03657l0.10449,-0.02612l0.09346,-0.04673l0.26876,-0.05972l0.11198,-0.13065l0.1868,-0.01038l0.23246,-0.19925l0.8,-0.4l0.26348,-0.05855l0.22771,-0.14491l0.34717,-0.11572l0.56163,-0.28082l0.26348,-0.05855l0.22771,-0.14491l0.34717,-0.11572l0.56163,-0.28082l0.40315,-0.08959l0.08088,-0.04313l0.31638,-0.18983l0.225,-0.375l0.37389,-0.37389l0.1828,-0.28726l0.44331,-0.73886l0.07389,-0.07389l0.05782,-0.09087l0.0413,-0.00826l0.42699,-0.42699l1.59454,-0.95672c2.96795,-2.80267 6.05641,-5.28311 9.87158,-7.01968z" fill="#d0d0d0" stroke-width="0.5"/><path d="M108.47987,452.71329c0.00001,0.00001 0.00003,0.00003 0.00004,0.00004l-0.00001,0.00001z" fill="#d0d0d0" stroke-width="0.5"/><path d="M118.40436,441.92753c-0.02104,-0.14263 -0.01758,-0.29134 0.01396,-0.44065c0.14267,-0.67545 0.80589,-1.10736 1.48134,-0.96469c0.48114,0.10163 0.83872,0.46739 0.95305,0.91356l0.6627,2.38318l-0.33014,0.0918c0.95026,2.24311 1.49769,4.4692 2.327,7.09207c1.46216,4.62441 3.47576,9.04698 4.59471,13.77447l0.49845,2.1128c0.04691,0.18107 0.05373,0.37548 0.01245,0.57092c-0.14267,0.67545 -0.80589,1.10736 -1.48134,0.96469c-0.4644,-0.09809 -0.81368,-0.44226 -0.94023,-0.86728l-0.16276,-0.51149l0.11813,0.55662c0.0409,0.17348 0.04516,0.35849 0.00589,0.54442c-0.14267,0.67545 -0.80589,1.10736 -1.48134,0.96469c-0.17261,-0.03646 -0.32931,-0.10691 -0.46458,-0.20287c-0.00405,0.05658 -0.012,0.11355 -0.02406,0.17061c-0.11048,0.52306 -0.53312,0.90007 -1.03187,0.97732c-0.0032,0.05292 -0.00781,0.10559 -0.01372,0.15803l0.02603,0.00173l-0.11563,1.74243c-0.00328,0.06524 -0.01174,0.13107 -0.02566,0.19701c-0.14267,0.67545 -0.80589,1.10736 -1.48134,0.96469c-0.34156,-0.07214 -0.62085,-0.2774 -0.79505,-0.55004l-0.33321,-0.52076c0.13542,2.45416 0.14521,4.94365 0.30054,7.31489l-0.04233,0.12012l0.03218,0.00425l-0.32573,2.46486c-0.00439,0.03596 -0.01038,0.07203 -0.01801,0.10815c-0.14267,0.67545 -0.80589,1.10736 -1.48134,0.96469c-0.32934,-0.06956 -0.60079,-0.26288 -0.77596,-0.52104l-1.40599,-2.06489l0.24798,-0.16886c-1.63515,-2.11533 -2.9403,-4.49605 -3.9851,-7.03246c-0.26685,0.17122 -0.59857,0.24162 -0.93329,0.17092c-0.46319,-0.09783 -0.81186,-0.44046 -0.93924,-0.86395l-0.60635,-1.88824l0.00905,-0.00291l-0.01946,-0.03117c-1.43038,-5.51253 -2.34248,-11.05116 -3.45414,-16.62796c-0.47947,-2.40534 -1.60696,-4.92414 -0.6838,-7.02047l-0.48371,-1.5696c-0.06664,-0.20243 -0.08235,-0.42463 -0.03514,-0.64816c0.14267,-0.67545 0.80589,-1.10736 1.48134,-0.96469c0.43472,0.09182 0.76856,0.39926 0.91327,0.78681c0.05438,-0.00849 0.10968,-0.01342 0.16557,-0.01458c-0.05886,-0.26364 -0.11867,-0.5267 -0.17965,-0.78909l-0.41426,-1.58602c-0.05358,-0.18886 -0.06333,-0.39314 -0.01994,-0.59855c0.14267,-0.67545 0.80589,-1.10736 1.48134,-0.96469c0.48823,0.10312 0.84922,0.47822 0.95794,0.93332l0.52658,2.01603c0.06396,-0.00966 0.12915,-0.01439 0.19509,-0.01387l0.16016,-0.75827c0.14267,-0.67545 0.80589,-1.10736 1.48134,-0.96469c0.19675,0.04156 0.37283,0.12728 0.52008,0.24461c-0.01287,-0.12574 -0.00673,-0.25558 0.0208,-0.38588c0.14267,-0.67545 0.80589,-1.10736 1.48134,-0.96469c0.43125,0.09109 0.76322,0.39437 0.90977,0.77755l0.66124,1.65628l-0.01042,0.00416l0.02101,0.02328c0.08951,0.25882 0.17869,0.51778 0.2676,0.77688c0.22377,-0.09159 0.47644,-0.11937 0.73084,-0.06564c0.11494,0.02428 0.22282,0.06363 0.32202,0.11555c0.00956,0.00179 0.01913,0.00369 0.0287,0.00571c0.11763,0.02485 0.22788,0.06549 0.32899,0.11922c0.19534,-0.23412 0.47218,-0.39131 0.77691,-0.43662zM125.52907,464.75592c-0.07187,-0.13963 -0.14297,-0.27995 -0.21333,-0.42093c0.02018,0.3032 0.03659,0.60579 0.04898,0.90768l0.08871,-0.01883l-0.00778,-0.02445l0.17846,-0.05678c-0.03107,-0.12908 -0.06276,-0.25796 -0.09505,-0.38668zM118.14671,478.09224c-0.07267,-1.43909 -0.10257,-2.91204 -0.15713,-4.38324c-0.04245,0.01014 -0.08559,0.01809 -0.12927,0.02375l0.14546,1.2751c0.01917,0.13906 0.01506,0.28375 -0.01562,0.429c-0.09307,0.44063 -0.40766,0.77761 -0.80265,0.91906c0.33803,0.57789 0.67627,1.14867 0.95921,1.73634zM113.60694,445.48592c0.01415,0.30859 0.0264,0.61732 0.03693,0.92617c0.00023,0.00005 0.00046,0.0001 0.0007,0.00015c0.05925,0.01252 0.11663,0.02903 0.17191,0.04922c-0.07078,-0.32486 -0.14065,-0.65002 -0.20954,-0.97553z" fill="#d0d0d0" stroke-width="0.5"/><path d="M283.4846,312.52781c0,0.04379 -0.00307,0.08451 -0.00877,0.12238c0.0149,0.11482 0.00027,0.20259 0.00027,0.20259c-0.18517,1.08441 -0.83442,3.75342 -2.27608,3.95541c-1.01581,0.14232 -4.12748,-2.40247 -3.71827,-3.56624c0.43545,-1.23839 3.90673,-1.33416 4.9334,-1.33914h0.44445c0,0 0.625,0 0.625,0.625zM282.14237,313.17985c-0.82864,0.12291 -2.84889,0.61689 -3.35768,0.47241c0.17763,0.18039 0.48202,0.51177 0.62796,0.65584c0.03459,0.03415 1.46587,1.29572 1.55097,1.27266c0.60448,-0.16382 0.99457,-1.53677 1.17874,-2.40091z" fill="#000000" stroke-width="0.5"/><path d="M80.2726,452.15066l1.875,3.28125l-0.71008,1.24264l1.35456,1.16105l0.00821,0.14785l0.12856,0.07347l0.15625,0.625h4.5625l0.58482,0.1462l0.60104,0.04624l0.17269,0.05757h1.89145l0.36235,0.09058l0.37308,-0.01776l2.5,0.5l0.21416,0.10144l0.23627,0.01817l0.75,0.25l0.42257,0.26891l0.1411,0.05039c-0.26336,-0.55147 -0.52199,-1.11029 -0.77818,-1.67632l-0.05716,0.02858l-1.10679,-2.21358c-0.09145,-0.1737 -0.14321,-0.37156 -0.14321,-0.58151c0,-0.35461 0.14766,-0.67473 0.38485,-0.90223l-0.4391,-0.98808c-0.07618,-0.16155 -0.11877,-0.34205 -0.11877,-0.53249c0,-0.68341 0.54844,-1.23873 1.22921,-1.24983c0.04271,-0.25063 0.16003,-0.47583 0.3283,-0.65193c0,-0.00062 0,-0.00124 0,-0.00186c0,-0.65199 0.49918,-1.1874 1.1362,-1.24489c-0.06302,-0.14931 -0.09786,-0.31343 -0.09786,-0.48568c0,-0.69036 0.55964,-1.25 1.25,-1.25c0.46331,0 0.86774,0.25206 1.08365,0.62653l0.25067,0.41778c0.32579,0.0318 0.61493,0.18867 0.81876,0.42198l0.61342,0.69521c0.12109,-0.49174 0.5332,-0.86897 1.04322,-0.93856c-0.02681,-0.10185 -0.04109,-0.20878 -0.04109,-0.31905c0,-0.69036 0.55964,-1.25 1.25,-1.25c0.34518,0 0.65768,0.13991 0.88388,0.36612l0.53766,0.53766c0.09883,-0.02513 0.20237,-0.03849 0.30902,-0.03849c0.499,0 0.92971,0.2924 1.13014,0.7152l0.85317,1.70634l-0.17482,0.08741l0.12994,0.34575c0.00674,0.01344 0.01352,0.0269 0.02034,0.0404c2.5291,3.46513 4.02997,7.57371 6.18997,11.39602l0.00029,0.08943l0.03326,-0.01337l0.58141,1.44621c0.06486,0.15114 0.10077,0.31764 0.10077,0.49252c0,0.47034 -0.25977,0.88001 -0.64367,1.09336c-0.22921,0.2813 -0.57839,0.46096 -0.96954,0.46096c-0.17402,0 -0.33974,-0.03556 -0.49028,-0.09981l-0.03313,-0.01324c-0.13215,0.12102 -0.29039,0.214 -0.46532,0.26953c-0.20442,0.14572 -0.45458,0.23143 -0.72475,0.23143c-0.33928,0 -0.64698,-0.13517 -0.8722,-0.35459l0.0364,0.33722c0.00603,0.04976 0.00913,0.10043 0.00913,0.15182c0,0.36959 -0.1604,0.70172 -0.41539,0.93057c-0.11166,0.3205 -0.35012,0.58157 -0.6553,0.72314l0.11322,0.29706c0.05944,0.14564 0.09219,0.305 0.09219,0.47202c0,0.69036 -0.55964,1.25 -1.25,1.25c-0.42991,0 -0.80913,-0.21703 -1.03407,-0.5475l-1.42363,-2.03375l0.26639,-0.18648c-0.29587,-0.32621 -0.58357,-0.65984 -0.8636,-1.00022c-0.07189,0.13197 -0.16687,0.24956 -0.27951,0.34732l0.23712,1.42273c0.01371,0.07415 0.02088,0.1506 0.02088,0.22873c0,0.05872 -0.00405,0.11649 -0.01188,0.17306c0.00783,0.05656 0.01188,0.11434 0.01188,0.17306c0,0.69036 -0.55964,1.25 -1.25,1.25c-0.48687,0 -0.90873,-0.27835 -1.11512,-0.6846l-1.02756,-1.92668c-0.8306,0.23589 -1.33743,-0.5678 -1.33743,-0.5678l-0.49041,-0.83395c-0.00517,-0.01446 -0.01034,-0.02893 -0.01551,-0.04338l-0.1423,0.30041l0.03663,0.23349l-0.38918,0.51081l-0.12537,0.26468l0.13868,0.4931l-0.45395,0.47369l-0.03961,0.71312l-1.30678,1.12009l-0.44088,0.58785l-0.00234,0.04206l-0.08178,0.07009l-0.0627,0.0836l-0.66873,0.54334l-0.65421,0.56076l-0.09346,0.04673l-0.0836,0.06792l-0.04179,-0.00522l-0.65234,0.32617l-1.1265,0.6759l-0.14066,0.04281l-0.11164,0.09569l-1.5,0.75l-0.40315,0.08959l-0.3644,0.19434l-5,1.25h-0.35272l-0.33658,0.10549l-4.25,0.25l-0.11081,-0.02087l-0.1094,0.02735h-45.25l-0.19176,-0.04795l-0.19569,0.02787l-9.95409,-1.03401l-0.11115,-0.04039l-0.11789,0.00943l-3.98977,-0.66496h-57.93964l-0.09797,-0.0245l-0.09912,0.01931l-4.75,-0.25l-0.18991,-0.05824l-0.19786,0.01753l-4.75,-0.75l-0.05603,-0.0238l-0.06078,0.00345l-5.25,-1l-0.13562,-0.06273l-0.1494,-0.00317l-2.56695,-0.70008l-2.81285,-0.46881l-0.14017,-0.06094h-0.15284l-1.81233,-0.45308l-1.5585,-0.22264l-0.13617,-0.05548l-0.14699,0.00387l-2.25,-0.5l-0.04533,-0.02266h-0.05069l-1.96693,-0.49174l-3.10411,-0.71634l-8.88595,-1.48099l-0.19796,-0.08607l-0.21574,-0.00719l-1.75,-0.5l-0.07236,-0.04174l-0.08329,-0.00641l-0.75,-0.25l-1.63055,-1.03762l-0.11179,-0.55895l-0.42591,-0.28394l0.08025,-1.44439l-0.2837,-1.41852l0.18793,-0.16815l-0.23447,-0.46894l-0.05748,-0.25869l-0.08846,-0.07219l0.02954,-0.19291l-0.30286,-1.36289l0.66418,-0.99626l0.10389,-0.67837l-0.516,-0.90299l-0.54438,-0.81658l-0.03064,-0.0017l-0.50057,-0.584l-0.24496,-0.23291l0.00965,-0.04163l-0.5219,-0.60888l-0.25,-0.5l-0.3579,-1.61056l-0.038,-0.06649l0.01672,-0.02926l-0.04009,-0.18037l0.00577,-0.00866l-1.73241,-3.03171l1.875,-3.28125l1.875,-0.46875l5.76288,-2.89044c0,0 2.31006,-1.6686 3.4281,-2.22761c0.53109,-0.26554 0.93604,-0.15267 1.21485,0.03903c0.87116,-0.7798 1.32766,-1.69151 2.2242,-2.56858c1.53803,-1.50464 2.49646,-1.84963 4.25269,-3.02918c0.27444,-0.18433 1.06036,-2.14547 1.24435,-2.58143c0.29282,-0.69381 0.83231,-1.42118 1.01003,-1.86066c0.6434,-1.59104 1.83666,-1.84966 2.41074,-3.07254l0.09836,-0.39343l0.04623,-0.60104l0.5,-1.5l0.14491,-0.22771l0.05855,-0.26348l0.05448,-0.10897c0.03627,-0.34112 0.0557,-0.70191 0.0557,-1.08715c0.29927,-1.49636 0.05273,-3.47577 -0.57567,-4.93816c-0.3683,-0.85708 -0.34103,-1.38635 -0.92255,-2.17831c-0.1242,-0.16915 -0.22739,-0.35531 -0.31634,-0.55281l-0.09906,-0.05944l-0.46746,-0.11686l-0.14226,-0.24897l-0.63439,-0.38063l-0.5,-0.5l-0.99437,-1.65729l0.01978,-0.07255l-0.0118,-0.01232l-0.70643,-1.84796c-0.14464,-0.74543 0.99328,-1.23151 1.3778,-1.85403c0.56122,-0.90861 2.01167,-0.71947 3.00244,-1.11811c2.71159,-1.09103 5.11494,-1.67555 7.44732,-3.27171c-0.03079,-0.04597 -0.05987,-0.09284 -0.08719,-0.14065c-0.21156,-0.37023 1.10441,-0.56909 1.19322,-1.1724c0.90192,-0.78022 1.56321,-1.26287 2.07471,-2.00243c0.52576,-0.76018 0.8961,-2.45872 1.17009,-2.27607c0,0 3.42442,-1.73777 4.34234,-2.01893c1.08526,-0.33243 3.35661,-1.01504 4.55679,-1.37541c4.34812,-1.30557 6.70155,-3.39565 11.23028,-4.30139c2.14269,-0.39017 4.85277,-0.56907 7.05031,-1.00788c2.04783,-0.40892 4.08863,-1.39621 6.13693,-1.79154c2.10217,-0.40573 3.91817,-1.30713 5.99328,-1.92921c2.45204,-0.73507 5.03212,-0.75432 7.5,-1.25c5.9711,-2.38844 12.74235,-2.14484 18.75,-4c2.69333,-0.8317 5.37728,-1.87506 8.05487,-2.76496c2.69229,-0.44236 4.92852,-1.21978 7.44513,-1.98504c0.98427,-0.2993 2.4734,-1.31219 3.54956,-0.59188c1.85272,1.24009 0.40991,1.96125 0.76127,3.2064c0.47514,1.68379 1.90841,2.96121 2.2728,4.84728c0.58751,3.04092 -1.52321,6.06199 1.88009,7.32692c0.80109,1.87064 4.02842,2.68363 3.63167,5.32336c-0.33055,2.19925 -3.09461,2.29083 -4.23921,3.83611c-0.17963,0.24252 -1.45732,1.74037 -1.13197,2.19098c0.69929,0.9685 2.36055,1.51011 2.98406,2.7192c1.0208,1.97948 -0.29347,5.52365 -0.9945,7.90266c0.12341,-0.04077 0.25533,-0.06284 0.39241,-0.06284c0.61444,0 1.12533,0.44333 1.23027,1.02756l0.24546,1.22729l-0.20827,0.04165c0.14253,0.47575 0.2314,0.96111 0.23254,1.4535c0.00029,0.12613 -0.13322,1.36155 -0.07005,2.10713l0.2559,0.0853l0.22772,0.14491l0.07813,0.01736l0.00267,-0.00072l0.0035,0.0021l0.17919,0.03982l0.5,0.25l0.26122,0.22391c1.23342,0.02459 2.76344,-0.17962 3.80348,0.23099c1.30159,0.51387 4.28864,1.82559 5.06576,2.98274c0.63799,0.94998 0.44171,2.6937 1.18464,3.65611c0.21782,0.28218 0.48521,0.5234 0.75012,0.76611c0.21023,-0.16046 0.47284,-0.25575 0.75773,-0.25575c0.41416,0 0.78127,0.20141 1.00873,0.51164l0.73369,0.97826c0.16155,0.21062 0.25758,0.47415 0.25758,0.76011c0,0.14646 -0.02519,0.28703 -0.07147,0.41763c0.81174,0.97096 1.35132,3.1212 2.46459,3.7605l0.99076,0.93798l2.61612,11.62854l1.30901,4.62335c-0.14335,0.07121 -0.28699,0.13957 -0.43091,0.20523l1.29127,0.28634l3.20195,0.64039h6.73317l0.10515,-0.02337l0.03504,0.02337zM-45.72484,466.68191l3.26448,0.51544l4.45658,0.23456h16.56576l-1.63442,-0.31978l-0.03639,-0.01705l-0.04018,0.00124l-1.90629,-0.41441z" fill="#d0d0d0" stroke-width="0.5"/><path d="M282.18303,313.15074c-0.18417,0.86414 -0.5957,2.31233 -1.20018,2.47615c-0.0851,0.02306 -1.58549,-1.2881 -1.62008,-1.32225c-0.14594,-0.14407 -0.44632,-0.49191 -0.62395,-0.6723c0.50879,0.14448 2.61558,-0.35869 3.44422,-0.4816z" fill="#d0d0d0" stroke-width="0.25"/><path d="M434.47396,484.11806c-1.11803,0.55902 -1.67705,-0.55902 -1.67705,-0.55902l-0.38197,-0.76393c-1.77946,-3.58033 -2.48733,-7.47925 -3.68915,-11.28471c-1.35763,-4.29881 -3.07525,-8.3715 -4.72436,-12.55347c-1.06254,-2.69449 -1.85775,-6.03033 -3.97038,-8.07301c0,0 -0.13935,-0.13935 -0.25206,-0.36272c-1.69265,-0.43271 -3.50427,-0.45857 -5.24851,-0.35004c-0.8041,0.05003 -1.27403,1.13693 -2.07263,1.24333c-0.85577,0.11401 -1.83366,-0.07707 -2.51909,-0.60198c-0.49574,-0.37964 -0.36794,-1.19425 -0.58898,-1.77823c-0.9577,-2.53019 -0.31122,-4.25266 -0.61813,-6.76256c-0.16622,-1.35939 -2.60008,-3.15189 -3.36921,-4.34382c-0.10414,-0.79121 0.22988,-1.65043 -0.06166,-2.3933c-0.16519,-0.42094 -2.87018,-0.48923 -3.1062,-0.5001c-2.53152,-0.1166 -3.99659,0.05964 -6.13935,-1.54774l-0.12775,-0.31918c-0.01588,0.01924 -0.03175,0.0385 -0.04761,0.05777c-0.04119,-0.16227 -0.08404,-0.32968 -0.12919,-0.49952l-0.42642,-1.06545c0,0 -0.0413,-0.16523 -0.03243,-0.38895c-0.27558,-0.70185 -0.62892,-1.3055 -1.11229,-1.59235c-1.0927,-0.64844 -3.91772,-0.10781 -5.15738,-0.10886c-2.48854,0.21339 -4.75919,1.12931 -7.3248,0.54361c-0.86726,-0.19799 -1.46971,-1.15926 -2.35383,-1.25764c-1.05806,-0.11773 -1.80564,1.52882 -2.86396,1.41345c-0.89427,-0.09748 -1.19095,-1.68824 -2.09032,-1.7069c-0.3426,-0.00711 -0.59867,0.37195 -0.9378,0.42118c-1.99802,0.29005 -3.45826,-0.69156 -4.7984,-2.06426c-0.30802,-0.3155 -0.77931,-0.93373 -0.9726,-1.42482c-0.41042,1.28755 -1.36598,3.91701 -1.43054,4.14983c-1.41017,0.83899 -4.02811,2.13565 -5.79871,1.02585c-3.12165,-1.95664 0.02082,-7.57065 -0.82492,-10.27251c-0.62225,-1.98791 -3.11732,-1.75012 -4.3496,-2.85764c-3.30657,-2.97179 -0.06619,-9.7287 2.54086,-11.81981c3.6322,-0.10194 4.62473,-4.486 5.85854,-7.18264c0.50207,-1.09733 1.62673,-1.66503 2.32656,-2.58569c0.27841,-0.36626 -0.6543,0.68972 -1.0838,0.85461c-0.83832,0.32183 -1.87077,1.03511 -2.63446,0.56276c-1.2364,-0.76473 -0.76922,-2.45989 -0.12775,-3.81716c-0.04416,-0.33893 0.05161,-0.62624 0.05161,-0.62624l0.28864,-0.72667c1.3009,-1.92471 3.38823,-3.13016 4.25317,-5.31267c0.20815,-2.53753 -0.75011,-6.75326 1.02029,-8.85149c0.59469,-0.70481 1.92903,-0.41057 2.53658,-1.10432c1.19007,-1.35894 -0.07376,-3.86154 1.5093,-5.5133c0.5229,-0.54559 1.92239,-0.01265 2.14468,-0.73492c0.21764,-0.70719 -1.1633,-1.11377 -1.22505,-1.85111c-0.16997,-2.02945 0.77136,-2.86723 2.13075,-3.45763c0.05863,-0.11667 0.11105,-0.18654 0.11105,-0.18654l0.2823,-0.35706c0.65544,-1.03604 0.17148,-2.49935 -0.52689,-2.8007c-0.10039,0.46798 -0.48799,0.76944 -0.48799,0.76944l-1.48676,1.07065c-4.28438,0.08238 -5.33508,-2.61266 -6.05039,-6.26249l-0.10528,-0.04485c-1.78262,-0.01584 -2.71787,0.68503 -4.38862,0.97744c-2.06165,0.36083 -3.31169,-0.75142 -5.00644,-1.59076c-2.7086,-1.34146 -7.53084,-0.24847 -8.09886,-4.63851c-0.01675,-0.1295 -0.01446,-0.2581 0.0009,-0.38609c-1.39806,-0.01707 -2.31066,0.07516 -3.16609,-1.76915c-0.8082,-1.74248 0.82586,-4.24321 0.01425,-6.09112c-0.84796,-1.9307 -3.30164,-1.11473 -4.46278,-3.17247c-0.25853,-0.45815 -1.02621,-3.95436 -2.75848,-2.07045c-0.54119,0.58857 0.13801,1.76281 -0.385,2.36759c-0.48768,0.56394 -1.34167,0.65064 -2.0125,0.97597c-0.73208,0.00811 -1.58758,-0.32878 -2.19492,0.08006c-0.70837,0.47686 -0.8026,1.63464 -1.55736,2.03405c-2.9583,1.56548 -5.61994,-1.00275 -8.22879,-1.3473c-1.48906,-0.19666 -1.16936,1.11935 -2.14333,1.76538c-1.28325,0.85118 -2.9733,0.31908 -4.37461,0.59262c-3.17326,0.61944 -6.00516,0.91533 -6.23609,-3.1589c0.13349,-1.48302 0.29383,-2.79715 0.65827,-4.23521c0.11927,-0.47061 0.83956,-1.26355 0.3758,-1.40715c-1.02697,-0.31798 -2.77439,-1.54513 -3.89963,-1.68124c-2.02837,-0.24536 -2.59642,2.76646 -5.05163,2.49418c-2.75732,-0.30579 -3.97983,-4.76601 -3.7077,-6.95149c-0.00139,-0.02404 -0.00139,-0.03745 -0.00139,-0.03745l0.02017,-0.52639c-0.30841,-1.88012 -1.17477,-2.4612 -2.64626,-3.58201c-2.68728,-3.41089 -2.53529,-6.23066 -0.31222,-9.92377c0.35528,-0.59021 1.19111,-0.90362 1.33549,-1.57722c0.14947,-0.6974 -0.84479,-1.17479 -1.07589,-1.84955c-0.06589,-0.19239 -0.01023,-2.85841 -0.5878,-3.02778c-1.7454,-0.51181 -3.27018,0.91942 -4.95987,-0.8578c-0.01316,-0.01384 -0.53524,-1.21251 -0.37311,-1.90299c-0.15311,0.18379 -0.32416,0.38654 -0.40836,0.50785c-0.22815,0.32871 -0.35833,0.71553 -0.5375,1.07331c-0.08662,1.44006 0.15395,3.27326 -0.25753,4.65109c-0.57891,1.93843 -2.11802,2.32995 -3.50794,3.46373c-2.34623,1.91384 -2.7488,5.07411 -6.39864,5.5405c-3.02659,0.38675 -4.38297,-2.09251 -6.81082,-2.80313c-1.47951,-0.43304 -3.87977,0.06529 -5.4632,-0.06557c-2.11241,-0.19204 -6.85449,-0.70887 -4.99361,-4.3351c1.22287,-2.38296 3.9095,-1.08183 5.78071,-1.24316c0.52662,-0.04541 1.03008,-2.65189 1.22242,-3.01266c0.35282,-0.66179 1.09652,-1.2044 1.1151,-1.95414c0.01336,-0.53897 -1.03684,-0.35148 -1.47257,-0.66899c-1.36864,-0.99732 -1.16291,-1.91756 -2.75781,-2.49565c0,0 -0.34426,-0.13771 -0.5828,-0.45062c-0.15903,-0.04047 -0.26198,-0.09194 -0.26198,-0.09194l-0.44099,-0.36804c-0.40427,-0.01114 -0.80854,-0.02229 -1.21281,-0.03344c-2.69177,1.37779 -3.64615,5.07066 -6.23996,6.83729c-0.35934,0.24475 -1.73892,0.42126 -2.19009,0.85598c-1.87223,1.80402 0.74549,4.02082 -2.57647,5.3975c-1.50321,0.62296 -3.68244,-0.24931 -5.17212,-0.44037c-2.34354,-0.30057 -4.55484,0.15927 -6.73019,0.94939c-5.07405,1.29129 -5.24715,-2.94172 -4.06972,-6.69472c0.08329,-0.26548 1.78164,-3.38119 1.10704,-3.71738c-2.8395,-1.41505 -6.91675,2.67705 -9.3065,3.41803c0,0 -0.00968,0.0029 -0.02757,0.00732c-0.28054,0.28985 -0.65345,0.38307 -0.65345,0.38307l-0.83893,0.19792c-0.57633,0.22922 -1.28343,0.20364 -1.7619,0.59832c-0.38821,0.32022 0.53829,0.8509 0.82751,1.26273c0.38995,2.00563 -1.05997,3.73749 -0.6774,5.36697c0.803,3.42032 6.66104,4.18926 3.91161,8.34227c-2.83961,4.28922 -6.37394,2.12226 -9.60944,0.24321c-1.37184,-0.7967 -4.60381,-0.98696 -6.15462,-0.9741c-1.15089,0 -2.39526,-0.1334 -3.53365,-0.07554c-0.20608,0.01047 0.23329,0.36395 0.41739,0.45716c1.11058,0.5623 1.98868,0.46495 2.7752,1.66591c0.86106,1.3148 -0.05703,3.1353 0.73012,4.22158c1.49122,2.05793 4.80642,0.82763 6.12708,3.72068c0.72002,1.57729 0.27186,3.83206 -0.56753,5.27542c-0.74896,1.28787 -1.66159,1.19585 -1.23576,2.68229c0.055,0.76622 0.6399,1.69484 0.16502,2.29867c-1.17785,1.49766 -4.96729,0.177 -5.71667,-1.13215c-0.83021,-1.45037 0.05071,-3.63538 0.73252,-4.94595c0.39178,-0.75308 1.81236,-1.89377 1.07244,-2.30987c-1.09929,-0.61819 -2.45175,-0.89879 -3.50169,-1.76086c-1.91289,-1.57062 -2.15573,-3.63121 -3.09516,-5.70419c-0.28365,-0.62592 -0.62843,1.23237 -0.8142,1.89398c-1.06239,2.57866 -3.08391,3.7302 -5.09965,5.52214c-4.4545,3.95992 -9.65138,11.44408 -16.39249,9.68487c-0.14311,0.00711 -0.23974,-0.00669 -0.23974,-0.00669l-0.07345,-0.0958c-0.05166,-0.02364 -0.11386,-0.05542 -0.18017,-0.09644c-1.94649,0.88957 -2.15168,2.74086 -3.94344,3.78666c-1.22206,0.71328 -2.783,0.09422 -3.97691,0.67789c-1.62096,0.79246 -1.70534,3.28841 -3.73707,3.58181c-5.32642,0.76918 -0.94973,-6.27929 -3.72974,-3.63735c-1.92156,1.59575 -5.41986,2.20527 -7.71461,0.7341c-2.21188,-1.41805 -1.89147,-4.09194 -1.5819,-6.35334c0.09189,-0.67125 0.73633,-1.46195 0.33162,-2.0053c-0.41826,-0.56153 -2.98108,-0.76373 -3.61459,-0.83835c-3.78842,-0.44617 -6.87728,-0.23321 -10.41199,-1.99829c-0.86409,-0.43205 -4.29362,-2.73232 -5.19019,-2.30087c-1.38383,0.66593 -1.05164,1.59006 -3.14088,1.2794c-1.90371,-0.28307 -2.23156,-1.84886 -4.50238,-0.5621c-0.29812,0.16893 1.51465,3.71227 1.20332,4.73582c-0.60183,1.97858 -2.80988,2.50724 -4.50769,2.94239c0,0 -0.30364,0.0759 -0.64503,-0.00018c-1.9053,0.29628 -5.25377,0.78044 -6.62296,0.0146c-1.78493,-0.99838 -0.66167,-2.98356 -2.14114,-3.63379c-1.06818,-0.46947 -2.41453,-0.38454 -3.31355,-1.12829c-1.87212,-1.54879 -0.44,-2.73535 -1.30459,-4.24464c-0.54398,-0.9496 -1.86621,-1.58351 -1.90016,-2.67735c-0.06583,-2.12117 2.12161,-3.75274 3.28634,-5.22021c-0.01823,-0.6189 -0.98786,-0.8064 -1.26523,-1.35997c-0.38511,-0.76863 0.46164,-1.86377 -0.01523,-2.5791c-0.12125,-0.18189 -2.84032,0.26648 -3.06394,0.32522c-2.64531,0.69486 -5.98871,4.25422 -8.70219,3.90878c-1.4183,-0.18056 -2.01358,-1.06673 -2.57421,-2.04194c0.5377,1.36485 1.71339,5.99955 0.15951,6.70929c-4.23335,1.9336 -2.56025,-2.7841 -3.36585,-3.59171c-0.26884,-0.26952 -0.80024,-0.56385 -1.27678,-0.89994c0.14218,0.50018 0.17638,1.00705 -0.0486,1.48123c-0.58339,1.22956 -2.17003,1.27404 -3.21012,1.65107c-1.69778,0.61545 -3.28871,1.5681 -4.86183,2.44049c-4.86412,2.21401 -8.54531,5.63285 -12.30372,9.39266l-0.14085,0.42513c0,0 -0.55902,1.11804 -1.67705,0.55902c-1.11804,-0.55901 -0.55902,-1.67705 -0.55902,-1.67705l0.60915,-1.07487c3.94166,-3.94024 7.83858,-7.53898 12.94628,-9.85734c1.66211,-0.92518 3.3445,-1.90529 5.13817,-2.55951c0.57106,-0.20828 1.56647,0.21638 1.78988,-0.34893c0.70719,-1.78954 -3.04315,-2.34965 0.04244,-4.74917c0.50186,-0.39027 1.36719,-0.41817 2.21482,-0.23014c-0.01684,-0.63182 0.41352,-1.26676 1.65853,-1.90479c2.20167,-1.12829 3.87871,1.16695 4.77503,2.61534c0.01492,0.02411 0.56998,1.16614 0.95325,1.17569c0.82956,0.02067 2.66616,-1.54224 3.28799,-1.86586c2.3223,-1.20862 7.83215,-4.10427 10.19588,-1.40013c0.64284,0.73542 -0.28367,2.09306 0.23476,2.9209c0.28153,0.44955 1.01836,0.51139 1.24511,0.99091c0.30813,0.65163 0.15978,1.43274 0.23967,2.14912c-0.70335,1.1404 -3.08047,3.12662 -3.21366,4.52979c-0.07066,0.74444 1.26517,0.90393 1.59984,1.57265c0.43894,0.87707 0.06445,1.97923 0.32774,2.924c0.3569,1.28068 2.47812,0.95153 3.30412,1.45307c0.65769,0.39935 1.22226,0.98333 1.62626,1.63817c0.35636,0.57761 -0.16481,1.77438 0.4826,1.97804c1.36462,0.42928 4.28897,-0.15975 5.72011,-0.38337c0,0 0.18266,-0.0281 0.41831,0.00754c0.80286,-0.1729 1.83172,-0.45441 2.0859,-1.16736c0.74934,-2.10177 -3.42557,-2.99768 -0.54669,-5.76418c2.24721,-2.15949 4.68194,-0.95324 6.74762,-0.0621c0.19138,0.08256 2.84206,-1.43869 3.79847,-1.23847c1.6339,0.34207 3.61786,1.7157 5.12046,2.467c4.25763,2.13173 8.88906,0.65543 13.15588,2.5827c0.64236,0.29014 1.42388,0.49599 1.81754,1.08066c1.44359,2.14401 -2.11599,7.42306 1.54279,7.97081c0.71755,0.10742 1.45246,0.03498 2.1766,-0.01006c0.5904,-0.03672 1.13686,-0.42788 1.56572,-0.8353c0.60712,-0.45583 1.08109,-1.19911 1.82138,-1.3675c3.11803,-0.70927 3.65107,2.48616 2.91585,4.61124c-0.09059,0.26183 0.36431,-0.41824 0.52966,-0.64055c1.06227,-1.42816 0.96567,-1.99699 2.7663,-2.90873c1.06392,-0.53872 2.80425,0.00741 3.77309,-0.57211c1.71788,-1.02756 2.14169,-2.92215 4.22734,-3.92809l1.44975,0.02071c0.30692,-0.03345 0.55826,0.04195 0.55826,0.04195c5.30441,1.7219 10.74488,-6.05404 14.18536,-9.11197c1.59341,-1.41625 3.61864,-2.43301 4.40034,-4.47786c0.14807,-0.47032 0.19496,-0.9855 0.44421,-1.41094c0.35242,-0.60155 0.71014,-1.29368 1.32873,-1.61525c0.71971,-0.37414 1.30619,-0.49095 1.79626,-0.42016c-0.35786,-0.27563 -0.6328,-0.72626 -0.74281,-1.53684c-0.50487,-3.72007 3.80988,-2.97968 5.97872,-2.97968c2.00202,0.01329 5.52944,0.31417 7.34538,1.2759c1.82343,0.96569 3.32862,3.18285 5.49746,1.37405c2.93808,-2.45033 -2.86564,-4.12991 -3.44528,-7.28857c-0.35744,-1.94777 1.20921,-3.07253 0.8226,-4.88303c-1.81654,-2.84841 -0.38662,-4.05255 2.31561,-5.13895l1.13962,-0.29651c0.26135,-0.26646 0.59043,-0.36518 0.59043,-0.36518c3.01596,-0.86469 7.92323,-5.85601 11.4435,-3.08197c2.85691,2.2513 -0.14887,5.20759 -0.47037,7.69518c-0.11927,0.9228 -1.0456,2.24742 -0.28073,2.77728c0.43452,0.301 1.03244,-0.23163 1.53843,-0.38455c2.49957,-0.91001 5.08814,-1.37815 7.7698,-1.05061c0.32419,0.0396 4.31587,1.14798 4.48566,0.31778c0.1827,-0.89333 -0.27248,-1.88824 0.06664,-2.73465c0.96082,-2.39812 2.03471,-1.90892 3.75902,-3.02002c3.00979,-1.93943 3.64416,-5.50052 7.01004,-7.16271c0.59573,-0.01114 1.19146,-0.02229 1.78719,-0.03344l1.55902,0.63196c0,0 0.27051,0.13526 0.47888,0.40577c0.10889,0.02469 0.17634,0.05167 0.17634,0.05167c1.68321,0.71484 1.92312,1.86031 3.24218,2.75435c0.9487,0.64302 2.31011,1.20572 2.52744,2.33101c0.36165,1.87255 -1.45892,3.04503 -1.90044,4.64494c-0.15083,0.54656 0.07954,1.22224 -0.252,1.6822c-0.48377,0.67116 -1.23273,1.1727 -2.01003,1.45606c-0.1755,0.06398 -7.23313,0.26022 -2.5879,0.54674c0.45935,0.02833 0.91666,0.08333 1.375,0.125c1.81188,0.15234 4.32466,-0.33611 6.03679,0.18443c1.92227,0.58443 3.36568,3.01127 5.68919,2.69687c2.16691,-0.29321 2.91123,-2.30442 4.04801,-3.77089c0.90445,-1.16674 3.46573,-2.02136 3.79541,-3.47488c0.31585,-1.39256 0.11679,-3.18176 0.24246,-4.59891c0.78725,-1.57588 2.5044,-4.95006 5.073,-3.29629c0.78236,0.50372 0.00952,2.012 0.60804,2.72446c0.48753,0.58034 1.51599,0.00866 2.27361,0.03049c1.81039,0.05217 2.20304,-0.19051 3.25092,1.70704c0.38186,0.69149 1.69223,5.38561 1.60191,6.02735c-0.08098,0.5754 -1.31038,1.83036 -1.66451,2.42278c-1.58731,2.65542 -1.95656,4.34784 -0.06222,6.82623c1.90085,1.39911 2.89282,2.55131 3.35374,4.91799l0.02016,0.97361c0,0 0,0.03039 -0.00474,0.0817c0.0041,0.17028 -0.01953,0.28844 -0.01953,0.28844c-0.19077,0.73561 0.49811,4.10622 1.56519,4.14092c0.85375,0.02776 2.33035,-1.87806 3.13334,-2.17696c2.61351,-0.97287 3.3458,0.87367 5.44919,1.59798c0.55482,0.19106 1.31673,-0.0379 1.71622,0.39192c1.54051,1.65747 -0.03228,5.60883 -0.21594,7.60764c-0.29136,2.11566 3.55865,0.50986 4.81964,0.44464c0.60575,-0.03133 1.37029,0.3965 1.81966,-0.01092c1.30288,-1.18123 1.56402,-2.43097 3.85667,-2.23462c1.86748,0.15993 4.70003,2.75044 6.77121,1.6527c0.71819,-0.38065 0.74756,-1.54459 1.44264,-1.96595c0.91177,-0.55271 2.06029,-0.43292 3.05508,-0.41994c0.90581,-0.04465 0.22716,-1.79777 1.1025,-2.65644c0.91343,-0.89605 4.24755,-1.14609 5.32067,-0.41054c1.37388,0.94169 0.93551,1.86157 1.42085,3.09009c0.40158,1.0165 2.39855,0.81793 3.15999,1.4678c0.58674,0.50077 1.03509,1.16836 1.37722,1.85972c0.96708,1.95423 -1.27067,6.607 1.35514,6.37681l0.80864,0.13873c0.18023,-0.04011 0.39365,-0.0383 0.64525,0.03032c1.20596,0.32889 0.87706,1.53485 0.87706,1.53485c-0.75545,2.06869 1.67854,2.66237 3.36662,2.93682c2.1701,0.35281 3.60861,1.49871 5.65562,2.00529c1.52267,0.37682 3.9488,-1.00882 5.64681,-1.02101l1.52029,0.43914c0,0 0.69828,0.23276 0.84456,0.8769c0.08775,0.18554 0.11498,0.33535 0.11498,0.33535c0.31336,1.77323 0.55109,4.26705 2.3976,4.72285c3.04088,-4.31715 7.74647,-0.31121 6.26143,3.92109c0.04681,0.0824 0.08867,0.17613 0.12416,0.28259c0.39529,1.18586 -0.79057,1.58114 -0.79057,1.58114c-0.26168,0.08512 -2.19473,0.3754 -1.8799,1.16105c0.53533,1.33587 1.91369,0.93492 1.06066,3.29175c-0.76779,2.12131 -1.69325,0.62009 -2.71246,1.55079c-1.25239,1.14363 -0.1565,3.9179 -1.34784,5.34385c-0.61156,0.73199 -1.94936,0.48982 -2.60628,1.1814c-0.36588,0.38518 -0.23258,2.10619 -0.23089,2.42817c0.00934,1.78438 -0.00419,3.515 -0.17738,5.29176c-0.88229,2.19356 -2.44675,3.39041 -3.8084,5.04288c0.00869,0.41577 -0.20422,0.75642 -0.20422,0.75642c-0.03505,0.05518 -0.10261,0.21019 -0.19261,0.41218c1.78003,-0.48717 3.18295,-0.15546 3.52406,2.15171c0.29389,1.98784 -1.97237,2.32141 -2.53058,3.70003c-1.19574,2.95315 -3.23854,8.67115 -7.28433,8.53165c-1.57079,1.61572 -1.78726,3.42656 -1.89889,5.5899c-0.03478,0.67401 -0.42451,1.6713 0.15403,2.01886c2.00053,1.20182 4.15655,1.31639 5.07897,3.99951c0.88988,2.58848 -2.65031,10.54935 2.23352,8.46762c0.28003,-1.70515 1.79106,-6.27017 4.39397,-5.71982c0.70304,0.14865 0.61406,1.3043 1.0056,1.90686c0.50999,0.78484 1.70898,1.93241 2.62696,2.21182c0.77459,0.23577 1.75068,-0.56384 2.40556,-0.45978c0.91847,0.14594 1.27548,1.58521 2.1954,1.72167c0.97039,0.14395 1.58416,-1.47694 2.56461,-1.44369c1.02707,0.03483 1.78399,1.09935 2.78903,1.3138c2.30036,0.49083 4.42647,-0.38583 6.67521,-0.59924c1.87372,-0.00148 4.88153,-0.54713 6.55691,0.46256c1.18858,0.71632 1.84599,2.11664 2.32675,3.54265c-0.02649,0.02687 -0.05293,0.05382 -0.07932,0.08085l-0.12309,0.3546c2.64083,2.1617 7.85567,-0.46285 9.89731,2.8093c0.0247,0.03958 0.18878,2.27759 0.22405,2.74955c0.78878,1.11889 2.15224,1.92409 2.86635,3.02137c1.25204,1.92383 0.26687,3.77002 0.35083,5.78084c0.04874,1.16724 0.72509,2.01246 0.77791,3.17032c0.0186,0.40759 0.44003,-0.73467 0.80032,-0.92616c0.53084,-0.28213 1.1549,-0.35343 1.75083,-0.4325c2.5276,-0.33537 5.39951,0.01954 7.74349,0.93908c0,0 1.12447,0.44979 0.71702,1.57073c1.71193,2.29339 2.55739,5.17665 3.61023,7.84724c1.66947,4.23469 3.40679,8.36148 4.7813,12.71444c1.15783,3.66675 1.81042,7.48062 3.54126,10.91951l0.38197,0.76393c0,0 0.55902,1.11803 -0.55902,1.67705zM217.0115,336.95437c2.04737,2.43917 -0.87222,4.88579 -1.41459,7.22788c-0.07447,0.32157 0.45968,0.71723 0.89339,0.99374c-0.26683,-2.70034 3.05714,-4.85868 1.97122,-7.35321c-0.43371,-0.99629 -1.56426,-1.34518 -2.7531,-1.67746c0.55933,0.24882 1.05151,0.50933 1.30308,0.80905zM212.15657,333.44516c-0.16899,-1.10529 0.26327,-2.22185 -0.33785,-3.18018c-0.47413,-0.75586 -1.22936,-0.84731 -1.92779,-1.03612c1.03787,0.8316 1.52921,2.73684 2.26564,4.2163zM100.24522,329.90774c-0.1232,0.2384 -0.16365,0.44288 0.03578,0.56775c0.16768,0.10499 0.36396,0.17145 0.56393,0.23122c-0.02059,-0.04246 -0.04263,-0.08562 -0.06622,-0.12952c-0.15557,-0.22274 -0.33907,-0.44589 -0.53349,-0.66945zM97.78384,329.94374c0.13454,-0.18609 0.34256,-0.38162 0.64104,-0.5875c0.22694,-0.15653 -0.79379,0.18652 -0.69728,0.44476c0.01749,0.04679 0.03631,0.09439 0.05624,0.14274zM102.21623,328.20556c0.14757,0.20745 0.29191,0.46479 0.5161,0.80601c-0.15874,-0.27429 -0.32515,-0.54736 -0.51609,-0.80601z" fill="#000000" stroke-width="0.5"/><path d="M34.44419,371.74089c2.07314,-1.02877 3.46088,-2.95871 5.5,-4c1.95324,-0.99744 4.014,-1.68072 5.85582,-2.91717c1.87414,-1.25815 3.53946,-2.85038 5.64419,-3.58283c2.61903,-1.75849 5.25601,-2.87603 7.89203,-4.44042c1.22124,-0.72477 2.23566,-2.15533 3.42628,-2.95074c4.25562,-2.84301 9.17778,-4.66587 12.847,-8.36983c0,0 0.88389,-0.88389 1.76777,0c0.88389,0.88389 0,1.76776 0,1.76776c-3.81404,3.78397 -8.76765,5.71342 -13.153,8.63017c-1.24457,0.82777 -2.29437,2.27414 -3.57373,3.04926c-2.69632,1.6336 -5.4135,2.7725 -8.10797,4.55958c-1.98141,0.62689 -3.58963,2.24718 -5.35581,3.41717c-1.95117,1.29253 -4.06556,2.06958 -6.14418,3.08283c-2.01499,0.98223 -3.44591,2.96594 -5.5,4c-0.53161,0.26762 -1.09499,0.57424 -1.67447,0.89171c-0.30554,-0.84654 -0.67014,-1.59272 -1.08624,-2.24716c0.57558,-0.32063 1.13562,-0.62896 1.66232,-0.89033z" fill="#000101" stroke-width="0.5"/><path d="M76.10251,429.95358c0,0 1.78476,-0.00237 2.34239,-1.50061l0.77198,-0.31274c1.27289,-0.64568 2.46952,-2.03864 3.78538,-2.48548c1.26511,-0.42961 2.69717,0.98037 4.13772,0.74901c1.41078,-0.22658 4.28495,-4.13206 5.20249,-3.74762c1.0605,0.44435 1.57684,1.72688 2.21503,2.56144c2.00749,2.62519 2.98214,4.3179 4.04665,7.41365c0.56033,0.73258 1.81345,2.58652 2.75749,2.90396c1.03633,0.34848 3.26572,-1.12367 3.93697,0.62704c0.31876,0.83136 0.61011,3.74834 -0.16108,4.42458c-0.41879,0.36722 -1.18557,0.31627 -1.47005,0.79513c-0.41836,0.70421 -0.11707,3.01044 -0.05432,3.78965c0.25224,3.13216 1.1134,5.06174 3.15189,7.44233c0,0 0.02855,0.03344 0.08125,0.08227c-2.17752,0.20517 -2.17968,2.491 -2.17968,2.491c0.01743,2.1982 -0.09787,6.21288 -2.28868,7.64069c-0.62965,0.41035 -4.31378,1.21632 -4.69013,1.34172c-9.39132,3.1295 -22.88956,5.69887 -31.56528,-0.46399c-5.41384,-6.56606 -7.26192,-14.95416 -8.23458,-23.17453c-0.22803,-1.92718 -1.19937,-4.99541 0.33724,-6.66758c0.89611,-0.97516 2.58408,-0.73665 3.64529,-0.93169c0.24236,-0.04454 0.48312,-0.09354 0.72248,-0.14635c1.16806,2.50699 3.76404,5.70124 6.96054,4.22c2.10454,-0.97523 1.86776,-3.43484 2.91869,-4.96038c0.50081,-0.72698 1.7931,-1.48568 2.9218,-2.09073l0.70851,-0.0008z" fill="#d0d0d0" stroke-width="0.25"/><path d="M-53.16009,401.5493c0.62534,-1.49297 1.69942,-2.69365 3.05612,-3.68593c4.34008,-3.17433 11.57233,-4.21603 16.25803,-5.87163c2.23217,-0.78869 6.28431,-1.11766 7.68104,0.97744c1.62025,2.43038 0.11901,4.74178 -1.87019,5.73638c-1.33285,0.66643 -2.71032,0.27888 -4.11474,0.46875c-3.43932,0.46497 -8.13808,2.44575 -11.23974,3.86987c-1.28968,0.59215 -5.85207,3.3866 -7.08257,2.10261z" fill="#d0d0d0" stroke-width="0.5"/><path d="M126.73118,477.94066l-1.07819,-0.13196c-2.09717,-1.04903 -3.55191,-1.78442 -5.90634,-1.77321c-0.82328,-0.1541 -1.78541,0.02051 -2.46982,-0.46231c-1.03014,-0.72671 -1.9086,-4.86089 -2.55735,-6.09359c-3.14822,-5.982 -8.27655,-12.59914 -9.71192,-19.24071c-0.85054,-1.48212 -1.27894,-3.01303 -1.44439,-5.06757c-0.06275,-0.77921 -0.36333,-3.07677 0.05503,-3.78098c0.28448,-0.47886 1.05146,-0.42679 1.47025,-0.79401c0.77119,-0.67624 0.48224,-3.58484 0.16348,-4.4162c-0.67125,-1.75071 -2.89877,-0.2743 -3.9351,-0.62278c-0.94404,-0.31744 -2.19228,-2.16346 -2.75261,-2.89604c-1.06451,-3.09575 -2.02579,-4.77618 -4.03328,-7.40137c-0.63819,-0.83457 -1.14873,-2.11397 -2.20923,-2.55832c-0.91754,-0.38444 -3.78396,3.52384 -5.19474,3.75042c-1.44055,0.23136 -2.86188,-1.17695 -4.12699,-0.74734c-1.31586,0.44684 -2.50176,1.83914 -3.77465,2.48482l-0.80906,0.32828c0,0 -0.49845,0.19938 -0.9727,0.01016c0.02942,-0.02992 0.05883,-0.05983 0.08825,-0.08975c0.81589,0.08351 1.02694,-0.76072 1.02694,-0.76072c0.2651,-1.06763 0.63065,-1.92597 1.10308,-2.75638c0.85013,-0.65607 1.69364,-1.35158 2.67081,-1.62571c1.78304,-0.50018 3.81059,1.51014 5.32549,0.32743c1.8318,-1.43012 2.35198,-4.08752 5.35278,-3.32434c1.75718,0.44689 2.52418,2.15902 3.50505,3.44168c2.03341,2.65905 3.24021,4.55071 4.25244,7.74148c0.4338,0.5446 0.5714,1.50865 1.24739,1.67539c2.04326,0.50398 4.08599,-1.02019 5.49347,1.94865c0.91402,1.92796 0.75489,5.6989 -0.69366,7.29809c-0.25849,0.28537 -0.82908,0.07641 -1.10118,0.34884c-0.52884,0.52948 0.2815,1.47303 0.34075,2.21902c0.11589,1.45913 0.3616,2.52813 0.84934,3.53145c0.37389,0.30525 0.46277,0.7941 0.46277,0.7941c0.00245,0.01402 0.00491,0.02804 0.0074,0.04207c0.33251,0.52161 0.74065,1.05023 1.24071,1.63302c0,0 0.81349,0.94907 -0.13558,1.76256c-0.04063,0.03483 -0.08102,0.06643 -0.1211,0.09501c2.00796,5.34729 6.06902,10.72807 8.57904,15.49681c0.83387,1.58425 1.36789,5.39544 2.93343,5.21195c2.68993,0.01154 4.51748,0.84334 6.89985,2.03404l-0.03985,-0.13197c0,0 1.24592,0.00611 1.24999,1.24999c0,1.25 -1.25,1.25 -1.25,1.25z" fill="#000000" stroke-width="0.5"/><path d="M127.98118,476.69067l-0.00001,-0.00612c0.00001,0.00204 0.00001,0.00407 0.00001,0.00612z" fill="#000000" stroke-width="0.5"/><path d="M-77.08711,440.3272c-0.39529,-1.18586 0.79057,-1.58114 0.79057,-1.58114l0.36442,-0.04023c2.04261,-1.63377 4.47623,-2.47262 6.13165,-4.51567c0.74941,-5.44802 7.02816,-6.53368 5.67176,-13.02186c-0.98141,-4.6945 -5.79868,-6.6569 -5.64058,-11.79541c1.73113,-1.51293 3.00101,-2.71141 5.26185,-3.38916c2.29069,-0.68671 4.35245,-0.54848 6.26901,-2.23006c0.14018,-0.123 0.29802,-0.25978 0.46767,-0.40713c0.19474,-0.0921 0.31777,-0.21513 0.31777,-0.21513c0.8494,-0.85054 2.58764,-2.07034 3.22287,-2.9888c0.63232,-0.91424 0.59486,-1.64169 0.92962,-2.33317c0.04427,-0.04166 0.09049,-0.08161 0.13888,-0.11968c2.11109,-1.66084 5.79533,-2.94043 8.40418,-3.45603c4.17802,-1.69184 8.45689,-3.4044 12.8698,-4.27926c2.18163,-0.43251 4.47236,-0.38004 6.66555,-0.98068c2.77012,-0.75864 4.9351,-1.93948 7.82569,-2.5176c4.79642,-0.9368 9.22194,-2.69402 13.90833,-3.97804c2.12091,-0.5811 4.38955,-0.672 6.51599,-1.25436c2.26467,-0.62021 4.45034,-1.28138 6.82084,-1.29188c2.1218,0 2.74224,-0.79721 4.76362,-1.22744c2.96368,-0.63079 5.46531,-0.56404 8.28563,-1.68846c1.20893,-0.48198 2.40278,-1.17883 3.60017,-1.86824c1.36235,-0.40979 2.83568,-1.1776 4.27724,-1.49619c0.62454,0 1.3005,0 1.96527,0c0.03427,0.08487 0.06268,0.17957 0.0838,0.28519c0.24515,1.22573 -0.98058,1.47087 -0.98058,1.47087c-2.61808,0.43968 -5.46594,2.90552 -8.0444,3.94017c-2.93076,1.17602 -5.61537,1.24818 -8.71436,1.81155c-1.9702,0.35816 -3.05017,1.27256 -5.23638,1.27256c-2.13994,-0.01155 -4.13649,0.65323 -6.17916,1.20812c-2.11759,0.57524 -4.37335,0.67317 -6.48402,1.24564c-4.7506,1.28848 -9.24407,3.03343 -14.09167,4.02196c-2.84119,0.56824 -4.90783,1.73089 -7.67431,2.4824c-2.24491,0.60983 -4.6094,0.56948 -6.83446,1.01932c-4.3361,0.87662 -8.50539,2.58794 -12.6302,4.22073c-2.47722,0.50099 -5.5151,1.62191 -7.59582,3.04397c-0.40482,0.27667 -0.869,1.80335 -0.96681,1.94597c-0.84396,1.23061 -2.81801,2.99613 -3.95638,3.99014c-2.25138,1.96587 -4.5688,1.97058 -7.23099,2.76993c-1.57217,0.47206 -2.37128,1.39968 -3.73815,2.11084c0.71318,3.10949 3.73108,4.57989 5.0231,7.43077c0.95229,2.10125 1.21428,5.15076 0.84678,7.43359c-0.27235,1.69179 -1.11529,3.46886 -2.34033,4.6966c-0.70244,0.70398 -2.61907,1.40396 -3.00645,2.39024c-0.33822,0.86112 -0.32187,1.82214 -0.49192,2.73154c-1.88328,2.61767 -4.43614,3.5382 -6.86834,5.48434l-1.13559,0.45977c0,0 -1.18585,0.39529 -1.58114,-0.79057z" fill="#000101" stroke-width="0.5"/><path d="M-81.73646,443.38159c-0.88389,-0.88389 0,-1.76776 0,-1.76776l0.69505,-0.50843c1.55508,-0.48766 3.09564,-1.45412 4.58485,-2.20324c0,0 1.11804,-0.55902 1.67705,0.55902c0.55902,1.11804 -0.55902,1.67705 -0.55902,1.67705c-1.63242,0.81186 -3.2109,1.74756 -4.91231,2.33887l0.28214,-0.09551c0,0 -0.88388,0.88389 -1.76776,0z" fill="#000101" stroke-width="0.5"/><path d="M79.38869,426.67795c1.18586,0.39529 0.79057,1.58113 0.79057,1.58113l-0.95497,2.11877c-1.88052,0.16334 -4.50141,0.23347 -5.66757,2.14311c-1.60638,2.63052 1.24895,4.40151 -2.58496,6.49768c-0.57928,0.31672 -1.3189,0.06343 -1.97835,0.09515c-2.25942,-0.02145 -5.11513,-0.50081 -6.51405,-2.51911c-0.37209,-0.53683 -0.38356,-1.2875 -0.80495,-1.78657c-0.27439,-0.32497 -2.05454,-0.19432 -2.181,-0.19432c-1.98703,0 -3.89459,-0.20015 -5.06332,-2.09283c-0.56627,-0.91704 -0.1861,-2.18018 -0.59154,-3.17881c-0.15355,-0.37822 -0.71235,-0.46319 -0.90846,-0.82119c-0.18502,-0.33776 0.14669,-0.92051 -0.16757,-1.14311c-0.34148,-0.24187 -0.87008,0.32158 -1.24747,0.14079c-0.65554,-0.31404 -1.18758,-0.88905 -1.58496,-1.49768c-0.58922,-0.90247 -0.26096,-2.15296 -0.59154,-3.17881c-0.25729,-0.79845 -2.73083,-1.90661 -3.39434,-2.35546c-1.54751,-0.52303 -5.00907,0.31573 -6.18169,-0.60884c-1.90915,-1.50529 -0.54771,-3.74602 -0.92397,-5.5357c-0.19496,-0.92735 -2.08009,-0.5526 -2.46318,-1.41933c-0.0598,-0.13531 0.79459,-5.11149 0.96318,-5.53737c0.27645,-0.69835 1.52807,-0.98877 1.43829,-1.73446c-0.08252,-0.68545 -1.37382,-0.32966 -1.9406,-0.72388c-1.59451,-1.10902 -1.87349,-1.86239 -1.5767,-3.76354c0.38106,-2.44094 1.95529,-3.19189 4.0767,-3.86309c2.58959,-2.13966 -4.32442,-6.29065 -4.99769,-7.95833c-0.56224,-1.39267 0.16507,-3.3195 -0.07901,-4.77812c-0.6294,-3.76132 -2.5274,-6.59845 -3.47882,-10.39706c0,0 -0.05707,-0.2283 -0.02264,-0.51154c0.00577,-0.00129 0.01155,-0.00257 0.01732,-0.00385c0.77839,0 1.63665,0 2.4536,0c0.96128,3.77768 2.86299,6.68863 3.49826,10.51199c0.18709,1.12603 -0.48086,3.19734 -0.07901,4.22188c1.23696,3.15369 7.49984,4.68313 5.5,9.45671c-0.28086,0.67042 -0.99845,1.05664 -1.49768,1.58496c-0.53599,0.18653 -1.0902,0.32722 -1.60797,0.55958c-4.28148,1.9214 1.81969,3.47056 2.16737,5.08992c0.29683,1.38252 -1.27692,3.20754 -1.4827,4.48742c-0.09427,0.58628 -0.28331,1.1635 -0.54801,1.69505c-0.11702,0.23498 -0.74018,0.34771 -0.56782,0.5457c0.22743,0.26126 0.74515,-0.18747 1.03913,-0.0043c0.61692,0.38439 1.2324,0.90822 1.49768,1.58496c0.54318,1.38565 -1.20711,3.71024 0.07604,4.4643c0.65562,0.38528 1.50867,-0.23978 2.26911,-0.23595c1.20137,0.00606 2.40846,0.25017 3.54919,0.62711c1.38065,0.90927 3.89072,2.02434 4.60566,3.64454c0.21914,0.4966 -0.2587,3.00242 0.82351,3.32351c0.56185,0.1667 1.28881,-0.21758 1.75254,0.14079c0.53672,0.41478 0.46931,1.28396 0.83243,1.85689c0.28668,0.45232 0.89442,0.68088 1.09153,1.17881c0.44567,1.12581 -0.36659,2.6429 1.00232,3.41504c1.61582,0.9114 3.57123,-0.10576 5.2512,0.55064c1.05583,2.54921 3.76715,6.22273 7.15174,4.65433c2.10454,-0.97523 1.86776,-3.43484 2.91869,-4.96038c0.72821,-1.05707 3.12981,-2.1812 4.26871,-2.80254c0.26363,-0.26812 0.52725,-0.53623 0.79088,-0.80435c0.81589,0.08351 1.02694,-0.76072 1.02694,-0.76072c0.09536,-0.38406 0.20373,-0.74104 0.32539,-1.07938c0.14948,-0.00559 0.31715,0.01739 0.50456,0.07986z" fill="#000101" stroke-width="0.5"/><path d="M31.2434,373.86378c0,-0.12842 0.01936,-0.25231 0.05533,-0.36892c0.35465,-0.25855 0.68595,-0.54256 1.00081,-0.86614c0.06318,-0.00984 0.12792,-0.01494 0.19386,-0.01494c0.69035,0 1.25,0.55964 1.25,1.25c0,0.69036 -0.55965,1.25 -1.25,1.25c-0.69036,0 -1.25,-0.55964 -1.25,-1.25z" fill="#000101" stroke-width="0.5"/><path d="M79.38868,426.67793c1.18586,0.39529 0.79057,1.58113 0.79057,1.58113l-0.95497,2.11877c-1.88052,0.16334 -4.50141,0.23347 -5.66757,2.14311c-1.60638,2.63052 1.24895,4.40151 -2.58496,6.49768c-0.57928,0.31672 -1.3189,0.06343 -1.97835,0.09515c-2.25942,-0.02145 -5.11513,-0.50081 -6.51405,-2.51911c-0.37209,-0.53683 -0.38356,-1.2875 -0.80495,-1.78657c-0.27439,-0.32497 -2.05454,-0.19432 -2.181,-0.19432c-1.98703,0 -3.89459,-0.20015 -5.06332,-2.09283c-0.56627,-0.91704 -0.1861,-2.18018 -0.59154,-3.17881c-0.15355,-0.37822 -0.71235,-0.46319 -0.90846,-0.82119c-0.18502,-0.33776 0.14669,-0.92051 -0.16757,-1.14311c-0.34148,-0.24187 -0.87008,0.32158 -1.24747,0.14079c-0.65554,-0.31404 -1.18758,-0.88905 -1.58496,-1.49768c-0.58922,-0.90247 -0.26096,-2.15296 -0.59154,-3.17881c-0.25729,-0.79845 -2.73083,-1.90661 -3.39434,-2.35546c-1.54751,-0.52303 -5.00907,0.31573 -6.18169,-0.60884c-1.90915,-1.50529 -0.54771,-3.74602 -0.92397,-5.5357c-0.19496,-0.92735 -2.08009,-0.5526 -2.46318,-1.41933c-0.0598,-0.13531 0.79459,-5.11149 0.96318,-5.53737c0.27645,-0.69835 1.52807,-0.98877 1.43829,-1.73446c-0.08252,-0.68545 -1.37382,-0.32966 -1.9406,-0.72388c-1.59451,-1.10902 -1.87349,-1.86239 -1.5767,-3.76354c0.38106,-2.44094 1.95529,-3.19189 4.0767,-3.86309c2.58959,-2.13966 -4.32442,-6.29065 -4.99769,-7.95833c-0.56224,-1.39267 0.16507,-3.3195 -0.07901,-4.77812c-0.6294,-3.76132 -2.5274,-6.59845 -3.47882,-10.39706c0,0 -0.0308,-0.1232 -0.0335,-0.30088c0.57086,-0.35559 1.08115,-0.75276 1.55432,-1.23939c0.70829,0.14894 0.90454,0.93393 0.90454,0.93393c0.95365,3.82205 2.88082,6.74895 3.52118,10.60294c0.18709,1.12603 -0.48086,3.19734 -0.07901,4.22188c1.23696,3.15369 7.49984,4.68313 5.5,9.45671c-0.28086,0.67042 -0.99845,1.05664 -1.49768,1.58496c-0.53599,0.18653 -1.0902,0.32722 -1.60797,0.55958c-4.28148,1.9214 1.81969,3.47056 2.16737,5.08992c0.29683,1.38252 -1.27692,3.20754 -1.4827,4.48742c-0.09427,0.58628 -0.28331,1.1635 -0.54801,1.69505c-0.11702,0.23498 -0.74018,0.34771 -0.56782,0.5457c0.22743,0.26126 0.74515,-0.18747 1.03913,-0.0043c0.61692,0.38439 1.2324,0.90822 1.49768,1.58496c0.54318,1.38565 -1.20711,3.71024 0.07604,4.4643c0.65562,0.38528 1.50867,-0.23978 2.26911,-0.23595c1.20137,0.00606 2.40846,0.25017 3.54919,0.62711c1.38065,0.90927 3.89072,2.02434 4.60566,3.64454c0.21914,0.4966 -0.2587,3.00242 0.82351,3.32351c0.56185,0.1667 1.28881,-0.21758 1.75254,0.14079c0.53672,0.41478 0.46931,1.28396 0.83243,1.85689c0.28668,0.45232 0.89442,0.68088 1.09153,1.17881c0.44567,1.12581 -0.36659,2.6429 1.00232,3.41504c1.91835,1.08205 4.31537,-0.55427 6.16184,1.119c0.62132,0.56304 0.74405,1.50657 1.19505,2.21343c0.82121,1.2871 3.13113,1.49771 4.48595,1.48089c2.94826,0.27459 1.31182,-3.51453 2.43668,-5.40716c1.28808,-2.16726 3.99714,-3.20624 6.33243,-2.85689l0.04503,-0.88124c0,0 0.39529,-1.18585 1.58114,-0.79056z" fill="#000101" stroke-width="0.5"/><path d="M76.93271,428.46594c0,-0.35179 0.14532,-0.66963 0.3792,-0.89678c-0.00278,-0.03404 -0.0042,-0.06846 -0.0042,-0.10322c0,-0.11912 0.01666,-0.23435 0.04778,-0.34348l-0.3425,-0.59938c0.22232,-0.2255 0.47478,-0.32648 0.47478,-0.32648l0.61951,-0.24315c1.44796,-0.71123 2.66659,-2.22077 4.22535,-2.65804c1.78304,-0.50018 3.81059,1.51014 5.32549,0.32743c1.8318,-1.43012 2.35198,-4.08752 5.35278,-3.32434c1.75718,0.44689 2.52418,2.15902 3.50505,3.44168c2.03341,2.65905 3.24021,4.55071 4.25244,7.74148c0.4338,0.5446 0.5714,1.50865 1.24739,1.67539c2.04326,0.50398 4.08599,-1.02019 5.49347,1.94865c0.91402,1.92796 0.75489,5.6989 -0.69366,7.29809c-0.25849,0.28537 -0.82908,0.07641 -1.10118,0.34884c-0.52884,0.52948 0.2815,1.47303 0.34075,2.21902c0.20935,2.63575 0.84228,3.99849 2.56021,6.00064c0,0 0.81349,0.94907 -0.13558,1.76256c-0.94907,0.81349 -1.76256,-0.13558 -1.76256,-0.13558c-2.03849,-2.38059 -2.90184,-4.29578 -3.15408,-7.42794c-0.06275,-0.77921 -0.36333,-3.07677 0.05503,-3.78098c0.28448,-0.47886 1.05146,-0.42679 1.47025,-0.79401c0.77119,-0.67624 0.48224,-3.58484 0.16348,-4.4162c-0.67125,-1.75071 -2.89877,-0.2743 -3.9351,-0.62278c-0.94404,-0.31744 -2.19228,-2.16346 -2.75261,-2.89604c-1.06451,-3.09575 -2.02579,-4.77618 -4.03328,-7.40137c-0.63819,-0.83457 -1.14873,-2.11397 -2.20923,-2.55832c-0.91754,-0.38444 -3.78396,3.52384 -5.19474,3.75042c-1.44055,0.23136 -2.86188,-1.17695 -4.12699,-0.74734c-1.13967,0.38701 -2.18185,1.48323 -3.26749,2.18935c-0.06519,0.17885 -0.17006,0.33862 -0.30396,0.46866c0.00278,0.03404 0.0042,0.06846 0.0042,0.10322c0,0.69036 -0.55964,1.25 -1.25,1.25c-0.69036,0 -1.25,-0.55964 -1.25,-1.25z" fill="#000000" stroke-width="0.5"/><path d="M76.41242,428.1518c-1.18585,-0.39528 -0.79057,-1.58114 -0.79057,-1.58114l0.36399,-0.99783c0.54517,-0.90859 1.08325,-1.82145 1.61714,-2.73672c0,0 0.62984,-1.07972 1.70956,-0.44988c1.07972,0.62984 0.44988,1.70956 0.44988,1.70956c-0.5391,0.92414 -1.08242,1.84585 -1.63286,2.76328l-0.13601,0.50217c0,0 -0.39528,1.18585 -1.58114,0.79057z" fill="#d0d0d0" stroke-width="0.5"/></g></g></svg>