<svg version="1.1" xmlns="http://www.w3.org/2000/svg" xmlns:xlink="http://www.w3.org/1999/xlink" width="392.40933" height="607.27114" viewBox="0,0,392.40933,607.27114"><g transform="translate(-377.54741,99.84267)"><g stroke="none" stroke-miterlimit="10"><path d="M585.07207,-78.55392c0.15393,-0.14902 0.32556,-0.28022 0.51928,-0.38919c0.3321,-0.18681 0.69278,-0.3207 1.06618,-0.41638c0.45419,-0.13572 0.93549,-0.20862 1.43382,-0.20862c3.65456,-0.22016 18.29349,-0.70065 19.47214,4.01393c0.46355,1.8542 0.65997,2.61067 0.24922,4.35063c-0.17204,0.72879 -1.18695,1.54102 -0.72136,2.12751c1.59925,2.01453 4.66057,1.97334 6.2552,4.14801c2.43197,3.31657 6.88612,12.49589 7.7448,16.35992c0.20075,0.90337 -0.72245,1.1997 -1.2766,2.24113c-1.99508,3.74948 -8.31198,1.60636 -8.94335,5.13864c-0.09556,0.5346 0.5927,2.04762 0.71994,2.62023c1.40893,6.3402 3.86032,4.47006 8.28553,8.21447c1.04301,0.88255 1.7251,3.13054 2.67842,3.7831c1.59911,1.09461 6.97953,2.28393 8.92919,1.75243c0.65148,-0.1776 0.80346,-1.10219 1.32132,-1.53553c3.45665,-2.89252 5.0068,-5.5181 5.28553,-10.21447c0.04465,-0.75226 1.34988,-5.03035 1,-5.29315c-0.73019,-0.54845 -1.4605,-2.28889 -2.18034,-2.45685c-2.21752,-0.51743 -3.96962,-0.30291 -5.85519,-1.71447c-4.53681,-3.39628 -0.17766,-11.26264 2.99045,-13.97816c1.8313,-1.56968 4.26763,-2.184 6.53115,-1.27951c1.90583,0.76156 2.78039,3.62006 4.30418,4.2322c1.58573,0.63701 2.80967,2.81912 4.37665,3.33576c2.3001,0.75836 4.46483,1.57931 6.81918,2.18204c1.85232,0.4742 3.44654,1.75838 5.25,2.25c0.25373,0.06917 2.23089,1.35311 2.26393,1.22214c0.64977,-2.57573 -1.70342,-5.0726 -2.375,-7.25c-0.64204,-2.08163 -0.82162,-4.2908 -1.5739,-6.28436c-0.85794,-2.27357 -2.42302,-2.74875 -3.07807,-5.36895c-0.52096,-2.08386 -1.48151,-9.57972 -0.34803,-11.84669c0.77694,-1.55387 2.75742,-2.72431 3.26797,-4.32189c1.19853,-3.75032 1.76333,-10.28204 6.2812,-11.53947c1.81235,-0.50442 6.72537,-0.40953 11.12242,0.64812c0.29371,-0.16103 0.58992,-0.31629 0.88844,-0.46555c4.4637,-2.23185 9.69132,-3.2466 14.6742,-2.96978c3.77918,0.20995 7.30201,2.31386 10.48157,4.36732c9.0242,5.82813 9.03383,13.3746 12.51642,21.9396c1.91683,4.7142 4.75693,8.91551 5.76172,13.96014c1.38404,6.9487 1.73269,15.35794 -0.49534,22.07518c-0.99792,3.0086 -3.03912,5.66368 -3.92868,8.59361c-0.36325,1.19644 -0.75161,2.44174 -1.17115,3.70937c8.2737,6.59627 8.35709,15.89865 8.27417,25.31382c-0.00758,0.86109 0.4103,1.75848 0.1492,2.57907c-0.44682,1.40429 -2.20133,2.36595 -2.1915,3.83958c0.01406,2.10655 6.58998,8.21163 7.70348,9.66629c2.45653,3.20916 4.77951,10.1382 3.90625,14.45313c-0.61643,3.04588 -1.87594,11.65465 -3.90625,14.45313c-2.30061,3.17104 -7.12998,5.89874 -9.85204,8.20253c-1.69691,1.43617 -0.80101,4.3786 -1.38103,6.52468c-0.24475,0.90559 -1.72761,2.74857 -1.51128,3.48382c0.91381,3.10573 4.24364,5.6119 5.23237,8.79483c1.22009,3.92773 1.58844,10.79629 0.5,15.08202c-0.71262,2.80593 -2.56995,5.09781 -4.28235,7.19799c-0.46535,0.57073 -0.94316,1.12208 -1.43311,1.65374c4.42106,1.40418 8.39579,3.67169 11.291,6.95146c0.8559,0.96959 2.30626,1.40661 2.93644,2.53602c4.32817,7.75697 5.13902,21.60736 0,28.90625c-1.37099,1.9472 -4.1011,3.8024 -5.99491,5.17742c-0.65756,0.47743 -1.84859,0.78081 -1.84499,1.5934c0.01004,2.26919 1.41577,4.3216 1.881,6.54261c0.75952,3.62595 -0.99402,7.34347 -1.37851,11.02811c-0.10468,1.00313 2.01015,0.18915 3.00445,0.35823c3.23576,0.55025 6.49863,1.45927 9.41955,2.98641c7.66108,4.00543 15.6902,13.11803 13.81966,22.36068c-0.49593,2.4505 -2.10144,12.42667 -3.90625,14.45313c-3.9493,4.4343 -8.47978,7.7891 -13.71782,9.43011c5.3398,9.70001 4.40036,18.67785 -0.28218,28.40323c-0.9984,2.07363 -4.36347,2.37889 -5.22541,4.51285c-0.44279,1.09626 1.48272,1.84797 2.31834,2.68439c1.28432,1.28556 3.35891,3.04493 4.18832,4.84963c1.78678,3.88784 3.09318,7.25738 3.18814,11.32291c2.29654,0.51432 4.48408,1.31484 6.43686,2.46876c3.25862,1.92555 6.71586,4.13557 8.59375,7.42188c5.20833,9.11458 5.20833,19.79167 0,28.90625c-1.87789,3.28631 -5.49379,5.25012 -8.59375,7.42188c-1.04987,0.73551 -2.84731,0.17846 -3.66459,1.16601c-1.28267,1.54989 1.51787,4.01016 0.99505,5.95285c-2.07185,7.69862 -3.94123,10.27185 -9.25193,15.2906c-1.65898,1.56778 2.92676,3.53046 4.07534,5.503c0.28765,0.494 -0.47256,1.61459 0.09063,1.71255c4.48839,0.78067 9.19015,-0.48108 13.66175,0.39063c11.98975,2.33731 21.09375,11.62436 21.09375,24.60938c0,10.76682 -3.84089,16.75825 -12.5,21.875c-2.61112,1.54294 -6.35379,0.79119 -8.6756,2.74256c-2.60574,2.19001 -4.77066,5.19393 -7.8244,6.75744c-3.39681,1.73917 -7.65663,2.71749 -11.39003,3.28485c-0.84816,0.12889 -3.47981,0.32307 -3.58302,0.46884c-1.82127,2.57234 1.67257,6.23504 1.3035,9.36517c-0.27825,2.3599 -2.9056,4.20978 -2.74182,6.58037c0.07873,1.13955 2.17558,0.69731 3.26774,1.03192c1.60626,0.49212 3.23839,0.90273 4.82732,1.4482c5.65015,1.93964 11.6595,5.80434 15.41005,10.49253c0.45104,0.5638 0.26759,1.43317 0.56514,2.09102c1.73856,3.84377 3.77674,7.8205 3.90932,12.03708c0.09978,3.17334 -3.76595,7.99565 -3.56264,11.4044c0.05023,0.8422 1.46003,2.29209 1.85511,3.24028c1.05644,2.53546 2.42493,4.99432 2.96978,7.68648c0.2357,1.16462 -0.70709,2.30563 -0.70709,3.49386c0,1.18823 0.94279,2.32924 0.70709,3.49386c-0.06289,0.31076 -3.06977,8.65878 -4.36732,10.48157c-1.99282,2.79949 -5.74596,6.77733 -8.55995,8.38525c-5.53408,3.1622 -12.57542,3.27201 -18.31197,5.79456c-10.09845,4.44063 -21.89715,11.81405 -33.09122,11.84476c-46.16649,0.12664 -92.33335,0.03426 -138.5,0c-8.72408,-0.00647 -18.41746,-1.5407 -27.06213,-2.78672c-16.26225,-2.34401 -33.84988,-4.84254 -44.90101,-18.23785c-2.61758,-3.17283 -4.05932,-8.18163 -4.07429,-11.92947c-0.02365,-5.91971 -0.22362,-9.35882 2.17675,-15.44914c0.99541,-2.5256 5.14544,-5.91654 7.0378,-7.58708c9.33377,-8.23969 22.46515,-10.55177 34.37332,-13.01967c6.05668,-1.25521 12.44713,-2.185 18.46688,-3.57418c0.33109,-1.60267 0.81559,-3.14926 1.43747,-4.62372c0.57742,-2.27357 1.30974,-3.04166 2.32193,-4.28042c0.40908,-0.60486 0.84394,-1.19084 1.30301,-1.75639c0.77541,-1.17908 -2.47052,-1.57857 -3.17348,-2.80223c-0.88413,-1.53905 -0.90013,-3.43415 -1.38928,-5.14035c-0.5681,-1.98158 -2.08018,-1.95688 -2.6524,-4.61715c-1.04232,-4.84577 1.14678,-11.78498 3.12917,-15.77245c0.4825,-0.97052 0.19165,-2.4872 0.91252,-3.37631c3.90296,-4.81384 9.78186,-8.71869 15.46462,-10.85367c1.54996,-0.58231 4.84773,0.15175 6.11555,-1.34342c0.78506,-0.92583 -2.03884,-1.32685 -3.12235,-1.87409c-1.51504,-0.76518 -3.33489,-1.07028 -4.58137,-2.22228c-3.58102,-3.30958 -9.37333,-9.45947 -10.0895,-14.62429c-0.51987,-3.74914 -0.63852,-7.54452 -0.82864,-11.32476c-0.06145,-1.22189 1.95207,-3.26222 1.78731,-3.98767c-0.53911,-2.37367 -3.10539,-3.92405 -3.73364,-6.27569c-0.54545,-2.04172 0.42824,-4.21698 0.36616,-6.3294c-0.06208,-2.11242 -1.27562,-4.25338 -0.73721,-6.29698c0.90041,-3.41761 6.78667,-6.44099 4.87664,-9.41463c-2.6725,-4.16071 -9.91981,0.19506 -14.83008,-0.39062c-4.64376,-0.55389 -14.78108,-5.23572 -17.1875,-10.15625c-2.19251,-4.48315 -3.4011,-9.48819 -3.90625,-14.45312c-0.08362,-0.82182 2.96259,-13.26183 3.90625,-14.45312c7.93151,-10.01292 22.6823,-12.3388 35.80419,-12.88103c0.17899,-1.13522 0.46106,-2.23871 0.9506,-3.27915c1.53961,-3.2722 3.50127,-5.5006 5.76653,-7.33566c2.38128,-2.35335 5.23286,-4.23185 8.4011,-5.48187c0.98101,-0.6174 -0.72693,-2.20355 -1.17051,-3.27444c-1.14802,-2.77157 -1.4308,-2.77817 -1.76755,-5.55515c-0.7634,-6.29541 -0.68988,-13.86091 3.64624,-18.88167c2.10167,-2.43351 4.06417,-5.03102 6.51001,-7.11833c1.30851,-1.1167 5.55874,-2.3783 7.07866,-3.07393c0.47768,-0.21862 0.95778,-0.43185 1.44017,-0.63986c-1.6802,-0.48407 -3.28774,-1.13961 -4.80245,-1.94647c-4.63074,-2.11262 -8.73429,-5.32215 -9.85554,-9.47076c-2.16617,-3.70159 -3.40772,-8.01009 -3.40772,-12.60856c0,-4.78134 1.34226,-9.24919 3.67052,-13.04728c0.02004,-0.2335 0.0354,-0.46772 0.0457,-0.70272c0.17956,-4.09822 -3.408,-9.08978 -3.71622,-13.75c-0.11494,-1.73782 1.70477,-8.48317 0.88986,-9.83375c-0.45135,-0.74804 -1.50367,-0.9831 -1.98361,-1.71312c-5.14312,-7.823 -5.8302,-19.58548 -1.76693,-27.85631c0.57659,-1.17366 4.06782,-4.58572 5.45966,-5.90625c2.86649,-2.71962 6.21163,-4.74365 9.80589,-6.28047c-4.48225,-0.64552 -8.58015,-2.48011 -11.96369,-5.17377c-4.42104,-2.92867 -7.7793,-6.82648 -8.0862,-11.43002c-0.87818,-2.55157 -1.35499,-5.28992 -1.35499,-8.13964c0,-5.68848 1.89989,-10.93321 5.09974,-15.13428c0.14452,-0.46856 -4.42165,-1.89298 -5.07516,-2.40258c-2.05561,-1.60294 -3.98659,-3.3797 -5.7547,-5.29509c-3.46316,-3.75163 -7.53309,-13.9449 -7.42564,-19.2705c0.25626,-12.70014 7.56134,-22.41637 17.72575,-29.38599c1.87811,-1.2878 6.78048,-2.16391 8.01725,-3.71508c1.2877,-1.61504 -1.90696,-3.92126 -1.65545,-5.97145c0.24367,-1.98626 1.46881,-3.73943 1.91148,-5.69101c0.34738,-1.5315 0.20734,-3.16068 0.43888,-4.70785c-4.21693,-5.63896 -4.11999,-12.16494 -6.61702,-18.60955c-2.32754,-6.00716 -7.50618,-7.24517 -8.75741,-11.87471l-3.40772,-12.60856c0.77292,-2.85982 0.98277,-5.98612 1.63228,-8.90435c0.44467,-1.99787 1.0954,-3.89822 2.27397,-5.54877c2.35571,-3.29911 5.33752,-5.63238 8.68077,-7.25243c3.65743,-2.09613 7.89526,-3.29445 12.41298,-3.29445c0.54174,0 1.07945,0.01723 1.61262,0.05117c0.37898,-0.02079 0.7582,-0.03777 1.13738,-0.05117c2.11871,-0.0749 7.17659,-0.99832 10.18741,-0.97846c0.18644,-0.35289 0.4042,-0.67424 0.67793,-0.93923z" fill="#d0d0d0" stroke-width="0.5"/><g><path d="M417.34503,457.9903c-0.18285,-0.99676 -0.78453,-2.00475 -0.54855,-2.99029c0.0383,-0.15997 0.08283,-0.31769 0.13274,-0.47345l-0.08419,-0.01684l0.49092,-2.45459c0.03995,-0.22245 0.10933,-0.43468 0.20396,-0.63252c-1.78834,-0.11859 -3.56835,-0.06151 -5.37006,-0.18268c-0.65272,-0.0439 -1.43,0.18127 -1.95078,-0.21524c-1.82817,-1.39193 -1.13617,-6.13551 -0.98507,-8.1518c-0.72268,-0.82612 -1.90943,-1.27829 -2.55629,-2.13808c-0.38892,-0.51694 -1.11455,-4.00977 -1.65314,-4.0805c-2.58063,-0.33895 -5.67287,0.46943 -7.7386,-1.55426c-2.74785,-2.69193 -0.23314,-7.06955 -3.18511,-9.20311c-1.27916,-1.28105 -4.29496,-3.05678 -3.34868,-5.39838c1.14231,-2.82666 2.52276,-0.68669 3.96689,-1.34092c0.90158,-0.40844 0.02688,-1.99351 0.22506,-2.96443c0.34733,-1.70157 0.99534,-3.2962 2.53761,-4.30474c1.05478,-0.68975 2.17162,-0.5108 3.18162,-0.61605l-0.21923,-1.09778c-0.26315,-1.34815 -0.88144,-4.9665 -0.05936,-6.20506c0.34953,-0.52661 1.11052,-0.60231 1.67268,-0.89023c0.17854,-0.09144 0.70634,-0.20984 0.52465,-0.29485c-1.74552,-0.81675 -4.5955,-0.62051 -6.00864,-1.94888c-0.63232,-0.59439 -0.41729,-1.95897 -1.21263,-2.30521c-0.83691,-0.36433 -1.82958,-0.02601 -2.73347,-0.15158c-0.76957,-2.84018 -0.50135,-2.91206 1.00518,-5.17177c0.24329,-0.36492 0.50652,-0.71724 0.78731,-1.05407c0.18613,-0.22329 0.90619,-0.6317 0.61612,-0.61702c-1.3383,0.06774 -3.20847,0.45806 -4.5114,0.05205c-0.66122,-0.20604 -1.16361,-0.89349 -1.85471,-0.93724c-0.60674,-0.0384 -0.886,0.87112 -1.44098,1.11969c-1.23757,0.55429 -4.02614,0.19929 -5.06938,-0.62681c-1.88684,-1.49414 -0.3386,-3.51072 -2.05864,-4.55453c-1.35735,-1.39449 -3.43806,-4.37148 -2.14768,-6.49636c0.2383,-0.39242 0.98139,-0.0468 1.3328,-0.3419c0.18522,-0.15554 -0.13375,-0.49149 -0.0643,-0.72337c0.48554,-1.62083 0.97411,-2.5459 2.94818,-2.64771c2.49036,-0.12845 3.40402,2.47187 4.69432,3.93679c0.56597,0.64256 1.0235,2.25445 1.77918,1.85269c1.78081,-0.94675 2.72316,-4.04986 3.31838,-5.86042c0.28145,-1.27985 0.26598,-2.25596 1.64911,-3.05169c1.17623,-0.6767 2.15735,0.32187 3.17513,-0.76698c1.60683,-1.71901 1.89373,-4.01805 3.81489,-5.56863c0.48062,-0.38791 0.94371,-0.87602 1.54249,-1.02623c0.68568,-0.17201 1.53584,0.89154 2.07572,0.43459c0.50899,-0.4308 0.01248,-1.38066 0.30965,-1.97803c0.95752,-1.92475 2.53063,-2.14987 4.43563,-2.47643c0,0 0.15634,-0.02609 0.36697,-0.00394c0.0398,-0.02521 0.08003,-0.04993 0.12042,-0.07388c-0.18772,-0.06836 -0.35974,-0.14831 -0.47446,-0.2216c-0.63383,-0.40491 -1.66789,-0.58879 -1.82684,-1.3247c-0.5184,-2.40007 2.47329,-3.24908 3.93703,-4.14719c0.25121,-0.15413 -0.57024,0.1563 -0.86257,0.19295c-0.32987,0.04135 -0.68507,-0.02672 -0.99228,0.10052c-0.70738,0.29303 -1.09162,1.07595 -1.66268,1.58651c-2.16593,1.93644 -3.91572,2.17742 -6.72177,1.91496c-1.11381,-2.15189 -2.58209,-8.22222 -0.8562,-10.47798c0.22264,-0.291 0.82639,-0.06189 1.0371,-0.36166c0.49834,-0.709 -0.73503,-1.71862 -0.49867,-2.55273c0.51378,-1.81318 3.06671,-2.77742 4.27449,-4.1106c2.30802,-2.54765 3.71774,-6.13064 5.05916,-9.22239c1.35929,-1.69432 3.93957,-2.31259 4.97422,-4.161c0.67141,-1.19949 1.00856,-5.96891 0.68147,-7.32624c-0.22483,-0.933 -1.16442,-1.64489 -1.23029,-2.60241c-0.06784,-0.98607 0.80183,-1.81834 1.03029,-2.7799c0.6074,-2.55637 -0.03343,-6.08241 -0.03343,-8.72565c0.00065,-0.40009 0.02061,-0.80941 0.05091,-1.22467c-0.73209,-1.75672 -0.09723,-3.58252 -0.91167,-5.21145c-0.70968,-1.4194 -2.60795,-2.12399 -3.52307,-3.47582c-2.65446,-3.92121 -4.81635,-7.56858 -8.49595,-10.6829c-1.73991,-2.66825 -1.37205,-7.26584 1.48169,-9.17986c0.44383,-0.29768 -1.07686,0.05414 -1.60188,-0.04443c-0.51742,-0.09715 -1.01613,-0.27676 -1.51946,-0.43124c-1.74064,-0.53421 -4.60785,-0.55471 -5.69389,-2.34044c-1.2375,-2.03477 -0.22536,-5.98783 1.22096,-7.3299c0.11496,-0.10668 -0.31302,0.14959 -0.46029,0.09592c-0.46378,-0.16903 -0.85812,-0.48853 -1.28718,-0.7328c-0.38973,-0.19496 -0.77946,-0.38996 -1.16919,-0.58492l-0.03,-0.00582c-0.48451,0.14251 -0.9575,-0.09433 -0.9575,-0.09433l-0.40522,-0.20775c-1.76301,-0.70985 -5.0034,-1.93503 -4.7756,-4.4512c0.06518,-0.71988 0.84325,-1.17338 1.26487,-1.76007c0.75901,-0.57537 2.23784,-1.41089 2.76812,-2.21288c0.74012,-1.11938 -1.03833,-2.31229 -1.51084,-3.1464c-1.19487,-2.10929 -3.64727,-4.48893 -1.68855,-7.0739c1.76746,-2.33256 3.56025,-0.78164 5.80881,-1.37134c0.76152,-0.19971 1.08209,-1.19653 1.78842,-1.54456c1.29964,-0.64037 2.10692,0.5772 2.48584,-0.98961c0.26986,-1.19535 0.40364,-3.17217 2.40488,-3.14577c1.38603,0.01829 1.73186,2.05325 2.30734,2.8957c0.99921,1.46274 2.35109,1.08718 3.84821,1.23777c0.14269,0.01435 1.34391,0.44323 1.72911,0.1463c0.95867,-0.73899 -0.5992,-3.75097 -1.0893,-4.40487c-1.55599,-2.07604 -6.41231,-2.19906 -3.36108,-5.66915c0.42422,-0.48245 1.08119,-0.69322 1.62179,-1.03983c5.15094,-0.13185 7.16331,3.58228 10.71812,6.44179c1.40241,1.12811 4.60863,-0.75904 6.2894,-0.17205c1.74992,0.61113 2.67519,2.7963 4.07383,3.91919c0.80319,0.64484 2.32021,0.35575 3.44261,0.76966c1.07722,0.59973 2.5792,2.28784 3.66273,2.6338c0.58313,0.18619 0.23761,-1.24326 0.0851,-1.83687c-0.42801,-1.66593 -2.12585,-3.40629 -0.15571,-5.05215c3.17492,-2.65234 6.33674,3.5661 9.25359,2.9059c1.07155,-0.24254 2.98728,-2.23364 3.9827,-2.89554c1.7011,-1.48558 3.18876,-1.28798 4.92794,-2.24207c5.17111,-2.8368 9.55493,-7.88638 15.5539,-3.54435c0.47663,0.34498 0.91566,0.75564 1.29909,1.21215c1.89652,-1.66666 4.60785,-2.90446 5.77785,-4.95825c0.9286,-1.63004 0.22204,-3.76947 1.30109,-5.33729c0.79478,-1.15479 5.8931,-3.97907 1.47582,-4.16779c-2.03102,-2.34537 -3.36961,-5.24587 -6.46103,-6.6165c-1.59305,-0.7063 -6.31176,-0.4791 -7.18349,-2.24609c-0.38579,-0.78199 -0.18757,-1.8137 0.16445,-2.61152c0.19563,-0.44336 0.96276,-0.31452 1.28587,-0.67541c0.57987,-0.64768 0.08938,-1.85956 0.64452,-2.52862c1.24257,-1.49757 4.02917,-1.50745 5.64201,-2.72153c0.15907,-1.35329 -0.30071,-4.12652 0.5526,-5.21583c2.3399,-2.98706 7.92657,0.065 10.57526,-2.35471c2.13568,-1.95104 3.59323,-4.96995 5.69512,-7.08375l0.25,-0.25037c0,0 0.06087,-0.06096 0.16664,-0.13489c0.23009,-0.3474 0.59984,-0.5061 0.59984,-0.5061l1.00822,-0.42398c3.8523,-1.10611 2.16502,-4.45564 4.38851,-6.97557c1.74097,-1.97309 5.01682,-1.11884 7.3575,-1.33423c0.57834,-0.04628 1.44342,0.37451 1.73591,-0.1273c0.25128,-0.43112 -0.24069,-2.26191 -0.46676,-2.65227c-1.24401,-2.14807 -3.10516,-3.59267 -3.3999,-6.24067c-0.49015,-4.40361 2.86248,-6.3185 4.19418,-10.06517c0,0 0.05531,-0.15234 0.18087,-0.32744c-0.18812,-2.33363 0.18799,-4.74685 -0.56633,-6.98392c-0.21663,-0.64245 -0.09633,-1.50218 -0.61416,-1.93908c-0.79687,-0.67232 -2.60614,-0.5459 -3.68005,-1.55089c-2.61362,-2.44589 -2.58339,-6.3736 -3.42579,-9.65763c-0.33375,0.91641 -1.06463,2.6442 -1.19238,2.82217c-1.14119,1.58976 -2.77067,2.15978 -4.65803,2.16617c-3.51455,0.01191 -6.06095,-2.31478 -9.10532,-3.60361c-2.50754,-1.06156 -5.23946,-0.92075 -7.87722,-1.15852c-2.99142,-0.27237 -6.86861,-0.56763 -8.1763,-3.92118c-0.6576,-1.68642 -0.06209,-3.95685 -0.20549,-5.72563c-0.13742,-1.69506 -2.23454,-4.41136 -0.88292,-6.11742c0.64553,-0.81481 2.07583,-0.29012 3.04369,-0.66742c1.8814,-0.73344 2.97957,-3.4199 5.46301,-0.96667c-1.47838,-1.91224 -4.09597,-4.23406 -4.7204,-6.59465c-0.35213,-1.33118 -0.20727,-2.50015 -0.70818,-3.8657l0.04086,0.20701c0,0 -0.88389,-0.88519 0,-1.77038c0.23971,-0.24007 0.47943,-0.34991 0.70151,-0.38252c5.77473,-6.81808 15.71389,-2.86337 23.18237,-2.86337c1.37642,0 2.92335,-0.1605 4.27793,0.15653c1.59032,0.37219 4.32179,2.10494 6.03241,1.55087c1.0537,-0.34129 1.543,-3.05874 1.71052,-3.93808c0.74367,-3.90369 0.62964,-7.95753 0.98427,-11.90326c0.37096,-4.04306 0.34755,-8.1116 0.75107,-12.1541l-0.0062,-0.12581c0,0 0,-0.35768 0.19091,-0.69067c0.29142,-2.7038 0.71501,-5.45425 1.94371,-7.88626c0.83558,-1.6539 2.3256,-2.83485 3.22809,-4.461c0.66017,-1.83453 1.26622,-3.81603 2.14691,-5.55375c1.06133,-2.09414 2.96011,-3.38513 3.82269,-5.64012c1.30653,-3.41557 1.07623,-7.86776 2.5486,-11.17523c-0.01993,-0.28228 0.0468,-0.50502 0.0468,-0.50502c1.60845,-5.36423 1.05881,-11.57586 -0.5009,-16.93456c-0.80717,-2.77322 -2.61387,-3.52672 -1.97507,-6.79746c1.31432,-2.36167 -0.09115,-4.06469 0.60188,-6.44045c0.42381,-1.45282 1.71955,-1.96289 1.96622,-3.48979c0.57378,-3.55172 -0.08121,-6.54195 2.24346,-9.5596l0.23086,-0.24014c1.63989,-2.96262 -0.73869,-8.48559 2.39182,-10.34681c2.51997,-1.49823 6.15386,1.00712 8.66323,0.67972c0.42386,-0.05531 -0.48219,-0.78616 -0.88502,-0.92932c-8.5021,-2.56398 -17.86939,-2.03996 -26.66419,-2.03996c-3.6553,-0.00433 -9.9777,-1.51916 -8.32137,-6.74716c0.09429,-0.29759 2.08171,-2.34118 1.95743,-2.72587c-1.34601,-4.16606 -0.22236,-8.74664 0.63611,-13.0445c0.32804,-1.76741 -0.13815,-3.83226 0.41309,-5.53219c0.43011,-1.32641 1.40723,-1.97837 2.24699,-2.84648c0.09866,0.02646 0.19802,0.05269 0.29804,0.07873c0.11374,-0.326 0.06018,-0.72274 -0.25206,-1.1345c-0.97926,-1.29138 -4.20625,-4.69632 -1.4307,-6.63877c2.01272,-1.4086 5.50439,2.511 7.32574,3.09554c0.72614,0.23304 4.78925,-0.15632 3.28956,-1.38082c-2.55154,-1.47373 -6.75987,-3.99822 -5.05836,-7.815c1.13473,-2.54538 5.123,-4.36553 7.25678,-5.9981c1.89518,-1.45002 2.67247,-3.92307 4.41736,-5.56349c1.37026,-1.28823 3.17361,-2.14434 4.83432,-2.97482c1.4801,-0.59291 2.14663,-0.85659 3.20795,-2.07396l0.54524,-0.54849c0,0 0.47305,-0.47375 1.07309,-0.3815c1.28347,-0.86381 2.61857,-0.74364 4.53742,-1.2035c4.56,-1.09283 10.14973,-1.3719 14.82962,-0.77331c2.42621,0.31034 4.47523,1.69271 6.8817,2.12907c2.91175,0.30115 5.31347,-1.41027 8.05558,-2.32647l1.24024,-0.17976c0,0 0.21924,-0.02744 0.48489,0.03305c-0.67663,0.90841 -1.23665,1.83692 -1.65466,2.77537c-2.88157,1.06534 -5.25235,2.49131 -8.47435,2.17684c-2.3924,-0.43715 -4.48429,-1.83667 -6.8683,-2.1272c-3.62437,-0.44171 -7.47467,-0.10377 -11.08658,0.25577c-2.01367,0.20044 -6.1756,0.22039 -7.22195,1.97561c0,0 -0.45462,0.65041 -1.15698,0.55272c-1.00536,0.94176 -1.91598,1.41753 -3.3688,1.99951c-3.70698,1.85898 -4.81425,4.10157 -7.44409,7.06564c-2.09987,2.36676 -11.6011,6.07182 -6.00487,9.7753c0.8288,0.54848 1.80277,0.84633 2.64906,1.36732c2.16543,3.24171 -0.30365,6.26404 -4.07443,5.93193c-1.75245,-0.15436 -2.98943,-0.90573 -4.43118,-1.81635c-0.41501,-0.26212 -0.85235,-0.48827 -1.26196,-0.75879c-0.17278,-0.11411 -0.46058,-0.30714 -0.71648,-0.50237c0.15157,0.58809 0.24453,1.4021 0.45896,1.62817c1.27178,1.34079 2.05817,2.63755 1.75163,3.97211c0.02563,0.00513 0.05128,0.01023 0.07695,0.0153c-0.04336,0.07692 -0.09151,0.1515 -0.14368,0.22416c-0.20112,0.61331 -0.639,1.23557 -1.372,1.87464c0,0 -0.33224,0.24954 -0.75734,0.26918c-0.12964,0.18922 -0.23447,0.3924 -0.30293,0.61557c-0.47825,1.55894 -0.04504,3.5954 -0.33691,5.23366c-0.62709,3.14067 -1.48129,6.6334 -1.35438,9.84283c0.03308,0.83662 0.67902,1.56487 0.7405,2.39989c0.19162,2.60285 -1.4666,1.93673 -2.04257,3.78371c-1.01127,3.24283 4.08399,3.52036 5.92863,3.51795c9.15193,0 18.73949,-0.4345 27.5858,2.2163c0.58193,0.32793 1.33505,0.45657 1.74581,0.9838c0.45381,0.5825 0.73164,1.37736 0.66715,2.11336c-0.47586,5.43057 -7.15918,0.43635 -9.88475,1.6606c-0.51513,0.23138 -0.40648,1.9457 -0.36907,2.30233c0.30275,2.88606 0.36137,4.68993 -1.17308,7.26607c0,0 -0.03056,0.05101 -0.08946,0.12411c-0.05653,0.07495 -0.09852,0.11701 -0.09852,0.11701l-0.14719,0.13374c-1.99342,2.54215 -1.15998,5.4237 -1.75655,8.46694c-0.334,1.7038 -1.57637,2.32132 -2.03378,3.77089c-0.6884,2.18162 0.67658,4.18319 -0.64812,6.57871c-0.4696,2.25162 1.839,4.27893 2.30248,6.58327c1.07196,5.3296 1.81766,10.53332 0.54073,15.82266c0.3316,0.61556 -0.1014,1.26601 -0.1014,1.26601c-0.84929,1.17619 -0.55636,2.0015 -0.80857,3.40096c-0.48601,2.69678 -1.0937,5.80715 -2.06381,8.36911c-0.89337,2.35931 -2.87008,3.71817 -3.92731,5.87683c-0.84535,1.72605 -1.44185,3.65549 -2.10309,5.46247c-0.91037,1.64164 -2.45931,2.89881 -3.27191,4.55227c-1.33666,2.71981 -1.57552,5.85811 -1.87157,8.82305l0.0062,0.50136c0,0 0,0.35431 -0.18822,0.68594c-0.22729,3.3121 -0.26968,6.63574 -0.56691,9.94287c-0.41296,4.50089 -0.1651,9.24975 -1.41816,13.62596c-0.4595,1.60476 -1.13293,3.65619 -2.88705,4.33244c-2.32959,0.89811 -5.30066,-0.92421 -7.46759,-1.45356c-1.14361,-0.27936 -2.56528,-0.09384 -3.72206,-0.09384c-6.11689,0 -16.79622,-4.05989 -21.37804,2.08528c0.31535,1.19368 0.32355,2.31379 0.5946,3.51078c0.59666,2.63497 4.7113,3.8301 4.65558,6.83783c-0.01544,0.8331 -0.58399,1.56049 -0.87598,2.34073c-0.76112,0.07134 -1.52426,0.30436 -2.28336,0.21401c-0.66777,-0.07949 -1.24042,-1.01231 -1.86653,-0.76661c-0.81725,0.32071 -1.0786,1.49701 -1.88709,1.83924c-0.60282,0.25516 -1.66916,-0.75565 -1.95631,-0.16668c-0.2665,0.5466 1.29423,3.65589 1.36708,4.39805c0.14558,1.48314 -0.46662,3.62973 0.04451,5.04022c0.81901,2.2601 4.22563,2.16979 6.07371,2.33803c2.91345,0.26811 5.85224,0.18059 8.62277,1.34517c2.6995,1.13473 5.04439,3.39081 8.14469,3.4067c3.64952,0.0187 2.26734,-3.78551 4.75738,-5.01702c2.96404,-1.46595 2.69786,-0.23546 3.45355,1.72498c0.74189,2.72426 0.61718,6.59229 2.76286,8.63751c1.08348,1.03275 2.53245,0.55773 3.56995,1.45354c2.91598,2.51776 1.57782,8.25741 2.18047,11.50432c0,0 0.20375,1.1223 -0.8475,1.41905c-1.10618,1.98185 -3.2124,3.814 -3.66578,5.85245c-0.8788,3.95128 3.08189,5.8282 3.76448,9.25956c0.4516,2.27023 -0.02317,3.83089 -2.31428,4.56407c-0.49572,0.15863 -1.03573,0.10308 -1.55359,0.15462c-1.01552,0.09154 -5.05808,-0.47407 -5.64251,0.41835c-2.15789,3.29507 -0.95111,6.34903 -5.61148,7.79616l-0.58081,0.25614c-0.07815,0.11467 -0.14449,0.18111 -0.14449,0.18111l-0.25,0.25037c-2.13249,2.12553 -3.58899,5.26654 -5.80488,7.18725c-1.88901,1.63736 -4.74477,1.47441 -7.0899,1.6867c-0.03323,0.00302 -2.95322,-0.03032 -3.08484,0.21486c-0.49289,0.91815 -0.18048,3.91206 -0.4474,5.04929c-0.58742,0.55428 -1.74438,1.74851 -2.53267,2.12485c-1.3904,0.66379 -3.06869,0.07465 -3.46134,1.68209c-0.14017,0.57382 -0.11925,1.23339 -0.46947,1.70875c-0.11268,0.15294 -0.42678,0.28619 -0.72682,0.37897c0.88834,-0.00281 2.02858,0.46949 2.7025,0.66212c4.29192,1.22677 7.20154,3.42581 9.33012,7.33962c3.07059,-0.16521 3.60907,2.80903 2.61753,5.20417c-0.76549,1.84911 -2.25099,1.34022 -3.14171,2.64573c-0.89658,1.3141 -0.31617,3.66447 -1.19891,5.17819c-1.56464,2.68302 -5.10075,3.82198 -6.9644,6.26564c0,0 -0.47053,0.60585 -1.14842,0.49978c-0.8042,0.09687 -1.2063,-0.70852 -1.2063,-0.70852c-3.14501,-6.96341 -10.58183,0.26651 -14.30003,2.17547c-1.89175,0.97124 -2.90828,0.55104 -4.57206,2.0142c-1.29863,0.87001 -3.52231,3.057 -5.01729,3.36368c-3.02319,0.62015 -5.61421,-2.65256 -8.24642,-3.3533c-0.39681,-0.10564 0.50715,0.65859 0.6658,1.03785c0.19091,0.45638 0.31988,0.93834 0.42849,1.42106c0.27055,1.20234 0.60016,2.56124 -0.33569,3.66585c-2.39042,2.82149 -4.74516,-0.41003 -6.91649,-1.61708c-1.55419,-0.7225 -2.11245,0.13219 -3.80739,-0.98292c-1.14074,-0.75049 -2.20456,-3.23021 -3.42617,-3.59187c-2.29942,-0.68074 -4.56396,1.41329 -6.9606,-0.17205c-2.91778,-1.93007 -4.58293,-5.86525 -8.53188,-6.07663c-0.10044,0.07393 -0.26724,0.18367 -0.43667,0.28063c1.08897,0.38602 3.32955,2.3719 3.44737,2.52439c1.43942,1.86298 2.9282,6.02974 0.6607,7.86318c-1.6229,1.31222 -6.32413,0.54033 -7.88952,-0.58568c-0.04066,-0.02925 -1.01088,-0.88283 -1.60739,-1.70296c-0.24673,0.58319 -0.32956,1.28614 -0.79198,1.71172c-0.7419,0.68279 -2.0398,0.25957 -2.93573,0.7213c-0.82817,0.42681 -1.32469,1.42535 -2.21158,1.71023c-0.92329,0.29657 -3.98494,-0.44133 -4.44119,0.38124c-1.21319,2.18723 2.63992,4.71529 3.43255,6.31386c1.49054,3.00609 -1.32421,5.02429 -3.36383,6.54018c-1.21897,0.61025 2.14129,1.81272 2.73927,2.05089l0.13345,0.06575c0.22577,-0.00954 0.39298,0.03231 0.39298,0.03231l1.05584,0.29508c0.41027,0.20562 0.82054,0.41123 1.23081,0.61685c0.85902,0.49375 2.85006,1.43173 3.05253,2.56783c0.11412,0.64036 -0.67478,1.11646 -0.93161,1.71392c-0.43079,1.00215 -1.20222,3.50335 -0.64744,4.57622c0.34342,0.66412 2.54316,0.73013 3.02388,0.84184c1.8979,0.44105 5.7175,0.75646 6.16089,3.15208c0.12192,0.65875 -0.67684,1.15613 -0.99517,1.74539c-0.99738,1.84626 -2.44697,3.9875 -1.12315,5.89952c3.76159,3.08791 6.09244,6.94699 8.70405,10.94894c0.98295,1.50624 2.84848,2.07416 3.67692,3.73478c0.77283,1.54915 0.29823,3.10027 0.68138,4.58402c0.24179,-0.07493 0.4778,-0.15586 0.70839,-0.2426c-0.1143,1.12194 -0.25236,2.23165 -0.25051,3.24312c0,2.87599 0.59891,6.49649 -0.03344,9.30088c-0.1648,0.73085 -1.05866,1.28323 -0.9697,2.02718c0.09881,0.82628 0.98775,1.39268 1.1697,2.20466c0.43746,1.95219 0.01487,7.35882 -0.91853,9.09793c-1.15576,2.15342 -3.60622,2.46064 -5.02578,4.25137c-1.34387,3.20152 -2.97281,6.95374 -5.34084,9.60532c-0.54267,0.60766 -3.61848,2.42685 -3.72551,3.10001c-0.1607,1.01074 0.70633,2.11586 0.30132,3.05554c-0.21141,0.4905 -0.96855,0.48032 -1.3629,0.84009c-0.39596,0.36126 0.01126,1.07646 0.09312,1.60659c0.26644,1.72566 0.07094,3.42186 0.25068,5.1408c1.08161,-0.35332 1.80892,-0.3064 2.80924,-0.99173c1.83915,-1.26002 4.28491,-4.60988 7.04413,-2.89708c2.23305,1.38618 1.66922,2.5509 0.38828,4.16823c-0.41427,0.52306 -0.96339,0.94567 -1.54533,1.27135c-0.06766,0.03786 -0.1615,0.07382 -0.26929,0.10612c1.11095,0.53421 2.34808,2.17005 2.32789,2.52447c-0.00613,0.10769 -2.17615,1.85345 -2.66218,2.2477c0,0 -0.67816,0.54333 -1.35616,0.15812c-0.78366,0.08295 -1.87472,0.18612 -2.15002,0.97767c-0.38913,1.11886 0.11532,2.11922 -1.19035,3.02934c-0.80025,0.55781 -1.96051,-0.21404 -2.92427,-0.06615c-1.83617,0.28178 -2.9748,4.79689 -4.14263,5.92357c-1.83771,1.77298 -3.75641,0.25699 -4.17576,2.69091c-0.95063,2.82954 -3.19846,9.38991 -7.37459,7.24734c-1.99322,-1.02264 -2.54785,-4.84593 -4.83354,-5.31533c-0.9341,-0.19184 -0.4805,1.92593 -1.11611,2.63778c-0.26173,0.29313 -0.80506,0.00689 -1.16721,0.15884c-0.02873,0.01206 1.58972,2.76539 1.85232,3.01764c0.41637,0.34885 0.99028,0.56864 1.24912,1.04652c0.63944,1.18059 -0.33697,3.43262 1.41827,3.6773c2.22211,0.30975 1.90064,-1.2206 4.26361,-1.27444c1.72196,-0.03922 2.00535,1.04709 3.5,1.00147c1.12843,-0.03444 3.82019,-0.33116 4.63389,0.61702c1.75576,2.04594 -0.10564,3.34754 -1.09658,4.83849c-0.1463,0.22012 -0.49598,1.02224 -0.92046,1.49123c0.42838,-0.2185 0.8378,-0.24918 1.69217,0.19573c0.95716,0.49843 1.07187,1.89355 1.78737,2.70215c1.3968,1.57859 5.23252,-0.00098 6.49137,2.55774c1.5261,3.10195 -1.20209,2.63389 -2.30266,3.82228c-0.25144,0.2715 0.32904,3.76656 0.44064,4.31041l0.09778,0.48963c0.00252,-0.00049 0.00505,-0.00097 0.00758,-0.00144c-0.0709,0.78206 -0.07034,1.55879 0.00624,2.30463c-0.0231,0.04074 -0.04672,0.07949 -0.07088,0.11615c-0.12093,0.18352 -0.24845,0.38572 -0.37852,0.60276c-1.5747,0.45101 -3.32236,0.10077 -4.40268,1.51007c-1.39288,1.81706 -0.15054,5.09104 -2.03447,6.52543c-0.52078,0.3965 -1.29753,0.18007 -1.95078,0.21524c-0.3607,0.01941 -1.07739,-0.41566 -1.08232,-0.05395c-0.01,0.73344 2.23064,2.1921 2.65132,2.6134c3.48721,2.69864 0.75176,6.64591 3.31489,9.32416c1.54363,1.61295 4.84983,0.15138 6.7614,0.94943c2.55859,1.06818 1.51464,3.13952 2.84686,4.93276c0.80003,1.07689 2.08836,1.65715 2.94371,2.86929c0.0701,1.8007 0.08207,3.60105 0.06414,5.40325c-0.00487,0.48928 -0.49437,1.26541 -0.04922,1.46708c0.55032,0.24931 1.19522,-0.21524 1.79922,-0.21524c2.30684,0 5.53383,-0.38173 7.73639,0.27296c0.73228,0.21766 1.57484,0.42818 2.0487,1.02817c0.41792,0.52917 0.12826,1.33648 0.16572,2.0298c0.48356,0.13337 0.81257,0.35271 0.81257,0.35271l0.00001,-0.00001l2.24188,2.26385c0.36033,0.16185 0.69355,0.29773 0.95898,0.40125c0.10518,0.04287 0.21069,0.08327 0.31653,0.12135c0.22921,-0.28148 0.57826,-0.46125 0.96922,-0.46125c0.58749,0 1.08033,0.4059 1.21415,0.95294c2.4212,0.27452 4.9447,-0.16973 7.38896,0.05279c1.53783,0.14 3.11984,0.35855 4.71767,0.55306c-0.39313,-0.36991 -0.69414,-0.93638 -0.69414,-1.80387c0,-2.5 2.5,-2.5 2.5,-2.5c5.97004,0 15.52671,0.91766 15.98783,8.75366c0.08163,1.38723 0.37619,3.00736 -0.41767,4.14792c-0.82701,1.18819 -2.50794,1.47168 -3.8578,1.99479c-4.3595,1.68942 -8.98157,0.67692 -13.46602,1.09148c-1.06549,0.0985 -3.02476,1.06875 -4.77957,1.65816c6.67761,-0.15224 13.55601,1.03136 20.15542,1.62863c6.40875,0.58002 13.03188,0.3213 19.16837,2.35367c1.82594,0.60474 3.57976,1.42158 5.4218,1.97535c0.87714,0.26369 1.91384,0.07687 2.68912,0.56455c1.5578,0.97991 3.96182,1.86747 4.09519,3.70301c0.03087,0.42492 -0.0715,0.82074 -0.26581,1.18965c2.71275,-0.03243 5.40479,-0.06044 8.06292,-0.05233c6.42445,-1.09011 12.98144,-2.40742 19.45986,-2.99635c2.54356,-0.23123 5.09128,-0.42555 7.64193,-0.59621l-0.72153,1.14243l-2.74664,4.11995c-1.22797,0.09534 -2.45505,0.19797 -3.68108,0.30943c-6.50905,0.59175 -13.07483,1.94265 -19.54014,3.00365c-7.83678,0.02082 -15.90633,0.27207 -23.9366,0.06786c-3.06123,0.53688 -6.13906,0.93239 -9.26958,0.94071c-10.22131,0 -20.78315,1.4923 -27.97051,-7.46147c-0.33172,-0.41324 -0.63728,-0.83668 -0.9213,-1.26855c-1.35239,-0.67372 -2.68739,-1.40398 -4.00317,-2.1954c-4.54093,-3.4057 -8.74846,-5.91799 -11.00139,-11.36225l0.03838,-0.24077l-0.09348,0.0187l-0.48988,-2.44938c-0.03842,-0.17418 -0.05867,-0.35518 -0.05867,-0.54091c0,-0.66456 0.2593,-1.26856 0.68225,-1.71634zM478.81786,479.82785c-3.54507,-1.20889 -6.70254,-2.61401 -10.65963,-2.83166c-9.77485,-0.53764 -19.71859,-1.0677 -29.47254,-2.43474c10.51627,4.86213 22.1524,6.20625 33.87858,6.50595c2.08706,-0.38461 4.16654,-0.83429 6.25359,-1.23955zM436.08412,464.60365c3.80018,-1.15557 6.7116,-1.61291 10.71237,-1.60364c2.63158,0.00609 4.7148,-0.55775 7.28763,-0.89636c0.37748,-0.04968 0.89644,0.28558 1.1422,-0.00521c0.62033,-0.734 -1.30929,-2.71392 -1.8248,-3.02381c-0.24546,-0.14755 -0.48467,-0.28461 -0.7187,-0.41193c-5.1057,1.16179 -10.50761,0.04837 -15.61605,-0.41671c-3.08872,-0.28122 -6.08682,0.3094 -9.06339,-0.36187c1.23244,1.65992 3.08346,2.88527 4.57864,4.50952l0.82079,0.18097c0,0 1.87042,0.46761 1.91551,2.2241c0.26164,-0.05681 0.51815,-0.11975 0.7658,-0.19506zM430.06041,467.88198c0.0208,-0.05842 0.04232,-0.11556 0.06455,-0.17144c-0.12896,-0.26442 -0.26244,-0.5272 -0.40133,-0.788c-1.10291,-0.13694 -2.19041,-0.43096 -3.27802,-0.70268c0.97064,1.14368 2.15752,2.10397 3.40635,3.00564c-0.00339,-0.45774 0.05318,-0.90733 0.20844,-1.34353z" fill="#000000" stroke-width="0.5"/><path d="M424.17066,452.46829c0,0 -0.32918,-0.21938 -0.81274,-0.35275c-0.03746,-0.69332 0.25207,-1.50066 -0.16585,-2.02983c-0.47386,-0.59999 -1.31685,-0.81063 -2.04913,-1.02829c-2.20256,-0.65469 -5.43096,-0.27337 -7.7378,-0.27337c-0.604,0 -1.24921,0.46445 -1.79953,0.21514c-0.44515,-0.20167 0.04428,-0.97782 0.04915,-1.4671c0.01793,-1.8022 0.00564,-3.60265 -0.06446,-5.40335c-0.85535,-1.21214 -2.14438,-1.79263 -2.94441,-2.86952c-1.33222,-1.79324 -0.2891,-3.86487 -2.84769,-4.93305c-1.91157,-0.79805 -5.21904,0.66304 -6.76267,-0.94991c-2.56313,-2.67825 0.17106,-6.62603 -3.31615,-9.32467c-0.42068,-0.4213 -2.66199,-1.88025 -2.65199,-2.61369c0.00493,-0.36171 0.76167,-0.01827 1.12237,-0.03768c0.65325,-0.03517 1.42967,0.18112 1.95045,-0.21538c1.88393,-1.43439 0.64173,-4.70831 2.03461,-6.52537c1.08032,-1.4093 2.82728,-1.05936 4.40198,-1.51037c0.13007,-0.21704 0.25757,-0.41925 0.3785,-0.60277c0.02416,-0.03666 0.00977,0.01709 0.03287,-0.02365c-0.07658,-0.74584 -0.07732,-1.52265 -0.00642,-2.30471c-0.00253,0.00047 -0.00506,0.00095 -0.00758,0.00144l-0.09784,-0.48965c-0.1116,-0.54385 -0.65316,-4.13102 -0.40172,-4.40252c1.10057,-1.18839 3.78954,-0.62834 2.26344,-3.73029c-1.25885,-2.55872 -5.09605,-0.97981 -6.49285,-2.5584c-0.7155,-0.8086 -0.8308,-2.204 -1.78796,-2.70243c-0.85437,-0.44491 -1.26413,-0.41439 -1.69251,-0.19589c0.42448,-0.46899 0.81803,-1.36097 0.96433,-1.58109c0.99094,-1.49095 2.80826,-2.70279 1.0525,-4.74873c-0.8137,-0.94818 -3.50641,-0.65194 -4.63484,-0.6175c-1.49465,0.04562 -1.77879,-1.04109 -3.50075,-1.00187c-2.36297,0.05384 -2.04215,1.58383 -4.26426,1.27408c-1.75524,-0.24468 -0.77946,-2.49707 -1.4189,-3.67766c-0.25884,-0.47788 -0.83308,-0.69786 -1.24945,-1.04671c-0.2626,-0.25225 -1.88169,-3.00597 -1.85296,-3.01803c0.36215,-0.15195 0.90567,0.1344 1.1674,-0.15873c0.63561,-0.71185 0.23394,-2.91508 1.16804,-2.72324c2.28569,0.4694 2.83888,4.29185 4.8321,5.31449c4.17613,2.14257 6.42332,-4.41815 7.37395,-7.24769c0.41935,-2.43392 2.33751,-0.91822 4.17522,-2.6912c1.16783,-1.12668 2.30625,-5.6419 4.14242,-5.92368c0.96376,-0.14789 2.12339,0.62363 2.92364,0.06582c1.30567,-0.91012 0.80129,-1.91044 1.19042,-3.0293c0.2753,-0.79155 1.36599,-0.8949 2.14965,-0.97785c0.678,0.38521 1.35587,-0.15826 1.35587,-0.15826c0.48603,-0.39425 2.61249,-2.05 2.61862,-2.15769c0.02019,-0.35442 -1.21776,-1.99066 -2.32871,-2.52487c0.10779,-0.0323 0.24643,-0.15766 0.31409,-0.19552c0.58194,-0.32568 1.13085,-0.7484 1.54512,-1.27146c1.28094,-1.61733 1.79986,-2.6927 -0.43319,-4.07888c-2.75922,-1.7128 -5.20624,1.63639 -7.04539,2.89641c-1.00032,0.68533 -1.72812,0.63814 -2.80973,0.99146c-0.17974,-1.71894 0.01507,-3.41554 -0.25137,-5.1412c-0.08186,-0.53013 -0.43848,-1.33158 -0.04252,-1.69284c0.39435,-0.35977 1.10086,-0.26336 1.31227,-0.75386c0.40501,-0.93968 -0.46248,-2.04507 -0.30178,-3.05581c0.10703,-0.67316 3.23379,-2.5784 3.77646,-3.18606c2.36803,-2.65158 3.99704,-6.40376 5.34091,-9.60528c1.41956,-1.79073 3.82001,-2.01136 4.97577,-4.16478c0.9334,-1.73911 1.35482,-7.14642 0.91736,-9.09861c-0.18195,-0.81198 -1.07156,-1.37879 -1.17037,-2.20507c-0.08896,-0.74395 0.80482,-1.29638 0.96962,-2.02723c0.63235,-2.80439 0.0318,-6.42597 0.0318,-9.30196c-0.00185,-1.01147 0.13567,-2.12156 0.24997,-3.2435c-0.23059,0.08674 -0.46675,0.16757 -0.70854,0.2425c-0.38315,-1.48375 0.09037,-3.03566 -0.68246,-4.58481c-0.82844,-1.66062 -2.69568,-2.22988 -3.67863,-3.73612c-2.61161,-4.00195 -4.94676,-7.865 -8.70835,-10.95291c-1.32382,-1.91202 0.12472,-4.05439 1.1221,-5.90065c0.31833,-0.58926 1.1169,-1.08685 0.99498,-1.7456c-0.44339,-2.39562 -4.26483,-2.71321 -6.16273,-3.15426c-0.48072,-0.11171 -2.68114,-0.17859 -3.02456,-0.84271c-0.55478,-1.07287 0.21579,-3.57524 0.64658,-4.57739c0.25683,-0.59746 1.04551,-1.07388 0.93139,-1.71424c-0.20247,-1.1361 -2.19449,-2.07552 -3.05351,-2.56927c-0.41027,-0.20562 -0.82083,-0.41168 -1.2311,-0.6173l-1.05603,-0.29539c0,0 -0.16727,-0.04194 -0.39304,-0.0324l-0.13348,-0.0658c-0.59798,-0.23817 -3.95896,-1.44184 -2.73999,-2.05209c2.03962,-1.51589 4.85348,-3.53568 3.36294,-6.54177c-0.79263,-1.59857 -4.64722,-4.12961 -3.43403,-6.31684c0.45625,-0.82257 3.60862,-0.12673 4.53191,-0.4233c0.88689,-0.28488 1.38354,-1.28315 2.21171,-1.70996c0.89593,-0.46173 2.10329,0.00394 2.84519,-0.67885c0.46242,-0.42558 0.63593,-1.17068 0.88266,-1.75387c0.59651,0.82013 1.56624,1.67267 1.6069,1.70192c1.56539,1.12601 6.17767,1.94354 7.80057,0.63132c2.2675,-1.83344 0.77689,-6.00395 -0.66253,-7.86693c-0.11782,-0.15249 -2.35919,-2.14029 -3.44816,-2.52631c0.16943,-0.09696 0.42944,-0.24291 0.52988,-0.31684c3.94895,0.21138 5.61193,4.14175 8.52971,6.07182c2.39664,1.58534 4.66014,-0.5106 6.95956,0.17014c1.22161,0.36166 2.28377,2.83867 3.42451,3.58916c1.69494,1.11511 2.25207,0.25878 3.80626,0.98128c2.17133,1.20705 4.52369,4.4355 6.91411,1.61401c0.93585,-1.10461 0.52853,-2.40061 0.25798,-3.60295c-0.10861,-0.48272 -0.23822,-0.96552 -0.42913,-1.4219c-0.15865,-0.37926 -0.98184,-1.20244 -0.58503,-1.0968c2.63221,0.70074 5.21936,3.96869 8.24255,3.34854c1.49498,-0.30668 3.71809,-2.49428 5.01672,-3.36429c1.66378,-1.46316 2.67914,-1.04415 4.57089,-2.01539c3.7182,-1.90896 11.14649,-9.14561 14.2915,-2.1822c0,0 0.40061,0.80449 1.20481,0.70762c0.67789,0.10607 1.14759,-0.50025 1.14759,-0.50025c1.86365,-2.44366 5.39523,-3.58483 6.95987,-6.26785c0.88274,-1.51372 0.30402,-3.86333 1.2006,-5.17743c0.89072,-1.30551 2.33715,-0.70466 3.10264,-2.55377c0.99154,-2.39514 0.4425,-5.3749 -2.62809,-5.20969c-2.12858,-3.91381 -5.05653,-6.13597 -9.34845,-7.36274c-0.67392,-0.19263 -1.81529,-0.66816 -2.70363,-0.66535c0.30004,-0.09278 0.61404,-0.22634 0.72672,-0.37928c0.35022,-0.47536 0.32841,-1.13827 0.46858,-1.71209c0.39265,-1.60744 2.07046,-1.02066 3.46086,-1.68445c0.78829,-0.37634 1.94458,-1.57596 2.532,-2.13024c0.26692,-1.13723 -0.04385,-4.14778 0.44904,-5.06593c0.13162,-0.24518 3.05286,-0.21579 3.08609,-0.21881c2.34513,-0.21229 5.21766,-0.07207 7.10667,-1.70943c2.21589,-1.92071 3.70768,-5.07163 5.84017,-7.19716l0.25083,-0.25028c0,0 0.06678,-0.06639 0.14493,-0.18106l0.58274,-0.25586c4.66037,-1.44713 3.46256,-4.49871 5.62045,-7.79378c0.58443,-0.89242 4.63601,-0.32243 5.65153,-0.41397c0.51786,-0.05154 1.05981,0.00527 1.55553,-0.15336c2.29111,-0.73318 2.71036,-2.21068 2.25876,-4.48091c-0.68259,-3.43136 -4.63371,-5.30341 -3.75491,-9.25469c0.45338,-2.03845 2.59651,-3.96353 3.70269,-5.94538c1.05125,-0.29675 0.80898,-1.32677 0.80898,-1.32677c-0.60265,-3.24691 0.74086,-8.98466 -2.17512,-11.50242c-1.0375,-0.89581 -2.48324,-0.41996 -3.56672,-1.45271c-2.14568,-2.04522 -2.01755,-5.91262 -2.75944,-8.63688c-0.75569,-1.96044 -0.48678,-3.1906 -3.45082,-1.72465c-2.49004,1.23151 -1.10439,5.03592 -4.75391,5.01722c-3.1003,-0.01589 -5.43888,-2.27222 -8.13838,-3.40695c-2.77053,-1.16458 -5.70319,-1.07808 -8.61664,-1.34619c-1.84808,-0.16824 -5.25108,-0.07891 -6.07009,-2.33901c-0.51113,-1.41049 0.07223,-3.65283 -0.07335,-5.13597c-0.07285,-0.74216 -1.63363,-3.85144 -1.36713,-4.39804c0.28715,-0.58897 1.35458,0.42153 1.9574,0.16637c0.80849,-0.34223 1.0712,-1.51887 1.88845,-1.83958c0.62611,-0.2457 1.19975,0.6869 1.86752,0.76639c0.7591,0.09035 1.52363,-0.14295 2.28475,-0.21429c0.29199,-0.78024 0.87815,-1.4092 0.89359,-2.2423c0.05572,-3.00773 -4.05705,-4.20322 -4.65371,-6.83819c-0.27105,-1.19699 -0.29976,-2.41497 -0.61511,-3.60865c4.58182,-6.14517 15.27254,-2.08632 21.38943,-2.08632c1.15678,0 2.58043,-0.18543 3.72404,0.09393c2.16693,0.52935 5.14202,2.35209 7.47161,1.45398c1.75412,-0.67625 2.42868,-2.7275 2.88818,-4.33226c1.25306,-4.37621 0.98899,-9.02639 1.40195,-13.52728c0.29723,-3.30713 0.34003,-6.63071 0.56732,-9.94281c0.18822,-0.33163 0.18819,-0.68595 0.18819,-0.68595l-0.00617,-0.50136c0.29605,-2.96494 0.55011,-6.20208 1.88677,-8.92189c0.8126,-1.65346 2.36245,-2.91048 3.27282,-4.55212c0.66124,-1.80698 1.25813,-3.73635 2.10348,-5.4624c1.05723,-2.15866 3.03486,-3.51734 3.92823,-5.87665c0.97011,-2.56196 1.55784,-5.57434 2.04385,-8.27112c0.25221,-1.39946 -0.02061,-2.32273 0.82868,-3.49892c0,0 0.4129,-0.55249 0.0813,-1.16805c1.27693,-5.28934 0.53225,-10.49286 -0.53971,-15.82246c-0.46348,-2.30434 -2.77116,-4.33149 -2.30156,-6.58311c1.3247,-2.39552 -0.02423,-4.49579 0.66417,-6.67741c0.45741,-1.44957 1.70014,-2.06703 2.03414,-3.77083c0.59657,-3.04324 -0.23679,-5.92478 1.75663,-8.46693l0.14722,-0.13373c0,0 0.04201,-0.04206 0.09854,-0.11701c0.0589,-0.0731 0.08948,-0.12411 0.08948,-0.12411c1.53445,-2.57614 1.45891,-4.28145 1.15616,-7.16751c-0.03741,-0.35663 -0.12916,-2.16951 0.38597,-2.40089c2.72557,-1.22425 9.41103,3.77039 9.88689,-1.66018c0.06449,-0.736 -0.23427,-1.43307 -0.68808,-2.01557c-0.41076,-0.52723 -1.16345,-0.65578 -1.74538,-0.98371c-8.84631,-2.6508 -18.42761,-2.21544 -27.57954,-2.21544c-1.84464,0.00241 -6.93851,-0.27504 -5.92724,-3.51787c0.57597,-1.84698 2.23914,-1.28074 2.04752,-3.88359c-0.06148,-0.83502 -0.71259,-1.4634 -0.74567,-2.30002c-0.12691,-3.20943 0.73245,-6.80203 1.35954,-9.9427c0.29187,-1.63826 -0.14133,-3.67472 0.33692,-5.23366c0.06846,-0.22317 0.17335,-0.42635 0.30299,-0.61557c0.4251,-0.01964 0.75749,-0.26917 0.75749,-0.26917c0.733,-0.63907 1.17114,-1.26131 1.37226,-1.87462c0.05217,-0.07266 0.10035,-0.14724 0.14371,-0.22416c-0.02567,-0.00507 -0.05765,0.08963 -0.08328,0.0845c0.30654,-1.33456 -0.47945,-2.6313 -1.75123,-3.97209c-0.21443,-0.22607 -0.30198,-1.13993 -0.45355,-1.72802c0.2559,0.19523 0.54385,0.38827 0.71663,0.50238c0.40961,0.27052 0.84721,0.49669 1.26222,0.75881c1.44175,0.91062 2.67964,1.66205 4.43209,1.81641c3.77078,0.33211 6.23122,-2.5906 4.06579,-5.83231c-0.84629,-0.52099 -1.81972,-0.81879 -2.64852,-1.36727c-5.59623,-3.70348 3.91423,-7.50811 6.0141,-9.87487c2.62984,-2.96407 3.73832,-5.20652 7.4453,-7.0655c1.45282,-0.58198 2.36399,-1.05768 3.36935,-1.99944c0.70236,0.09769 1.15717,-0.55269 1.15717,-0.55269c1.04635,-1.75522 5.20949,-1.77498 7.22316,-1.97542c3.61191,-0.35954 7.4641,-0.69712 11.08847,-0.25541c2.38401,0.29053 4.47714,1.69032 6.86954,2.12747c3.22592,0.31485 5.59976,-1.11467 8.48626,-2.18037c-0.26346,0.5839 -0.47209,1.17173 -0.61976,1.76102c-2.31571,9.24119 6.7697,11.40439 9.04482,19.7653c1.31566,4.83497 1.7187,11.38545 3.96701,15.79619c0.58975,1.15697 2.30605,3.20287 2.6534,4.70171c2.73072,11.78341 1.66208,24.41145 2,36.48373c0.045,1.60762 0.9525,3.43251 1,5.02847c0.1984,6.66626 -0.57788,8.77412 -0.57788,13.6703c0,8.37532 0.99625,16.99007 1.07788,25.34005c0.06027,6.16511 -0.93482,16.64235 3.58223,22.46625c-0.48315,3.65362 1.08052,7.4273 1.7028,11.04516c0.48511,2.82038 1.2613,8.42649 2.19513,13.45422c-2.18944,4.86682 -0.26079,11.62962 -0.44443,16.41192c-0.0642,1.67186 -1.18008,3.25691 -0.99475,4.91971c0.2893,2.59566 -0.16908,5.61882 0.01036,8.2956c0.32133,4.79339 0.91275,7.73052 0.94867,12.75855c0.13718,19.20276 -0.46972,38.41225 0,57.60976c0.0007,0.02843 0.0015,0.05695 0.00241,0.08556c-0.0016,0.0824 -0.00241,0.16499 -0.00241,0.24778c0,0.39921 0.01871,0.79406 0.05531,1.1837c1.03417,12.41 3.26933,25.19562 5.9357,37.31919c0.72058,3.27636 -1.92451,8.06862 -2.34956,11.54426c-0.80605,6.59114 -2.48598,12.92442 -3.39872,19.5014c-0.60079,4.32917 -0.1637,10.25791 -0.24274,13.83757c-0.03383,1.53228 -0.62993,3.07705 -0.35265,4.58441c0.34239,1.86128 1.18248,3.6304 2.16171,5.24988c0.34998,0.5788 1.57291,0.4557 1.69093,1.12171c0.48975,2.76365 0.07436,5.61441 0,8.42014c-0.14721,5.55444 -2.31557,11.41699 -3.51905,16.80373c-3.52685,15.78613 -5.93154,32.19777 -5.98095,48.43401c-0.001,0.32719 -8.53586,44.48619 5.17212,55.52245l-0.06804,1.08859l-1.03732,3.80351l-2.25072,6.30201l-1.06297,-0.21513l-5.24078,2.18366l-0.52199,0.60899l-1.23655,0.54719l-2.08539,3.3284l-0.34869,0.40681l-0.21162,0.42325l-3.15381,4.95598l-0.35197,1.0559l-0.66074,0.89567l-2.02572,4.91961l-2.83018,-2.44425l-0.59791,-0.69756l-0.40536,-0.1689l-0.33235,-0.28703l-0.89131,-0.22283l-3.61176,-1.5049l-1.16014,0.23479l-0.23897,-0.13728l-0.92548,0.06772h-1.42233l-0.58855,0.14714l-2.72601,0.19946l-1.37725,0.82635l-1.55818,0.38955l-2.06862,1.78654l-0.52021,0.31213l-1.00574,1.00574l-0.7023,0.60653l-0.03547,0.13124l-1.75649,1.75649l-1.03382,1.72303l-1.30769,1.52564l-0.27106,0.54211l-6.42158,7.27779l-0.59105,1.14087l-0.88902,0.92767l-1.86301,3.26027l-5.08166,8.04596c-2.5381,0.17011 -5.07314,0.36367 -7.60386,0.59373c-6.47842,0.58893 -13.03895,1.90647 -19.4634,2.99658c-2.65813,-0.00811 -5.35163,0.01992 -8.06438,0.05235c0.19431,-0.36891 0.29673,-0.76473 0.26586,-1.18965c-0.13337,-1.83554 -2.53814,-2.72311 -4.09594,-3.70302c-0.77528,-0.48768 -1.81248,-0.30087 -2.68962,-0.56456c-1.84204,-0.55377 -3.59687,-1.37064 -5.42281,-1.97538c-6.13649,-2.03237 -12.76319,-1.77394 -19.17194,-2.35396c-6.59941,-0.59727 -13.4815,-1.78144 -20.15911,-1.6292c1.75481,-0.58941 3.73226,-1.65799 4.79775,-1.75649c4.48445,-0.41456 9.10408,0.59757 13.46358,-1.09185c1.34986,-0.52311 3.03011,-0.80668 3.85712,-1.99487c0.79386,-1.14056 0.48814,-2.66131 0.40651,-4.04854c-0.46112,-7.836 -10.0211,-8.75415 -15.99114,-8.75415c0,0 -2.50039,-0.00007 -2.50039,2.49993c0,0.86749 0.3012,1.434 0.69433,1.80391c-1.59783,-0.19451 -3.18075,-0.41324 -4.71858,-0.55324c-2.44426,-0.22252 -4.96913,0.22143 -7.39033,-0.05309c-0.13382,-0.54704 -0.62692,-0.953 -1.21441,-0.953c-0.39096,0 -0.74017,0.17973 -0.96938,0.46121c-0.10584,-0.03808 -0.21141,-0.0785 -0.31659,-0.12137c-0.26543,-0.10352 -0.59884,-0.23945 -0.95917,-0.4013l-2.24239,-2.26398z" fill="#d0d0d0" stroke-width="0.5"/><path d="M478.77438,-66.78939c-0.40089,0.01459 -0.80671,0.02402 -1.18426,-0.02375c-0.09292,-0.01175 -0.27154,-0.09835 -0.38592,-0.15895c0.65877,0.42159 0.8566,1.45551 1.45269,1.91851c0.40121,0.31163 2.16496,0.30519 1.85228,0.09661c-0.38952,-0.25983 -0.79793,-0.52662 -1.07538,-0.90408c0,-0.32707 -0.06397,-0.69383 -0.27621,-0.94225c-0.00081,0.00002 -0.00162,0.00006 -0.00243,0.00008l0.12157,0.2435c0,0 -0.32033,0 -0.50233,-0.22967zM480.1421,-67.56396l0.00961,0.00275c0.26218,0.3801 0.46792,0.84231 0.46792,1.30428c0.23007,0.28625 0.74137,0.27978 0.92462,0.59813c0.70716,1.22846 -0.32359,2.24514 -1.45413,2.22564c-1.63313,-0.02817 -6.02237,-3.62768 -3.20167,-4.73844c0.47413,-0.18671 2.06115,0.10968 2.63826,0.10968c0,0 0.53663,0 0.61539,0.49799z" fill="#000000" stroke-width="0.5"/><path d="M478.76882,-66.83908c0.182,0.22967 0.53362,0.23649 0.53362,0.23649l-0.16196,-0.15283c0.00081,-0.00002 0.03107,-0.09562 0.03188,-0.09564c0.21224,0.24842 0.31136,0.66557 0.31136,0.99264c0.27745,0.37746 0.67935,0.66643 1.06887,0.92625c0.31268,0.20858 -1.50711,0.2386 -1.90832,-0.07303c-0.59609,-0.463 -0.82328,-1.57247 -1.48205,-1.99406c0.11438,0.0606 0.29436,0.1452 0.38728,0.15695c0.37755,0.04777 0.81841,0.01781 1.2193,0.00323z" fill="#d0d0d0" stroke-width="0.25"/><path d="M521.82667,-80.3817c-2.37499,0.03554 -4.89986,0.53052 -6.86597,0.95423c-0.94356,0.20334 -2.58445,0.15643 -3.37681,0.86137c-1.7551,1.56146 0.86647,4.3015 2.73524,2.54003c2.85942,-2.16181 8.44178,-1.47392 11.98087,-1.47392c0.7379,0 4.57472,0.18506 4.75,-0.95c0.04725,-0.30597 -3.612,-0.91183 -3.91943,-1.00584c-0.41028,-0.12546 -0.78422,-0.2467 -1.14683,-0.35363c-0.16685,-0.01728 -0.27903,-0.05468 -0.27903,-0.05468c-0.13549,-0.04745 -0.27369,-0.09122 -0.41436,-0.13146c-0.55446,-0.13041 -1.12038,-0.211 -1.79035,-0.2044h-1c0,0 -0.34559,0 -0.67334,-0.18171zM526.69424,-82.14487c0.79552,0.23045 1.59269,0.48677 2.46646,0.67237c0.91525,0.19441 2.63333,0.19566 3.3376,0.86063c2.15792,2.03752 0.59381,4.38088 -1.62559,5.15502c-3.06527,1.0692 -7.36156,0.65686 -10.57271,0.65686c-1.59259,0 -3.17715,-0.36554 -4.41913,0.72608c-3.41465,2.50634 -8.25105,0.1875 -6.99743,-4.46327c0.57239,-2.12351 2.21926,-2.70979 4.15587,-3.13533c4.04105,-0.88795 9.43454,-1.85478 13.45598,-0.56334c0,0 0.08357,0.02786 0.19895,0.09097z" fill="#000000" stroke-width="0.5"/><path d="M521.84209,-80.42927c0.32775,0.18171 0.68502,0.18726 0.68502,0.18726l1.00963,0.00811c0.66997,-0.0066 1.2441,0.08599 1.79856,0.2164c0.14067,0.04024 0.28008,0.08671 0.41557,0.13416c0,0 0.11273,0.03878 0.27958,0.05606c0.36261,0.10693 0.73832,0.23378 1.1486,0.35924c0.30743,0.09401 3.96812,0.70943 3.92087,1.01541c-0.17528,1.13506 -4.01218,0.95661 -4.75008,0.95661c-3.53909,0 -9.21942,-0.67828 -12.07884,1.48353c-1.86877,1.76147 -4.49211,-0.99556 -2.73701,-2.55702c0.79236,-0.70494 2.43462,-0.66667 3.37817,-0.87001c1.96611,-0.42371 4.55493,-0.95419 6.92992,-0.98973z" fill="#d0d0d0" stroke-width="0.25"/><path d="M506.25414,-72.1368c-0.63952,-0.18158 -1.27894,-0.36354 -1.91824,-0.54592c-0.16077,0.05805 -0.28086,0.07306 -0.28086,0.07306c-4.85437,0.59975 -10.06091,1.20965 -14.95504,1.20965c-1.82029,0 -3.74713,-0.19723 -5.53931,0.17252c-0.16166,0.03335 -3.25288,1.06871 -1.76105,0.63169c2.71808,1.01671 6.62003,2.20021 9.57952,1.33767c2.70648,-0.78879 4.21411,-2.23753 7.24317,-2.43946c2.12614,-0.14175 4.26465,-0.05823 6.38906,-0.19927c0.17017,-0.0113 0.69687,-0.1432 1.24275,-0.23994zM501.78512,-74.84794c0.3718,-0.79316 1.32038,-0.63505 1.32038,-0.63505l1.3379,0.23109c0.90603,0.25886 1.81182,0.5186 2.7173,0.77939c2.55426,0.55787 4.42537,2.74593 1.23564,4.56975c-2.63605,1.50724 -8.03576,0.51711 -11.00773,0.69962c-2.15938,0.1326 -3.39613,1.80515 -5.36777,2.36127c-3.53048,0.99581 -7.98419,-0.24578 -11.22048,-1.46232c-0.62874,-0.45017 -1.6812,-0.60491 -1.88621,-1.35052c-0.66856,-2.43145 2.51001,-3.66228 4.12516,-4.0178c2.91634,-0.64192 6.01589,-0.02808 8.97208,-0.22434c3.2015,-0.21255 6.54351,-0.56167 9.77373,-0.95108z" fill="#000000" stroke-width="0.5"/><path d="M504.96162,-71.89208c-2.12441,0.14104 -4.26233,0.06172 -6.38847,0.20347c-3.02906,0.20193 -4.52963,1.66862 -7.23611,2.45741c-2.95949,0.86254 -6.86931,-0.34695 -9.58739,-1.36366c-1.49183,0.43702 1.59942,-0.60126 1.76108,-0.63461c1.79218,-0.36975 3.71935,-0.17662 5.53964,-0.17662c4.89413,0 10.19955,-0.61243 15.05392,-1.21218c0,0 0.12007,-0.01512 0.28084,-0.07317c0.6393,0.18238 1.27921,0.3678 1.91873,0.54937c-0.54588,0.09674 -1.17208,0.23868 -1.34224,0.24998z" fill="#d0d0d0" stroke-width="0.25"/><path d="M474.92566,-59.5285c-0.58089,0.89843 -1.58467,0.39655 -1.58467,0.39655c-1.38785,-0.70153 -3.29421,-1.34759 -4.87876,-0.92167c-1.45145,0.39014 -2.05055,1.95396 -3.762,2.23749c-2.017,0.33415 -4.0624,-0.56453 -5.97829,-0.74957c-0.12304,-0.01189 1.77698,2.10474 2.00547,2.23457c1.41983,0.80678 2.60045,1.54656 3.86527,2.60614c0.5065,0.62732 0.86852,1.39313 1.49317,1.90291c0.27207,0.22204 1.59823,0.68586 1.90134,0.75553c5.19484,1.19396 -2.05763,-3.7765 0.42892,-6.46733c0.52327,-0.56626 1.51665,-0.28987 2.28389,-0.36612c1.30313,-0.12951 2.71049,0.22048 3.99977,0.01614c0.72814,-0.1154 1.07695,-0.43238 1.60685,-0.56182c-0.07732,-0.09481 -0.15563,-0.18826 -0.24027,-0.27291c-0.35745,-0.28558 -0.73964,-0.56001 -1.1407,-0.80992zM468.57449,-62.62469l0.13023,-0.21116c3.29509,-1.02005 6.43075,0.17366 9.02893,2.25444c0.64472,0.64472 2.48078,2.24262 2.16517,3.28544c-0.23756,0.78493 -1.35457,0.94723 -2.11163,1.26253c-2.19705,0.91504 -5.45816,0.91585 -7.6033,0.26732c-0.40721,-0.12311 0.4002,0.75106 0.61415,1.11876c0.42201,0.72528 1.45492,1.37189 1.68151,2.1836c0.41573,1.48927 0.06001,3.14858 -1.43805,3.94039c-2.96301,1.5661 -6.63376,-1.42851 -8.23416,-3.45163c-1.77968,-1.47308 -6.84841,-3.28942 -6.55678,-6.23829c0.09199,-0.93012 0.46338,-1.98279 1.22752,-2.52101c0.91264,-0.64281 4.73285,0.30546 5.74511,0.44038c2.1683,0.289 2.62016,-1.59264 4.5146,-2.15245c0.2731,-0.0807 0.5527,-0.13935 0.83671,-0.17833z" fill="#000000" stroke-width="0.5"/><path d="M474.96968,-59.55221c0.40106,0.24991 0.78609,0.53061 1.14354,0.81619c0.08464,0.08465 0.16355,0.17983 0.24087,0.27464c-0.5299,0.12944 -0.97371,0.47763 -1.70185,0.59304c-1.28928,0.20434 -2.68928,-0.13139 -3.99241,-0.00188c-0.76724,0.07625 -1.69981,-0.27546 -2.22308,0.2908c-2.48655,2.69083 4.75058,7.75655 -0.44426,6.56259c-0.30311,-0.06967 -1.65247,-0.53653 -1.92454,-0.75857c-0.62465,-0.50978 -1.01124,-1.2959 -1.51774,-1.92321c-1.26482,-1.05958 -2.45262,-1.83154 -3.87245,-2.63833c-0.22849,-0.12983 -2.12613,-2.25694 -2.00308,-2.24505c1.91589,0.18504 3.96972,1.06853 5.98672,0.73438c1.71145,-0.28353 2.35969,-1.86479 3.81114,-2.25493c1.58455,-0.42592 3.52317,0.24283 4.91102,0.94436c0,0 1.00525,0.50442 1.58614,-0.394z" fill="#d0d0d0" stroke-width="0.25"/><path d="M551.77949,-81.65334c-1.16553,0.46934 -2.15506,1.08462 -2.79725,1.83164c-0.84761,0.13311 -1.73367,0.21163 -2.73358,0.19618c-3.2925,-1.55684 -3.52358,-4.97237 -0.56119,-7.37437c3.19585,-2.59131 10.17476,-1.4025 13.97843,-0.88904c0.47889,0.06465 1.60596,0.20029 2.68967,0.39647c0.4064,0.28576 0.90177,0.45354 1.43633,0.45354c0.05111,0 0.10186,-0.00153 0.15221,-0.00456c0.15986,0.05762 0.32729,0.09941 0.50039,0.12347c0.00131,0.51581 0.34546,0.69942 0.69447,0.89721c0.03358,0.15483 0.05382,0.31754 0.07074,0.48221c-1.30357,4.27054 -5.83325,0.75448 -8.51156,2.83557c-1.69008,0.09815 -3.44505,0.45827 -4.91867,1.05167zM562.90686,-84.09109c-0.03379,-0.10862 -0.04429,-0.18212 -0.04429,-0.18212c0.23773,-1.00961 -2.39083,-0.98818 -3.52848,-1.13784c-3.09899,-0.40766 -8.00389,-1.28082 -11.02841,-0.2566c-1.17757,0.39878 -3.42924,3.02438 -1.55434,3.59319c2.3682,-0.05263 4.0002,-0.70628 6.28798,-1.19804c3.07715,-0.66144 6.58833,-0.79018 9.86755,-0.81858z" fill="#000000" stroke-width="0.5"/><path d="M562.95687,-84.09097c-3.27922,0.0284 -6.88354,0.18231 -9.96069,0.84375c-2.28778,0.49176 -3.92499,1.13288 -6.29319,1.18551c-1.8749,-0.56881 0.37664,-3.21941 1.55421,-3.61819c3.02452,-1.02422 8.0262,-0.15173 11.12519,0.25593c1.13765,0.14966 3.7679,0.14017 3.53017,1.14978c0,0 0.01051,0.07458 0.0443,0.1832z" fill="#d0d0d0" stroke-width="0.25"/><path d="M539.08897,-81.55415c-1.0154,-0.18018 -0.74527,0.75722 -1.92858,1.22398c-0.47982,0.18927 -0.99996,0.14513 -1.49773,0.14748c-0.04131,0.00019 -0.10617,-0.00164 -0.17431,-0.00457c0.51307,0.13028 1.12007,0.65548 1.60675,0.77513c1.05444,0.25923 2.11848,0.19655 3.19367,0.21186c2.16861,-0.75102 1.21135,-1.13162 -0.43086,-1.67903l-0.33333,-0.11111c0,0 -0.43818,-0.14606 -0.43561,-0.56373zM540.35473,-82.03052c2.79969,0.9761 3.40512,3.00166 0.13428,4.06413c-1.32093,0.0139 -6.41183,0.12275 -6.49821,-2.09612c-0.01682,-0.43191 0.27592,-0.86471 0.6019,-1.14854c0.51826,-0.45125 1.52086,-0.10637 2.1358,-0.29211c0.77434,-0.23389 0.49629,-1.05481 1.49356,-1.34914c0.65738,-0.19402 1.10498,0.0406 1.69781,0.23161c0,0 0.45661,0.1522 0.43487,0.59017z" fill="#000000" stroke-width="0.5"/><path d="M539.11096,-81.59904c-0.00257,0.41767 0.45653,0.58297 0.45653,0.58297l0.33737,0.11958c1.64221,0.54741 2.59404,0.97307 0.42543,1.72409c-1.07519,-0.01531 -2.22198,0.04779 -3.27642,-0.21144c-0.48668,-0.11965 -1.10234,-0.66982 -1.61541,-0.8001c0.06814,0.00293 0.23276,-0.00215 0.27407,-0.00234c0.49777,-0.00235 0.91809,0.04753 1.39791,-0.14174c1.18331,-0.46676 0.98512,-1.45121 2.00052,-1.27103z" fill="#d0d0d0" stroke-width="0.25"/><path d="M485.27971,-65.04554c-0.7042,0.26091 -1.53365,0.52934 -1.86895,1.03473c-0.10348,0.15597 1.71847,2.55588 2.22575,2.32806c0.42704,-0.19178 -0.16285,-2.78448 -0.28499,-3.14737zM486.33296,-65.73521c0.06565,0.09351 0.0933,0.17647 0.0933,0.17647l0.11111,0.33334c0.34913,1.05637 0.98306,3.90629 -0.28499,4.6304c-1.60133,0.91443 -4.48865,-2.47076 -3.99647,-3.89416c0.38987,-1.12753 2.26224,-1.42616 3.14475,-1.96343c0,0 0.53593,-0.32156 0.85749,0.21438c0.11945,0.19908 0.12058,0.36858 0.07481,0.503z" fill="#000000" stroke-width="0.5"/><path d="M485.37429,-64.87464c0.12214,0.36289 0.71562,3.04259 0.28859,3.23437c-0.50728,0.22782 -2.39938,-2.23871 -2.2959,-2.39468c0.3353,-0.50539 1.22726,-0.79605 1.93146,-1.05696z" fill="#d0d0d0" stroke-width="0.25"/><path d="M513.95291,60.64754c-0.88389,-0.88388 0,-1.76777 0,-1.76777l0.22329,-0.08036c0.83026,-2.04021 1.22352,-4.24992 1.66668,-6.40893c-0.02663,-4.93397 0.24392,-9.90973 0.24392,-14.87683c0,-3.06241 -0.51118,-6.59487 0.5894,-9.46424c0,0 0.46424,-1.16059 1.62483,-0.69635c1.1606,0.46424 0.69636,1.62483 0.69636,1.62483c-1.02513,2.41911 -0.4106,5.91303 -0.4106,8.53576c0,5.0554 -0.23382,10.09884 -0.25608,15.12317c-0.46991,2.40321 -0.93565,4.81467 -1.83332,7.09107l-0.77672,0.91965c0,0 -0.88388,0.88388 -1.76776,0z" fill="#000000" stroke-width="0.5"/></g><path d="M527.64548,37.30953c-0.04069,2.94326 -0.78078,6.30765 -3.11245,7.70076c-1.8843,1.12582 -0.00979,4.39004 -0.0304,6.58495c-0.02177,2.31819 0.57721,11.31394 -3.38258,11.75984c-1.88546,0.21232 -0.91555,2.99941 -3.90799,2.1833c-3.87023,-1.05551 0.65734,-7.53995 0.71914,-9.96188c0.19503,-7.64301 -1.0566,-17.57218 0.3483,-23.96573c0.66147,-3.01026 0.80263,-6.2326 2.1963,-8.98158c1.947,-3.8404 4.74111,1.32254 4.74111,3.32419c0.57641,0.01617 1.10403,0.22746 1.51913,0.57015c2.28586,0.39326 0.92113,9.94039 0.90944,10.786z" fill="#d0d0d0" stroke-width="0.5"/><path d="M515.03385,61.63141c2.29025,0.08076 2.74139,1.72142 2.92698,3.41208c0.18322,1.66903 -0.12536,3.07941 -0.88157,4.34147c-0.00591,0.04018 -0.01123,0.07981 -0.01581,0.11883c-0.23753,2.02326 -1.46641,3.81792 -1.67417,5.93011c0,0 -0.1212,1.21201 -1.32074,1.12354l-0.14214,0.49748c-0.06434,0.24629 -0.20191,0.46298 -0.38806,0.6254v0.48634c0,0.69035 -0.55964,1.25 -1.25,1.25c-0.47891,0 -0.89492,-0.26932 -1.10483,-0.66477l-0.08605,-0.15488c-0.22506,0.36506 -0.50915,0.63568 -0.90767,0.6627c-0.0615,0.00417 -0.12146,0.00682 -0.17991,0.00799l-0.46528,0.40713c-0.22046,0.19495 -0.51026,0.31327 -0.82769,0.31327c-0.69036,0 -1.25,-0.55965 -1.25,-1.25c0,-0.17413 0.03561,-0.33995 0.09993,-0.49056l0.29892,-0.7473c-0.1689,-0.81512 -0.10111,-1.73278 -0.11314,-2.33357c-0.03026,-1.5114 -0.31956,-6.43461 1.27472,-7.3283c0.17591,-0.09861 0.3631,-0.14752 0.55782,-0.16335c0.4418,-0.5391 0.8841,-1.29279 1.42894,-1.5454c0.0078,-0.07448 0.01589,-0.14894 0.02422,-0.22338v-0.16814c0,-0.14453 0.02453,-0.28333 0.06965,-0.41246c0.04048,-0.31874 0.08409,-0.63699 0.12834,-0.95467c1.00849,-1.95949 2.5961,-3.04413 3.79752,-2.73955zM513.50703,67.62254c0.17873,-0.14959 0.37265,-0.29866 0.57623,-0.43789c0.13975,-0.76324 0.38139,-2.10604 0.37628,-2.77159c-0.44934,0.44316 -0.73584,1.30531 -0.9212,1.96641v0.93005h-0.15924c-0.00015,0.0123 -0.00028,0.02469 -0.00038,0.03715l0.15648,0.05146c-0.01027,0.07259 -0.01962,0.14745 -0.02817,0.22441z" fill="#d0d0d0" stroke-width="0.5"/><path d="M506.00262,80.70238c-1.25,0 -1.25,-1.25 -1.25,-1.25l0.00765,-0.2809c0.36859,-3.29116 1.11183,-6.98382 2.72354,-9.90198c2.10995,-3.82028 5.14032,-6.85204 7.11035,-10.79527c0.0639,-0.44506 0.38173,-0.76288 0.38173,-0.76288l0.55517,-0.36854c0.13117,-0.3862 0.26236,-0.77239 0.39353,-1.15859c0.97219,-9.13354 -0.3026,-18.50971 0.40315,-27.68486c0,0 0.09587,-1.24632 1.34219,-1.15045c1.24632,0.09587 1.15045,1.34219 1.15045,1.34219c-0.71425,9.28478 0.60397,18.7919 -0.45399,28.02943c-0.15454,0.47095 -0.30908,0.9419 -0.46362,1.41285l-0.95881,1.11318c-0.04115,0.20053 -0.10901,0.33627 -0.10901,0.33627c-1.99737,3.98595 -5.02406,7.0711 -7.17065,10.90957c-1.4585,2.60805 -2.09478,6.00888 -2.41932,8.95516l0.00765,0.00482c0,0 0,1.25 -1.25,1.25z" fill="#000000" stroke-width="0.5"/><path d="M486.58046,432.16211l0.26779,1.19707c-1.54368,3.19148 -2.82429,6.40324 -4.01745,9.63893c0.34903,-1.03791 0.68282,-2.07806 0.99798,-3.12079c0.43057,-1.42458 0.44554,-2.7583 0.55969,-4.01762c-1.39841,5.00824 -3.54446,9.79957 -5.61849,14.61894c-0.89195,2.52157 -1.83173,5.03219 -2.61975,7.59396l-0.86077,1.17013c-0.6555,1.91421 -1.22634,3.85469 -1.66487,5.83569l-1.30867,0.07158c-0.252,0.91604 -0.50021,1.83155 -0.74138,2.7468c-0.09611,0.07648 -0.19247,0.15275 -0.28892,0.22892c-0.024,-0.24356 -0.04047,-0.48809 -0.04821,-0.73374c-0.01337,-0.42414 0.03265,-0.84138 0.11675,-1.25417c-0.27715,0.87734 -0.56616,1.75123 -0.86908,2.62106c-0.37514,0.29951 -0.74606,0.60294 -1.10455,0.91785c-0.05545,0.09479 -0.11303,0.18866 -0.17288,0.28155c-0.21578,0.3349 -0.59889,0.43971 -1.02531,0.48496c-0.15393,0.20387 -0.31565,0.40299 -0.48562,0.59701l-0.8249,-0.46297c-0.00083,0.00022 -0.00167,0.00044 -0.0025,0.00066l-0.00436,-0.0045l-0.10866,-0.06099l-0.3581,0.46269c-0.12396,-0.29635 -0.25524,-0.59034 -0.39075,-0.88298l-0.11777,-0.0661c0.00972,-0.04124 0.01946,-0.08247 0.02922,-0.1237c-0.06288,-0.13387 -0.12651,-0.26749 -0.19059,-0.40098c-0.10098,0.59544 -0.20792,1.19108 -0.32112,1.787l-0.03291,0.05645c-0.28704,-1.00238 -0.51884,-2.01464 -0.61576,-3.05102c-0.01214,-0.12976 0.66888,-4.07887 1.12354,-6.75949c0.35472,-1.02344 0.7334,-2.04221 1.09626,-3.03944c-0.02569,0.40611 -0.05337,0.81206 -0.08312,1.21787c0.06212,-0.47545 0.11468,-0.95071 0.15869,-1.42591c0.48867,-1.34773 0.94316,-2.65373 1.26439,-3.87598c0.25219,-0.95956 0.49963,-1.91792 0.74456,-2.87522c-0.04953,1.43914 0.03674,3.01987 0.09884,4.61553c1.03337,-3.88825 1.91944,-7.8225 2.67232,-11.70469c0.01787,0.31725 0.03575,0.63362 0.05346,0.94916c0.10769,-0.80222 0.17683,-1.61062 0.22613,-2.42106c0.06547,-0.35197 0.12985,-0.7034 0.19315,-1.05422c0.32505,-1.80145 0.47381,-3.54118 0.68272,-5.24829c0.07171,-0.24457 0.14401,-0.48913 0.21695,-0.73367c-0.06319,0.17031 -0.12632,0.34069 -0.18934,0.51116c0.17659,-1.40249 0.40088,-2.78375 0.80464,-4.15999l0.5244,0.5729c-0.21513,0.58727 -0.433,1.17475 -0.65161,1.76282l1.66814,-2.29754c-0.36265,1.67603 -0.70345,3.34656 -1.02303,5.01578c0.62669,-2.0886 1.27382,-4.1719 1.92058,-6.252l0.11144,-0.15349c0.50046,1.47946 0.94943,2.9695 1.19168,4.5043c0.12926,-0.58026 0.25368,-1.16385 0.37282,-1.75125l0.22564,2.41329c-0.11512,0.53696 -0.22647,1.07378 -0.29254,1.60951c-0.00323,0.02618 -0.00647,0.05236 -0.00973,0.07854c-0.03787,0.1282 -0.07558,0.25644 -0.11313,0.3847c-0.00459,0.20713 -0.01049,0.41411 -0.01766,0.62093c-0.03526,0.2595 -0.07165,0.51886 -0.10918,0.77807c0.02893,-0.07463 0.05791,-0.14925 0.08693,-0.22388c-0.0632,1.38534 -0.18237,2.76402 -0.34744,4.13688c0.59686,-1.65461 1.20483,-3.30244 1.84563,-4.94453c-0.82622,2.75493 -1.62648,5.51669 -2.33628,8.29625c-0.34719,2.0299 -0.77778,4.04853 -1.25853,6.05874c-0.06408,0.29288 -0.13217,0.58279 -0.20628,0.86994c1.8123,-4.77947 3.99221,-9.45887 6.3725,-13.89238c-0.13315,0.43245 -0.25372,0.86403 -0.33248,1.29319c-0.58576,3.1921 -1.5947,6.25822 -2.6736,9.3083c-1.24527,2.89359 -2.46458,5.79728 -3.48052,8.76409l-2.14017,2.90934c-0.27948,1.00019 -0.55867,1.99938 -0.83337,2.99793l-0.66617,0.03644c-0.09705,0.31756 -0.19555,0.63469 -0.29559,0.95137c0.06491,-0.31862 0.15253,-0.63459 0.25303,-0.94904l-0.35802,0.01959c-0.07365,-0.137 -0.16286,-0.27082 -0.25932,-0.40314c-0.02745,0.11518 -0.05548,0.23044 -0.08408,0.3458l-0.12598,0.16278c-0.26973,1.54132 -0.62678,3.04226 -1.39926,4.36293c-0.04341,0.03814 -0.08665,0.07644 -0.12969,0.11494l-0.07063,-0.92775c-0.29026,0.55153 -0.62064,1.07968 -0.99787,1.57932c-0.43572,0.04623 -0.91665,0.03027 -1.31052,0.13405l-0.00686,-0.00385l-0.08658,-0.08952l-0.02209,0.02854l-0.74885,-0.42029c-0.02932,-0.06333 -0.05885,-0.12658 -0.08854,-0.1898c0.01946,-0.08221 0.03901,-0.16439 0.05862,-0.24654l-0.23435,-0.24232c-0.00494,0.02929 -0.00989,0.05859 -0.01486,0.08788c-0.03294,-0.06862 -0.06602,-0.13722 -0.09916,-0.20578l-0.47559,-0.49176c0.03451,-0.09179 0.06892,-0.18368 0.10322,-0.27567c-0.27756,-0.57365 -0.55005,-1.14892 -0.79379,-1.73343c0.26468,-1.70947 0.80612,-3.49194 1.41907,-5.26043c0.20072,-1.1834 0.35731,-2.11958 0.39069,-2.37081c0.32697,-2.4613 0.63349,-4.90453 0.94464,-7.33621c-0.07909,-2.86942 -0.30543,-5.75852 -0.46394,-8.69616c-0.03121,-0.57848 -0.06835,-1.14508 -0.10433,-1.70284c-0.9236,4.51397 -1.57421,9.03752 -1.95296,13.78102c-0.02745,0.34375 -0.05411,0.68761 -0.07984,1.03158c-0.07056,2.15312 -0.18,4.29527 -0.3381,6.44278c-0.01905,0.76905 -0.02899,1.53823 -0.02822,2.30739c0.00058,0.57423 0.09357,1.15481 0.18406,1.73389c-0.14776,-0.35823 -0.2844,-0.72004 -0.40448,-1.08717c-0.1673,1.762 -0.37009,3.53258 -0.6137,5.32067c-0.34341,0.3435 -0.70602,0.67747 -0.99628,1.04732l-1.05779,-0.90915c-0.14567,0.92908 -0.30113,1.85827 -0.46789,2.78778c-0.16634,-0.42739 -0.3304,-0.85546 -0.48781,-1.28547c-0.16575,0.29474 -0.3682,0.55469 -0.61404,0.77106c-0.01353,0.04341 -0.02754,0.08676 -0.04204,0.13002c-0.16445,0.49038 -0.73066,0.636 -1.28864,0.78869l-0.99071,1.00426l-0.44995,0.6503c-0.02997,-0.03445 -0.05971,-0.06905 -0.08918,-0.1038l-0.12013,0.12178c-0.05498,-0.1603 -0.11136,-0.32022 -0.16884,-0.47984c-0.34251,-0.44802 -0.63378,-0.92588 -0.83657,-1.45528c-0.00574,-0.01499 -0.01092,-0.08981 -0.0156,-0.21519c-0.03961,0.05358 -0.07815,0.10764 -0.11536,0.16229l-0.8404,-2.36943l-0.28649,0.36273c-0.1934,-2.21357 -0.0697,-4.83651 0.05244,-7.28568l-0.19667,0.33511c-0.06898,1.58763 -0.12892,2.96434 -0.1481,3.39727c-0.15245,-0.81948 -0.24084,-1.71655 -0.28541,-2.65863l-1.01421,1.72809c-0.03889,-0.13129 -0.07948,-0.26229 -0.12149,-0.39304c-0.16237,1.22686 -0.32229,2.45423 -0.48118,3.68199c-0.00507,0.00512 -0.01014,0.01025 -0.01519,0.01538c-0.29384,-1.73001 -0.27046,-3.55897 -0.11359,-5.40222c-0.19324,-0.50806 -0.39006,-1.0155 -0.57398,-1.52516c-0.11169,1.94013 -0.23446,5.62832 -0.34678,6.83635l-0.54742,-0.22308c-0.03169,0.2308 -0.06378,0.4611 -0.09629,0.69085l-0.45324,0.57442c-0.05073,0.01247 -0.10197,0.02446 -0.15341,0.03625c-0.33647,-1.09465 -0.631,-2.19841 -0.80304,-3.32873c-0.00017,-0.00113 0.01456,-0.34346 0.03872,-0.90141l-0.48671,0.73803c-0.08015,1.12848 -0.18034,2.24033 -0.31185,3.36037l-1.17873,-0.69611c0.00599,-0.04948 0.01202,-0.09895 0.01806,-0.14843c-0.08812,0.24242 -0.18555,0.48198 -0.29294,0.7184l-0.19083,-0.26778l-0.21483,0.32577c-0.00034,0.28089 -0.00826,0.56067 -0.02587,0.83904c-0.05687,-0.18553 -0.10993,-0.37203 -0.15835,-0.5597l-0.07721,0.11708c-0.26472,-0.6207 -0.57691,-1.22647 -0.88323,-1.83409c-0.2894,0.77414 -0.58983,1.54536 -0.87226,2.32135c-0.33954,-0.75403 -0.66454,-1.51374 -0.95596,-2.28658c0.014,-0.14383 0.02746,-0.28761 0.0404,-0.43139l-0.12639,0.20027c-0.05241,-0.14284 -0.10362,-0.28615 -0.1535,-0.42998c-0.20095,-0.57941 -0.3677,-1.17687 -0.50742,-1.78774l-0.31177,0.82697l-0.30183,-0.90549c-0.05827,0.27481 -0.11655,0.54962 -0.17482,0.82443c-0.05055,-0.15321 -0.1011,-0.30642 -0.15143,-0.45968l-0.83362,1.03927c-0.04086,-0.5136 -0.07799,-1.02808 -0.11169,-1.54327c-0.42136,0.90806 -0.9275,1.78706 -1.38356,2.68323c-0.09115,-0.09031 -0.18234,-0.1806 -0.27339,-0.27098c-0.10391,0.14862 -0.21743,0.29337 -0.33499,0.4365l-0.38827,-1.1648c-0.01569,-0.01614 -0.03134,-0.03229 -0.04699,-0.04846l-0.24979,0.32721c-0.08136,-0.27001 -0.16652,-0.53912 -0.25414,-0.80765c-0.08038,0.07945 -0.16494,0.15716 -0.25389,0.23302l-0.0827,-0.66484c-0.18854,-0.2175 -0.37113,-0.43922 -0.54585,-0.66657c0.06454,-0.30898 0.12907,-0.61795 0.19361,-0.92694c-0.087,-0.25392 -0.17322,-0.50802 -0.25752,-0.76258c-0.1751,-0.07103 -0.31475,-0.18672 -0.39905,-0.37218c-0.28566,-0.62845 -0.33468,-1.30818 -0.29408,-2.0073c-0.01921,-0.08094 -0.03791,-0.16199 -0.05604,-0.24318l-0.30024,0.72591c-0.30779,-0.4436 -0.63969,-0.87397 -0.97812,-1.30077c-0.13632,-0.68475 -0.2391,-1.38216 -0.33094,-2.08278l-0.04057,0.00812c0,0.3 0,0.6 0,0.9l-0.18613,0.47683c-0.07701,-0.09634 -0.15386,-0.19276 -0.23035,-0.28939c-0.0277,0.07819 -0.05563,0.15631 -0.08377,0.23439c-0.00001,-0.11577 -0.00002,-0.22941 -0.00002,-0.34051c-0.09814,-0.12466 -0.19556,-0.24971 -0.29182,-0.3754c-0.0189,-0.14535 -0.03751,-0.2908 -0.05582,-0.43634l-0.23631,0.04726c-0.35654,-0.48559 -0.68972,-0.98399 -0.97534,-1.50847c0.00994,0.09936 0.01985,0.19869 0.02972,0.29801l-0.26218,1.126c-0.5315,-0.45182 -1.166,-0.83997 -1.63567,-1.32999c-0.19136,0.15546 -0.39142,0.30707 -0.57053,0.46795c0.00242,-0.44025 0.00717,-0.88259 0.01339,-1.32655c-0.00522,-0.0145 -0.01027,-0.0291 -0.01517,-0.0438c-0.1175,-0.35251 -0.2059,-0.70974 -0.2706,-1.07082c0.06187,0.84643 0.11832,1.6935 0.16484,2.54166c-0.0472,0.04608 -0.0923,0.09309 -0.13465,0.14132l-0.25959,0.02693c0,-1.88085 0,-3.76171 0,-5.64257c0.02635,0.32542 0.05267,0.65085 0.07868,0.97633c0.01139,-1.72706 0.32654,-3.50342 0.40417,-5.24124c0.0411,0.33209 0.084,0.66403 0.12891,0.9958c-0.00748,-1.2025 -0.03766,-2.39718 -0.10707,-3.57437c-0.00848,-0.14384 -0.01792,-0.28764 -0.02826,-0.43139c-0.06252,-3.43738 -0.21439,-7.08808 -0.0103,-10.63243c0.03112,0.01405 0.062,0.02831 0.09257,0.0428c-0.00959,-0.34574 -0.01801,-0.69185 -0.02527,-1.0384c0.03241,-0.41519 0.07034,-0.82847 0.11454,-1.23934l0.15479,0.28393c-0.02708,-0.43253 -0.04091,-0.85443 -0.03726,-1.25811c0.03961,-0.29505 0.08282,-0.58861 0.12991,-0.88047l0.79176,-0.00243c-0.01786,-0.22786 -0.03563,-0.45567 -0.0533,-0.68342l1.09843,-0.64799c0.12481,0.17163 0.24421,0.34713 0.35731,0.52715l0.26002,-0.89132l0.51725,-0.30514c0.16362,0.09084 0.35017,0.16208 0.54377,0.22728c-0.00426,-0.19936 -0.00912,-0.39859 -0.01466,-0.59768l0.1352,0.29061c0.05998,-1.03929 0.1773,-2.07148 0.39727,-2.98979l1.25867,3.04381l0.23186,0.19558c-0.01365,0.08899 -0.02717,0.178 -0.04056,0.26704l0.10873,0.26295c0.04467,-0.12045 0.08839,-0.24113 0.13091,-0.36206l0.57454,0.48464l0.66898,1.15558l0.13842,-0.45047c0.00005,0.23084 0.00054,0.46154 0.00146,0.6921l0.81872,1.41424c-0.04055,-0.75479 -0.08336,-1.55344 -0.12316,-2.30694c0.17394,0.36198 0.35115,0.72263 0.52933,1.08288c0.01042,0.47974 0.02255,0.95918 0.03729,1.43806c0.05804,-0.19315 0.14678,-0.4825 0.25817,-0.84192c0.02713,0.05472 0.05427,0.10944 0.08138,0.16417c-0.05628,0.54575 -0.09525,1.0922 -0.10213,1.63989l0.88619,1.5308c-0.01488,-0.54071 -0.02505,-1.08169 -0.0299,-1.62295c0.0784,0.16539 0.156,0.33112 0.23257,0.49726c-0.01492,-0.61649 -0.02782,-1.23393 -0.03884,-1.85255c-0.05797,-0.24285 -0.11948,-0.48462 -0.18489,-0.7251c0.00813,-0.45052 0.02047,-0.90127 0.03737,-1.35227c0.04199,0.08397 0.08211,0.16858 0.12045,0.25379c-0.00664,-0.55577 -0.01188,-1.11265 -0.01579,-1.6708c0.58302,-1.83481 1.22082,-3.80979 1.60022,-4.91096c0.13991,0.26825 0.27148,0.54597 0.40004,0.82677c-0.00331,-0.58979 -0.00585,-1.17938 -0.00726,-1.76869c0.05924,-0.07006 0.11977,-0.14091 0.18153,-0.21227c0.13899,0.33842 0.25877,0.7017 0.36213,1.08134c0.10633,-0.26046 0.26395,-0.49772 0.44986,-0.72219c0.3227,0.33431 0.65372,0.66366 0.97988,0.9959c0.13558,-0.10674 0.3099,-0.16279 0.53174,-0.15452c0.66835,0.0249 0.86304,0.60083 0.86332,1.37208l1.6336,-1.65753c0.00351,0.95409 0.00952,1.90881 0.01654,2.86394c0.27767,-0.2788 0.56669,-0.52331 0.86593,-0.7217c0.15567,0.97352 0.24644,1.96163 0.33786,2.94934l0.10816,0.09537c-0.02216,0.12117 -0.04396,0.2423 -0.0654,0.36337c0.00169,0.01794 0.00339,0.03587 0.00509,0.05381c0.23913,0.20979 0.45625,0.45983 0.65371,0.74203c0.01267,0.202 0.02495,0.40411 0.03686,0.60634c0.05238,-0.09916 0.10809,-0.19656 0.16728,-0.29208c0.15747,0.26065 0.30111,0.54282 0.43246,0.84141c0.00437,0.10325 -0.00113,0.19624 -0.01921,0.26639c-0.0458,0.17767 -0.10118,0.35195 -0.16381,0.52367l0.32694,-0.44427c0.35617,0.90417 0.61256,1.93146 0.80613,2.95609c-0.00826,2.45819 -0.04933,4.89445 -0.14607,7.32021c0.08408,-0.33414 0.16926,-0.66807 0.25558,-1.00178c-0.10123,1.26141 -0.23356,2.51681 -0.3915,3.76757c-0.08974,1.5244 -0.20505,3.04634 -0.35163,4.56872c0.01623,0.5548 0.03054,1.10994 0.04312,1.66551c0.32932,-3.36759 0.75516,-6.69535 1.27645,-10.02965c0.01414,-0.31531 0.02578,-0.6285 0.03678,-0.94007c0.01648,0.13339 0.0326,0.26693 0.04838,0.40063c0.25246,-1.584 0.52645,-3.17004 0.82183,-4.76309c0.12876,-0.45398 0.28615,-1.03029 0.47139,-1.67958l0.29323,1.47073c-0.5075,2.1875 -0.98016,4.39431 -1.41076,6.61444c0.39198,4.07518 0.47595,8.27287 0.33611,12.46632c0.09936,-0.26475 0.18857,-0.53109 0.25978,-0.80009c0.21866,-0.82599 0.40475,-1.65995 0.58388,-2.49562c-0.27535,2.15564 -0.60929,4.30451 -0.99012,6.45382c-0.0707,1.19746 -0.158,2.39196 -0.25993,3.58053c0.12484,-0.60925 0.24993,-1.21846 0.37474,-1.82774c-0.09949,0.6698 -0.19322,1.33935 -0.28087,2.00842c-0.02623,0.20027 -0.05351,0.57639 -0.08147,1.06207c-0.0333,-0.09227 -0.06617,-0.18462 -0.09853,-0.27704c-0.21575,2.33036 -0.48597,4.63467 -0.79567,6.89031l-0.62142,-0.25323c0.42348,-2.28609 0.88189,-4.56369 1.34705,-6.83979c-0.08992,-0.26389 -0.17503,-0.5286 -0.25306,-0.79453c-0.19519,0.97947 -0.39876,1.95984 -0.6096,2.94181l-1.33022,2.01712c0.00919,-0.21226 0.01975,-0.45573 0.03137,-0.72348c-0.02143,0.06015 -0.04494,0.1199 -0.07068,0.17921c-0.07493,0.17264 -0.21016,0.25471 -0.38163,0.28238c-0.02038,0.33517 -0.04222,0.66826 -0.06577,0.99993l-1.28413,1.94723c-0.05741,0.19117 -0.12009,0.38075 -0.18838,0.5686c0.01418,-0.11604 0.0285,-0.23206 0.04295,-0.34807l-0.52672,0.79869l-0.22628,-0.31753c0.00759,0.21499 0.01171,0.42946 0.01145,0.6433l-0.18422,0.27934c-0.07887,-0.3057 -0.14544,-0.61451 -0.19619,-0.92731c-0.03338,-0.20576 -0.06142,-0.41647 -0.08447,-0.63161l-0.32689,-0.45871c0.0421,-0.34298 0.08368,-0.68403 0.12449,-1.02352c-0.15201,0.44328 -0.31292,0.88418 -0.47739,1.32414c-0.31044,-0.61579 -0.61484,-1.23347 -0.85767,-1.87051l-0.93015,1.4739c0.04847,-0.53834 0.08984,-1.07671 0.12598,-1.61809c-0.26646,-0.21569 -0.55218,-0.4195 -0.82611,-0.63058l-0.08717,0.23121c-0.02748,-0.12014 -0.05391,-0.24081 -0.07936,-0.36196c-0.13984,-0.11219 -0.27472,-0.22743 -0.40025,-0.34846c-0.04467,0.21064 -0.08933,0.42126 -0.134,0.6319l-0.06563,-0.19688c-0.07836,0.23311 -0.12691,0.3775 -0.13697,0.40748l-0.12365,0.15415c-0.17219,-0.52432 -0.34188,-1.04922 -0.50113,-1.57653c-0.13006,0.36368 -0.28074,0.72028 -0.44418,1.07252c-0.0312,-0.47699 -0.05947,-0.9546 -0.08505,-1.43271l-0.90368,1.18381c-0.02337,0.52963 -0.07914,1.05719 -0.17754,1.58191c-0.0742,0.39569 -0.25846,0.74712 -0.49068,1.07923c-0.24311,-0.24133 -0.48526,-0.48334 -0.72326,-0.7283l-0.02553,-0.07658l-0.02146,0.02812c-0.16169,-0.16708 -0.32136,-0.3356 -0.478,-0.50628c-0.0086,0.00864 -0.01724,0.01725 -0.02594,0.02584c-0.00919,-0.02815 -0.01839,-0.05629 -0.02763,-0.08443c-0.1045,-0.11471 -0.20759,-0.23044 -0.30896,-0.34738l-0.11109,-0.89312c-0.08045,-0.23344 -0.16114,-0.46684 -0.24115,-0.70038c0.03218,-0.15407 0.06437,-0.30815 0.09655,-0.46222l-0.02715,-0.21827c-0.11789,-0.01613 -0.22805,-0.04199 -0.32692,-0.08209c-0.26038,-0.78619 -0.50253,-1.57672 -0.69314,-2.37948c0.00912,-0.15699 0.02275,-0.31497 0.03924,-0.47356l-0.09528,0.23038c-0.05551,-0.24852 -0.1058,-0.49829 -0.14987,-0.74952c-0.20258,-1.15471 -0.26432,-2.48188 -0.24352,-3.87227c-0.21803,0.12293 -0.43126,0.24867 -0.60611,0.39684l-0.14798,0.00498c-0.00141,0.48955 -0.00239,0.97967 -0.00239,1.47046l-0.45943,0.09188c-0.00878,-0.06694 -0.01745,-0.13392 -0.02605,-0.20092c-0.00482,0.01573 -0.00966,0.03145 -0.01452,0.04717c0,0.05395 0,0.10791 0,0.16186l-0.05399,0.0108c-0.11413,0.36066 -0.23589,0.7193 -0.36249,1.07665c-0.02798,-0.03535 -0.05591,-0.07072 -0.08379,-0.10613c0,-0.31779 0.00001,-0.61475 0.00005,-0.88128l-0.34769,0.06954c-0.07063,-0.56138 -0.13694,-1.12408 -0.19919,-1.68791l-0.45445,0.01529c-0.58998,-5.0289 -0.90742,-10.08869 -1.45834,-15.12117c0.06718,3.93111 0.23767,7.84977 0.6825,11.79035c0.16915,1.49847 0.8649,2.98166 0.65964,4.47562c-0.03922,0.28546 -0.23113,0.49053 -0.4752,0.66815c-0.06428,-0.06046 -0.13082,-0.11951 -0.19906,-0.17753l-0.08476,0.36399c-0.24518,0.15017 -0.50317,0.29361 -0.69761,0.4705l-0.95576,-0.0332l-0.46985,-1.03368c0,-0.20937 0.00063,-0.41927 0.00178,-0.62966c-0.03681,0.03307 -0.07274,0.06653 -0.10753,0.10049c0.02823,0.51469 0.05282,1.02978 0.07275,1.54538l-0.46699,-0.01622c0,-0.45364 0,-0.90727 0,-1.36091l-1.21804,0.12636c-0.13013,0.28391 -0.27796,0.56584 -0.44561,0.84591c-0.08936,-0.25312 -0.15949,-0.51283 -0.21532,-0.77734l-0.09616,0.00997c-0.42446,-4.22119 -0.79826,-8.43139 -1.13353,-12.66063c-0.14403,-1.81687 -0.75278,-8.22877 -0.39989,-10.13894c0.17885,-0.00202 0.3512,-0.01295 0.50855,-0.04442l0.00585,0.00444c0.00014,-0.10906 0.00029,-0.21813 0.00043,-0.32722l1.83141,-0.99842c0.05502,0.12231 0.10856,0.24515 0.16035,0.3686c-0.01661,-0.1433 -0.03256,-0.28662 -0.04781,-0.42995l0.22699,-0.12374c0.1277,0.08281 0.26792,0.15568 0.41446,0.22352c0.01094,-0.61684 0.05901,-1.22817 0.16388,-1.83106c-0.04113,0.61944 -0.07609,1.23859 -0.10577,1.85757c0.2663,0.11977 0.55041,0.22539 0.81633,0.34546c0.01917,-0.33289 0.04147,-0.66484 0.0673,-0.99559c-0.01041,-0.49685 -0.01842,-0.99459 -0.02398,-1.49344l0.13852,0.2541c0.0351,-0.32635 0.07416,-0.65116 0.11753,-0.97419c0.00275,-0.30487 0.01549,-0.59936 0.04002,-0.8802l0.08989,-0.00027c0.10091,-0.6255 0.21965,-1.24324 0.35892,-1.85123c0.14387,-0.24138 0.29214,-0.48092 0.44227,-0.71969c0.37029,0.39441 0.72029,0.80336 1.0357,1.23708l0.61733,-0.36418l0.52438,-1.79754l0.52197,1.12201c-0.02341,-0.8404 -0.05925,-1.67827 -0.11644,-2.51214l0.30041,-1.02981l0.3485,0.84277c0.11449,-0.47794 0.25679,-0.92505 0.43329,-1.32625c0.6051,0.62295 1.24974,1.21793 1.88232,1.82144c-0.38268,0.63353 -0.7063,1.97463 -0.81095,2.6523c-0.00473,0.03063 -0.00944,0.06126 -0.01414,0.09189l0.19909,0.16793c0.03735,-0.10621 0.07378,-0.21263 0.10915,-0.31928l0.4654,0.80392l0.80739,0.68106c0,0.00802 0,0.01604 0,0.02406l0.31248,-1.01692c0.12571,0.27312 0.25421,0.5451 0.38455,0.81633c-0.05353,-1.01324 -0.10165,-1.94485 -0.13162,-2.57834c0.21044,0.22674 0.41461,0.45792 0.61016,0.69519c0.01504,0.98847 0.02931,1.97789 0.05079,2.96603c0.09832,0.19878 0.19694,0.39745 0.29547,0.59614c0.04881,-0.15747 0.10196,-0.3284 0.15878,-0.51058c-0.02805,0.22482 -0.05419,0.44973 -0.0774,0.67475c0.25489,0.51448 0.50849,1.02949 0.75417,1.54773c-0.00621,-0.69297 -0.00368,-1.38641 0.00884,-2.0804c-0.10846,-0.39875 -0.22761,-0.79395 -0.35897,-1.18467c0.05808,-0.18464 0.118,-0.37479 0.17933,-0.56903c0.03935,0.06816 0.07784,0.13693 0.11544,0.20633c0.03501,0.06464 0.06886,0.12967 0.10157,0.19509c0.01596,-0.42561 0.03598,-0.85146 0.06036,-1.27754c0.01473,-0.04639 0.02949,-0.09288 0.0443,-0.13947c-0.00121,-0.17251 -0.00228,-0.34515 -0.00324,-0.51792c0.0238,-0.36988 0.03731,-0.90182 0.06864,-1.52682l1.31644,-3.26344c0.07536,0.12947 0.14793,0.26215 0.21838,0.39723c0.17295,-0.50194 0.29219,-0.82233 0.32809,-0.86511c0.02139,-0.02549 0.04295,-0.0511 0.06468,-0.07681c-0.0005,-0.20637 -0.00085,-0.41269 -0.00105,-0.61898c0.06428,0.13092 0.12507,0.26668 0.18258,0.40671c0.07528,-0.08697 0.15241,-0.17472 0.23126,-0.26274c0.18843,0.21037 0.38302,0.41706 0.58074,0.62189c0.47973,-0.57921 1.14783,-1.07322 1.60912,-1.66078l2.18045,0.45697c0.07396,0.18849 0.14608,0.37765 0.21599,0.5676c0.0005,0.39726 0.00152,0.79465 0.00299,1.19214l0.30334,-0.30778c0.03157,0.09758 0.06243,0.19541 0.09256,0.2935c0.21697,0.70646 0.36997,1.42739 0.48656,2.15652c0.2703,-0.17921 0.54895,-0.32079 0.83514,-0.41605c0.06481,1.19553 0.03938,2.26489 0.0861,2.89359c0.04269,0.57441 0.08202,1.1499 0.11818,1.72638c0.07052,0.10077 0.13853,0.20565 0.20414,0.31426c0.0053,-0.00855 0.01062,-0.01708 0.01598,-0.02559c0.17449,-0.2776 0.39667,0.39976 0.41648,0.86701c0.04971,0.113 0.09765,0.22836 0.14391,0.34579l0.79416,-1.07916c0.00004,0.00569 0.00008,0.01135 0.00013,0.01699c0.01115,1.34708 0.01632,2.68589 0.01184,4.01826c0.1427,0.75538 0.25126,1.50932 0.34047,2.21141c-0.02961,0.65352 -0.05313,1.14459 -0.06263,1.37007c-0.03859,0.91577 -0.09538,1.82792 -0.16833,2.73695c0.16149,-0.62432 0.32695,-1.24787 0.49667,-1.87067c0.00696,0.0546 0.01392,0.10785 0.02087,0.15971c0.03313,0.24712 0.06501,0.4948 0.09567,0.74304c0.01821,-0.51592 0.03465,-1.02737 0.05774,-1.53659c0.22564,-0.81334 0.45869,-1.62539 0.69975,-2.43617c0.03474,-0.11684 0.07232,-0.24725 0.11272,-0.3897c0.12745,-0.68734 0.25888,-1.37599 0.39429,-2.06634l0.07711,0.38675c0.07743,-0.27139 0.15972,-0.55553 0.24682,-0.84881l0.62174,-0.70646c0.14823,2.19089 0.04369,4.36528 0.04863,5.62503c0.01749,4.46222 -0.29954,8.83787 -0.85495,13.18602c0.16357,-0.7631 0.32134,-1.52762 0.49278,-2.28879c0.21506,-0.95483 0.42472,-1.90977 0.63216,-2.86438c-0.07127,-2.47548 -0.06023,-4.94271 0.25785,-7.25418c0.06277,-0.4561 0.83233,-3.27602 1.46279,-5.55272c0.02722,-0.17046 0.05472,-0.34098 0.08252,-0.51155c0.01251,0.02641 0.02495,0.05285 0.03731,0.07932c0.06693,-0.24117 0.13151,-0.47351 0.19264,-0.69318l1.34351,-1.58211c0.12481,-0.28223 0.36633,-0.63698 0.56572,-0.75708c0.0503,-0.1642 0.1011,-0.32831 0.15241,-0.49233l0.36703,-0.50171l0.07289,-0.06575c0.04294,0.0971 0.08698,0.19642 0.13195,0.29779l1.51202,-1.78055l0.89601,-0.80815c0.26931,0.53568 0.56295,1.06214 0.86158,1.58672c0.08989,0.39585 0.15519,0.81014 0.20072,1.23221l0.21866,-0.22467c0.37378,1.01374 0.74007,2.02966 1.04967,3.06206c0.07686,-0.29005 0.15493,-0.58029 0.23423,-0.87074c0.2296,0.52196 0.42825,1.05563 0.57911,1.60741c0.41719,1.52587 0.4687,3.56094 0.36226,5.6861c0.07775,1.62135 0.09994,3.4817 0.10764,4.93732c-0.04344,1.50995 -0.1162,3.01489 -0.21789,4.51531c0.07128,-0.48756 0.14894,-0.97261 0.23264,-1.45542c0.01663,2.82664 -0.00996,5.60103 -0.10029,8.35743c-0.16046,2.14454 -0.28485,4.29315 -0.3381,6.44278c-0.07237,0.98305 -0.15494,1.96724 -0.24864,2.95411c-0.10563,-0.32296 -0.19844,-0.65004 -0.27473,-0.98242c-0.24416,-1.06376 0.08352,-7.35227 0.20245,-9.6222c-0.46469,3.96373 -1.13114,7.89969 -1.99266,11.81679c-0.18172,1.41584 -0.38091,2.83115 -0.60284,4.24668l-0.33544,-0.28831c-0.10118,0.39819 -0.20437,0.79623 -0.30955,1.1941l-0.06333,0.0642c-0.0715,0.18752 -0.15355,0.36548 -0.24737,0.53231c-0.02509,-0.06854 -0.05001,-0.13714 -0.07475,-0.20579l-0.38602,0.3913c-0.04222,0.19663 -0.09293,0.39188 -0.15327,0.58555c-0.15094,0.13286 -0.31825,0.24928 -0.50345,0.34723l-0.06404,-0.20216l-0.7632,0.77363c-0.12552,0.03435 -0.25064,0.06906 -0.37067,0.10813l-0.62005,0.89613l-0.53913,0.54649c-0.09959,-0.11745 -0.19615,-0.23666 -0.28896,-0.35806c-0.19367,-0.53782 -0.39992,-1.07221 -0.60836,-1.60601l-0.1848,-0.0733c0.00558,-0.03048 0.01116,-0.06095 0.01672,-0.09143c-0.02562,0.03325 -0.05089,0.06667 -0.07573,0.10027c-0.00521,-0.13964 -0.0098,-0.34199 -0.01383,-0.59425c-0.25941,-0.66424 -0.51557,-1.32938 -0.7484,-2.00087c-0.01173,0.06246 -0.02343,0.12492 -0.0351,0.18737l-0.15843,0.2006l-0.19862,-0.55999c0.04534,-0.20049 0.0908,-0.40105 0.13633,-0.60168c-0.18561,-0.59275 -0.34748,-1.19198 -0.47212,-1.80135c-0.01538,-0.07515 -0.03017,-0.15102 -0.04441,-0.22755c-0.00405,0.09141 -0.00628,0.14074 -0.00639,0.1411c-0.29395,0.92787 -1.19921,1.51435 -1.89589,2.21731c-0.00255,0.01975 -0.00511,0.0395 -0.00766,0.05925c-0.00253,-0.01461 -0.00504,-0.02923 -0.00753,-0.04386c-0.07707,0.0783 -0.15148,0.15807 -0.22212,0.23996l-0.81223,-0.33098c-0.01867,0.20087 -0.03707,0.33317 -0.05507,0.37745c-0.16218,0.39898 -0.58146,0.55157 -1.04188,0.66474l-0.11831,0.14994c-0.01175,-0.03789 -0.02345,-0.07578 -0.0351,-0.11369c-0.31534,0.07227 -0.63858,0.13696 -0.90317,0.25786l-0.6597,-0.3896c-0.10703,0.91152 -0.2348,1.82846 -0.38941,2.7642l-0.50225,0.63655c-0.35892,-0.8696 -0.72026,-1.7386 -0.99347,-2.62986c-0.04467,0.70627 -0.1517,1.40343 -0.35562,2.08643c-0.07837,0.26247 -0.20166,0.50203 -0.35269,0.72744c-0.42592,-0.92372 -0.86531,-1.84218 -1.28275,-2.76922c-0.12596,0.34608 -0.24834,0.69311 -0.36456,1.04177l-0.71814,-2.15444c0.04673,-0.39247 0.08873,-0.78339 0.12674,-1.17391c-0.029,-0.07691 -0.05767,-0.15395 -0.08598,-0.23112l-0.33314,0.52789l-0.63954,-1.91864l-0.2403,0.63737c-0.07831,-0.23959 -0.15735,-0.479 -0.23636,-0.71843c-0.1576,0.74324 -0.31521,1.48647 -0.47281,2.22971l-0.32394,0.44012c-0.07022,-0.69486 -0.13272,-1.39174 -0.1883,-2.09024l-1.17192,1.46103c-0.10755,-0.10719 -0.21542,-0.21415 -0.32333,-0.32107c-0.13671,0.26862 -0.2689,0.53879 -0.39297,0.81175l-0.21541,-0.64623c-0.31826,0.38747 -0.66613,0.76301 -0.93326,1.17104l-1.25179,-2.22323c0.12114,-0.57997 0.24228,-1.15993 0.36342,-1.73989c-0.2994,-0.38959 -0.57564,-0.79567 -0.81888,-1.22524c-0.6422,-1.13412 -1.01653,-2.37561 -1.27257,-3.66179c-0.18489,-0.23316 -0.37172,-0.46524 -0.55764,-0.69783l-0.31394,0.80428c-0.00009,-0.29484 -0.00015,-0.58313 -0.00017,-0.85928c-0.04685,0.13 -0.09425,0.25986 -0.14208,0.38961c-0.05187,-0.36786 -0.10177,-0.73639 -0.14976,-1.10552c-0.09875,-0.12894 -0.19629,-0.25854 -0.29213,-0.38908l-0.91578,0.18315c-0.03039,-0.03039 -0.0614,-0.06041 -0.09296,-0.09009c-0.08927,0.06496 -0.18552,0.12626 -0.28382,0.18647l-0.62739,2.69446l-1.02598,-2.25716l-0.50286,-0.01747c0.00511,0.13204 0.00991,0.26412 0.01439,0.39623l-0.5186,1.19567c-0.45736,-0.4377 -0.91209,-0.87726 -1.33826,-1.33708c-0.00226,-0.00426 -0.00452,-0.00853 -0.00677,-0.0128c-0.11066,-0.20983 -0.20337,-0.42584 -0.28141,-0.64688c-0.03967,0.06626 -0.08044,0.13242 -0.12235,0.19847c-0.41575,-0.48831 -0.7923,-1.00441 -1.10149,-1.56829c-0.85379,-1.55706 -0.75364,-3.47174 -1.05703,-5.22141c-0.82457,-4.75527 -1.11612,-9.56046 -1.50774,-14.36296c0.00507,-0.24327 0.01063,-0.48652 0.01672,-0.72978l0.65506,-1.86318c0.38459,-0.06056 0.84665,-0.01499 1.27194,-0.01979c0.00279,-0.01508 0.00564,-0.0299 0.00855,-0.04442c0.24987,-1.24775 0.69759,-2.44062 1.17888,-3.62417c0.39695,0.76386 0.80785,1.52275 1.15881,2.30298l0.11254,-0.06135c-0.16395,-1.54089 -0.24626,-3.08429 -0.16978,-4.63324l0.62986,0.5998l0.45468,0.83403c-0.04062,0.48959 -0.07695,0.97895 -0.10943,1.46812c0.06221,-0.35764 0.14442,-0.71231 0.25072,-1.0634c0.00939,-0.03103 0.01897,-0.06198 0.02872,-0.09286l0.47444,0.87026c-0.00594,-0.53179 -0.0091,-1.06482 -0.00945,-1.59936l0.30551,-0.00093c0.03737,-0.42789 0.10214,-0.82409 0.20078,-1.17711c0.05254,-0.18802 0.11214,-0.3732 0.17788,-0.55591c0.02326,-0.03954 0.04665,-0.07904 0.07016,-0.11848c0.01308,-0.05708 0.02634,-0.11408 0.03978,-0.17099c0.0897,-0.22453 0.18814,-0.44554 0.29351,-0.66377c0.03651,0.03823 0.07284,0.07658 0.10898,0.11507c0.50475,-0.80277 1.03051,-1.59675 1.48063,-2.4224l0.69678,1.49777l0.40553,-1.39013c-0.00585,-0.0852 -0.01191,-0.17036 -0.01821,-0.25547c-0.04407,-0.59546 -0.0889,-1.21247 -0.13476,-1.84272c0.00218,-0.00406 0.00437,-0.00813 0.00655,-0.01219l0.44683,1.08057l0.29294,-1.00419c0.15925,0.17619 0.32256,0.34951 0.48885,0.52071c0.12962,-0.29463 0.27769,-0.5645 0.44674,-0.80367c0.63506,-0.89847 1.50996,-1.99703 2.48741,-2.67372c0.20737,0.04512 0.4214,0.10235 0.64234,0.17239c0.09607,1.41602 0.14922,2.84562 0.18427,4.28184c0.07561,-0.06477 0.15896,-0.11831 0.25039,-0.1574c0.34718,-0.14846 0.80889,0.4055 0.81862,0.78296c0.02839,1.10175 -0.09133,2.19834 -0.23879,3.29421c0.08087,0.12558 0.15892,0.25317 0.23385,0.38296c0.08988,-0.28469 0.18279,-0.5782 0.27738,-0.87611c0.01198,-0.20948 0.02503,-0.41902 0.03916,-0.62862c0.00064,-0.00948 0.00127,-0.01907 0.00189,-0.02877c-0.00248,-0.44722 -0.00414,-0.89529 -0.005,-1.34428l0.07364,-0.18255c0.06175,-1.23185 0.19271,-2.82522 0.60807,-4.25197c0.26746,0.29298 0.49872,0.62832 0.70837,0.98852l0.53159,-1.31781c0.02673,0.05059 0.05291,0.10198 0.07852,0.15415c-0.00011,-0.11282 -0.00018,-0.22564 -0.00019,-0.33844c0.13365,0.1634 0.2721,0.32394 0.41403,0.4824c0.98431,-1.09882 2.23882,-2.24157 3.56383,-2.48781c0.28149,0.63072 0.55476,1.26442 0.80648,1.9059l0.21566,0.04519c0,0.17411 0.00011,0.34825 0.00033,0.52241c0.10774,0.29275 0.21026,0.58739 0.30633,0.88435l0.39302,-0.39878c0.27871,0.38693 0.59077,0.75688 0.91049,1.12294c0.05322,0.44313 0.0877,0.88445 0.11076,1.3098c0.29431,-0.09796 0.59659,-0.14693 0.90596,-0.13743c0.34958,0.42447 0.67354,0.86198 0.9339,1.33186c0.04586,1.53991 -0.06649,2.9794 -0.06092,3.84785l0.57,-0.77456c-0.00506,2.11185 -0.13498,5.19841 -0.21757,7.02122c0.10823,0.85174 0.18799,1.62719 0.26571,2.23635c0.0576,-0.21137 0.11569,-0.42265 0.17428,-0.63384c0.08789,-1.93809 0.27224,-3.84373 1.01792,-5.83939l0.18885,0.94718c0.00791,-0.04032 0.01583,-0.08065 0.02377,-0.12099l0.30016,-0.34106c0.16186,-0.54501 0.34031,-1.1216 0.53501,-1.70666c0.03564,0.33166 0.06412,0.66613 0.08673,1.0002l1.20777,-1.37234c0.32635,0.56212 0.63836,1.12985 0.91401,1.71179c0.0231,-0.14175 0.04639,-0.28355 0.06989,-0.42539l0.16005,-0.18848c0.18257,-0.65609 0.33429,-1.1991 0.42523,-1.52626l2.00343,-1.80698l0.06356,-0.08688c0.00311,0.00703 0.00622,0.01407 0.00934,0.02113l1.64397,-1.48276l0.81854,-0.96391c0.02558,0.05201 0.05142,0.10393 0.07747,0.15575l0.19374,-0.17474c0.0947,0.15724 0.18079,0.32399 0.25893,0.49882c0.09868,0.28107 0.19959,0.56149 0.30169,0.84157c0.03909,0.13761 0.07476,0.27814 0.10721,0.42107c0.04435,0.0779 0.0888,0.15575 0.1333,0.23359c0.0953,0.258 0.19094,0.51591 0.28608,0.77395l0.09823,-0.10093c0.42692,0.75208 0.84113,1.50897 1.18567,2.29225c0.09814,-0.35944 0.19816,-0.7192 0.30008,-1.07934l0.68782,-0.65418c0.0224,0.05545 0.0438,0.11145 0.06415,0.16803c0.05873,0.1633 0.04522,10.02169 0.04511,10.47277c-0.00026,1.11065 -0.01636,2.21844 -0.04815,3.32355c0.00496,0.93739 0.00391,1.70694 0.00781,2.13671c0.0028,0.30838 0.00512,0.61608 0.00693,0.92318c0.45561,-2.62822 1.09051,-5.19003 1.85475,-7.72859c-0.09755,-1.77606 -0.12499,-3.48336 0.16188,-5.22652c0.07862,0.26771 0.15068,0.53744 0.2149,0.8096c0.00179,0.00759 0.03838,1.28587 0.08483,2.93377c0.23811,-0.74147 0.48648,-1.48168 0.74386,-2.22169c-0.25399,1.02463 -0.49401,2.04582 -0.7201,3.06598c0.08065,2.87108 0.17684,6.33873 0.17764,6.39339c0.02817,1.92845 0.03224,3.84712 0.0034,5.75882c0.84445,-6.59355 1.72704,-13.10322 3.14835,-19.65927c0.38106,0.81907 0.71882,1.65408 0.96494,2.52286c0.02252,0.07948 0.16687,3.33846 0.27747,5.7989c-1.05879,3.11141 -1.96277,6.27157 -2.4279,9.53355c-0.07533,0.52826 -0.1177,1.08821 -0.13778,1.6714c0.86953,-3.39859 1.70732,-6.78392 2.61274,-10.16317c0.03143,0.69082 0.05686,1.23483 0.07098,1.49642c0.02853,0.5285 0.05796,1.05426 0.08744,1.57759c0.09533,-0.49153 0.18851,-0.98223 0.27959,-1.4719c0.07669,-1.26079 0.10539,-2.52654 0.15654,-3.78164c0.23375,-0.84053 0.47302,-1.68079 0.71933,-2.52087c0.00909,-0.07423 0.01828,-0.1484 0.02761,-0.22251c-0.23937,0.64749 -0.47715,1.29615 -0.71069,1.94648c0.11516,-2.25389 0.35197,-4.46244 1.12371,-6.5343l0.39162,0.42783c0.22986,-0.78348 0.51788,-1.56533 0.88838,-2.34856l0.83554,1.54897c-0.0616,0.27942 -0.1226,0.55867 -0.18299,0.83776l0.89756,-1.23621c0.02607,-0.08384 0.05214,-0.16768 0.07821,-0.25152c0.0111,0.03267 0.02218,0.06535 0.03323,0.09803l1.20535,-1.66014c0.40943,1.01694 0.75585,2.05056 0.93305,3.12896c0.20139,1.22563 -0.08337,2.46195 -0.34825,3.69752l0.04839,0.51752c-0.11847,0.38986 -0.23531,0.78005 -0.35065,1.17052c-0.04167,0.33542 -0.08528,0.67063 -0.13079,1.00563c-0.00641,0.18485 -0.01384,0.36958 -0.02226,0.55419c0.97924,-2.51794 2.00651,-5.03731 2.55959,-7.67664c0.24984,0.32117 0.49376,0.64499 0.72447,0.97476c-0.59288,1.96392 -1.196,3.92734 -1.78588,5.89424c0.68743,-1.76161 1.41264,-3.51661 2.20241,-5.26631c0.43869,0.70266 0.8009,1.43968 1.02164,2.24022c0.39235,1.42291 -0.2022,2.89575 -0.65265,4.35864c0.01772,-0.03301 0.03546,-0.066 0.0532,-0.09899c0.79248,-1.473 1.71678,-2.87119 2.59691,-4.2937c0.0953,-0.85258 0.26128,-1.67101 0.66341,-2.4606c-0.16284,0.76166 -0.34579,1.51746 -0.54612,2.26822c0.61611,-1.04768 0.95107,-2.37143 1.94263,-3.06372c0.03121,-0.02179 0.06267,-0.04389 0.09435,-0.06626z" fill="#d0d0d0" stroke-width="0.5"/><path d="M664.65037,-99.68615c1.11803,0.55902 0.55902,1.67705 0.55902,1.67705l-0.20744,0.40522c-0.61561,1.53902 -1.67983,3.02648 -1.95247,4.6066c-1.16863,3.51885 -2.17752,7.44475 -3.8509,10.7593c-0.93099,1.84406 -2.40711,3.06249 -2.61331,5.29304c-0.31762,3.43591 0.54953,6.24698 1.20426,9.52064c1.83395,4.58488 3.23545,9.67327 5.41328,14.03421c0.80146,1.60486 1.68671,3.42551 1.87318,5.36341c-0.41054,0.20901 -0.78836,0.47305 -1.12375,0.7824c-0.27968,-0.04854 -0.56733,-0.07383 -0.86089,-0.07383c-0.13903,0 -0.27673,0.00567 -0.41289,0.0168c-0.31679,-0.32618 -0.67767,-0.60929 -1.07304,-0.83972c-0.00047,-0.02838 -0.00402,-0.05784 -0.01093,-0.08847c-0.11431,-0.5064 -0.91209,-0.49616 -1.36555,-0.74891c-1.76639,-0.98455 -3.96566,-1.47673 -5.87398,-1.86226c-1.10485,-0.22321 -3.37353,-0.83899 -4.27397,-1.4853c-0.62325,-0.44735 -0.92356,-1.29436 -1.60205,-1.65244c-2.79389,-1.47449 -4.71377,-2.04428 -6.45946,-4.94659c-2.86638,-4.79023 -8.78467,-0.15506 -10.83843,3.46929c-1.34198,2.36824 -0.64623,6.51856 -0.14153,9.03141c0.19382,1.23579 2.07973,0.49736 3.15492,0.61044c1.71241,0.18011 2.40701,0.33352 3.75592,1.58767c2.09089,1.94402 1.14439,5.15817 0.314,7.33996c-0.46184,1.21343 0.04266,2.5714 -0.19557,3.80449c-0.71921,3.72256 -2.18369,5.48942 -5.15844,7.70793c-0.69782,0.69782 -1.11497,1.75796 -2.00999,2.17372c-0.93823,0.43583 -2.35207,0.04781 -3.30416,-0.14231c-3.76072,-0.75095 -6.02884,-3.98194 -8.63874,-6.59184c-0.09978,-0.09978 -1.16465,-1.61359 -1.45594,-1.78179c-0.62068,-0.35841 -1.44957,0.04237 -2.14656,-0.12465c-2.52906,-0.60604 -4.41498,-3.67808 -4.50753,-6.10427c-0.17919,-0.89217 -0.83229,-1.71638 -0.75608,-2.62317c0.27891,-3.31899 2.89779,-2.54254 5.04925,-3.4159c2.14296,-0.86991 4.27576,-1.30567 5.30154,-3.82585c1.08687,-2.67028 -1.16029,-4.23247 -2.3881,-6.06077c-0.80458,-1.19808 -1.19042,-2.43578 -2.0524,-3.58508c-0.9805,-2.40133 -1.76629,-6.64809 -3.72076,-8.41075c-1.72537,-1.55604 -3.47316,0.06566 -5.04163,-2.36183c-0.96501,-1.49353 -0.90151,-3.88846 -0.89791,-5.58982c0.00115,-0.54106 -0.04607,-1.08463 0.00608,-1.62317c0.04413,-0.45567 0.74552,-1.27158 0.29313,-1.34174c-1.36775,-0.21212 -1.92916,-0.4954 -3.2856,-1.05764c-5.28339,0.11756 -10.56042,-0.97625 -15.89044,-0.48353c-2.24816,0.20782 -3.93392,2.04552 -6.13679,2.48353c-1.20269,0.23914 -2.7549,0.02255 -3.98638,0.02255c-7.85898,-0.04243 -14.91559,3.91357 -22.25485,5.47573c0,0 -1.22573,0.24515 -1.47087,-0.98058c-0.24515,-1.22573 0.98058,-1.47087 0.98058,-1.47087c1.38079,-0.25143 2.28807,-1.06102 3.63896,-1.47245c5.85875,-1.78436 12.82685,-4.024 19.10618,-4.05182c1.0677,0 2.46943,0.23316 3.51362,0.02255c2.28851,-0.46157 3.95172,-2.26164 6.36321,-2.51647c5.52654,-0.584 11.11518,0.4331 16.60956,0.51647c0.8482,0.33267 1.53886,1.02113 2.4089,1.29159c0.57671,0.17927 1.3373,-0.23069 1.8055,0.15077c2.01421,1.64104 0.50097,6.98063 1.40131,9.44526c0.27348,0.74865 3.63593,0.93078 4.45837,1.63817c2.3098,1.98667 3.20347,6.32698 4.27924,9.08925c3.33416,4.44555 7.71907,10.55978 1.99747,15.29065c-2.10918,1.74396 -5.26177,1.04317 -7.45329,2.45564c-0.24471,0.15772 0.58903,2.63762 0.61003,2.74294c-0.23506,3.95896 3.12202,3.05824 5.34591,4.27108c3.17647,1.73236 4.74471,6.89009 8.26636,7.90391c0.35158,0.10122 2.52522,0.77106 2.8348,0.58015c0.66872,-0.41241 0.93446,-1.27073 1.49001,-1.82628c0.9296,-0.70062 2.96371,-1.67957 3.42787,-2.81589c1.01348,-2.48114 0.36053,-5.21648 1.21811,-7.67168c0.38048,-1.08927 1.58686,-3.63021 0.314,-4.66004c-1.99656,-1.61536 -4.84018,0.11672 -6.69035,-1.44707c-0.52472,-0.4435 -0.59921,-1.23654 -0.89881,-1.85481c-0.6538,-3.27858 -1.32623,-7.89298 0.35847,-10.96859c2.90983,-5.31222 11.16413,-10.17668 15.16157,-3.53071c1.52224,2.54393 3.08464,2.63545 5.54054,4.05341c0.76461,0.44146 1.21031,1.29378 1.89795,1.84756c1.06356,0.85653 3.25097,0.75065 4.47603,1.0147c0.98231,0.21173 1.78155,0.93788 2.71436,1.31154c0.89619,0.359 2.31736,0.66709 3.46477,1.27453c-0.05604,-0.16242 -0.12506,-0.30433 -0.20906,-0.42052c-3.17663,-4.394 -4.60593,-10.46017 -6.65463,-15.58193c-0.71281,-3.56404 -1.69054,-6.74327 -1.29574,-10.47936c0.27363,-2.58942 1.82176,-4.04998 2.88669,-6.20696c1.56612,-3.17213 2.52707,-6.8889 3.6491,-10.2407c0.38429,-1.74495 1.37342,-3.20813 2.04753,-4.8934l0.29256,-0.59478c0,0 0.55902,-1.11803 1.67705,-0.55902z" fill="#000000" stroke-width="0.5"/><path d="M565.10704,-86.04088c0.06869,0.03889 0.13797,0.07792 0.20525,0.11974c-0.03105,0.13119 -0.06471,0.25607 -0.10085,0.37493c0.37953,2.42616 -1.69265,2.82187 -4.21463,3.24037c-3.79714,0.63011 -8.79618,-0.31953 -11.81998,2.28741c0,0 -0.94907,0.81349 -1.76256,-0.13558c-0.81349,-0.94907 0.13558,-1.76256 0.13558,-1.76256c3.34674,-2.8542 6.53003,-1.84792 10.53424,-2.29347c0.98275,-0.10935 5.44209,-0.62368 4.58979,-1.3413l-0.13197,-0.84473c0,0 0,-0.47063 0.28877,-0.83433c0.29591,0.12335 0.62061,0.19147 0.96123,0.19147c0.05111,0 0.10186,-0.00153 0.15221,-0.00456c0.16066,0.05791 0.32896,0.09982 0.50297,0.12383c0.15307,0.15405 0.32608,0.28826 0.51484,0.39845c0.05692,0.16732 0.10517,0.32731 0.14511,0.48032z" fill="#000000" stroke-width="0.5"/><path d="M565.04191,-86.39606l-0.0529,-0.10956c0.01591,0.00902 0.03192,0.01787 0.04804,0.02655c0.00486,0.0521 0.00486,0.08301 0.00486,0.08301z" fill="#000000" stroke-width="0.5"/><path d="M581.76406,-91.1802c-2.39968,-0.2117 -4.67001,0.0992 -7.08323,0.31045c-0.73115,0.064 -1.53423,-0.19803 -2.19893,0.11319c-1.14861,0.53779 -1.45117,4.01974 -0.49363,3.48201c0.69768,-0.3918 0.82384,-1.43717 1.48766,-1.88394c1.01816,-0.68525 2.04894,-0.64706 3.19131,-0.75201c2.12559,0.05419 4.1101,0.35743 5.09681,-1.2697zM582.39272,-93.63166c1.04785,-0.42707 1.56217,0.62145 1.56217,0.62145l0.51422,1.87967c-1.31967,3.71345 -4.19756,3.78047 -7.72014,3.71871c-2.39106,0.19127 -1.93713,1.97703 -4.07858,2.54243c-4.30928,1.13776 -4.56164,-4.58896 -2.68973,-6.78879c2.27263,-2.67075 8.85551,-2.3973 12.41205,-1.97346z" fill="#000000" stroke-width="0.5"/><path d="M576.65637,-89.86169c-1.14238,0.10494 -2.11228,0.01672 -3.13045,0.70197c-0.66382,0.44677 -0.88585,1.51323 -1.58353,1.90503c-0.95754,0.53773 -0.65587,-2.98173 0.49274,-3.51952c0.6647,-0.31122 1.47723,-0.0648 2.20838,-0.1288c2.41322,-0.21125 4.76775,-0.50626 7.16743,-0.29457c-0.98672,1.62714 -3.02898,1.39008 -5.15457,1.33589z" fill="#d0d0d0" stroke-width="0.5"/></g></g></svg>