<svg version="1.1" xmlns="http://www.w3.org/2000/svg" xmlns:xlink="http://www.w3.org/1999/xlink" width="217.33355" height="104.28908" viewBox="0,0,217.33355,104.28908"><g transform="translate(89.35239,-373.65156)"><g stroke="none" stroke-miterlimit="10"><path d="M76.1025,429.95357c0,0 1.78476,-0.00237 2.34239,-1.50061l0.77198,-0.31274c1.27289,-0.64568 2.46952,-2.03864 3.78538,-2.48548c1.26511,-0.42961 2.69717,0.98037 4.13772,0.74901c1.41078,-0.22658 4.28495,-4.13206 5.20249,-3.74762c1.0605,0.44435 1.57684,1.72688 2.21503,2.56144c2.00749,2.62519 2.98214,4.3179 4.04665,7.41365c0.56033,0.73258 1.81345,2.58652 2.75749,2.90396c1.03633,0.34848 3.26572,-1.12367 3.93697,0.62704c0.31876,0.83136 0.61011,3.74834 -0.16108,4.42458c-0.41879,0.36722 -1.18557,0.31627 -1.47005,0.79513c-0.41836,0.70421 -0.11707,3.01044 -0.05432,3.78965c0.25224,3.13216 1.1134,5.06174 3.15189,7.44233c0,0 0.02855,0.03344 0.08125,0.08227c-2.17752,0.20517 -2.17968,2.491 -2.17968,2.491c0.01743,2.1982 -0.09787,6.21288 -2.28868,7.64069c-0.62965,0.41035 -4.31378,1.21632 -4.69013,1.34172c-9.39132,3.1295 -22.88956,5.69887 -31.56528,-0.46399c-5.41384,-6.56606 -7.26192,-14.95416 -8.23458,-23.17453c-0.22803,-1.92718 -1.19937,-4.99541 0.33724,-6.66758c0.89611,-0.97516 2.58408,-0.73665 3.64529,-0.93169c0.24236,-0.04454 0.48312,-0.09354 0.72248,-0.14635c1.16806,2.50699 3.76404,5.70124 6.96054,4.22c2.10454,-0.97523 1.86776,-3.43484 2.91869,-4.96038c0.50081,-0.72698 1.7931,-1.48568 2.9218,-2.09073l0.70851,-0.0008z" fill="#d0d0d0" stroke-width="0.25"/><path d="M80.27258,452.15065l1.875,3.28125l-0.71008,1.24264l1.35456,1.16105l0.00821,0.14785l0.12856,0.07347l0.15625,0.625h4.5625l0.58482,0.1462l0.60104,0.04624l0.17269,0.05757h1.89145l0.36235,0.09058l0.37308,-0.01776l2.5,0.5l0.21416,0.10144l0.23627,0.01817l0.75,0.25l0.42257,0.26891l0.1411,0.05039c-0.26336,-0.55147 -0.52199,-1.11029 -0.77818,-1.67632l-0.05716,0.02858l-1.10679,-2.21358c-0.09145,-0.1737 -0.14321,-0.37156 -0.14321,-0.58151c0,-0.35461 0.14766,-0.67473 0.38485,-0.90223l-0.4391,-0.98808c-0.07618,-0.16155 -0.11877,-0.34205 -0.11877,-0.53249c0,-0.68341 0.54844,-1.23873 1.22921,-1.24983c0.04271,-0.25063 0.16003,-0.47583 0.3283,-0.65193c0,-0.00062 0,-0.00124 0,-0.00186c0,-0.65199 0.49918,-1.1874 1.1362,-1.24489c-0.06302,-0.14931 -0.09786,-0.31343 -0.09786,-0.48568c0,-0.69036 0.55964,-1.25 1.25,-1.25c0.46331,0 0.86774,0.25206 1.08365,0.62653l0.25067,0.41778c0.32579,0.0318 0.61493,0.18867 0.81876,0.42198l0.61342,0.69521c0.12109,-0.49174 0.5332,-0.86897 1.04322,-0.93856c-0.02681,-0.10185 -0.04109,-0.20878 -0.04109,-0.31905c0,-0.69036 0.55964,-1.25 1.25,-1.25c0.34518,0 0.65768,0.13991 0.88388,0.36612l0.53766,0.53766c0.09883,-0.02513 0.20237,-0.03849 0.30902,-0.03849c0.499,0 0.92971,0.2924 1.13014,0.7152l0.85317,1.70634l-0.17482,0.08741l0.12994,0.34575c0.00674,0.01344 0.01352,0.0269 0.02034,0.0404c2.5291,3.46513 4.02997,7.57371 6.18997,11.39602l0.00029,0.08943l0.03326,-0.01337l0.58141,1.44621c0.06486,0.15114 0.10077,0.31764 0.10077,0.49252c0,0.47034 -0.25977,0.88001 -0.64367,1.09336c-0.22921,0.2813 -0.57839,0.46096 -0.96954,0.46096c-0.17402,0 -0.33974,-0.03556 -0.49028,-0.09981l-0.03313,-0.01324c-0.13215,0.12102 -0.29039,0.214 -0.46532,0.26953c-0.20442,0.14572 -0.45458,0.23143 -0.72475,0.23143c-0.33928,0 -0.64698,-0.13517 -0.8722,-0.35459l0.0364,0.33722c0.00603,0.04976 0.00913,0.10043 0.00913,0.15182c0,0.36959 -0.1604,0.70172 -0.41539,0.93057c-0.11166,0.3205 -0.35012,0.58157 -0.6553,0.72314l0.11322,0.29706c0.05944,0.14564 0.09219,0.305 0.09219,0.47202c0,0.69036 -0.55964,1.25 -1.25,1.25c-0.42991,0 -0.80913,-0.21703 -1.03407,-0.5475l-1.42363,-2.03375l0.26639,-0.18648c-0.29587,-0.32621 -0.58357,-0.65984 -0.8636,-1.00022c-0.07189,0.13197 -0.16687,0.24956 -0.27951,0.34732l0.23712,1.42273c0.01371,0.07415 0.02088,0.1506 0.02088,0.22873c0,0.05872 -0.00405,0.11649 -0.01188,0.17306c0.00783,0.05656 0.01188,0.11434 0.01188,0.17306c0,0.69036 -0.55964,1.25 -1.25,1.25c-0.48687,0 -0.90873,-0.27835 -1.11512,-0.6846l-1.02756,-1.92668c-0.8306,0.23589 -1.33743,-0.5678 -1.33743,-0.5678l-0.49041,-0.83395c-0.00517,-0.01446 -0.01034,-0.02893 -0.01551,-0.04338l-0.1423,0.30041l0.03663,0.23349l-0.38918,0.51081l-0.12537,0.26468l0.13868,0.4931l-0.45395,0.47369l-0.03961,0.71312l-1.30678,1.12009l-0.44088,0.58785l-0.00234,0.04206l-0.08178,0.07009l-0.0627,0.0836l-0.66873,0.54334l-0.65421,0.56076l-0.09346,0.04673l-0.0836,0.06792l-0.04179,-0.00522l-0.65234,0.32617l-1.1265,0.6759l-0.14066,0.04281l-0.11164,0.09569l-1.5,0.75l-0.40315,0.08959l-0.3644,0.19434l-5,1.25h-0.35272l-0.33658,0.10549l-4.25,0.25l-0.11081,-0.02087l-0.1094,0.02735h-45.25l-0.19176,-0.04795l-0.19569,0.02787l-9.95409,-1.03401l-0.11115,-0.04039l-0.11789,0.00943l-3.98977,-0.66496h-57.93964l-0.09797,-0.0245l-0.09912,0.01931l-4.75,-0.25l-0.18991,-0.05824l-0.19786,0.01753l-4.75,-0.75l-0.05603,-0.0238l-0.06078,0.00345l-5.25,-1l-0.13562,-0.06273l-0.1494,-0.00317l-2.56695,-0.70008l-2.81285,-0.46881l-0.14017,-0.06094h-0.15284l-1.81233,-0.45308l-1.5585,-0.22264l-0.13617,-0.05548l-0.14699,0.00387l-2.25,-0.5l-0.04533,-0.02266h-0.05069l-1.96693,-0.49174l-3.10411,-0.71634l-8.88595,-1.48099l-0.19796,-0.08607l-0.21574,-0.00719l-1.75,-0.5l-0.07236,-0.04174l-0.08329,-0.00641l-0.75,-0.25l-1.63055,-1.03762l-0.11179,-0.55895l-0.42591,-0.28394l0.08025,-1.44439l-0.2837,-1.41852l0.18793,-0.16815l-0.23447,-0.46894l-0.05748,-0.25869l-0.08846,-0.07219l0.02954,-0.19291l-0.30286,-1.36289l0.66418,-0.99626l0.10389,-0.67837l-0.516,-0.90299l-0.54438,-0.81658l-0.03064,-0.0017l-0.50057,-0.584l-0.24496,-0.23291l0.00965,-0.04163l-0.5219,-0.60888l-0.25,-0.5l-0.3579,-1.61056l-0.038,-0.06649l0.01672,-0.02926l-0.04009,-0.18037l0.00577,-0.00866l-1.73241,-3.03171l1.875,-3.28125l1.875,-0.46875l5.76288,-2.89044c0,0 2.31006,-1.6686 3.4281,-2.22761c0.53109,-0.26554 0.93604,-0.15267 1.21485,0.03903c0.87116,-0.7798 1.32766,-1.69151 2.2242,-2.56858c1.53803,-1.50464 2.49646,-1.84963 4.25269,-3.02918c0.27444,-0.18433 1.06036,-2.14547 1.24435,-2.58143c0.29282,-0.69381 0.83231,-1.42118 1.01003,-1.86066c0.6434,-1.59104 1.83666,-1.84966 2.41074,-3.07254l0.09836,-0.39343l0.04623,-0.60104l0.5,-1.5l0.14491,-0.22771l0.05855,-0.26348l0.05448,-0.10897c0.03627,-0.34112 0.0557,-0.70191 0.0557,-1.08715c0.29927,-1.49636 0.05273,-3.47577 -0.57567,-4.93816c-0.3683,-0.85708 -0.34103,-1.38635 -0.92255,-2.17831c-0.1242,-0.16915 -0.22739,-0.35531 -0.31634,-0.55281l-0.09906,-0.05944l-0.46746,-0.11686l-0.14226,-0.24897l-0.63439,-0.38063l-0.5,-0.5l-0.99437,-1.65729l0.01978,-0.07255l-0.0118,-0.01232l-0.70643,-1.84796c-0.14464,-0.74543 0.99328,-1.23151 1.3778,-1.85403c0.56122,-0.90861 2.01167,-0.71947 3.00244,-1.11811c2.71159,-1.09103 5.11494,-1.67555 7.44732,-3.27171c-0.03079,-0.04597 -0.05987,-0.09284 -0.08719,-0.14065c-0.21156,-0.37023 1.10441,-0.56909 1.19322,-1.1724c0.90192,-0.78022 1.56321,-1.26287 2.07471,-2.00243c0.52576,-0.76018 0.8961,-2.45872 1.17009,-2.27607c0,0 3.42442,-1.73777 4.34234,-2.01893c1.08526,-0.33243 3.35661,-1.01504 4.55679,-1.37541c4.34812,-1.30557 6.70155,-3.39565 11.23028,-4.30139c2.14269,-0.39017 4.85277,-0.56907 7.05031,-1.00788c2.04783,-0.40892 4.08863,-1.39621 6.13693,-1.79154c2.10217,-0.40573 3.91817,-1.30713 5.99328,-1.92921c2.45204,-0.73507 5.03212,-0.75432 7.5,-1.25c5.9711,-2.38844 12.74235,-2.14484 18.75,-4c2.69333,-0.8317 5.37728,-1.87506 8.05487,-2.76496c2.69229,-0.44236 4.92852,-1.21978 7.44513,-1.98504c0.98427,-0.2993 2.4734,-1.31219 3.54956,-0.59188c1.85272,1.24009 0.40991,1.96125 0.76127,3.2064c0.47514,1.68379 1.90841,2.96121 2.2728,4.84728c0.58751,3.04092 -1.52321,6.06199 1.88009,7.32692c0.80109,1.87064 4.02842,2.68363 3.63167,5.32336c-0.33055,2.19925 -3.09461,2.29083 -4.23921,3.83611c-0.17963,0.24252 -1.45732,1.74037 -1.13197,2.19098c0.69929,0.9685 2.36055,1.51011 2.98406,2.7192c1.0208,1.97948 -0.29347,5.52365 -0.9945,7.90266c0.12341,-0.04077 0.25533,-0.06284 0.39241,-0.06284c0.61444,0 1.12533,0.44333 1.23027,1.02756l0.24546,1.22729l-0.20827,0.04165c0.14253,0.47575 0.2314,0.96111 0.23254,1.4535c0.00029,0.12613 -0.13322,1.36155 -0.07005,2.10713l0.2559,0.0853l0.22772,0.14491l0.07813,0.01736l0.00267,-0.00072l0.0035,0.0021l0.17919,0.03982l0.5,0.25l0.26122,0.22391c1.23342,0.02459 2.76344,-0.17962 3.80348,0.23099c1.30159,0.51387 4.28864,1.82559 5.06576,2.98274c0.63799,0.94998 0.44171,2.6937 1.18464,3.65611c0.21782,0.28218 0.48521,0.5234 0.75012,0.76611c0.21023,-0.16046 0.47284,-0.25575 0.75773,-0.25575c0.41416,0 0.78127,0.20141 1.00873,0.51164l0.73369,0.97826c0.16155,0.21062 0.25758,0.47415 0.25758,0.76011c0,0.14646 -0.02519,0.28703 -0.07147,0.41763c0.81174,0.97096 1.35132,3.1212 2.46459,3.7605l0.99076,0.93798l2.61612,11.62854l1.30901,4.62335c-0.14335,0.07121 -0.28699,0.13957 -0.43091,0.20523l1.29127,0.28634l3.20195,0.64039h6.73317l0.10515,-0.02337l0.03504,0.02337zM-45.72486,466.6819l3.26448,0.51544l4.45658,0.23456h16.56576l-1.63442,-0.31978l-0.03639,-0.01705l-0.04018,0.00124l-1.90629,-0.41441z" fill="#d0d0d0" stroke-width="0.5"/><path d="M-53.16011,401.54929c0.62534,-1.49297 1.69942,-2.69365 3.05612,-3.68593c4.34008,-3.17433 11.57233,-4.21603 16.25803,-5.87163c2.23217,-0.78869 6.28431,-1.11766 7.68104,0.97744c1.62025,2.43038 0.11901,4.74178 -1.87019,5.73638c-1.33285,0.66643 -2.71032,0.27888 -4.11474,0.46875c-3.43932,0.46497 -8.13808,2.44575 -11.23974,3.86987c-1.28968,0.59215 -5.85207,3.3866 -7.08257,2.10261z" fill="#d0d0d0" stroke-width="0.5"/><path d="M126.73116,477.94065l-1.07819,-0.13196c-2.09717,-1.04903 -3.55191,-1.78442 -5.90634,-1.77321c-0.82328,-0.1541 -1.78541,0.02051 -2.46982,-0.46231c-1.03014,-0.72671 -1.9086,-4.86089 -2.55735,-6.09359c-3.14822,-5.982 -8.27655,-12.59914 -9.71192,-19.24071c-0.85054,-1.48212 -1.27894,-3.01303 -1.44439,-5.06757c-0.06275,-0.77921 -0.36333,-3.07677 0.05503,-3.78098c0.28448,-0.47886 1.05146,-0.42679 1.47025,-0.79401c0.77119,-0.67624 0.48224,-3.58484 0.16348,-4.4162c-0.67125,-1.75071 -2.89877,-0.2743 -3.9351,-0.62278c-0.94404,-0.31744 -2.19228,-2.16346 -2.75261,-2.89604c-1.06451,-3.09575 -2.02579,-4.77618 -4.03328,-7.40137c-0.63819,-0.83457 -1.14873,-2.11397 -2.20923,-2.55832c-0.91754,-0.38444 -3.78396,3.52384 -5.19474,3.75042c-1.44055,0.23136 -2.86188,-1.17695 -4.12699,-0.74734c-1.31586,0.44684 -2.50176,1.83914 -3.77465,2.48482l-0.80906,0.32828c0,0 -0.49845,0.19938 -0.9727,0.01016c0.02942,-0.02992 0.05883,-0.05983 0.08825,-0.08975c0.81589,0.08351 1.02694,-0.76072 1.02694,-0.76072c0.2651,-1.06763 0.63065,-1.92597 1.10308,-2.75638c0.85013,-0.65607 1.69364,-1.35158 2.67081,-1.62571c1.78304,-0.50018 3.81059,1.51014 5.32549,0.32743c1.8318,-1.43012 2.35198,-4.08752 5.35278,-3.32434c1.75718,0.44689 2.52418,2.15902 3.50505,3.44168c2.03341,2.65905 3.24021,4.55071 4.25244,7.74148c0.4338,0.5446 0.5714,1.50865 1.24739,1.67539c2.04326,0.50398 4.08599,-1.02019 5.49347,1.94865c0.91402,1.92796 0.75489,5.6989 -0.69366,7.29809c-0.25849,0.28537 -0.82908,0.07641 -1.10118,0.34884c-0.52884,0.52948 0.2815,1.47303 0.34075,2.21902c0.11589,1.45913 0.3616,2.52813 0.84934,3.53145c0.37389,0.30525 0.46277,0.7941 0.46277,0.7941c0.00245,0.01402 0.00491,0.02804 0.0074,0.04207c0.33251,0.52161 0.74065,1.05023 1.24071,1.63302c0,0 0.81349,0.94907 -0.13558,1.76256c-0.04063,0.03483 -0.08102,0.06643 -0.1211,0.09501c2.00796,5.34729 6.06902,10.72807 8.57904,15.49681c0.83387,1.58425 1.36789,5.39544 2.93343,5.21195c2.68993,0.01154 4.51748,0.84334 6.89985,2.03404l-0.03985,-0.13197c0,0 1.24592,0.00611 1.24999,1.24999c0,1.25 -1.25,1.25 -1.25,1.25z" fill="#000000" stroke-width="0.5"/><path d="M127.98117,476.69066l-0.00001,-0.00612c0.00001,0.00204 0.00001,0.00407 0.00001,0.00612z" fill="#000000" stroke-width="0.5"/><path d="M-77.08713,440.32719c-0.39529,-1.18586 0.79057,-1.58114 0.79057,-1.58114l0.36442,-0.04023c2.04261,-1.63377 4.47623,-2.47262 6.13165,-4.51567c0.74941,-5.44802 7.02816,-6.53368 5.67176,-13.02186c-0.98141,-4.6945 -5.79868,-6.6569 -5.64058,-11.79541c1.73113,-1.51293 3.00101,-2.71141 5.26185,-3.38916c2.29069,-0.68671 4.35245,-0.54848 6.26901,-2.23006c0.14018,-0.123 0.29802,-0.25978 0.46767,-0.40713c0.19474,-0.0921 0.31777,-0.21513 0.31777,-0.21513c0.8494,-0.85054 2.58764,-2.07034 3.22287,-2.9888c0.63232,-0.91424 0.59486,-1.64169 0.92962,-2.33317c0.04427,-0.04166 0.09049,-0.08161 0.13888,-0.11968c2.11109,-1.66084 5.79533,-2.94043 8.40418,-3.45603c4.17802,-1.69184 8.45689,-3.4044 12.8698,-4.27926c2.18163,-0.43251 4.47236,-0.38004 6.66555,-0.98068c2.77012,-0.75864 4.9351,-1.93948 7.82569,-2.5176c4.79642,-0.9368 9.22194,-2.69402 13.90833,-3.97804c2.12091,-0.5811 4.38955,-0.672 6.51599,-1.25436c2.26467,-0.62021 4.45034,-1.28138 6.82084,-1.29188c2.1218,0 2.74224,-0.79721 4.76362,-1.22744c2.96368,-0.63079 5.46531,-0.56404 8.28563,-1.68846c1.20893,-0.48198 2.40278,-1.17883 3.60017,-1.86824c1.36235,-0.40979 2.83568,-1.1776 4.27724,-1.49619c0.62454,0 1.3005,0 1.96527,0c0.03427,0.08487 0.06268,0.17957 0.0838,0.28519c0.24515,1.22573 -0.98058,1.47087 -0.98058,1.47087c-2.61808,0.43968 -5.46594,2.90552 -8.0444,3.94017c-2.93076,1.17602 -5.61537,1.24818 -8.71436,1.81155c-1.9702,0.35816 -3.05017,1.27256 -5.23638,1.27256c-2.13994,-0.01155 -4.13649,0.65323 -6.17916,1.20812c-2.11759,0.57524 -4.37335,0.67317 -6.48402,1.24564c-4.7506,1.28848 -9.24407,3.03343 -14.09167,4.02196c-2.84119,0.56824 -4.90783,1.73089 -7.67431,2.4824c-2.24491,0.60983 -4.6094,0.56948 -6.83446,1.01932c-4.3361,0.87662 -8.50539,2.58794 -12.6302,4.22073c-2.47722,0.50099 -5.5151,1.62191 -7.59582,3.04397c-0.40482,0.27667 -0.869,1.80335 -0.96681,1.94597c-0.84396,1.23061 -2.81801,2.99613 -3.95638,3.99014c-2.25138,1.96587 -4.5688,1.97058 -7.23099,2.76993c-1.57217,0.47206 -2.37128,1.39968 -3.73815,2.11084c0.71318,3.10949 3.73108,4.57989 5.0231,7.43077c0.95229,2.10125 1.21428,5.15076 0.84678,7.43359c-0.27235,1.69179 -1.11529,3.46886 -2.34033,4.6966c-0.70244,0.70398 -2.61907,1.40396 -3.00645,2.39024c-0.33822,0.86112 -0.32187,1.82214 -0.49192,2.73154c-1.88328,2.61767 -4.43614,3.5382 -6.86834,5.48434l-1.13559,0.45977c0,0 -1.18585,0.39529 -1.58114,-0.79057z" fill="#000101" stroke-width="0.5"/><path d="M-81.73648,443.38158c-0.88389,-0.88389 0,-1.76776 0,-1.76776l0.69505,-0.50843c1.55508,-0.48766 3.09564,-1.45412 4.58485,-2.20324c0,0 1.11804,-0.55902 1.67705,0.55902c0.55902,1.11804 -0.55902,1.67705 -0.55902,1.67705c-1.63242,0.81186 -3.2109,1.74756 -4.91231,2.33887l0.28214,-0.09551c0,0 -0.88388,0.88389 -1.76776,0z" fill="#000101" stroke-width="0.5"/><path d="M79.38868,426.67794c1.18586,0.39529 0.79057,1.58113 0.79057,1.58113l-0.95497,2.11877c-1.88052,0.16334 -4.50141,0.23347 -5.66757,2.14311c-1.60638,2.63052 1.24895,4.40151 -2.58496,6.49768c-0.57928,0.31672 -1.3189,0.06343 -1.97835,0.09515c-2.25942,-0.02145 -5.11513,-0.50081 -6.51405,-2.51911c-0.37209,-0.53683 -0.38356,-1.2875 -0.80495,-1.78657c-0.27439,-0.32497 -2.05454,-0.19432 -2.181,-0.19432c-1.98703,0 -3.89459,-0.20015 -5.06332,-2.09283c-0.56627,-0.91704 -0.1861,-2.18018 -0.59154,-3.17881c-0.15355,-0.37822 -0.71235,-0.46319 -0.90846,-0.82119c-0.18502,-0.33776 0.14669,-0.92051 -0.16757,-1.14311c-0.34148,-0.24187 -0.87008,0.32158 -1.24747,0.14079c-0.65554,-0.31404 -1.18758,-0.88905 -1.58496,-1.49768c-0.58922,-0.90247 -0.26096,-2.15296 -0.59154,-3.17881c-0.25729,-0.79845 -2.73083,-1.90661 -3.39434,-2.35546c-1.54751,-0.52303 -5.00907,0.31573 -6.18169,-0.60884c-1.90915,-1.50529 -0.54771,-3.74602 -0.92397,-5.5357c-0.19496,-0.92735 -2.08009,-0.5526 -2.46318,-1.41933c-0.0598,-0.13531 0.79459,-5.11149 0.96318,-5.53737c0.27645,-0.69835 1.52807,-0.98877 1.43829,-1.73446c-0.08252,-0.68545 -1.37382,-0.32966 -1.9406,-0.72388c-1.59451,-1.10902 -1.87349,-1.86239 -1.5767,-3.76354c0.38106,-2.44094 1.95529,-3.19189 4.0767,-3.86309c2.58959,-2.13966 -4.32442,-6.29065 -4.99769,-7.95833c-0.56224,-1.39267 0.16507,-3.3195 -0.07901,-4.77812c-0.6294,-3.76132 -2.5274,-6.59845 -3.47882,-10.39706c0,0 -0.05707,-0.2283 -0.02264,-0.51154c0.00577,-0.00129 0.01155,-0.00257 0.01732,-0.00385c0.77839,0 1.63665,0 2.4536,0c0.96128,3.77768 2.86299,6.68863 3.49826,10.51199c0.18709,1.12603 -0.48086,3.19734 -0.07901,4.22188c1.23696,3.15369 7.49984,4.68313 5.5,9.45671c-0.28086,0.67042 -0.99845,1.05664 -1.49768,1.58496c-0.53599,0.18653 -1.0902,0.32722 -1.60797,0.55958c-4.28148,1.9214 1.81969,3.47056 2.16737,5.08992c0.29683,1.38252 -1.27692,3.20754 -1.4827,4.48742c-0.09427,0.58628 -0.28331,1.1635 -0.54801,1.69505c-0.11702,0.23498 -0.74018,0.34771 -0.56782,0.5457c0.22743,0.26126 0.74515,-0.18747 1.03913,-0.0043c0.61692,0.38439 1.2324,0.90822 1.49768,1.58496c0.54318,1.38565 -1.20711,3.71024 0.07604,4.4643c0.65562,0.38528 1.50867,-0.23978 2.26911,-0.23595c1.20137,0.00606 2.40846,0.25017 3.54919,0.62711c1.38065,0.90927 3.89072,2.02434 4.60566,3.64454c0.21914,0.4966 -0.2587,3.00242 0.82351,3.32351c0.56185,0.1667 1.28881,-0.21758 1.75254,0.14079c0.53672,0.41478 0.46931,1.28396 0.83243,1.85689c0.28668,0.45232 0.89442,0.68088 1.09153,1.17881c0.44567,1.12581 -0.36659,2.6429 1.00232,3.41504c1.61582,0.9114 3.57123,-0.10576 5.2512,0.55064c1.05583,2.54921 3.76715,6.22273 7.15174,4.65433c2.10454,-0.97523 1.86776,-3.43484 2.91869,-4.96038c0.72821,-1.05707 3.12981,-2.1812 4.26871,-2.80254c0.26363,-0.26812 0.52725,-0.53623 0.79088,-0.80435c0.81589,0.08351 1.02694,-0.76072 1.02694,-0.76072c0.09536,-0.38406 0.20373,-0.74104 0.32539,-1.07938c0.14948,-0.00559 0.31715,0.01739 0.50456,0.07986z" fill="#000101" stroke-width="0.5"/></g></g></svg>