<svg version="1.1" xmlns="http://www.w3.org/2000/svg" xmlns:xlink="http://www.w3.org/1999/xlink" width="385.62499" height="191.44992" viewBox="0,0,385.62499,191.44992"><g transform="translate(25.96007,-302.31252)"><g data-paper-data="{&quot;isPaintingLayer&quot;:true}" fill-rule="nonzero" stroke="none" stroke-linecap="butt" stroke-linejoin="miter" stroke-miterlimit="10" stroke-dasharray="" stroke-dashoffset="0" style="mix-blend-mode: normal"><path d="M349.73153,460.55844l3.93905,0.45451c1.26062,0.12805 2.24434,1.19269 2.24434,2.48709c0,0.32594 -0.06237,0.63731 -0.17584,0.92283l2.12946,0.67755c1.03815,0.30391 1.79638,1.26322 1.79638,2.39962c0,1.31881 -1.02118,2.39911 -2.31595,2.49333l-1.34874,0.1124c0.1064,0.27768 0.1647,0.57917 0.1647,0.89428c0,0.88227 -0.45703,1.6578 -1.14725,2.10275c-0.44495,0.69022 -1.22048,1.14725 -2.10275,1.14725c-0.06863,0 -0.13662,-0.00277 -0.20386,-0.00819l-1.06833,-0.07631c0.01463,0.10942 0.02218,0.22108 0.02218,0.3345c0,1.38071 -1.11929,2.5 -2.5,2.5h-0.76234c-0.12543,1.26333 -1.19132,2.25 -2.48766,2.25c-0.04192,0 -0.08359,-0.00103 -0.125,-0.00307c-0.04135,0.00204 -0.08296,0.00307 -0.12482,0.00307c-0.4561,0.60722 -1.18227,1 -2.00018,1c-0.23758,0 -0.46741,-0.03314 -0.68514,-0.09505l-3.13121,-0.81578c-2.34261,-0.31932 -4.64906,-0.71878 -6.94383,-1.17399c-2.22377,-0.23625 -4.39452,-0.59068 -6.29872,-1.22841l-4.89204,-0.44473c-0.66318,-0.05275 -1.25346,-0.36429 -1.66982,-0.83362l-1.83018,-0.16638c-1.28675,-0.10234 -2.29905,-1.17897 -2.29905,-2.49204c0,-0.67521 0.26768,-1.2879 0.7027,-1.73774c0.38295,-0.8895 1.2674,-1.51226 2.2973,-1.51226h0.83446c0.05397,-0.09329 0.11379,-0.18277 0.17896,-0.26794c-0.14479,0.01914 -0.28874,0.03961 -0.43173,0.06173c-8.26888,1.27929 -16.52792,3.29194 -24.83237,4.48608c-26.17613,-0.07088 -52.136,-2.49174 -78.33455,-2.49174c-23.80371,0.02088 -47.31849,-3.77556 -71.07193,-3.98013c0.22654,-0.55719 0.40291,-1.08297 0.48754,-1.53575c0.65473,-3.50299 -0.71714,-4.36012 1.20265,-7.28557c0,0 1.27143,-2.04484 -0.8723,-3.33108c-2.14373,-1.28624 -3.43271,0.85697 -3.43271,0.85697c-0.58852,1.03963 -1.40496,1.87567 -1.74329,3.02142c-0.68187,2.30917 0.34185,3.46748 -0.04653,5.69436c-0.05713,0.32756 -0.59082,1.52759 -1.11994,2.60898c-7.68203,0.15298 -15.65736,0.67002 -23.21407,-0.03167c-3.84276,-0.35683 -7.6858,-1.18568 -11.54556,-1.50719c-4.82612,-0.402 -9.86432,-0.01264 -14.71101,-0.01264l-2.50067,-0.00067c0,0 -2.42898,-0.0704 -2.42898,2.4296c0,2.5 2.49871,2.49875 2.49871,2.49875l2.49931,-0.00064c4.70755,0 9.60255,-0.40304 14.28908,-0.0123c3.83199,0.3195 7.63723,1.15288 11.4546,1.49312c6.93789,0.61837 14.15832,0.27691 21.23749,0.09723c-1.32199,2.77469 -2.73401,5.57746 -4.21926,8.30428c-0.87713,1.61036 -2.12205,5.00173 -3.98933,5.9985c-2.05356,1.0962 -5.22783,1.007 -7.50099,1.20932c-3.49375,0.31097 -6.06928,1.39683 -9.25478,2.67103c-2.53238,1.01295 -5.20959,2.39205 -7.92077,2.8441c-2.70878,0.45166 -5.90413,-0.02589 -8.65621,-0.02589c-2.56967,0 -5.56086,0.41106 -8.10199,0.03064c-3.23108,-0.48372 -4.43889,-3.48339 -7.72981,-4.44213c-4.52302,-1.31768 -9.46324,-1.25708 -14.00363,-2.50336c-3.96925,-1.08952 -7.99698,-2.17034 -11.93754,-3.48386c-2.34989,-0.66822 -4.60186,-1.64808 -6.90283,-2.46906c-6.92271,-2.47001 -13.26714,-4.57862 -18.57332,-9.91771c-3.06786,-3.08688 -6.43108,-6.99693 -4.43793,-11.83461c0.20468,-0.49677 0.66698,-1.20318 1.16736,-1.9022c0.41794,0.31414 1.02878,0.45933 1.59187,0.45933c1.38071,0 2.40875,-1.07838 2.40875,-2.45909c0,-0.08438 -0.00421,-0.16785 -0.01238,-0.25008c0.00817,-0.08222 0.01231,-0.1657 0.01231,-0.25007c0,-0.71008 -0.29632,-1.35166 -0.77171,-1.80677c0.87587,-0.80404 0.08918,-1.72213 0.08918,-1.72213c-1.71793,-2.00215 -2.35171,-3.36712 -2.56106,-6.00287c-0.05925,-0.74599 -0.86985,-1.6903 -0.34101,-2.21978c0.2721,-0.27243 0.84269,-0.06346 1.10118,-0.34883c1.44855,-1.59919 1.60694,-5.37254 0.69292,-7.3005c-1.40748,-2.96884 -3.45053,-1.44585 -5.49379,-1.94983c-0.67599,-0.16674 -0.81376,-1.13147 -1.24756,-1.67607c-1.01223,-3.19077 -2.21965,-5.08539 -4.25306,-7.74444c-0.98087,-1.28266 -1.74809,-2.99616 -3.50527,-3.44305c-3.0008,-0.76318 -3.42219,1.87874 -5.25399,3.30886c-1.5149,1.18271 -3.54239,-0.82723 -5.32543,-0.32705c-1.55876,0.43727 -2.77749,1.9462 -4.22545,2.65743l-0.47575,0.16482c-0.3875,-0.10143 -0.6827,-0.1015 -0.6827,-0.1015l-2.69195,0.11171c-5.28769,1.79983 -10.07608,5.61954 -13.97757,9.60197c-1.22654,1.25198 -3.04825,1.73149 -4.54666,2.6407c-0.69796,0.42352 -1.12743,1.1831 -1.64246,1.81655c-0.00067,0.00082 -0.09887,0.02371 -0.09954,0.02455c0.37933,-1.00261 0.24005,-2.2157 0.42626,-3.29316c0.17951,-1.0387 0.83201,-1.96009 0.99985,-3.00073c0.32385,-2.008 -0.27685,-4.09041 0.01409,-6.10344c1.01789,-7.04284 2.18023,-13.65562 3.91763,-20.60525c2.5023,-7.49192 3.98372,-15.61329 5.08112,-23.40028c0.38358,-2.72184 1.65969,-5.27482 2.00027,-8.00238c0.49098,-3.93205 -1.08784,-8.80695 -0.08791,-12.58456c0.35643,-1.34654 2.78098,-3.19092 3.54094,-4.14086c1.42228,-1.77785 3.21179,-3.32498 4.24262,-5.35502c0.59679,-1.17527 0.15606,-2.7671 0.90754,-3.85001c0.79172,-1.14089 2.2785,-1.58952 3.41759,-2.38381c0,0 1.21645,-0.91287 1.04074,-2.26297c3.26711,-3.17656 6.60187,-6.01346 10.82857,-7.93734c1.57312,-0.87239 3.1646,-1.82627 4.86238,-2.44172c1.04009,-0.37703 2.62713,-0.42236 3.21052,-1.65192c0.22498,-0.47418 0.19098,-0.98145 0.0488,-1.48163c0.47654,0.33609 1.09762,0.67465 1.36646,0.94417c0.8056,0.80761 -0.95748,5.48168 3.27587,3.54808c1.55388,-0.70974 0.37909,-5.34623 -0.15861,-6.71108c0.56063,0.97521 1.15581,1.86156 2.57411,2.04212c2.71348,0.34544 6.05818,-3.21625 8.70349,-3.91111c0.22362,-0.05874 3.02838,-0.45557 3.14963,-0.27368c0.47687,0.71533 -0.36947,1.80978 0.01564,2.57841c0.27737,0.55357 1.2471,0.7409 1.26533,1.3598c-1.16473,1.46747 -3.35107,3.09705 -3.28524,5.21822c0.03395,1.09384 1.35644,1.72725 1.90042,2.67685c0.86459,1.50929 -0.56698,2.69474 1.30514,4.24353c0.89902,0.74375 2.2453,0.65897 3.31348,1.12844c1.47947,0.65023 0.35662,2.63454 2.14155,3.63292c1.36919,0.76584 4.62731,0.23884 6.53261,-0.05744c0.34139,0.07608 0.64508,0.00007 0.64508,0.00007c1.69781,-0.43515 3.9068,-0.96563 4.50863,-2.94421c0.31133,-1.02355 -1.50068,-4.56823 -1.20256,-4.73716c2.27082,-1.28676 2.59908,0.27835 4.50279,0.56142c2.08924,0.31066 1.7577,-0.61452 3.14153,-1.28045c0.89657,-0.43145 4.32632,1.86847 5.19041,2.30052c3.53471,1.76508 6.62476,1.55038 10.41318,1.99655c0.63351,0.07462 3.27727,0.33555 3.69553,0.89708c0.40471,0.54335 -0.23915,1.33324 -0.33104,2.00449c-0.30957,2.2614 -0.71302,4.87962 1.49886,6.29767c2.29475,1.47117 5.79472,0.85918 7.71628,-0.73657c2.78001,-2.64194 -1.59698,4.40695 3.72944,3.63777c2.03173,-0.2934 2.11819,-2.79209 3.73915,-3.58455c1.19391,-0.58367 2.75623,0.03377 3.97829,-0.67951c1.79176,-1.0458 1.99961,-2.89986 3.9461,-3.78943c0.06631,0.04102 0.12854,0.07277 0.1802,0.09641l0.07344,0.09581c0,0 0.09672,0.01372 0.23983,0.00661c6.74111,1.75921 11.949,-5.73294 16.4035,-9.69286c2.01574,-1.79194 4.04175,-2.9456 5.10414,-5.52426c0.18577,-0.66161 0.53149,-2.52028 0.81514,-1.89436c0.93943,2.07298 1.18284,4.13335 3.09573,5.70397c1.04994,0.86207 2.40436,1.14198 3.50365,1.76017c0.73992,0.4161 -0.64804,1.65131 -1.03982,2.40439c-0.68181,1.31057 -1.5986,3.40226 -0.76839,4.85263c0.74938,1.30915 4.54302,2.62831 5.72087,1.13065c0.47488,-0.60383 -0.10958,-1.53258 -0.16458,-2.2988c-0.42583,-1.48644 0.48839,-1.39486 1.23735,-2.68273c0.83939,-1.44336 1.31146,-3.60104 0.59144,-5.17833c-1.32066,-2.89305 -4.63228,-1.66372 -6.1235,-3.72165c-0.78715,-1.08628 0.13058,-2.90667 -0.73048,-4.22147c-0.78652,-1.20096 -1.66326,-1.10404 -2.77384,-1.66634c-0.1841,-0.09321 -0.65527,-0.5415 -0.44919,-0.55197c1.13839,-0.05786 2.38486,0.07488 3.53575,0.07488c1.55081,-0.01286 4.78654,0.17647 6.15838,0.97317c3.2355,1.87905 6.77636,4.0451 9.61597,-0.24412c2.74943,-4.15301 -3.09939,-4.8224 -3.90239,-8.24272c-0.38257,-1.62948 1.05683,-3.46078 0.66688,-5.46641c-0.28922,-0.41183 -1.21612,-0.94247 -0.82791,-1.26269c0.47847,-0.39468 1.1866,-0.3692 1.76293,-0.59842l0.83941,-0.19796c0,0 0.3733,-0.09325 0.65384,-0.3831c0.01789,-0.00442 0.02759,-0.00732 0.02759,-0.00732c2.38975,-0.74098 6.47222,-4.83316 9.31172,-3.41811c0.6746,0.33619 -1.02688,3.55185 -1.11017,3.81733c-1.17743,3.753 -0.99914,7.88618 4.07491,6.59489c2.17535,-0.79012 4.39063,-1.24949 6.73417,-0.94892c1.48968,0.19106 3.67196,1.06391 5.17517,0.44095c3.32196,-1.37668 0.70497,-3.59331 2.5772,-5.39733c0.45117,-0.43472 1.83178,-0.61097 2.19112,-0.85572c2.59381,-1.76663 3.55028,-5.4589 6.24205,-6.83669c0.40427,0.01115 0.8091,0.02248 1.21337,0.03362l0.44125,0.36812c0,0 0.10308,0.05151 0.26211,0.09198c0.23854,0.31291 0.58313,0.45073 0.58313,0.45073c1.5949,0.57809 1.39082,1.49892 2.75946,2.49624c0.43573,0.31751 1.4867,0.13032 1.47334,0.66929c-0.01858,0.74974 -0.79911,1.38532 -1.15193,2.04711c-0.19234,0.36077 -0.69578,2.96726 -1.2224,3.01267c-1.87121,0.16133 -4.52381,-1.23379 -5.74668,1.14917c-1.86088,3.62623 2.88452,4.14429 4.99693,4.33633c1.58343,0.13086 3.98631,-0.3663 5.46582,0.06674c2.42785,0.71062 3.78787,3.19182 6.81446,2.80507c3.64984,-0.46639 4.05361,-3.62594 6.39984,-5.53978c1.38992,-1.13378 2.87559,-1.44078 3.4545,-3.37921c0.41148,-1.37783 0.17183,-3.21046 0.25845,-4.65052c0.17917,-0.35778 0.36139,-0.82999 0.58954,-1.1587c0.0842,-0.12131 0.25528,-0.32404 0.40839,-0.50783c-0.16213,0.69048 0.36047,1.88947 0.37363,1.90331c1.68969,1.77722 3.21626,0.34717 4.96166,0.85898c0.57757,0.16937 0.52276,2.83599 0.58865,3.02838c0.2311,0.67476 1.22611,1.1527 1.07664,1.8501c-0.14438,0.6736 -0.98026,0.98697 -1.33554,1.57718c-2.22307,3.69311 -2.37254,6.51489 0.31474,9.92578c1.47149,1.12081 2.33955,1.70341 2.64796,3.58353l-0.02004,0.52651c0,0 0.00001,0.01342 0.0014,0.03746c-0.27213,2.18548 0.95321,6.64859 3.71053,6.95438c2.45521,0.27228 3.02378,-2.73895 5.05215,-2.49359c1.12524,0.13611 2.8739,1.36473 3.90087,1.68271c0.46376,0.1436 -0.25626,0.93688 -0.37553,1.40749c-0.36444,1.43806 -0.52385,2.7534 -0.65734,4.23642c0.23093,4.07423 3.06465,3.78094 6.23791,3.1615c1.40131,-0.27354 3.09186,0.25934 4.37511,-0.59184c0.97397,-0.64603 0.65418,-1.96218 2.14324,-1.76552c2.60885,0.34455 5.27176,2.9149 8.23006,1.34942c0.75476,-0.39941 0.76211,-1.50767 1.47048,-1.98453c0.60734,-0.40884 1.54972,-0.12147 2.2818,-0.12958c0.67083,-0.32533 1.43769,-0.36295 1.92537,-0.92689c0.52301,-0.60478 -0.06942,-1.82873 0.47177,-2.4173c1.73227,-1.88391 2.5006,1.61344 2.75913,2.07159c1.16114,2.05774 3.61574,1.24353 4.4637,3.17423c0.81161,1.84791 -0.82149,4.35067 -0.01329,6.09315c0.85543,1.84431 1.76849,1.75316 3.16655,1.77023c-0.01536,0.12799 -0.01759,0.25672 -0.00084,0.38622c0.56802,4.39004 5.39127,3.29972 8.09987,4.64118c1.69475,0.83934 2.94516,1.95271 5.00681,1.59188c1.67075,-0.29241 2.60604,-0.99314 4.38866,-0.9773l0.10529,0.04488c0.71531,3.64983 1.76677,6.34751 6.05115,6.26513l1.38997,-1.04553c0,0 0.48428,-0.32702 0.58467,-0.795c0.69837,0.30135 1.18257,1.76561 0.52713,2.80165l-0.28228,0.35715c0,0 -0.05241,0.06992 -0.11104,0.18659c-1.35939,0.5904 -2.30049,1.42917 -2.13052,3.45862c0.06175,0.73734 1.44284,1.14463 1.2252,1.85182c-0.22229,0.72227 -1.62176,0.18943 -2.14466,0.73502c-1.58306,1.65176 -0.31889,4.15619 -1.50896,5.51513c-0.60755,0.69375 -1.94185,0.39976 -2.53654,1.10457c-1.7704,2.09823 -0.81173,6.31718 -1.01988,8.85471c-0.86494,2.18251 -2.95213,3.38987 -4.25303,5.31458l-0.28863,0.72695c0,0 -0.09576,0.28755 -0.0516,0.62648c-0.64147,1.35727 -1.10861,3.05393 0.12779,3.81866c0.76369,0.47235 1.69615,-0.23925 2.53447,-0.56108c0.4295,-0.16489 1.46219,-1.22307 1.18378,-0.85681c-0.69983,0.92066 -1.82447,1.48934 -2.32654,2.58667c-1.23381,2.69664 -2.22641,7.08361 -5.85861,7.18555c-2.60705,2.09111 -5.84793,8.85291 -2.54136,11.8247c1.23228,1.10752 3.72721,0.87058 4.34946,2.85849c0.84574,2.70186 -2.29753,8.31966 0.82412,10.2763c1.7706,1.1098 4.29133,-0.21032 5.7015,-1.04931c0.06456,-0.23282 1.01978,-2.8607 1.4302,-4.14825c0.19329,0.49109 0.76259,1.12918 1.07061,1.44468c1.34014,1.3727 2.70254,2.33365 4.70056,2.0436c0.33913,-0.04923 0.69301,-0.40748 1.03561,-0.40037c0.89937,0.01866 1.09829,1.5884 1.99256,1.68588c1.05832,0.11537 1.80576,-1.53052 2.86382,-1.41279c0.88412,0.09838 1.48662,1.0594 2.35388,1.25739c2.56561,0.5857 4.83613,-0.32958 7.32467,-0.54297c1.23966,0.00105 4.16285,-0.52052 5.25555,0.12792c0.48337,0.28685 0.83663,0.89091 1.11221,1.59276c-0.00887,0.22372 0.03241,0.38906 0.03241,0.38906l0.42636,1.06574c0.04515,0.16984 0.08797,0.33739 0.12916,0.49966c0.01586,-0.01927 0.03173,-0.03855 0.04761,-0.05779l0.12773,0.31927c2.14276,1.60738 3.51003,1.41026 6.04155,1.52686c0.23602,0.01087 3.0388,0.10006 3.20399,0.521c0.29154,0.74287 -0.04262,1.60274 0.06152,2.39395c0.76913,1.19193 3.20276,2.98538 3.36898,4.34477c0.30691,2.5099 -0.34003,4.23408 0.61767,6.76427c0.22104,0.58398 0.09312,1.399 0.58886,1.77864c0.37057,0.28379 0.79859,0.46174 1.24885,0.54733c-0.02529,-0.11756 -0.04492,-0.24246 -0.05819,-0.37513c-0.24876,-2.48759 2.23883,-2.73635 2.23883,-2.73635c1.42624,-0.08007 3.83205,-0.51146 5.53373,0.24508l0.04743,0.00949c0.16821,0.01443 0.33163,0.04821 0.49106,0.09821l0.87141,0.17428c0.95622,0.17175 1.72371,0.88723 1.97098,1.81499l1.46081,1.27821l0.26337,0.14181c0.52039,0.26711 0.93488,0.71137 1.16382,1.25317c1.03919,-0.2348 1.99333,-0.1257 2.35895,0.97236h1.8372c1.38071,0 2.5,1.11929 2.5,2.5c0,1.22065 -0.87483,2.23698 -2.0317,2.45621l-1.00752,0.21211c-0.00674,0.01272 -0.01358,0.02538 -0.02053,0.03797c0.38821,0.27408 0.69485,0.65597 0.87637,1.10211zM28.47985,452.71328c0.00001,0.00001 0.00003,0.00003 0.00004,0.00004l-0.00001,0.00001z" fill="#d0d0d0" stroke-width="0.5"/><path d="M-0.8975,420.9536c0,0 1.78476,-0.00237 2.34239,-1.50061l0.77198,-0.31274c1.27289,-0.64568 2.46952,-2.03864 3.78538,-2.48548c1.26511,-0.42961 2.69717,0.98037 4.13772,0.74901c1.41078,-0.22658 4.28495,-4.13206 5.20249,-3.74762c1.0605,0.44435 1.57684,1.72688 2.21503,2.56144c2.00749,2.62519 2.98214,4.3179 4.04665,7.41365c0.56033,0.73258 1.81345,2.58652 2.75749,2.90396c1.03633,0.34848 3.26572,-1.12367 3.93697,0.62704c0.31876,0.83136 0.61011,3.74834 -0.16108,4.42458c-0.41879,0.36722 -1.18557,0.31627 -1.47005,0.79513c-0.41836,0.70421 -0.11707,3.01044 -0.05432,3.78965c0.25224,3.13216 1.1134,5.06174 3.15189,7.44233c0,0 0.02855,0.03344 0.08125,0.08227c-2.17752,0.20517 -2.17968,2.491 -2.17968,2.491c0.01743,2.1982 -0.09787,6.21288 -2.28868,7.64069c-0.62965,0.41035 -4.31378,1.21632 -4.69013,1.34172c-9.39132,3.1295 -22.88956,5.69887 -31.56528,-0.46399c-5.41384,-6.56606 -7.26192,-14.95416 -8.23458,-23.17453c-0.22803,-1.92718 -1.19937,-4.99541 0.33724,-6.66758c0.89611,-0.97516 2.58408,-0.73665 3.64529,-0.93169c4.3283,-0.79549 8.14602,-3.01139 12.56118,-2.97637l1.67085,-0.00189z" data-paper-data="{&quot;noHover&quot;:false,&quot;origItem&quot;:[&quot;Path&quot;,{&quot;applyMatrix&quot;:true,&quot;segments&quot;:[[-7.75807,860],[[-11.09141,860],[0,0],[-8.83032,-0.07004]],[[-36.17331,865.91498],[8.6566,-1.59098],[-2.12242,0.39008]],[[-43.45913,867.7694],[1.79222,-1.95032],[-3.07324,3.34434]],[[-44.12587,881.08048],[-0.45606,-3.85436],[1.9453,16.44074]],[[-27.68995,927.33526],[-10.82768,-13.13212],[17.35144,12.32572]],[[35.31237,928.26164],[-18.78264,6.259],[0.7527,-0.25082]],[[44.68063,925.58978],[-1.2593,0.8207],[4.38162,-2.85562]],[[49.24195,910.33334],[0.03486,4.3964],[0,0]],[[53.59699,905.3628],[-4.35504,0.41034],[-0.1054,-0.09766]],[[53.43443,905.19846],[0,0],[-4.07698,-4.76118]],[[47.12627,890.34258],[0.50448,6.26432],[-0.1255,-1.55842]],[[47.23633,882.78062],[-0.83672,1.40842],[0.56896,-0.95772]],[[50.17683,881.1926],[-0.83758,0.73444],[1.54238,-1.35248]],[[50.50379,872.3602],[0.63752,1.66272],[-1.3425,-3.50142]],[[42.63359,871.11464],[2.07266,0.69696],[-1.88808,-0.63488]],[[37.12837,865.32256],[1.12066,1.46516],[-2.12902,-6.1915]],[[29.06181,850.51982],[4.01498,5.25038],[-1.27638,-1.66914]],[[24.64335,845.40318],[2.121,0.8887],[-1.83508,-0.76888]],[[14.25387,852.90402],[2.82156,-0.45316],[-2.8811,0.46272]],[[5.99989,851.40934],[2.53022,-0.85922],[-2.63172,0.89368]],[[-1.54941,856.37898],[2.54578,-1.29136],[0,0]],[[-3.08867,857.00354],[0,0],[-1.11526,2.99648]],[-7.75803,860.00002]],&quot;closed&quot;:true,&quot;fillColor&quot;:[0,0,0],&quot;strokeWidth&quot;:0.5}]}" fill="#d0d0d0" stroke-width="0.25"/><path d="M38.40434,441.92752c-0.02104,-0.14263 -0.01758,-0.29134 0.01396,-0.44065c0.14267,-0.67545 0.80589,-1.10736 1.48134,-0.96469c0.48114,0.10163 0.83872,0.46739 0.95305,0.91356l0.6627,2.38318l-0.33014,0.0918c0.95026,2.24311 1.49769,4.4692 2.327,7.09207c1.46216,4.62441 3.47576,9.04698 4.59471,13.77447l0.49845,2.1128c0.04691,0.18107 0.05373,0.37548 0.01245,0.57092c-0.14267,0.67545 -0.80589,1.10736 -1.48134,0.96469c-0.4644,-0.09809 -0.81368,-0.44226 -0.94023,-0.86728l-0.16276,-0.51149l0.11813,0.55662c0.0409,0.17348 0.04516,0.35849 0.00589,0.54442c-0.14267,0.67545 -0.80589,1.10736 -1.48134,0.96469c-0.17261,-0.03646 -0.32931,-0.10691 -0.46458,-0.20287c-0.00405,0.05658 -0.012,0.11355 -0.02406,0.17061c-0.11048,0.52306 -0.53312,0.90007 -1.03187,0.97732c-0.0032,0.05292 -0.00781,0.10559 -0.01372,0.15803l0.02603,0.00173l-0.11563,1.74243c-0.00328,0.06524 -0.01174,0.13107 -0.02566,0.19701c-0.14267,0.67545 -0.80589,1.10736 -1.48134,0.96469c-0.34156,-0.07214 -0.62085,-0.2774 -0.79505,-0.55004l-0.33321,-0.52076c0.13542,2.45416 0.14521,4.94365 0.30054,7.31489l-0.04233,0.12012l0.03218,0.00425l-0.32573,2.46486c-0.00439,0.03596 -0.01038,0.07203 -0.01801,0.10815c-0.14267,0.67545 -0.80589,1.10736 -1.48134,0.96469c-0.32934,-0.06956 -0.60079,-0.26288 -0.77596,-0.52104l-1.40599,-2.06489l0.24798,-0.16886c-1.63515,-2.11533 -2.9403,-4.49605 -3.9851,-7.03246c-0.26685,0.17122 -0.59857,0.24162 -0.93329,0.17092c-0.46319,-0.09783 -0.81186,-0.44046 -0.93924,-0.86395l-0.60635,-1.88824l0.00905,-0.00291l-0.01946,-0.03117c-1.43038,-5.51253 -2.34248,-11.05116 -3.45414,-16.62796c-0.47947,-2.40534 -1.60696,-4.92414 -0.6838,-7.02047l-0.48371,-1.5696c-0.06664,-0.20243 -0.08235,-0.42463 -0.03514,-0.64816c0.14267,-0.67545 0.80589,-1.10736 1.48134,-0.96469c0.43472,0.09182 0.76856,0.39926 0.91327,0.78681c0.05438,-0.00849 0.10968,-0.01342 0.16557,-0.01458c-0.05886,-0.26364 -0.11867,-0.5267 -0.17965,-0.78909l-0.41426,-1.58602c-0.05358,-0.18886 -0.06333,-0.39314 -0.01994,-0.59855c0.14267,-0.67545 0.80589,-1.10736 1.48134,-0.96469c0.48823,0.10312 0.84922,0.47822 0.95794,0.93332l0.52658,2.01603c0.06396,-0.00966 0.12915,-0.01439 0.19509,-0.01387l0.16016,-0.75827c0.14267,-0.67545 0.80589,-1.10736 1.48134,-0.96469c0.19675,0.04156 0.37283,0.12728 0.52008,0.24461c-0.01287,-0.12574 -0.00673,-0.25558 0.0208,-0.38588c0.14267,-0.67545 0.80589,-1.10736 1.48134,-0.96469c0.43125,0.09109 0.76322,0.39437 0.90977,0.77755l0.66124,1.65628l-0.01042,0.00416l0.02101,0.02328c0.08951,0.25882 0.17869,0.51778 0.2676,0.77688c0.22377,-0.09159 0.47644,-0.11937 0.73084,-0.06564c0.11494,0.02428 0.22282,0.06363 0.32202,0.11555c0.00956,0.00179 0.01913,0.00369 0.0287,0.00571c0.11763,0.02485 0.22788,0.06549 0.32899,0.11922c0.19534,-0.23412 0.47218,-0.39131 0.77691,-0.43662zM45.52905,464.75591c-0.07187,-0.13963 -0.14297,-0.27995 -0.21333,-0.42093c0.02018,0.3032 0.03659,0.60579 0.04898,0.90768l0.08871,-0.01883l-0.00778,-0.02445l0.17846,-0.05678c-0.03107,-0.12908 -0.06276,-0.25796 -0.09505,-0.38668zM38.14669,478.09223c-0.07267,-1.43909 -0.10257,-2.91204 -0.15713,-4.38324c-0.04245,0.01014 -0.08559,0.01809 -0.12927,0.02375l0.14546,1.2751c0.01917,0.13906 0.01506,0.28375 -0.01562,0.429c-0.09307,0.44063 -0.40766,0.77761 -0.80265,0.91906c0.33803,0.57789 0.67627,1.14867 0.95921,1.73634zM33.60692,445.48591c0.01415,0.30859 0.0264,0.61732 0.03693,0.92617c0.00023,0.00005 0.00046,0.0001 0.0007,0.00015c0.05925,0.01252 0.11663,0.02903 0.17191,0.04922c-0.07078,-0.32486 -0.14065,-0.65002 -0.20954,-0.97553z" fill="#d0d0d0" stroke-width="0.5"/><path d="M203.48458,312.52781c0,0.04379 -0.00307,0.08451 -0.00877,0.12238c0.0149,0.11482 0.00027,0.20259 0.00027,0.20259c-0.18517,1.08441 -0.83442,3.75342 -2.27608,3.95541c-1.01581,0.14232 -4.12748,-2.40247 -3.71827,-3.56624c0.43545,-1.23839 3.90673,-1.33416 4.9334,-1.33914h0.44445c0,0 0.625,0 0.625,0.625zM202.14235,313.17985c-0.82864,0.12291 -2.84889,0.61689 -3.35768,0.47241c0.17763,0.18039 0.48202,0.51177 0.62796,0.65584c0.03459,0.03415 1.46587,1.29572 1.55097,1.27266c0.60448,-0.16382 0.99457,-1.53677 1.17874,-2.40091z" fill="#000000" stroke-width="0.5"/><path d="M202.18301,313.15074c-0.18417,0.86414 -0.5957,2.31233 -1.20018,2.47615c-0.0851,0.02306 -1.58549,-1.2881 -1.62008,-1.32225c-0.14594,-0.14407 -0.44632,-0.49191 -0.62395,-0.6723c0.50879,0.14448 2.61558,-0.35869 3.44422,-0.4816z" data-paper-data="{&quot;noHover&quot;:false,&quot;origItem&quot;:[&quot;Path&quot;,{&quot;applyMatrix&quot;:true,&quot;segments&quot;:[[[202.14235,313.17981],[0,0],[-0.82864,0.12291]],[[198.78467,313.65222],[0.50879,0.14448],[0.17763,0.18039]],[[199.41263,314.30806],[-0.14594,-0.14407],[0.03459,0.03415]],[[200.9636,315.58072],[-0.0851,0.02306],[0.60448,-0.16382]],[[202.14234,313.17981],[-0.18417,0.86414],[0,0]]],&quot;closed&quot;:true,&quot;fillColor&quot;:[0,0,0,1],&quot;strokeWidth&quot;:0.5}]}" fill="#907d7d" stroke-width="0.25"/><path d="M-3.20861,427.82142c-0.46424,-1.1606 0.69636,-1.62483 0.69636,-1.62483l0.61951,-0.24315c1.44796,-0.71123 2.66659,-2.22077 4.22535,-2.65804c1.78304,-0.50018 3.81059,1.51014 5.32549,0.32743c1.8318,-1.43012 2.35198,-4.08752 5.35278,-3.32434c1.75718,0.44689 2.52418,2.15902 3.50505,3.44168c2.03341,2.65905 3.24021,4.55071 4.25244,7.74148c0.4338,0.5446 0.5714,1.50865 1.24739,1.67539c2.04326,0.50398 4.08599,-1.02019 5.49347,1.94865c0.91402,1.92796 0.75489,5.6989 -0.69366,7.29809c-0.25849,0.28537 -0.82908,0.07641 -1.10118,0.34884c-0.52884,0.52948 0.2815,1.47303 0.34075,2.21902c0.20935,2.63575 0.84228,3.99849 2.56021,6.00064c0,0 0.81349,0.94907 -0.13558,1.76256c-0.94907,0.81349 -1.76256,-0.13558 -1.76256,-0.13558c-2.03849,-2.38059 -2.90184,-4.29578 -3.15408,-7.42794c-0.06275,-0.77921 -0.36333,-3.07677 0.05503,-3.78098c0.28448,-0.47886 1.05146,-0.42679 1.47025,-0.79401c0.77119,-0.67624 0.48224,-3.58484 0.16348,-4.4162c-0.67125,-1.75071 -2.89877,-0.2743 -3.9351,-0.62278c-0.94404,-0.31744 -2.19228,-2.16346 -2.75261,-2.89604c-1.06451,-3.09575 -2.02579,-4.77618 -4.03328,-7.40137c-0.63819,-0.83457 -1.14873,-2.11397 -2.20923,-2.55832c-0.91754,-0.38444 -3.78396,3.52384 -5.19474,3.75042c-1.44055,0.23136 -2.86188,-1.17695 -4.12699,-0.74734c-1.31586,0.44684 -2.50176,1.83914 -3.77465,2.48482l-0.80906,0.32828c0,0 -1.1606,0.46424 -1.62483,-0.69636z" fill="#000000" stroke-width="0.5"/><path d="M354.47394,484.11805c-1.11803,0.55902 -1.67705,-0.55902 -1.67705,-0.55902l-0.38197,-0.76393c-1.77946,-3.58033 -2.48733,-7.47925 -3.68915,-11.28471c-1.35763,-4.29881 -3.07525,-8.3715 -4.72436,-12.55347c-1.06254,-2.69449 -1.85775,-6.03033 -3.97038,-8.07301c0,0 -0.13935,-0.13935 -0.25206,-0.36272c-1.69265,-0.43271 -3.50427,-0.45857 -5.24851,-0.35004c-0.8041,0.05003 -1.27403,1.13693 -2.07263,1.24333c-0.85577,0.11401 -1.83366,-0.07707 -2.51909,-0.60198c-0.49574,-0.37964 -0.36794,-1.19425 -0.58898,-1.77823c-0.9577,-2.53019 -0.31122,-4.25266 -0.61813,-6.76256c-0.16622,-1.35939 -2.60008,-3.15189 -3.36921,-4.34382c-0.10414,-0.79121 0.22988,-1.65043 -0.06166,-2.3933c-0.16519,-0.42094 -2.87018,-0.48923 -3.1062,-0.5001c-2.53152,-0.1166 -3.99659,0.05964 -6.13935,-1.54774l-0.12775,-0.31918c-0.01588,0.01924 -0.03175,0.0385 -0.04761,0.05777c-0.04119,-0.16227 -0.08404,-0.32968 -0.12919,-0.49952l-0.42642,-1.06545c0,0 -0.0413,-0.16523 -0.03243,-0.38895c-0.27558,-0.70185 -0.62892,-1.3055 -1.11229,-1.59235c-1.0927,-0.64844 -3.91772,-0.10781 -5.15738,-0.10886c-2.48854,0.21339 -4.75919,1.12931 -7.3248,0.54361c-0.86726,-0.19799 -1.46971,-1.15926 -2.35383,-1.25764c-1.05806,-0.11773 -1.80564,1.52882 -2.86396,1.41345c-0.89427,-0.09748 -1.19095,-1.68824 -2.09032,-1.7069c-0.3426,-0.00711 -0.59867,0.37195 -0.9378,0.42118c-1.99802,0.29005 -3.45826,-0.69156 -4.7984,-2.06426c-0.30802,-0.3155 -0.77931,-0.93373 -0.9726,-1.42482c-0.41042,1.28755 -1.36598,3.91701 -1.43054,4.14983c-1.41017,0.83899 -4.02811,2.13565 -5.79871,1.02585c-3.12165,-1.95664 0.02082,-7.57065 -0.82492,-10.27251c-0.62225,-1.98791 -3.11732,-1.75012 -4.3496,-2.85764c-3.30657,-2.97179 -0.06619,-9.7287 2.54086,-11.81981c3.6322,-0.10194 4.62473,-4.486 5.85854,-7.18264c0.50207,-1.09733 1.62673,-1.66503 2.32656,-2.58569c0.27841,-0.36626 -0.6543,0.68972 -1.0838,0.85461c-0.83832,0.32183 -1.87077,1.03511 -2.63446,0.56276c-1.2364,-0.76473 -0.76922,-2.45989 -0.12775,-3.81716c-0.04416,-0.33893 0.05161,-0.62624 0.05161,-0.62624l0.28864,-0.72667c1.3009,-1.92471 3.38823,-3.13016 4.25317,-5.31267c0.20815,-2.53753 -0.75011,-6.75326 1.02029,-8.85149c0.59469,-0.70481 1.92903,-0.41057 2.53658,-1.10432c1.19007,-1.35894 -0.07376,-3.86154 1.5093,-5.5133c0.5229,-0.54559 1.92239,-0.01265 2.14468,-0.73492c0.21764,-0.70719 -1.1633,-1.11377 -1.22505,-1.85111c-0.16997,-2.02945 0.77136,-2.86723 2.13075,-3.45763c0.05863,-0.11667 0.11105,-0.18654 0.11105,-0.18654l0.2823,-0.35706c0.65544,-1.03604 0.17148,-2.49935 -0.52689,-2.8007c-0.10039,0.46798 -0.48799,0.76944 -0.48799,0.76944l-1.48676,1.07065c-4.28438,0.08238 -5.33508,-2.61266 -6.05039,-6.26249l-0.10528,-0.04485c-1.78262,-0.01584 -2.71787,0.68503 -4.38862,0.97744c-2.06165,0.36083 -3.31169,-0.75142 -5.00644,-1.59076c-2.7086,-1.34146 -7.53084,-0.24847 -8.09886,-4.63851c-0.01675,-0.1295 -0.01446,-0.2581 0.0009,-0.38609c-1.39806,-0.01707 -2.31066,0.07516 -3.16609,-1.76915c-0.8082,-1.74248 0.82586,-4.24321 0.01425,-6.09112c-0.84796,-1.9307 -3.30164,-1.11473 -4.46278,-3.17247c-0.25853,-0.45815 -1.02621,-3.95436 -2.75848,-2.07045c-0.54119,0.58857 0.13801,1.76281 -0.385,2.36759c-0.48768,0.56394 -1.34167,0.65064 -2.0125,0.97597c-0.73208,0.00811 -1.58758,-0.32878 -2.19492,0.08006c-0.70837,0.47686 -0.8026,1.63464 -1.55736,2.03405c-2.9583,1.56548 -5.61994,-1.00275 -8.22879,-1.3473c-1.48906,-0.19666 -1.16936,1.11935 -2.14333,1.76538c-1.28325,0.85118 -2.9733,0.31908 -4.37461,0.59262c-3.17326,0.61944 -6.00516,0.91533 -6.23609,-3.1589c0.13349,-1.48302 0.29383,-2.79715 0.65827,-4.23521c0.11927,-0.47061 0.83956,-1.26355 0.3758,-1.40715c-1.02697,-0.31798 -2.77439,-1.54513 -3.89963,-1.68124c-2.02837,-0.24536 -2.59642,2.76646 -5.05163,2.49418c-2.75732,-0.30579 -3.97983,-4.76601 -3.7077,-6.95149c-0.00139,-0.02404 -0.00139,-0.03745 -0.00139,-0.03745l0.02017,-0.52639c-0.30841,-1.88012 -1.17477,-2.4612 -2.64626,-3.58201c-2.68728,-3.41089 -2.53529,-6.23066 -0.31222,-9.92377c0.35528,-0.59021 1.19111,-0.90362 1.33549,-1.57722c0.14947,-0.6974 -0.84479,-1.17479 -1.07589,-1.84955c-0.06589,-0.19239 -0.01023,-2.85841 -0.5878,-3.02778c-1.7454,-0.51181 -3.27018,0.91942 -4.95987,-0.8578c-0.01316,-0.01384 -0.53524,-1.21251 -0.37311,-1.90299c-0.15311,0.18379 -0.32416,0.38654 -0.40836,0.50785c-0.22815,0.32871 -0.35833,0.71553 -0.5375,1.07331c-0.08662,1.44006 0.15395,3.27326 -0.25753,4.65109c-0.57891,1.93843 -2.11802,2.32995 -3.50794,3.46373c-2.34623,1.91384 -2.7488,5.07411 -6.39864,5.5405c-3.02659,0.38675 -4.38297,-2.09251 -6.81082,-2.80313c-1.47951,-0.43304 -3.87977,0.06529 -5.4632,-0.06557c-2.11241,-0.19204 -6.85449,-0.70887 -4.99361,-4.3351c1.22287,-2.38296 3.9095,-1.08183 5.78071,-1.24316c0.52662,-0.04541 1.03008,-2.65189 1.22242,-3.01266c0.35282,-0.66179 1.09652,-1.2044 1.1151,-1.95414c0.01336,-0.53897 -1.03684,-0.35148 -1.47257,-0.66899c-1.36864,-0.99732 -1.16291,-1.91756 -2.75781,-2.49565c0,0 -0.34426,-0.13771 -0.5828,-0.45062c-0.15903,-0.04047 -0.26198,-0.09194 -0.26198,-0.09194l-0.44099,-0.36804c-0.40427,-0.01114 -0.80854,-0.02229 -1.21281,-0.03344c-2.69177,1.37779 -3.64615,5.07066 -6.23996,6.83729c-0.35934,0.24475 -1.73892,0.42126 -2.19009,0.85598c-1.87223,1.80402 0.74549,4.02082 -2.57647,5.3975c-1.50321,0.62296 -3.68244,-0.24931 -5.17212,-0.44037c-2.34354,-0.30057 -4.55484,0.15927 -6.73019,0.94939c-5.07405,1.29129 -5.24715,-2.94172 -4.06972,-6.69472c0.08329,-0.26548 1.78164,-3.38119 1.10704,-3.71738c-2.8395,-1.41505 -6.91675,2.67705 -9.3065,3.41803c0,0 -0.00968,0.0029 -0.02757,0.00732c-0.28054,0.28985 -0.65345,0.38307 -0.65345,0.38307l-0.83893,0.19792c-0.57633,0.22922 -1.28343,0.20364 -1.7619,0.59832c-0.38821,0.32022 0.53829,0.8509 0.82751,1.26273c0.38995,2.00563 -1.05997,3.73749 -0.6774,5.36697c0.803,3.42032 6.66104,4.18926 3.91161,8.34227c-2.83961,4.28922 -6.37394,2.12226 -9.60944,0.24321c-1.37184,-0.7967 -4.60381,-0.98696 -6.15462,-0.9741c-1.15089,0 -2.39526,-0.1334 -3.53365,-0.07554c-0.20608,0.01047 0.23329,0.36395 0.41739,0.45716c1.11058,0.5623 1.98868,0.46495 2.7752,1.66591c0.86106,1.3148 -0.05703,3.1353 0.73012,4.22158c1.49122,2.05793 4.80642,0.82763 6.12708,3.72068c0.72002,1.57729 0.27186,3.83206 -0.56753,5.27542c-0.74896,1.28787 -1.66159,1.19585 -1.23576,2.68229c0.055,0.76622 0.6399,1.69484 0.16502,2.29867c-1.17785,1.49766 -4.96729,0.177 -5.71667,-1.13215c-0.83021,-1.45037 0.05071,-3.63538 0.73252,-4.94595c0.39178,-0.75308 1.81236,-1.89377 1.07244,-2.30987c-1.09929,-0.61819 -2.45175,-0.89879 -3.50169,-1.76086c-1.91289,-1.57062 -2.15573,-3.63121 -3.09516,-5.70419c-0.28365,-0.62592 -0.62843,1.23237 -0.8142,1.89398c-1.06239,2.57866 -3.08391,3.7302 -5.09965,5.52214c-4.4545,3.95992 -9.65138,11.44408 -16.39249,9.68487c-0.14311,0.00711 -0.23974,-0.00669 -0.23974,-0.00669l-0.07345,-0.0958c-0.05166,-0.02364 -0.11386,-0.05542 -0.18017,-0.09644c-1.94649,0.88957 -2.15168,2.74086 -3.94344,3.78666c-1.22206,0.71328 -2.783,0.09422 -3.97691,0.67789c-1.62096,0.79246 -1.70534,3.28841 -3.73707,3.58181c-5.32642,0.76918 -0.94973,-6.27929 -3.72974,-3.63735c-1.92156,1.59575 -5.41986,2.20527 -7.71461,0.7341c-2.21188,-1.41805 -1.89147,-4.09194 -1.5819,-6.35334c0.09189,-0.67125 0.73633,-1.46195 0.33162,-2.0053c-0.41826,-0.56153 -2.98108,-0.76373 -3.61459,-0.83835c-3.78842,-0.44617 -6.87728,-0.23321 -10.41199,-1.99829c-0.86409,-0.43205 -4.29362,-2.73232 -5.19019,-2.30087c-1.38383,0.66593 -1.05164,1.59006 -3.14088,1.2794c-1.90371,-0.28307 -2.23156,-1.84886 -4.50238,-0.5621c-0.29812,0.16893 1.51465,3.71227 1.20332,4.73582c-0.60183,1.97858 -2.80988,2.50724 -4.50769,2.94239c0,0 -0.30364,0.0759 -0.64503,-0.00018c-1.9053,0.29628 -5.25377,0.78044 -6.62296,0.0146c-1.78493,-0.99838 -0.66167,-2.98356 -2.14114,-3.63379c-1.06818,-0.46947 -2.41453,-0.38454 -3.31355,-1.12829c-1.87212,-1.54879 -0.44,-2.73535 -1.30459,-4.24464c-0.54398,-0.9496 -1.86621,-1.58351 -1.90016,-2.67735c-0.06583,-2.12117 2.12161,-3.75274 3.28634,-5.22021c-0.01823,-0.6189 -0.98786,-0.8064 -1.26523,-1.35997c-0.38511,-0.76863 0.46164,-1.86377 -0.01523,-2.5791c-0.12125,-0.18189 -2.84032,0.26648 -3.06394,0.32522c-2.64531,0.69486 -5.98871,4.25422 -8.70219,3.90878c-1.4183,-0.18056 -2.01358,-1.06673 -2.57421,-2.04194c0.5377,1.36485 1.71339,5.99955 0.15951,6.70929c-4.23335,1.9336 -2.56025,-2.7841 -3.36585,-3.59171c-0.26884,-0.26952 -0.80024,-0.56385 -1.27678,-0.89994c0.14218,0.50018 0.17638,1.00705 -0.0486,1.48123c-0.58339,1.22956 -2.17003,1.27404 -3.21012,1.65107c-1.69778,0.61545 -3.28871,1.5681 -4.86183,2.44049c-4.86412,2.21401 -8.54531,5.63285 -12.30372,9.39266l-0.14085,0.42513c0,0 -0.55902,1.11804 -1.67705,0.55902c-1.11804,-0.55901 -0.55902,-1.67705 -0.55902,-1.67705l0.60915,-1.07487c3.94166,-3.94024 7.83858,-7.53898 12.94628,-9.85734c1.66211,-0.92518 3.3445,-1.90529 5.13817,-2.55951c0.57106,-0.20828 1.56647,0.21638 1.78988,-0.34893c0.70719,-1.78954 -3.04315,-2.34965 0.04244,-4.74917c0.50186,-0.39027 1.36719,-0.41817 2.21482,-0.23014c-0.01684,-0.63182 0.41352,-1.26676 1.65853,-1.90479c2.20167,-1.12829 3.87871,1.16695 4.77503,2.61534c0.01492,0.02411 0.56998,1.16614 0.95325,1.17569c0.82956,0.02067 2.66616,-1.54224 3.28799,-1.86586c2.3223,-1.20862 7.83215,-4.10427 10.19588,-1.40013c0.64284,0.73542 -0.28367,2.09306 0.23476,2.9209c0.28153,0.44955 1.01836,0.51139 1.24511,0.99091c0.30813,0.65163 0.15978,1.43274 0.23967,2.14912c-0.70335,1.1404 -3.08047,3.12662 -3.21366,4.52979c-0.07066,0.74444 1.26517,0.90393 1.59984,1.57265c0.43894,0.87707 0.06445,1.97923 0.32774,2.924c0.3569,1.28068 2.47812,0.95153 3.30412,1.45307c0.65769,0.39935 1.22226,0.98333 1.62626,1.63817c0.35636,0.57761 -0.16481,1.77438 0.4826,1.97804c1.36462,0.42928 4.28897,-0.15975 5.72011,-0.38337c0,0 0.18266,-0.0281 0.41831,0.00754c0.80286,-0.1729 1.83172,-0.45441 2.0859,-1.16736c0.74934,-2.10177 -3.42557,-2.99768 -0.54669,-5.76418c2.24721,-2.15949 4.68194,-0.95324 6.74762,-0.0621c0.19138,0.08256 2.84206,-1.43869 3.79847,-1.23847c1.6339,0.34207 3.61786,1.7157 5.12046,2.467c4.25763,2.13173 8.88906,0.65543 13.15588,2.5827c0.64236,0.29014 1.42388,0.49599 1.81754,1.08066c1.44359,2.14401 -2.11599,7.42306 1.54279,7.97081c0.71755,0.10742 1.45246,0.03498 2.1766,-0.01006c0.5904,-0.03672 1.13686,-0.42788 1.56572,-0.8353c0.60712,-0.45583 1.08109,-1.19911 1.82138,-1.3675c3.11803,-0.70927 3.65107,2.48616 2.91585,4.61124c-0.09059,0.26183 0.36431,-0.41824 0.52966,-0.64055c1.06227,-1.42816 0.96567,-1.99699 2.7663,-2.90873c1.06392,-0.53872 2.80425,0.00741 3.77309,-0.57211c1.71788,-1.02756 2.14169,-2.92215 4.22734,-3.92809l1.44975,0.02071c0.30692,-0.03345 0.55826,0.04195 0.55826,0.04195c5.30441,1.7219 10.74488,-6.05404 14.18536,-9.11197c1.59341,-1.41625 3.61864,-2.43301 4.40034,-4.47786c0.14807,-0.47032 0.19496,-0.9855 0.44421,-1.41094c0.35242,-0.60155 0.71014,-1.29368 1.32873,-1.61525c0.71971,-0.37414 1.30619,-0.49095 1.79626,-0.42016c-0.35786,-0.27563 -0.6328,-0.72626 -0.74281,-1.53684c-0.50487,-3.72007 3.80988,-2.97968 5.97872,-2.97968c2.00202,0.01329 5.52944,0.31417 7.34538,1.2759c1.82343,0.96569 3.32862,3.18285 5.49746,1.37405c2.93808,-2.45033 -2.86564,-4.12991 -3.44528,-7.28857c-0.35744,-1.94777 1.20921,-3.07253 0.8226,-4.88303c-1.81654,-2.84841 -0.38662,-4.05255 2.31561,-5.13895l1.13962,-0.29651c0.26135,-0.26646 0.59043,-0.36518 0.59043,-0.36518c3.01596,-0.86469 7.92323,-5.85601 11.4435,-3.08197c2.85691,2.2513 -0.14887,5.20759 -0.47037,7.69518c-0.11927,0.9228 -1.0456,2.24742 -0.28073,2.77728c0.43452,0.301 1.03244,-0.23163 1.53843,-0.38455c2.49957,-0.91001 5.08814,-1.37815 7.7698,-1.05061c0.32419,0.0396 4.31587,1.14798 4.48566,0.31778c0.1827,-0.89333 -0.27248,-1.88824 0.06664,-2.73465c0.96082,-2.39812 2.03471,-1.90892 3.75902,-3.02002c3.00979,-1.93943 3.64416,-5.50052 7.01004,-7.16271c0.59573,-0.01114 1.19146,-0.02229 1.78719,-0.03344l1.55902,0.63196c0,0 0.27051,0.13526 0.47888,0.40577c0.10889,0.02469 0.17634,0.05167 0.17634,0.05167c1.68321,0.71484 1.92312,1.86031 3.24218,2.75435c0.9487,0.64302 2.31011,1.20572 2.52744,2.33101c0.36165,1.87255 -1.45892,3.04503 -1.90044,4.64494c-0.15083,0.54656 0.07954,1.22224 -0.252,1.6822c-0.48377,0.67116 -1.23273,1.1727 -2.01003,1.45606c-0.1755,0.06398 -7.23313,0.26022 -2.5879,0.54674c0.45935,0.02833 0.91666,0.08333 1.375,0.125c1.81188,0.15234 4.32466,-0.33611 6.03679,0.18443c1.92227,0.58443 3.36568,3.01127 5.68919,2.69687c2.16691,-0.29321 2.91123,-2.30442 4.04801,-3.77089c0.90445,-1.16674 3.46573,-2.02136 3.79541,-3.47488c0.31585,-1.39256 0.11679,-3.18176 0.24246,-4.59891c0.78725,-1.57588 2.5044,-4.95006 5.073,-3.29629c0.78236,0.50372 0.00952,2.012 0.60804,2.72446c0.48753,0.58034 1.51599,0.00866 2.27361,0.03049c1.81039,0.05217 2.20304,-0.19051 3.25092,1.70704c0.38186,0.69149 1.69223,5.38561 1.60191,6.02735c-0.08098,0.5754 -1.31038,1.83036 -1.66451,2.42278c-1.58731,2.65542 -1.95656,4.34784 -0.06222,6.82623c1.90085,1.39911 2.89282,2.55131 3.35374,4.91799l0.02016,0.97361c0,0 0,0.03039 -0.00474,0.0817c0.0041,0.17028 -0.01953,0.28844 -0.01953,0.28844c-0.19077,0.73561 0.49811,4.10622 1.56519,4.14092c0.85375,0.02776 2.33035,-1.87806 3.13334,-2.17696c2.61351,-0.97287 3.3458,0.87367 5.44919,1.59798c0.55482,0.19106 1.31673,-0.0379 1.71622,0.39192c1.54051,1.65747 -0.03228,5.60883 -0.21594,7.60764c-0.29136,2.11566 3.55865,0.50986 4.81964,0.44464c0.60575,-0.03133 1.37029,0.3965 1.81966,-0.01092c1.30288,-1.18123 1.56402,-2.43097 3.85667,-2.23462c1.86748,0.15993 4.70003,2.75044 6.77121,1.6527c0.71819,-0.38065 0.74756,-1.54459 1.44264,-1.96595c0.91177,-0.55271 2.06029,-0.43292 3.05508,-0.41994c0.90581,-0.04465 0.22716,-1.79777 1.1025,-2.65644c0.91343,-0.89605 4.24755,-1.14609 5.32067,-0.41054c1.37388,0.94169 0.93551,1.86157 1.42085,3.09009c0.40158,1.0165 2.39855,0.81793 3.15999,1.4678c0.58674,0.50077 1.03509,1.16836 1.37722,1.85972c0.96708,1.95423 -1.27067,6.607 1.35514,6.37681l0.80864,0.13873c0.18023,-0.04011 0.39365,-0.0383 0.64525,0.03032c1.20596,0.32889 0.87706,1.53485 0.87706,1.53485c-0.75545,2.06869 1.67854,2.66237 3.36662,2.93682c2.1701,0.35281 3.60861,1.49871 5.65562,2.00529c1.52267,0.37682 3.9488,-1.00882 5.64681,-1.02101l1.52029,0.43914c0,0 0.69828,0.23276 0.84456,0.8769c0.08775,0.18554 0.11498,0.33535 0.11498,0.33535c0.31336,1.77323 0.55109,4.26705 2.3976,4.72285c3.04088,-4.31715 7.74647,-0.31121 6.26143,3.92109c0.04681,0.0824 0.08867,0.17613 0.12416,0.28259c0.39529,1.18586 -0.79057,1.58114 -0.79057,1.58114c-0.26168,0.08512 -2.19473,0.3754 -1.8799,1.16105c0.53533,1.33587 1.91369,0.93492 1.06066,3.29175c-0.76779,2.12131 -1.69325,0.62009 -2.71246,1.55079c-1.25239,1.14363 -0.1565,3.9179 -1.34784,5.34385c-0.61156,0.73199 -1.94936,0.48982 -2.60628,1.1814c-0.36588,0.38518 -0.23258,2.10619 -0.23089,2.42817c0.00934,1.78438 -0.00419,3.515 -0.17738,5.29176c-0.88229,2.19356 -2.44675,3.39041 -3.8084,5.04288c0.00869,0.41577 -0.20422,0.75642 -0.20422,0.75642c-0.03505,0.05518 -0.10261,0.21019 -0.19261,0.41218c1.78003,-0.48717 3.18295,-0.15546 3.52406,2.15171c0.29389,1.98784 -1.97237,2.32141 -2.53058,3.70003c-1.19574,2.95315 -3.23854,8.67115 -7.28433,8.53165c-1.57079,1.61572 -1.78726,3.42656 -1.89889,5.5899c-0.03478,0.67401 -0.42451,1.6713 0.15403,2.01886c2.00053,1.20182 4.15655,1.31639 5.07897,3.99951c0.88988,2.58848 -2.65031,10.54935 2.23352,8.46762c0.28003,-1.70515 1.79106,-6.27017 4.39397,-5.71982c0.70304,0.14865 0.61406,1.3043 1.0056,1.90686c0.50999,0.78484 1.70898,1.93241 2.62696,2.21182c0.77459,0.23577 1.75068,-0.56384 2.40556,-0.45978c0.91847,0.14594 1.27548,1.58521 2.1954,1.72167c0.97039,0.14395 1.58416,-1.47694 2.56461,-1.44369c1.02707,0.03483 1.78399,1.09935 2.78903,1.3138c2.30036,0.49083 4.42647,-0.38583 6.67521,-0.59924c1.87372,-0.00148 4.88153,-0.54713 6.55691,0.46256c1.18858,0.71632 1.84599,2.11664 2.32675,3.54265c-0.02649,0.02687 -0.05293,0.05382 -0.07932,0.08085l-0.12309,0.3546c2.64083,2.1617 7.85567,-0.46285 9.89731,2.8093c0.0247,0.03958 0.18878,2.27759 0.22405,2.74955c0.78878,1.11889 2.15224,1.92409 2.86635,3.02137c1.25204,1.92383 0.26687,3.77002 0.35083,5.78084c0.04874,1.16724 0.72509,2.01246 0.77791,3.17032c0.0186,0.40759 0.44003,-0.73467 0.80032,-0.92616c0.53084,-0.28213 1.1549,-0.35343 1.75083,-0.4325c2.5276,-0.33537 5.39951,0.01954 7.74349,0.93908c0,0 1.12447,0.44979 0.71702,1.57073c1.71193,2.29339 2.55739,5.17665 3.61023,7.84724c1.66947,4.23469 3.40679,8.36148 4.7813,12.71444c1.15783,3.66675 1.81042,7.48062 3.54126,10.91951l0.38197,0.76393c0,0 0.55902,1.11803 -0.55902,1.67705zM137.01148,336.95436c2.04737,2.43917 -0.87222,4.88579 -1.41459,7.22788c-0.07447,0.32157 0.45968,0.71723 0.89339,0.99374c-0.26683,-2.70034 3.05714,-4.85868 1.97122,-7.35321c-0.43371,-0.99629 -1.56426,-1.34518 -2.7531,-1.67746c0.55933,0.24882 1.05151,0.50933 1.30308,0.80905zM132.15655,333.44516c-0.16899,-1.10529 0.26327,-2.22185 -0.33785,-3.18018c-0.47413,-0.75586 -1.22936,-0.84731 -1.92779,-1.03612c1.03787,0.8316 1.52921,2.73684 2.26564,4.2163zM20.2452,329.90774c-0.1232,0.2384 -0.16365,0.44288 0.03578,0.56775c0.16768,0.10499 0.36396,0.17145 0.56393,0.23122c-0.02059,-0.04246 -0.04263,-0.08562 -0.06622,-0.12952c-0.15557,-0.22274 -0.33907,-0.44589 -0.53349,-0.66945zM17.78382,329.94374c0.13454,-0.18609 0.34256,-0.38162 0.64104,-0.5875c0.22694,-0.15653 -0.79379,0.18652 -0.69728,0.44476c0.01749,0.04679 0.03631,0.09439 0.05624,0.14274zM22.21621,328.20556c0.14757,0.20745 0.29191,0.46479 0.5161,0.80601c-0.15874,-0.27429 -0.32515,-0.54736 -0.51609,-0.80601z" fill="#000000" stroke-width="0.5"/></g></g></svg>