<svg version="1.1" xmlns="http://www.w3.org/2000/svg" xmlns:xlink="http://www.w3.org/1999/xlink" width="70.60578" height="57.77721" viewBox="0,0,70.60578,57.77721"><g transform="translate(22.62463,-420.16343)"><g data-paper-data="{&quot;isPaintingLayer&quot;:true}" fill-rule="nonzero" stroke="none" stroke-linecap="butt" stroke-linejoin="miter" stroke-miterlimit="10" stroke-dasharray="" stroke-dashoffset="0" style="mix-blend-mode: normal"><path d="M-3.8975,429.95356c0,0 1.78476,-0.00237 2.34239,-1.50061l0.77198,-0.31274c1.27289,-0.64568 2.46952,-2.03864 3.78538,-2.48548c1.26511,-0.42961 2.69717,0.98037 4.13772,0.74901c1.41078,-0.22658 4.28495,-4.13206 5.20249,-3.74762c1.0605,0.44435 1.57684,1.72688 2.21503,2.56144c2.00749,2.62519 2.98214,4.3179 4.04665,7.41365c0.56033,0.73258 1.81345,2.58652 2.75749,2.90396c1.03633,0.34848 3.26572,-1.12367 3.93697,0.62704c0.31876,0.83136 0.61011,3.74834 -0.16108,4.42458c-0.41879,0.36722 -1.18557,0.31627 -1.47005,0.79513c-0.41836,0.70421 -0.11707,3.01044 -0.05432,3.78965c0.25224,3.13216 1.1134,5.06174 3.15189,7.44233c0,0 0.02855,0.03344 0.08125,0.08227c-2.17752,0.20517 -2.17968,2.491 -2.17968,2.491c0.01743,2.1982 -0.09787,6.21288 -2.28868,7.64069c-0.62965,0.41035 -4.31378,1.21632 -4.69013,1.34172c-9.39132,3.1295 -22.88956,5.69887 -31.56528,-0.46399c-5.41384,-6.56606 -7.26192,-14.95416 -8.23458,-23.17453c-0.22803,-1.92718 -1.19937,-4.99541 0.33724,-6.66758c0.89611,-0.97516 2.58408,-0.73665 3.64529,-0.93169c4.3283,-0.79549 8.14602,-3.01139 12.56118,-2.97637l1.67085,-0.00189z" data-paper-data="{&quot;noHover&quot;:false,&quot;origItem&quot;:[&quot;Path&quot;,{&quot;applyMatrix&quot;:true,&quot;segments&quot;:[[-7.75807,860],[[-11.09141,860],[0,0],[-8.83032,-0.07004]],[[-36.17331,865.91498],[8.6566,-1.59098],[-2.12242,0.39008]],[[-43.45913,867.7694],[1.79222,-1.95032],[-3.07324,3.34434]],[[-44.12587,881.08048],[-0.45606,-3.85436],[1.9453,16.44074]],[[-27.68995,927.33526],[-10.82768,-13.13212],[17.35144,12.32572]],[[35.31237,928.26164],[-18.78264,6.259],[0.7527,-0.25082]],[[44.68063,925.58978],[-1.2593,0.8207],[4.38162,-2.85562]],[[49.24195,910.33334],[0.03486,4.3964],[0,0]],[[53.59699,905.3628],[-4.35504,0.41034],[-0.1054,-0.09766]],[[53.43443,905.19846],[0,0],[-4.07698,-4.76118]],[[47.12627,890.34258],[0.50448,6.26432],[-0.1255,-1.55842]],[[47.23633,882.78062],[-0.83672,1.40842],[0.56896,-0.95772]],[[50.17683,881.1926],[-0.83758,0.73444],[1.54238,-1.35248]],[[50.50379,872.3602],[0.63752,1.66272],[-1.3425,-3.50142]],[[42.63359,871.11464],[2.07266,0.69696],[-1.88808,-0.63488]],[[37.12837,865.32256],[1.12066,1.46516],[-2.12902,-6.1915]],[[29.06181,850.51982],[4.01498,5.25038],[-1.27638,-1.66914]],[[24.64335,845.40318],[2.121,0.8887],[-1.83508,-0.76888]],[[14.25387,852.90402],[2.82156,-0.45316],[-2.8811,0.46272]],[[5.99989,851.40934],[2.53022,-0.85922],[-2.63172,0.89368]],[[-1.54941,856.37898],[2.54578,-1.29136],[0,0]],[[-3.08867,857.00354],[0,0],[-1.11526,2.99648]],[-7.75803,860.00002]],&quot;closed&quot;:true,&quot;fillColor&quot;:[0,0,0],&quot;strokeWidth&quot;:0.5}]}" fill="#d0d0d0" stroke-width="0.25"/><path d="M13.75749,453.86049c-0.07618,-0.16155 -0.11877,-0.34205 -0.11877,-0.53249c0,-0.68341 0.54844,-1.23873 1.22921,-1.24983c0.04271,-0.25063 0.16003,-0.47583 0.3283,-0.65193c0,-0.00062 0,-0.00124 0,-0.00186c0,-0.65199 0.49918,-1.1874 1.1362,-1.24489c-0.06302,-0.14931 -0.09786,-0.31343 -0.09786,-0.48568c0,-0.69036 0.55964,-1.25 1.25,-1.25c0.46331,0 0.86774,0.25206 1.08365,0.62653l0.25067,0.41778c0.32579,0.0318 0.61493,0.18867 0.81876,0.42198l0.61342,0.69521c0.12109,-0.49174 0.5332,-0.86897 1.04322,-0.93856c-0.02681,-0.10185 -0.04109,-0.20878 -0.04109,-0.31905c0,-0.69036 0.55964,-1.25 1.25,-1.25c0.34518,0 0.65768,0.13991 0.88388,0.36612v0l0.53766,0.53766c0.09883,-0.02513 0.20237,-0.03849 0.30902,-0.03849c0.499,0 0.92971,0.2924 1.13014,0.7152l0.85317,1.70634l-0.17482,0.08741l0.12994,0.34575c0.00674,0.01344 0.01352,0.0269 0.02034,0.0404c2.5291,3.46513 4.02997,7.57371 6.18997,11.39602l0.00029,0.08943l0.03326,-0.01337l0.58141,1.44621c0.06486,0.15114 0.10077,0.31764 0.10077,0.49252c0,0.47034 -0.25977,0.88001 -0.64367,1.09336c-0.22921,0.2813 -0.57839,0.46096 -0.96954,0.46096c-0.17402,0 -0.33974,-0.03556 -0.49028,-0.09981l-0.03313,-0.01324c-0.13215,0.12102 -0.29039,0.214 -0.46532,0.26953c-0.20442,0.14572 -0.45458,0.23143 -0.72475,0.23143c-0.33928,0 -0.64698,-0.13517 -0.8722,-0.35459l0.0364,0.33722c0.00603,0.04976 0.00913,0.10043 0.00913,0.15182c0,0.36959 -0.1604,0.70172 -0.41539,0.93057c-0.11166,0.3205 -0.35012,0.58157 -0.6553,0.72314l0.11322,0.29706c0.05944,0.14564 0.09219,0.305 0.09219,0.47202c0,0.69036 -0.55964,1.25 -1.25,1.25c-0.42991,0 -0.80913,-0.21703 -1.03407,-0.5475l-1.42363,-2.03375l0.26639,-0.18648c-0.29587,-0.32621 -0.58357,-0.65984 -0.8636,-1.00022c-0.07189,0.13197 -0.16687,0.24956 -0.27951,0.34732l0.23712,1.42273c0.01371,0.07415 0.02088,0.1506 0.02088,0.22873c0,0.05872 -0.00405,0.11649 -0.01188,0.17306c0.00783,0.05656 0.01188,0.11434 0.01188,0.17306c0,0.69036 -0.55964,1.25 -1.25,1.25c-0.48687,0 -0.90873,-0.27835 -1.11512,-0.6846l-1.02756,-1.92668c-0.8306,0.23589 -1.33743,-0.5678 -1.33743,-0.5678l-0.49041,-0.83395c-0.75664,-2.11974 -1.61795,-4.08688 -2.36884,-6.08614c-0.35629,-0.72988 -0.70278,-1.47293 -1.04491,-2.22884l-0.05716,0.02858l-1.10679,-2.21358c-0.09145,-0.1737 -0.14321,-0.37156 -0.14321,-0.58151c0,-0.35461 0.14766,-0.67473 0.38485,-0.90223z" fill="#d0d0d0" stroke-width="0.5"/><path d="M47.98114,476.69064c0,1.25 -1.25,1.25 -1.25,1.25l-1.07819,-0.13196c-2.09717,-1.04903 -3.55191,-1.78442 -5.90634,-1.77321c-0.82328,-0.1541 -1.78541,0.02051 -2.46982,-0.46231c-1.03014,-0.72671 -1.9086,-4.86089 -2.55735,-6.09359c-3.14822,-5.982 -8.27655,-12.59914 -9.71192,-19.24071c-0.85054,-1.48212 -1.27894,-3.01303 -1.44439,-5.06757c-0.06275,-0.77921 -0.36333,-3.07677 0.05503,-3.78098c0.28448,-0.47886 1.05146,-0.42679 1.47025,-0.79401c0.77119,-0.67624 0.48224,-3.58484 0.16348,-4.4162c-0.67125,-1.75071 -2.89877,-0.2743 -3.9351,-0.62278c-0.94404,-0.31744 -2.19228,-2.16346 -2.75261,-2.89604c-1.06451,-3.09575 -2.02579,-4.77618 -4.03328,-7.40137c-0.63819,-0.83457 -1.14873,-2.11397 -2.20923,-2.55832c-0.91754,-0.38444 -3.78396,3.52384 -5.19474,3.75042c-1.44055,0.23136 -2.86188,-1.17695 -4.12699,-0.74734c-1.31586,0.44684 -2.50176,1.83914 -3.77465,2.48482l-0.80906,0.32828c0,0 -1.1606,0.46424 -1.62483,-0.69636l-0.00001,-0.00002c-0.46424,-1.1606 0.69636,-1.62483 0.69636,-1.62483l0.61951,-0.24315c1.44796,-0.71123 2.66659,-2.22077 4.22535,-2.65804c1.78304,-0.50018 3.81059,1.51014 5.32549,0.32743c1.8318,-1.43012 2.35198,-4.08752 5.35278,-3.32434c1.75718,0.44689 2.52418,2.15902 3.50505,3.44168c2.03341,2.65905 3.24021,4.55071 4.25244,7.74148c0.4338,0.5446 0.5714,1.50865 1.24739,1.67539c2.04326,0.50398 4.08599,-1.02019 5.49347,1.94865c0.91402,1.92796 0.75489,5.6989 -0.69366,7.29809c-0.25849,0.28537 -0.82908,0.07641 -1.10118,0.34884c-0.52884,0.52948 0.2815,1.47303 0.34075,2.21902c0.11589,1.45913 0.3616,2.52813 0.84934,3.53145c0.37389,0.30525 0.46277,0.7941 0.46277,0.7941c0.00245,0.01402 0.00491,0.02804 0.0074,0.04207c0.33251,0.52161 0.74065,1.05023 1.24071,1.63302c0,0 0.81349,0.94907 -0.13558,1.76256c-0.04063,0.03483 -0.08102,0.06643 -0.1211,0.09501c2.00796,5.34729 6.06902,10.72807 8.57904,15.49681c0.83387,1.58425 1.36789,5.39544 2.93343,5.21195c2.68993,0.01154 4.51748,0.84334 6.89985,2.03404l-0.03985,-0.13197c0,0 1.25,0 1.25,1.25z" fill="#000000" stroke-width="0.5"/></g></g></svg>