<svg version="1.1" xmlns="http://www.w3.org/2000/svg" xmlns:xlink="http://www.w3.org/1999/xlink" width="103.13178" height="105.58315" viewBox="0,0,103.13178,105.58315"><g transform="translate(-323.30347,-10.44078)"><g data-paper-data="{&quot;isPaintingLayer&quot;:true}" fill="#000000" fill-rule="nonzero" stroke="none" stroke-width="0.5" stroke-linecap="butt" stroke-linejoin="miter" stroke-miterlimit="10" stroke-dasharray="" stroke-dashoffset="0" style="mix-blend-mode: normal"><path d="M357.4789,50.1358l0.77588,0.99403c0.2705,0.66958 0.92046,1.29484 0.81151,2.00873c-0.20499,1.34326 -3.11571,3.08747 -3.87759,4.16844c-0.50951,0.72289 -0.49254,1.7107 -0.89843,2.49647c-0.98663,1.91002 -5.82964,6.64705 -8.16612,5.30728c-0.53171,-0.30489 -0.62132,-1.02695 -0.83662,-1.63039c-0.34567,-0.6226 -0.49044,-1.45913 -0.75889,-2.11388c-0.22204,-0.54154 -1.15774,-0.2418 -1.74249,-0.21646c-2.06106,-0.00494 -4.70057,0.25323 -5.17553,2.80133c-0.20563,1.10321 -0.16703,2.41956 -0.94058,3.23256c-0.71852,0.75517 -1.89884,0.89785 -2.80553,1.27096c-2.25829,0.92931 -6.35927,2.85802 -8.09602,4.45082c-0.33175,0.30425 0.64321,0.63041 0.94907,0.96068c0.59377,0.64115 1.20981,1.26481 1.75248,1.94976c2.13085,1.684 7.90492,5.46043 6.37943,8.74105c-0.25392,0.54606 -1.05195,0.59385 -1.53243,0.95689c-1.52727,1.154 -1.94789,3.15893 -3.75752,4.09669c-2.13374,1.10572 -4.47195,0.36932 -2.19727,3.10839c0,0 0.48382,0.60478 0.21375,1.24308c1.1289,2.04715 2.31397,4.20918 3.59486,6.11186c0.5052,0.75044 2.87258,0.79579 3.55532,0.93428c3.6732,0.74506 6.91162,2.52516 10.4986,1.13921c0.72906,0.06412 1.58684,-0.22626 2.18717,0.19236c0.62656,0.43691 0.79967,1.31936 1.02666,2.0487c0.16854,0.54154 -0.55877,1.505 -0.02666,1.7013c0.39092,0.14421 0.92423,-0.25978 1.25,0c0.89007,0.70976 1.15991,1.9614 1.66902,2.97963c0.3539,0.7078 1.52607,3.66664 2.21769,3.85188c0.73982,0.19814 1.28401,-0.99049 2.04821,-1.04119c0.94227,-0.06252 1.74143,0.7378 2.6408,1.02573c0.71344,0.2284 1.36375,-0.70173 2.1092,-0.77573c1.23072,-0.12216 3.59428,0.01767 4.41482,1.18503c-0.24493,-0.74334 0.13344,-1.52021 0.20555,-2.31343c0.25496,-2.80456 0.38891,-6.25248 3.66025,-7.33147c1.06002,-0.34963 2.95073,-0.04536 4.08367,-0.04536c2.2792,0 5.14726,-0.33123 7.33367,0.29536c2.06712,0.59239 4.90546,2.43724 6.87732,3.40528c0.05791,0.20126 0.68685,1.73718 0.99132,2.98727c0.21515,-0.40967 0.42793,-0.74824 0.45799,-0.80031c0.9183,-1.59049 2.34046,-2.52421 4.13948,-2.87146c4.18571,-0.80792 10.94437,-0.5429 14.5339,1.77922c0.56219,0.02027 0.98338,-0.56573 1.52105,-0.73121c1.90696,-0.58691 7.1463,-0.49372 8.70575,0.7342c0.354,0.27875 0.34261,0.85966 0.6596,1.17988c0.23606,0.23846 4.05308,-0.11939 4.28779,-0.48859c1.23028,-1.93526 0.49214,-6.25555 0.49214,-8.48964c0,-7.92419 -0.26281,-16.15038 1.01701,-23.9555c0,0 0.03049,-0.18295 0.13846,-0.39617c-0.51803,-1.69015 -0.87686,-3.40193 -2.43743,-4.57859c-2.04537,-1.5422 -4.91746,0.94943 -5.0899,-3.08335c-0.05366,-1.25488 1.71814,-3.45193 2.51544,-4.34504c0.52471,-0.58776 2.28236,-1.42517 1.57172,-1.76542c-1.29595,-0.62049 -2.07417,-1.2669 -3.17172,-2.36728c-2.19052,-2.7302 -4.93286,-5.23819 -6.15103,-8.5447c-0.06244,-0.06791 -0.11372,-0.13666 -0.15448,-0.19848l-0.1221,0.22757c0,0 -0.91068,-0.45534 -0.67728,-1.36603c-1.39105,-0.90633 -3.39415,-2.22174 -4.04912,-3.33202c-0.93948,-1.59257 -1.00382,-2.87471 -2.55932,-4.29861c-1.92945,-1.76622 -4.49417,-3.04973 -6.54775,-4.75469c-1.56736,-1.30128 -2.12871,-3.15375 -3.53893,-4.53303c-2.57846,-3.21961 -4.25375,-5.68681 -8.77998,-5.38679c-2.33788,0.15497 -4.98214,2.63771 -7.3086,1.23856c-2.76623,-1.66363 0.14728,-3.80132 -1.48808,-5.22639c-1.0346,-0.90157 -2.77194,-1.35192 -3.93666,-2.13764c-2.08727,-2.556 -3.95165,-4.33676 -6.23915,-6.63749c-0.74896,-0.75329 -2.2839,-2.14761 -3.38443,-2.24084c-0.52807,-0.04473 -0.61096,0.86617 -0.92267,1.29477c-0.67174,0.92365 -1.44833,1.85474 -2.45983,2.38508c-2.16537,1.13533 -4.35783,1.86089 -5.55282,4.23934c-0.30027,2.65483 -1.14938,9.97258 -4.13611,11.19995c-1.08042,0.44399 -2.88604,-1.15462 -3.50056,-0.16124c-1.31385,2.12383 5.10709,1.26106 5.7774,1.97181c0.9223,0.97793 0.15251,5.08229 -0.28709,6.22726c1.28868,3.08772 2.76154,5.91504 4.75902,8.66219c0.23672,0.32556 0.48305,0.61819 0.71779,0.89828c0.46359,0.0974 0.76594,0.47533 0.76594,0.47533zM347.50656,62.3111c0.08251,1.47797 1.97516,-1.23747 2.93637,-1.9116c1.83435,-1.28647 1.52472,-2.81103 2.70733,-4.53983c0.67972,-0.99366 3.78444,-2.96042 2.93392,-3.4895l-0.55745,-0.67264c0,0 -0.12987,-0.16233 -0.21748,-0.40756c-0.0106,0.00582 -0.02121,0.01162 -0.03183,0.01739c-0.05084,0.02766 -0.10541,0.05541 -0.16304,0.08333c-2.23371,-3.90123 -5.06295,-6.77004 -6.37824,-11.2907c0.25817,-0.86867 0.34026,-1.78457 0.40314,-2.68861c0.04515,-0.64905 1.06462,-1.54437 0.50975,-1.88414c-0.58983,-0.36118 -1.3713,0.22943 -2.0629,0.22275c-2.3714,-0.02292 -4.28654,-0.33875 -4.25,-3.25c0.05151,-4.10399 2.69562,-2.27054 4.98974,-2.76218c0.45466,-0.09744 1.01578,-2.83304 1.06011,-2.9873c0.69675,-2.4245 1.26474,-4.06938 1.60378,-6.61274c0.97821,-1.96147 2.44985,-3.50918 4.32267,-4.69069c1.00261,-0.63251 2.55791,-0.75868 3.38981,-1.63096c1.02329,-1.07296 1.55201,-3.12115 3.35219,-3.35916c1.0577,-0.13984 2.03236,0.66109 3.01004,1.08819c3.53618,1.54477 6.27488,5.48792 8.56637,8.43348c1.88678,1.23504 4.30522,1.51511 4.97183,4.03419c0.00563,0.02126 -0.22994,2.92658 0.00343,3.00178c1.53522,0.49469 4.20784,-1.43414 5.8914,-1.56144c5.32957,-0.403 7.77474,2.40163 10.82002,6.21321c1.2826,1.30644 1.82491,3.11326 3.26108,4.26697c2.11973,1.70284 4.64549,3.06197 6.65224,4.8453c1.66714,1.48152 2.1865,3.08562 3.04068,4.90139c0.393,0.83541 3.16243,2.42185 4.00796,2.97992l0.86722,1.57583c0,0 0.01817,0.04541 0.03832,0.12186l0.18694,0.1471c1.0196,3.08628 3.7361,5.44167 5.74556,7.96164c1.5894,1.58489 4.09227,2.2799 3.67449,4.96275c-0.19036,1.22241 -2.10162,2.36214 -2.77208,3.37355c-0.27269,0.41137 -0.47853,0.86353 -0.73173,1.28718c-0.16757,0.28036 -0.89077,0.86359 -0.5712,0.79613c4.65988,-0.98364 6.47916,3.5422 7.65497,7.01877c0,0 0.22697,0.68094 -0.17906,1.18283c-1.29699,7.64645 -0.9818,15.76767 -0.9818,23.53746c0,2.74457 0.79581,7.72928 -1.00785,10.01036c-1.17971,1.49197 -6.07253,2.0606 -7.71221,1.01141c-0.60767,-0.38884 -0.79998,-1.45883 -1.51632,-1.54433c-3.13865,-0.37462 -5.73746,0.70005 -8.59728,0.7272c-3.26292,-1.85081 -6.25648,-1.70464 -9.91633,-1.70464c-1.48512,0 -3.2948,-0.32415 -4.66987,0.35722c-1.72303,0.85379 -2.25324,5.75037 -5.02626,4.81045c-0.81836,-0.27738 -1.75046,-4.46119 -1.76486,-5.36831c-2.19261,-0.38317 -3.69249,-2.10979 -5.62268,-2.59472c-2.42717,-0.6098 -7.59834,-0.84011 -10.08266,-0.25c-2.76182,0.65602 -1.47395,6.00052 -2.10622,7.78174c-0.27769,0.7823 -0.82337,1.44169 -1.23505,2.16254c-1.73658,-0.41241 -3.57367,-1.58657 -5.37811,-1.40416c-0.98834,0.09991 -1.91291,0.89907 -2.8908,0.72427c-0.40666,-0.07269 -1.18595,-1.09319 -1.8592,-0.97427c-1.24355,0.21966 -1.22003,1.38639 -2.95179,0.95881c-1.72485,-0.42588 -3.10249,-3.78849 -3.78231,-5.14812c-0.32566,-0.65132 -0.20074,-1.65559 -0.83098,-2.02037c-0.36061,-0.20873 -0.94027,0.27872 -1.25,0c-0.69954,-0.6295 -1.02519,-3.73451 -1.31283,-3.55764c-3.85669,1.60633 -7.56551,-0.35199 -11.46846,-1.14401c-1.74298,-0.35371 -3.72541,-0.29427 -4.97762,-1.7825c-1.90979,-2.26976 -3.88317,-5.92405 -5.21681,-9.01911c0.09385,-0.0156 0.1873,-0.03156 0.28032,-0.04785c-0.54318,-1.06488 -0.82667,-2.27744 -0.19213,-3.36613c0.79361,-1.36162 3.06112,-1.27374 4.28995,-1.85358c1.64328,-0.77541 2.76009,-3.13262 4.31005,-4.14642c0.33138,-0.21675 -0.52987,-0.59008 -0.82057,-0.85895c-0.35993,-0.33291 -0.70918,-0.67833 -1.03915,-1.04096c-1.33904,-1.47156 -2.61594,-2.51194 -4.16085,-3.75904c-1.06079,-1.31451 -3.97343,-3.45146 -3.29845,-5.48955c0.14232,-0.42973 2.3638,-1.9132 2.92517,-2.25764c1.70974,-1.04908 3.49158,-2.01096 5.22976,-3.01783c0.91189,-0.52823 2.56745,-0.72129 3.34352,-1.40274c0.49989,-0.43895 0.16863,-1.58258 0.25941,-1.96745c0.3804,-1.61261 1.56112,-3.24329 3.02711,-4.0467c1.39531,-0.76467 3.06566,-0.74874 4.59736,-0.75197c1.74194,0.04762 2.59643,-0.29022 3.85751,1.38354c0.2921,0.38769 0.09867,1.08272 0.20278,1.54608c0.46827,0.21987 0.66013,0.73148 0.66013,0.73148z"/></g></g></svg>