<svg version="1.1" xmlns="http://www.w3.org/2000/svg" xmlns:xlink="http://www.w3.org/1999/xlink" width="195.06711" height="136.63186" viewBox="0,0,195.06711,136.63186"><g transform="translate(-205.79817,-129.02307)"><g data-paper-data="{&quot;isPaintingLayer&quot;:true}" fill="#000000" fill-rule="nonzero" stroke="none" stroke-width="0.5" stroke-linecap="butt" stroke-linejoin="miter" stroke-miterlimit="10" stroke-dasharray="" stroke-dashoffset="0" style="mix-blend-mode: normal"><path d="M309.93503,134.71633l0.52999,-1.23146c1.72743,-3.01026 4.77819,-4.82921 7.58248,-1.57244c0.98841,1.14789 0.91606,2.42324 1.53511,3.69673c1.72012,0.61181 2.56716,-0.33035 3.89342,1.60171c0.88641,1.2913 0.43417,3.01257 0.66575,4.4132c0.30294,1.83228 2.08958,1.73012 1.83719,4.14977c-0.0074,0.07098 -1.93404,2.24712 -1.59634,2.73804c0.64105,0.93189 2.74564,1.5986 3.0563,2.80895c0.48539,1.89113 -0.88547,3.17637 -2.24679,4.0686c0.02544,0.04331 0.05134,0.0865 0.07771,0.12956c-0.23637,0.08863 -0.46515,0.16999 -0.677,0.24237c-0.01851,0.01097 -0.03697,0.02186 -0.05537,0.03268c0,0 -0.244,0.13943 -0.56672,0.17037c-0.11374,0.03526 -0.2144,0.0653 -0.29885,0.08955c-0.12982,0.03728 -0.29801,0.08101 -0.47828,0.11866c0.42651,0.36366 0.79685,0.85511 0.78961,1.22357c-0.05051,2.57068 -2.65297,1.58126 -3.67674,2.84004c-0.6896,0.8479 -0.27277,2.08666 -0.13465,3.03737c0.08657,0.62322 -0.27889,1.49983 0.22704,1.87391c0.80663,0.59641 2.17426,0.16596 2.87759,0.88128c0.38281,0.38933 0.0906,1.11763 0.34334,1.60161c0.41283,0.7905 1.54953,1.01174 1.99193,1.78608c1.00928,1.76656 -0.23562,3.97346 0.53672,5.50302c0.35134,0.6958 1.7397,-0.20708 2.31683,0.31683c0.61163,0.55523 0.8524,1.47906 0.91597,2.30266c0.06253,0.81017 -1.30768,2.25601 -0.50537,2.38476c1.36025,0.21829 3.2553,-0.1835 4.54831,-0.61451c2.31047,-1.29182 5.17484,-1.67742 7.7974,-1.07542c1.57077,0.36057 3.11702,1.57754 4.82562,1.2c1.65013,-0.36462 2.54104,-2.59745 4.15809,-2.98934c3.76854,-0.9133 9.2207,3.69174 10.16702,6.83252c-0.01017,0.61258 -0.32677,1.48636 0.18108,1.82906c0.71338,0.48139 1.61957,0.63358 2.31881,1.13529c0.62491,0.44839 1.08471,1.20196 1.82442,1.41266c2.64389,0.75311 5.77736,-1.21522 8.61048,-0.19678c0.98998,0.35587 1.57944,1.43234 2.13016,2.32867c0.10791,0.17563 1.70929,0.19428 3.01742,0.19974c0.32963,-0.18526 0.67971,-0.18526 0.67971,-0.18526h0.2c0.52446,0.00403 1.0648,-0.11608 1.57337,0.01208c5.08117,1.28045 0.40453,3.67576 1.37386,6.54158c0.39474,1.16703 4.21052,0.91333 5.21868,1.05739c0.98023,0.12408 4.27465,-0.1051 4.96497,0.42489c1.60793,1.23448 0.82403,7.05188 -0.38657,8.43305c-0.89077,1.01628 -3.3563,1.62924 -4.65571,1.62786c-0.26423,-0.00028 -0.54088,-0.3838 -0.75772,-0.23281c-0.66828,0.46534 -0.52517,1.62992 -1.14504,2.15803c-0.58798,0.50093 -2.40406,0.93091 -1.81917,1.43544c0.46291,0.39931 1.2305,-0.14174 1.83355,-0.04138c1.00399,0.16709 1.79161,0.63575 2.67813,1.07901c2.11814,0.7021 5.22757,1.34635 6.69373,3.169c0.56154,0.69807 0.45693,1.76105 0.93079,2.52137c0.29922,0.48012 1.13249,-0.02067 1.69713,0.01448c2.3224,0.14459 2.77135,-0.31555 3.24495,2.33774c0.65685,3.67991 -2.6329,3.64925 -3.74692,5.90962c-1.06663,2.16421 -0.68618,4.20888 -2.089,6.34046c-1.67811,2.05969 -5.42408,5.1158 -8.29622,4.47875c-2.62165,-0.58149 -2.61439,-2.49209 -5.62562,-1.8c-2.61698,0.60147 -4.35162,3.04333 -6.76252,4.118c-1.81826,0.8105 -3.49514,0.64758 -5.33484,1.56753c-2.14821,1.22707 -3.97692,4.01239 -6.50208,3.94286c-2.49526,-0.06871 -4.72946,-2.39592 -7.15686,-2.6309c-0.42733,-0.04137 0.43768,0.76138 0.50297,1.18572c0.0584,0.3796 0.00655,3.33998 -0.10723,3.54172c-1.40497,2.49112 -3.68058,1.41346 -5.42001,0.29857c0,0 -0.07287,-0.04858 -0.16717,-0.13931c-1.52547,-0.24298 -3.57458,-0.64758 -4.72061,-1.1004c-1.78568,-0.70556 -2.79419,-3.07447 -4.1478,-4.33458c-0.8458,-0.78737 -4.65429,0.82543 -6.0794,0.56654c-2.81104,-0.51067 -2.84382,-3.20077 -5.22689,-4.54722c-1.14444,-0.9481 -2.37536,-2.3434 -3.86472,-2.44583c-0.43554,-0.02995 -1.77954,-0.08784 -1.67634,0.81896c0.06987,0.61397 0.97775,0.75842 1.43133,1.17806c2.34026,2.16518 9.52373,9.39308 2.23369,10.00298c-0.55223,0.0462 -1.11752,0.07825 -1.66233,-0.02311c-1.31799,-0.24522 -2.78566,-0.69807 -4.12031,-1.03099c-1.73759,-0.73878 -2.30429,-0.88404 -2.75345,-2.81134c-0.0734,-0.31499 -0.1055,0.64344 -0.22598,0.94359c-0.52062,1.29703 -0.76384,2.04908 -2.2234,2.68294c-0.3759,0.16324 -0.85398,-0.20934 -1.22867,-0.04335c-0.90785,0.40218 -1.45157,1.49054 -2.40967,1.75125c-1.47429,0.40115 -3.60843,-0.53833 -4.93241,-0.17301c-0.1177,0.03248 0.10423,4.32953 0.33334,4.41289c0.78652,0.28619 1.69335,0.1537 2.46504,0.47778c3.62047,3.25912 -0.00411,7.37938 -3.4941,8.88137l-0.0036,0.00181c-0.02044,0.04451 -0.04375,0.08988 -0.07016,0.1361c-0.62018,1.08531 -1.70548,0.46513 -1.70548,0.46513c-0.01189,-0.0068 -0.02375,-0.0136 -0.0356,-0.0204c-0.19937,-0.04313 -0.40486,-0.14554 -0.58381,-0.35077c-1.46311,-0.91895 -2.55259,-1.91217 -3.90172,-3.0937c-0.72803,-0.63759 -1.58525,-0.55384 -2.19811,-1.18334c-0.50653,-0.52029 1.14088,1.3018 0.89627,1.9855c-0.29725,0.83082 -1.12242,1.47604 -1.94479,1.79593c-0.95047,0.36971 -2.00477,-0.4148 -3.02308,-0.47094c-3.02528,-0.16679 -5.86755,0.20008 -8.84786,0.09442c-3.91406,-2.99795 -9.02828,-6.09303 -11.84071,-10.01003c-0.39445,-0.54936 -1.68969,-0.20223 -1.99263,-0.3233c-1.18504,-0.47361 -2.90792,-3.51659 -4.71094,-2.54335c-1.26788,0.68438 -2.06255,1.84553 -3.66803,2.45101c-1.10562,-0.42013 -2.14281,-1.17416 -2.83591,-2.13256c-0.21497,-0.29726 -0.98646,-1.08475 -0.75882,-0.79708c1.11158,1.40472 -0.85624,3.28266 -1.9284,3.82312c-0.92578,0.46668 -4.14331,0.56309 -5.10604,0.19588c-0.94873,-0.36187 -1.83821,-2.27775 -2.59305,-1.59859c-2.39748,2.15714 -2.72804,6.9029 -3.96584,9.66622c-5.39586,4.76882 -11.23966,4.03898 -17.96548,4.01081c-0.31777,0.27256 -0.72024,0.32288 -0.72024,0.32288l-1.34183,0.1677c-2.14254,0.21618 -4.83305,1.90523 -6.27853,-0.87785c-0.79304,-1.52688 1.37101,-4.80691 -0.17099,-5.90555c-2.61948,-1.86632 -3.69311,1.11277 -6.19883,0.0202c-1.93842,-0.84521 -1.10079,-2.79876 -2.33017,-3.87861c-0.51151,-0.4493 -1.27557,-0.478 -1.90042,-0.74832c-0.90865,-0.22716 -2.87659,-0.57092 -3.26154,-1.55369c-0.25135,-0.6417 1.25324,-4.21415 2.5494,-4.75535c-0.31955,-0.1106 -0.65125,-0.2552 -0.81422,-0.38217c-1.16018,-0.90397 -3.47373,-3.21013 -2.47979,-4.96984c0.77663,-1.37497 3.97915,-0.94021 5.23853,-0.94021c0.50516,0 1.81313,-0.01421 2.37948,0.03343c0.15491,0.01303 0.45149,0.24837 0.45701,0.093c0.01868,-0.52515 -0.73606,-1.1142 -0.40615,-1.52321c1.28978,-1.59907 2.58759,0.026 3.45512,-1.25251c0.2262,-0.58422 0.1763,-1.37826 0.67861,-1.75264c1.17687,-0.87713 2.53803,0.48762 3.20349,-0.83457c1.27138,-2.52607 1.79368,-5.26727 3.12924,-7.76791c0.53971,-1.01053 1.03372,-3.36939 1.86584,-4.10886c0.57745,-0.51316 1.37051,-0.84606 2.14206,-0.88469c0.69681,-0.0349 1.33646,1.09142 1.95028,0.75978c0.71629,-0.387 0.68744,-1.59716 1.39022,-2.0082c2.4612,-1.43949 3.39339,0.06747 4.77183,1.74686c1.55204,1.09211 3.1214,2.65895 5.15821,2.66621c1.72466,0.00615 1.83184,-0.80061 3.14804,-1.63433c3.80078,-2.40751 8.3062,-4.586 12.70887,-3.26035c1.89965,0.24153 3.80059,0.27635 5.50198,1.4429c2.39387,1.64135 5.67757,5.66861 9.17181,4.62061c0.28623,-0.08585 0.05023,-3.69439 0.05345,-4.09947c-0.12158,-1.2632 -2.71712,-2.1253 -3.5154,-3.5397c-1.48691,-2.63453 0.20074,-5.57332 -1.87091,-7.97946l-0.07275,-0.24279c-0.71974,-0.98292 -1.14911,-2.14897 -1.16123,-3.61998c-0.01027,-1.24595 -0.03796,-2.50466 0,-3.75c0.014,-0.45935 -0.06305,-1.77916 -0.24431,-1.35685c-1.42645,3.32337 -3.04613,6.0335 -7.12887,6.10077c-2.34047,-0.56957 -3.988,-2.45205 -3.62159,-5.1082c0.24343,-1.76459 1.56719,-2.48506 2.45746,-3.8332c0.85891,-1.30067 1.86531,-3.19338 3.43821,-3.3979c0.35487,-0.04614 -0.69678,-0.22907 -0.9699,-0.46031c-0.54667,-0.46284 -1.8988,-1.85804 -2.11685,-2.54903c-0.08216,-0.26038 0.46139,-0.53975 0.30197,-0.7614c-0.135,-0.18768 -0.373,0.37147 -0.6025,0.34356c-0.55677,-0.0677 -1.06581,-0.36003 -1.56907,-0.60763c-1.94852,-0.95868 -2.71724,-1.93211 -3.18847,-3.99664c0.00934,-0.91288 0.78072,-2.67398 0.55806,-3.47788c-0.21174,-0.76449 -2.28342,-1.01555 -2.75226,-1.35173c-1.46633,-1.05145 -2.34125,-3.06144 -1.76653,-4.87722c1.73688,-5.48754 10.59445,-4.88746 15.11482,-5.51843c1.52859,-1.63982 0.72504,-3.6123 1.41681,-5.5798c0.57369,-1.6317 1.79712,-3.97864 3.03913,-5.20199c0.64943,-0.63968 1.62791,-0.83386 2.37353,-1.35826c1.82781,-1.28552 1.96594,-4.09972 4.14795,-5.34756c1.93935,-1.10907 4.21009,-1.21363 5.79341,-2.85461c2.74424,-2.05818 4.95452,-4.64542 7.87151,-6.593c1.35749,-0.90635 3.69776,-2.16635 4.26164,-3.85798c0.28087,-0.84262 -0.31242,-1.86104 0.06782,-2.66373c0.38442,-0.81151 1.33274,-1.22003 1.86804,-1.94099c1.06167,-1.42989 1.68089,-2.81796 2.3394,-4.46424c0.34499,-0.84491 0.81662,-1.63751 1.3209,-2.39817c0.38616,-0.58249 0.4305,-1.57728 1.09731,-1.78653c3.83094,-1.20219 4.76373,5.64738 6.90886,7.09142c1.47411,0.99232 2.75343,0.19438 3.99587,-0.99315c0.00238,-0.30678 0.10485,-0.54587 0.10485,-0.54587zM322.11864,149.57226c-1.01155,-2.52704 1.02071,-2.57812 1.40366,-4.26196c0.10516,-0.46238 -1.70874,-2.63891 -1.82948,-3.18357c-0.24886,-1.12254 0.14798,-2.47623 -0.33425,-3.5868c-0.07943,-0.18294 -3.23444,-0.97187 -3.43992,-1.06496c-1.39849,-2.30451 -2.65795,-7.37677 -5.21575,-2.87571l-0.47001,1.10187c0,0 -0.04831,0.11271 -0.14996,0.2524c0.0255,0.03377 0.05054,0.06774 0.07507,0.10195c-1.06935,1.09888 -2.13472,2.44895 -2.84488,2.69324c-0.13224,0.04549 -2.73976,0.097 -3.01846,0.05806c-2.41444,-0.3374 -3.28836,-2.16691 -4.44869,-4.10079c-0.44167,-0.73612 -0.92782,-1.44553 -1.42813,-2.14312c-0.23554,-0.32842 -0.61304,-1.49122 -0.50761,-1.10107c0.27348,1.01191 -0.71177,1.86516 -1.0818,2.81531c-1.06788,2.6697 -3.02588,4.36444 -4.29257,6.59477c-0.38475,0.67745 0.31419,1.59717 0.06782,2.33627c-0.76389,2.29166 -3.37687,3.90297 -5.23837,5.14202c-2.8424,1.89196 -4.95743,4.40372 -7.62848,6.407c-1.81464,1.76385 -4.04008,1.99335 -6.20659,3.14539c-1.95801,1.04117 -2.15436,3.82768 -3.85205,5.15244c-0.63428,0.49495 -1.56456,0.56596 -2.12648,1.14174c-3.23723,3.31708 -1.79753,8.06044 -5.04406,11.21821c-1.76948,0.41459 -3.65436,0.96075 -5.46665,1.14182c-2.10875,0.21069 -4.07654,-0.47251 -5.92569,0.7934c-0.72427,0.49582 -2.24915,1.11341 -2.49284,2.04636c-0.74411,2.84875 3.67493,2.46664 4.48121,4.77105c0.53635,1.53295 -0.46868,2.57597 -0.44194,4.02212c0.3734,2.70395 3.28016,1.45201 4.63996,2.73928c0.42716,0.40438 0.10761,1.18343 0.30197,1.7386c0.72983,2.08466 4.12397,1.80917 2.91325,4.99067c-0.21629,0.56835 -1.11116,0.5203 -1.58875,0.89676c-1.21063,0.95428 -1.8372,2.95175 -2.83211,4.09503c-0.43358,0.49823 -1.17482,0.48844 -1.18348,1.27711c-0.01206,1.09762 0.24479,2.2898 1.37841,2.3918c4.15154,0.13526 4.25509,-7.74907 8.2933,-5.5636c2.55751,1.38412 0.94588,5.81762 1.31098,8.07112c0.04126,0.25467 0.13832,0.5014 0.27595,0.73846c0.41334,0.18067 0.57938,0.55459 0.64608,0.82584c1.78269,2.41428 1.13918,4.37324 1.51926,7.23329c0.27794,2.09152 2.56987,1.99463 3.58391,3.30251c0.41913,0.54058 0.39928,1.30851 0.59892,1.96276c0.01238,1.96341 0.70887,5.26797 -1.27989,6.5672c-0.54919,0.35878 -1.30544,0.13854 -1.96074,0.16886c-4.34686,0.20114 -6.67164,-2.6396 -9.86745,-4.88159c-1.74124,-1.22154 -4.10535,-0.88737 -6.07038,-1.31485c0,0 -0.18164,-0.04037 -0.38918,-0.16003c-3.13845,-0.19427 -6.49839,1.68874 -8.99625,3.3241c-0.89706,0.58731 -1.62883,1.50709 -2.65604,1.81452c-3.43313,1.02746 -6.14682,-1.26569 -8.70439,-3.11596c-0.4643,-0.55002 -0.74989,-1.26781 -1.31664,-1.71154c-0.32823,-0.25698 -0.40563,0.73422 -0.67295,1.05409c-0.44037,0.52695 -0.87683,1.14252 -1.51503,1.39611c-0.66081,0.26257 -1.43372,0.1847 -2.13253,0.05328c-0.39992,-0.07521 -0.95237,-0.88733 -1.10846,-0.51153c-0.82292,1.98121 -2.02634,3.87752 -2.7257,5.88724c-0.61845,1.77722 -0.87269,3.98386 -1.9459,5.56932c-1.28373,1.89647 -3.80344,0.9679 -3.78456,2.41279c-0.44946,0.5103 -0.76242,1.18582 -1.34837,1.5309c-0.51834,0.30526 -1.17709,0.34208 -1.7778,0.31016c-0.19904,-0.01058 -0.46604,-0.62053 -0.41871,-0.4269c0.10197,0.4172 0.82246,0.77987 0.59385,1.14345c-1.04583,1.6633 -2.33018,1.44279 -3.83017,1.45977c-0.44705,0.00506 -2.85759,0.25626 -3.92555,0.02118c0.19365,0.19995 0.39579,0.42542 0.51524,0.55256c0.272,0.28949 0.51917,0.60956 0.83572,0.84954c1.00642,0.763 2.65153,0.94595 2.4714,2.88194c-0.09716,1.04426 -1.60737,1.37277 -2.24074,2.20869c-0.15514,0.20475 -0.4076,0.58939 -0.63857,0.87539c0.3919,0.07091 0.90886,0.26627 1.21489,0.34277c0.35536,0.15107 2.573,1.07313 2.76625,1.25168c0.66095,0.61067 1.02008,3.06392 1.66983,3.45472c0.52155,0.3137 1.01921,-0.70196 1.60291,-0.87434c1.74246,-0.51458 3.83723,0.01129 5.19826,1.22787c2.58734,2.31274 0.27065,4.22866 0.82901,6.76112c0.10669,0.4839 3.53677,-0.52249 3.72146,-0.54451l0.29869,-0.03735c0.36217,-0.47128 1.01453,-0.47127 1.01453,-0.47127h0.66667c5.94726,0 11.45455,0.97845 16.3259,-2.98999c1.08359,-2.76316 1.72568,-8.71512 4.70083,-10.33378c2.96001,-1.61042 4.73653,2.49345 7.96758,1.26396c1.48347,-0.56449 0.15865,-2.6875 1.40493,-3.51021c2.86543,-1.89157 3.57799,1.88105 5.07193,2.40369c0.86337,-0.50351 1.90316,-1.88777 2.6653,-2.21565c1.33134,-0.57277 3.97028,-0.01636 5.1105,0.79639c0.60951,0.43446 0.79255,1.4534 1.51189,1.66026c2.69589,0.77527 3.1653,2.01555 5.33839,3.68593c2.90747,2.23488 5.87124,4.03084 8.49494,6.6474c2.35692,-0.20531 4.26942,-0.37721 6.65214,-0.23891c1.46847,0.08524 1.53314,-0.14702 2.98519,0.1855c0.32468,0.07435 1.09469,0.72772 0.88029,0.47282c-1.77128,-2.10586 -0.28199,-3.73545 2.20958,-3.65137c2.41332,0.08144 4.45705,2.61249 6.47965,4.11179l0.37522,-0.18676c1.18693,-0.5063 5.02798,-3.22771 3.17257,-4.45195c-0.78785,-0.35157 -1.83627,-0.01613 -2.53496,-0.52222c-1.78101,-1.29007 -2.23962,-7.2372 -0.33333,-8.58711c1.33833,-0.94771 4.20053,0.1487 5.73425,-0.17301c0.81255,-0.17043 1.17371,-1.22593 1.92367,-1.58209c0.43318,-0.20572 0.97178,0.06894 1.438,-0.04335c2.02657,-0.48813 0.10257,-4.38004 3.88396,-3.7068c1.97956,0.35244 1.23066,2.39912 2.91321,2.85533c0.91253,0.22877 1.86754,0.25716 2.78035,0.48477c0.38852,0.09688 0.70821,0.3985 1.09934,0.48423c4.67492,1.02472 -1.78296,-4.78519 -2.76198,-5.6868c-0.38019,-0.35013 -0.92919,-0.51216 -1.25011,-0.91731c-0.44383,-0.5603 -0.94505,-1.19097 -0.98523,-1.90463c-0.18144,-3.22217 3.70495,-4.23515 6.07706,-3.24676c1.10779,0.46159 2.44786,1.83648 3.38188,2.61989c1.92573,1.11184 2.11622,2.83711 3.43084,4.07508c0.45053,0.42426 1.23737,0.0321 1.8562,0.03499c2.203,0.01028 3.92468,-1.58368 6.07333,-0.09076c1.06858,0.74247 2.3185,3.65998 3.51887,3.99876c1.45761,0.41137 3.52032,0.93361 5.06285,1.10166c0,0 0.84619,0.10577 1.05336,0.84152c2.43011,1.25673 -0.44638,-3.96213 1.48301,-5.4069c2.24367,-1.68012 6.59254,1.74241 8.84314,2.16911c0.88008,0.16685 4.04539,-3.05549 5.09792,-3.65715c1.82122,-0.91052 3.77732,-0.81464 5.46516,-1.63246c2.57008,-1.24532 4.36277,-3.61662 7.23747,-4.282c1.57577,-0.36472 3.48711,-0.51118 4.94436,0.35325c1.02161,0.60601 0.77633,1.182 1.83002,1.44675c1.66676,0.41881 4.77918,-2.33379 5.70378,-3.52125c1.56581,-2.30804 0.68207,-5.44927 3.02318,-7.43427c0.76452,-0.64823 1.96835,-1.10541 2.16334,-2.08861c0.08799,-0.44368 0.74241,-1.28808 0.29163,-1.32525c-1.51279,-0.12473 -2.9381,0.89324 -4.37199,-0.54958c-0.19931,-0.20055 -0.67332,-2.17865 -1.06921,-2.67863c-1.09361,-1.38114 -4.12502,-1.90112 -5.70628,-2.43099c-1.22848,-0.61424 -4.83063,-0.75752 -5.48832,-1.76236c-1.85696,-2.83716 0.47531,-3.72861 2.18083,-4.96457c0.69349,-0.50256 0.53962,-1.77105 1.25496,-2.24197c1.17278,-0.77206 3.86436,0.20913 4.98657,-1.00495c0.44837,-0.48508 0.21468,-1.30368 0.30688,-1.95777c0.0658,-0.46679 0.1272,-0.93425 0.2,-1.4c0.07424,-0.47494 0.78427,-1.35559 0.30655,-1.40917c-1.1112,-0.12464 -2.60043,0.17747 -3.83503,0.02489c-1.70851,-0.24401 -4.52465,0.01954 -5.94904,-1.0136c-1.6279,-1.18075 -1.88404,-3.49466 -1.25272,-5.27148c0.2065,-0.5812 1.6562,-1.17088 1.11889,-1.47376c-0.05373,-0.03028 -0.10904,-0.05239 -0.16568,-0.06769c-0.41629,0.53159 -1.16231,0.42502 -1.16231,0.42502c-1.79057,-0.26013 -4.69468,0.38204 -6.1261,-0.97296c-0.48038,-0.45473 -0.42165,-1.53941 -1.06984,-1.67133c-2.80653,-0.57121 -5.92067,0.96701 -8.58952,0.20323c-2.74987,-0.78698 -6.03733,-3.7044 -6.07569,-6.42299c-0.4315,-1.69317 -5.03889,-5.30573 -7.03298,-4.76747c-2.40296,0.64862 -2.83627,3.23881 -6.01771,3.04095c-3.89066,-0.24196 -6.52245,-2.57762 -10.40118,-0.30573c-1.56748,0.52249 -5.04615,1.45786 -6.6517,0.5855c-1.55592,-0.84539 -1.73732,-2.28652 -1.47508,-3.81382c0.07306,-0.42549 1.11405,-1.15238 0.68568,-1.09876c-1.26436,0.15824 -1.60726,0.80817 -2.88317,-0.88316c-1.23805,-1.64115 0.3322,-4.05542 -0.66329,-5.69698c-0.46772,-0.77128 -1.56349,-1.02908 -2.00807,-1.81392c-0.19711,-0.34796 0.17364,-0.87145 -0.05665,-1.1984c-0.54048,-0.76731 -2.0388,-0.07562 -2.72241,-0.71872c-0.71026,-0.66816 -0.84103,-2.42392 -0.97296,-3.3261c-0.25151,-1.78728 -0.56947,-3.40832 0.66536,-4.96263c0.46952,-0.591 1.76787,-0.91871 2.53473,-1.06508c-0.7187,-0.24518 -1.55307,-1.4951 -1.38355,-2.21723c0.36407,-1.55083 2.26346,-1.68675 3.93959,-1.84559c3.24975,-1.8371 -0.41697,-1.67233 -1.33445,-3.96437z"/></g></g></svg>