<svg version="1.1" xmlns="http://www.w3.org/2000/svg" xmlns:xlink="http://www.w3.org/1999/xlink" width="224.81236" height="575.70463" viewBox="0,0,224.81236,575.70463"><g transform="translate(-297.54741,88.61135)"><g data-paper-data="{&quot;isPaintingLayer&quot;:true}" fill-rule="nonzero" stroke="none" stroke-linecap="butt" stroke-linejoin="miter" stroke-miterlimit="10" stroke-dasharray="" stroke-dashoffset="0" style="mix-blend-mode: normal"><g><path d="M337.34503,457.9903c-0.18285,-0.99676 -0.78453,-2.00475 -0.54855,-2.99029c0.0383,-0.15997 0.08283,-0.31769 0.13274,-0.47345l-0.08419,-0.01684l0.49092,-2.45459c0.03995,-0.22245 0.10933,-0.43468 0.20396,-0.63252c-1.78834,-0.11859 -3.56835,-0.06151 -5.37006,-0.18268c-0.65272,-0.0439 -1.43,0.18127 -1.95078,-0.21524c-1.82817,-1.39193 -1.13617,-6.13551 -0.98507,-8.1518c-0.72268,-0.82612 -1.90943,-1.27829 -2.55629,-2.13808c-0.38892,-0.51694 -1.11455,-4.00977 -1.65314,-4.0805c-2.58063,-0.33895 -5.67287,0.46943 -7.7386,-1.55426c-2.74785,-2.69193 -0.23314,-7.06955 -3.18511,-9.20311c-1.27916,-1.28105 -4.29496,-3.05678 -3.34868,-5.39838c1.14231,-2.82666 2.52276,-0.68669 3.96689,-1.34092c0.90158,-0.40844 0.02688,-1.99351 0.22506,-2.96443c0.34733,-1.70157 0.99534,-3.2962 2.53761,-4.30474c1.05478,-0.68975 2.17162,-0.5108 3.18162,-0.61605l-0.21923,-1.09778c-0.26315,-1.34815 -0.88144,-4.9665 -0.05936,-6.20506c0.34953,-0.52661 1.11052,-0.60231 1.67268,-0.89023c0.17854,-0.09144 0.70634,-0.20984 0.52465,-0.29485c-1.74552,-0.81675 -4.5955,-0.62051 -6.00864,-1.94888c-0.63232,-0.59439 -0.41729,-1.95897 -1.21263,-2.30521c-0.83691,-0.36433 -1.82958,-0.02601 -2.73347,-0.15158c-0.76957,-2.84018 -0.50135,-2.91206 1.00518,-5.17177c0.24329,-0.36492 0.50652,-0.71724 0.78731,-1.05407c0.18613,-0.22329 0.90619,-0.6317 0.61612,-0.61702c-1.3383,0.06774 -3.20847,0.45806 -4.5114,0.05205c-0.66122,-0.20604 -1.16361,-0.89349 -1.85471,-0.93724c-0.60674,-0.0384 -0.886,0.87112 -1.44098,1.11969c-1.23757,0.55429 -4.02614,0.19929 -5.06938,-0.62681c-1.88684,-1.49414 -0.3386,-3.51072 -2.05864,-4.55453c-1.35735,-1.39449 -3.43806,-4.37148 -2.14768,-6.49636c0.2383,-0.39242 0.98139,-0.0468 1.3328,-0.3419c0.18522,-0.15554 -0.13375,-0.49149 -0.0643,-0.72337c0.48554,-1.62083 0.97411,-2.5459 2.94818,-2.64771c2.49036,-0.12845 3.40402,2.47187 4.69432,3.93679c0.56597,0.64256 1.0235,2.25445 1.77918,1.85269c1.78081,-0.94675 2.72316,-4.04986 3.31838,-5.86042c0.28145,-1.27985 0.26598,-2.25596 1.64911,-3.05169c1.17623,-0.6767 2.15735,0.32187 3.17513,-0.76698c1.60683,-1.71901 1.89373,-4.01805 3.81489,-5.56863c0.48062,-0.38791 0.94371,-0.87602 1.54249,-1.02623c0.68568,-0.17201 1.53584,0.89154 2.07572,0.43459c0.50899,-0.4308 0.01248,-1.38066 0.30965,-1.97803c0.95752,-1.92475 2.53063,-2.14987 4.43563,-2.47643c0,0 0.15634,-0.02609 0.36697,-0.00394c0.0398,-0.02521 0.08003,-0.04993 0.12042,-0.07388c-0.18772,-0.06836 -0.35974,-0.14831 -0.47446,-0.2216c-0.63383,-0.40491 -1.66789,-0.58879 -1.82684,-1.3247c-0.5184,-2.40007 2.47329,-3.24908 3.93703,-4.14719c0.25121,-0.15413 -0.57024,0.1563 -0.86257,0.19295c-0.32987,0.04135 -0.68507,-0.02672 -0.99228,0.10052c-0.70738,0.29303 -1.09162,1.07595 -1.66268,1.58651c-2.16593,1.93644 -3.91572,2.17742 -6.72177,1.91496c-1.11381,-2.15189 -2.58209,-8.22222 -0.8562,-10.47798c0.22264,-0.291 0.82639,-0.06189 1.0371,-0.36166c0.49834,-0.709 -0.73503,-1.71862 -0.49867,-2.55273c0.51378,-1.81318 3.06671,-2.77742 4.27449,-4.1106c2.30802,-2.54765 3.71774,-6.13064 5.05916,-9.22239c1.35929,-1.69432 3.93957,-2.31259 4.97422,-4.161c0.67141,-1.19949 1.00856,-5.96891 0.68147,-7.32624c-0.22483,-0.933 -1.16442,-1.64489 -1.23029,-2.60241c-0.06784,-0.98607 0.80183,-1.81834 1.03029,-2.7799c0.6074,-2.55637 -0.03343,-6.08241 -0.03343,-8.72565c0.00065,-0.40009 0.02061,-0.80941 0.05091,-1.22467c-0.73209,-1.75672 -0.09723,-3.58252 -0.91167,-5.21145c-0.70968,-1.4194 -2.60795,-2.12399 -3.52307,-3.47582c-2.65446,-3.92121 -4.81635,-7.56858 -8.49595,-10.6829c-1.73991,-2.66825 -1.37205,-7.26584 1.48169,-9.17986c0.44383,-0.29768 -1.07686,0.05414 -1.60188,-0.04443c-0.51742,-0.09715 -1.01613,-0.27676 -1.51946,-0.43124c-1.74064,-0.53421 -4.60785,-0.55471 -5.69389,-2.34044c-1.2375,-2.03477 -0.22536,-5.98783 1.22096,-7.3299c0.11496,-0.10668 -0.31302,0.14959 -0.46029,0.09592c-0.46378,-0.16903 -0.85812,-0.48853 -1.28718,-0.7328c-0.38973,-0.19496 -0.77946,-0.38996 -1.16919,-0.58492l-0.03,-0.00582c-0.48451,0.14251 -0.9575,-0.09433 -0.9575,-0.09433l-0.40522,-0.20775c-1.76301,-0.70985 -5.0034,-1.93503 -4.7756,-4.4512c0.06518,-0.71988 0.84325,-1.17338 1.26487,-1.76007c0.75901,-0.57537 2.23784,-1.41089 2.76812,-2.21288c0.74012,-1.11938 -1.03833,-2.31229 -1.51084,-3.1464c-1.19487,-2.10929 -3.64727,-4.48893 -1.68855,-7.0739c1.76746,-2.33256 3.56025,-0.78164 5.80881,-1.37134c0.76152,-0.19971 1.08209,-1.19653 1.78842,-1.54456c1.29964,-0.64037 2.10692,0.5772 2.48584,-0.98961c0.26986,-1.19535 0.40364,-3.17217 2.40488,-3.14577c1.38603,0.01829 1.73186,2.05325 2.30734,2.8957c0.99921,1.46274 2.35109,1.08718 3.84821,1.23777c0.14269,0.01435 1.34391,0.44323 1.72911,0.1463c0.95867,-0.73899 -0.5992,-3.75097 -1.0893,-4.40487c-1.55599,-2.07604 -6.41231,-2.19906 -3.36108,-5.66915c0.42422,-0.48245 1.08119,-0.69322 1.62179,-1.03983c5.15094,-0.13185 7.16331,3.58228 10.71812,6.44179c1.40241,1.12811 4.60863,-0.75904 6.2894,-0.17205c1.74992,0.61113 2.67519,2.7963 4.07383,3.91919c0.80319,0.64484 2.32021,0.35575 3.44261,0.76966c1.07722,0.59973 2.5792,2.28784 3.66273,2.6338c0.58313,0.18619 0.23761,-1.24326 0.0851,-1.83687c-0.42801,-1.66593 -2.12585,-3.40629 -0.15571,-5.05215c3.17492,-2.65234 6.33674,3.5661 9.25359,2.9059c1.07155,-0.24254 2.98728,-2.23364 3.9827,-2.89554c1.7011,-1.48558 3.18876,-1.28798 4.92794,-2.24207c5.17111,-2.8368 9.55493,-7.88638 15.5539,-3.54435c0.47663,0.34498 0.91566,0.75564 1.29909,1.21215c1.89652,-1.66666 4.60785,-2.90446 5.77785,-4.95825c0.9286,-1.63004 0.22204,-3.76947 1.30109,-5.33729c0.79478,-1.15479 5.8931,-3.97907 1.47582,-4.16779c-2.03102,-2.34537 -3.36961,-5.24587 -6.46103,-6.6165c-1.59305,-0.7063 -6.31176,-0.4791 -7.18349,-2.24609c-0.38579,-0.78199 -0.18757,-1.8137 0.16445,-2.61152c0.19563,-0.44336 0.96276,-0.31452 1.28587,-0.67541c0.57987,-0.64768 0.08938,-1.85956 0.64452,-2.52862c1.24257,-1.49757 4.02917,-1.50745 5.64201,-2.72153c0.15907,-1.35329 -0.30071,-4.12652 0.5526,-5.21583c2.3399,-2.98706 7.92657,0.065 10.57526,-2.35471c2.13568,-1.95104 3.59323,-4.96995 5.69512,-7.08375l0.25,-0.25037c0,0 0.06087,-0.06096 0.16664,-0.13489c0.23009,-0.3474 0.59984,-0.5061 0.59984,-0.5061l1.00822,-0.42398c3.8523,-1.10611 2.16502,-4.45564 4.38851,-6.97557c1.74097,-1.97309 5.01682,-1.11884 7.3575,-1.33423c0.57834,-0.04628 1.44342,0.37451 1.73591,-0.1273c0.25128,-0.43112 -0.24069,-2.26191 -0.46676,-2.65227c-1.24401,-2.14807 -3.10516,-3.59267 -3.3999,-6.24067c-0.49015,-4.40361 2.86248,-6.3185 4.19418,-10.06517c0,0 0.05531,-0.15234 0.18087,-0.32744c-0.18812,-2.33363 0.18799,-4.74685 -0.56633,-6.98392c-0.21663,-0.64245 -0.09633,-1.50218 -0.61416,-1.93908c-0.79687,-0.67232 -2.60614,-0.5459 -3.68005,-1.55089c-2.61362,-2.44589 -2.58339,-6.3736 -3.42579,-9.65763c-0.33375,0.91641 -1.06463,2.6442 -1.19238,2.82217c-1.14119,1.58976 -2.77067,2.15978 -4.65803,2.16617c-3.51455,0.01191 -6.06095,-2.31478 -9.10532,-3.60361c-2.50754,-1.06156 -5.23946,-0.92075 -7.87722,-1.15852c-2.99142,-0.27237 -6.86861,-0.56763 -8.1763,-3.92118c-0.6576,-1.68642 -0.06209,-3.95685 -0.20549,-5.72563c-0.13742,-1.69506 -2.23454,-4.41136 -0.88292,-6.11742c0.64553,-0.81481 2.07583,-0.29012 3.04369,-0.66742c1.8814,-0.73344 2.97957,-3.4199 5.46301,-0.96667c-1.47838,-1.91224 -4.09597,-4.23406 -4.7204,-6.59465c-0.35213,-1.33118 -0.20727,-2.50015 -0.70818,-3.8657l0.04086,0.20701c0,0 -0.88389,-0.88519 0,-1.77038c0.23971,-0.24007 0.47943,-0.34991 0.70151,-0.38252c5.77473,-6.81808 15.71389,-2.86337 23.18237,-2.86337c1.37642,0 2.92335,-0.1605 4.27793,0.15653c1.59032,0.37219 4.32179,2.10494 6.03241,1.55087c1.0537,-0.34129 1.543,-3.05874 1.71052,-3.93808c0.74367,-3.90369 0.62964,-7.95753 0.98427,-11.90326c0.37096,-4.04306 0.34755,-8.1116 0.75107,-12.1541l-0.0062,-0.12581c0,0 0,-0.35768 0.19091,-0.69067c0.29142,-2.7038 0.71501,-5.45425 1.94371,-7.88626c0.83558,-1.6539 2.3256,-2.83485 3.22809,-4.461c0.66017,-1.83453 1.26622,-3.81603 2.14691,-5.55375c1.06133,-2.09414 2.96011,-3.38513 3.82269,-5.64012c1.30653,-3.41557 1.07623,-7.86776 2.5486,-11.17523c-0.01993,-0.28228 0.0468,-0.50502 0.0468,-0.50502c1.60845,-5.36423 1.05881,-11.57586 -0.5009,-16.93456c-0.80717,-2.77322 -2.61387,-3.52672 -1.97507,-6.79746c1.31432,-2.36167 -0.09115,-4.06469 0.60188,-6.44045c0.42381,-1.45282 1.71955,-1.96289 1.96622,-3.48979c0.57378,-3.55172 -0.08121,-6.54195 2.24346,-9.5596l0.23086,-0.24014c1.63989,-2.96262 -0.73869,-8.48559 2.39182,-10.34681c2.51997,-1.49823 6.15386,1.00712 8.66323,0.67972c0.42386,-0.05531 -0.48219,-0.78616 -0.88502,-0.92932c-8.5021,-2.56398 -17.86939,-2.03996 -26.66419,-2.03996c-3.6553,-0.00433 -9.9777,-1.51916 -8.32137,-6.74716c0.09429,-0.29759 2.08171,-2.34118 1.95743,-2.72587c-1.34601,-4.16606 -0.22236,-8.74664 0.63611,-13.0445c0.32804,-1.76741 -0.13815,-3.83226 0.41309,-5.53219c0.43011,-1.32641 1.40723,-1.97837 2.24699,-2.84648c0.09866,0.02646 0.19802,0.05269 0.29804,0.07873c0.11374,-0.326 0.06018,-0.72274 -0.25206,-1.1345c-0.97926,-1.29138 -4.20625,-4.69632 -1.4307,-6.63877c2.01272,-1.4086 5.50439,2.511 7.32574,3.09554c0.72614,0.23304 4.78925,-0.15632 3.28956,-1.38082c-2.55154,-1.47373 -6.75987,-3.99822 -5.05836,-7.815c1.13473,-2.54538 5.123,-4.36553 7.25678,-5.9981c1.89518,-1.45002 2.67247,-3.92307 4.41736,-5.56349c1.37026,-1.28823 3.17361,-2.14434 4.83432,-2.97482c1.4801,-0.59291 2.14663,-0.85659 3.20795,-2.07396l0.54524,-0.54849c0,0 0.47305,-0.47375 1.07309,-0.3815c1.28347,-0.86381 2.61857,-0.74364 4.53742,-1.2035c4.56,-1.09283 10.14973,-1.3719 14.82962,-0.77331c2.42621,0.31034 4.47523,1.69271 6.8817,2.12907c2.91175,0.30115 5.31347,-1.41027 8.05558,-2.32647l1.24024,-0.17976c0,0 0.90202,-0.11291 1.26376,0.62418c1.39596,-0.17647 2.78709,-0.61315 4.19,-0.50772c3.95189,0.29701 6.84733,1.50071 9.07817,3.37731c-0.03661,-0.49172 -0.01062,-0.97813 0.12604,-1.45515c0.01378,-0.04811 0.03039,-0.09414 0.0496,-0.13825h-0.05342v-4c0,-1.38071 1.11929,-2.5 2.5,-2.5c1.38071,0 2.5,1.11929 2.5,2.5v2.7698c1.25275,5.05582 1.37703,10.10171 1.82072,15.22517l0.11603,0.34862c0,0 0.14504,0.43576 -0.00416,0.86735c0.01578,0.16112 0.032,0.32232 0.04868,0.48361c0.36752,3.55299 2.2972,7.50972 3.00902,11.00936c0.07113,0.35564 1.97164,9.83848 1.99754,10.04975c0.25722,2.09777 0.24232,4.33558 0.17305,6.56516c1.60888,5.90098 3.83498,11.76383 4.68915,17.82476c0.20573,1.45978 -0.10224,2.96262 0.11179,4.4212c0.35861,2.44391 1.67017,4.6845 2.01944,7.12976c0.52078,3.64598 0.07351,6.29404 1,10c0.01015,2.33331 -0.3384,4.69134 0,7c0.19932,1.35984 0.85043,2.63379 1,4c0.47105,4.30272 -0.47414,8.76242 0.00656,13.05911c0.55407,4.95249 1.46776,9.84563 1.96212,14.80477c0.49703,4.986 -0.3044,10.08465 0.04403,15.07806c0.96257,13.79479 1.00602,27.51015 1.00602,41.36351c0,9.12924 0.6752,18.10498 0.91547,27.18528c0.17828,1.34534 0.23302,2.60668 0.0797,3.65938c-0.0028,0.0192 -0.00564,0.0384 -0.00853,0.05758c0.00036,0.03259 0.00072,0.06517 0.00106,0.09776h0.0123v5c0,1.38071 -1.11929,2.5 -2.5,2.5c-1.38045,0 -2.49957,-1.11886 -2.5,-2.49921c0,-0.00003 0,-0.00007 0,-0.0001l-0.00098,-3.06959c-0.00055,-0.60587 -0.00404,-1.21104 -0.01015,-1.8156c-0.3543,-0.95164 -0.61425,-6.11925 -0.94134,-7.63034c-0.42579,-1.96708 -0.92969,-3.89636 -1.43791,-5.82157c0.1449,2.04699 0.28611,4.10103 0.38555,6.18106c0.2383,4.98449 -0.31,10.02064 0,15c0.16699,2.68223 0.87167,5.31565 1,8c0.52355,10.95121 -0.78489,22.04571 -0.00146,32.97812c0.4363,6.08844 0.94133,12.03087 1.00625,18.16398c0.00003,4.41688 -0.57776,9.32394 -0.0187,13.70779c0.17386,1.36333 0.85043,2.63379 1,4c0.9737,8.89412 -1.00264,18.1161 0,27c0.15413,1.3657 0.85043,2.63379 1,4c0.50392,4.60295 -0.58483,9.41408 0,14c0.17386,1.36333 0.85043,2.63379 1,4c0.3649,3.33312 -0.32802,6.72281 0.00656,10.05911c0.16611,1.65639 0.79873,3.2422 0.97999,4.89701c0.43735,3.99276 0.03218,8.33028 0.03218,12.34934v0.57239c0.5847,0.72861 0.5847,1.67761 0.5847,1.67761c0,24.51369 1.49509,49.10184 -0.38614,73.60058c-0.12781,8.37171 -0.63301,16.64818 -1.03192,25.00113c-0.20697,4.3339 0.20586,8.71431 -0.08598,13.04033c-0.6959,10.31567 -1.49596,20.51073 -1.49596,30.85795v2.57997c0.55265,1.00285 1.10881,2.00434 1.43312,3.09565c0.085,0.28602 0.06688,4.99355 0.06688,5.57438c0,4.18152 0.30834,8.41734 -1.82059,12.22481c-2.32656,4.16093 -6.54195,5.60645 -10.36508,7.90181c-6.84048,4.10694 -13.54016,6.86011 -21.65898,6.86854c-16.57921,2.09305 -33.33985,1.98634 -49.909,3.49266c-6.50905,0.59175 -13.07483,1.94265 -19.54014,3.00365c-7.83678,0.02082 -15.90633,0.27207 -23.9366,0.06786c-3.06123,0.53688 -6.13906,0.93239 -9.26958,0.94071c-10.22131,0 -20.78315,1.4923 -27.97051,-7.46147c-0.33172,-0.41324 -0.63728,-0.83668 -0.9213,-1.26855c-1.35239,-0.67372 -2.68739,-1.40398 -4.00317,-2.1954c-4.54093,-3.4057 -8.74846,-5.91799 -11.00139,-11.36225l0.03838,-0.24077l-0.09348,0.0187l-0.48988,-2.44938c-0.03842,-0.17418 -0.05867,-0.35518 -0.05867,-0.54091c0,-0.66456 0.2593,-1.26856 0.68225,-1.71634zM344.18323,452.41988l2.24188,2.26385c0.36033,0.16185 0.69355,0.29773 0.95898,0.40125c0.10518,0.04287 0.21069,0.08327 0.31653,0.12135c0.22921,-0.28148 0.57826,-0.46125 0.96922,-0.46125c0.58749,0 1.08033,0.4059 1.21415,0.95294c2.4212,0.27452 4.9447,-0.16973 7.38896,0.05279c1.53783,0.14 3.11984,0.35855 4.71767,0.55306c-0.39313,-0.36991 -0.69414,-0.93638 -0.69414,-1.80387c0,-2.5 2.5,-2.5 2.5,-2.5c5.97004,0 15.52671,0.91766 15.98783,8.75366c0.08163,1.38723 0.37619,3.00736 -0.41767,4.14792c-0.82701,1.18819 -2.50794,1.47168 -3.8578,1.99479c-4.3595,1.68942 -8.98157,0.67692 -13.46602,1.09148c-1.06549,0.0985 -3.02476,1.06875 -4.77957,1.65816c6.67761,-0.15224 13.55601,1.03136 20.15542,1.62863c6.40875,0.58002 13.03188,0.3213 19.16837,2.35367c1.82594,0.60474 3.57976,1.42158 5.4218,1.97535c0.87714,0.26369 1.91384,0.07687 2.68912,0.56455c1.5578,0.97991 3.96182,1.86747 4.09519,3.70301c0.03087,0.42492 -0.0715,0.82074 -0.26581,1.18965c2.71275,-0.03243 5.40479,-0.06044 8.06292,-0.05233c6.42445,-1.09011 12.98144,-2.40742 19.45986,-2.99635c16.63316,-1.51208 33.44411,-1.44582 50.091,-3.50734c7.31706,0.00782 13.18311,-2.439 19.34102,-6.13146c2.93205,-1.75814 6.86058,-2.87057 8.63492,-6.09819c1.63503,-2.9742 1.17941,-6.52912 1.17941,-9.77519c0,-1.47537 0.51981,-3.02149 0.06688,-4.42562c-0.39892,-1.23669 -1.20196,-2.30423 -1.80295,-3.45635c0,0 -0.76494,-1.52988 0.23607,-2.69147v-0.67657c0,-10.44177 0.79597,-20.73255 1.50404,-31.14205c0.29306,-4.30837 -0.12167,-8.677 0.08357,-12.99421c0.39702,-8.35124 0.89986,-16.62391 1.03157,-24.99378c1.81938,-23.61052 0.47674,-47.30624 0.3856,-70.93642c-0.58948,-0.72938 -0.58948,-1.68355 -0.58948,-1.68355v-3c0,-3.84429 0.42402,-8.02582 -0.00666,-11.84486c-0.18699,-1.65812 -0.81873,-3.24809 -0.98117,-4.9088c-0.32259,-3.29789 0.37818,-6.64816 0.00656,-9.94089c-0.15413,-1.3657 -0.83268,-2.63585 -1,-4c-0.56464,-4.60338 0.51946,-9.39736 0,-14c-0.15413,-1.3657 -0.85043,-2.63379 -1,-4c-0.97376,-8.89466 1.0027,-18.1156 0,-27c-0.15413,-1.3657 -0.83268,-2.63585 -1,-4c-0.56363,-4.59513 -0.01873,-9.66541 -0.0187,-14.29221c-0.06393,-6.0266 -0.57198,-11.8537 -0.99375,-17.83602c-0.7721,-10.95153 0.51017,-22.05397 -0.00146,-33.02188c-0.12523,-2.6845 -0.83301,-5.31777 -1,-8c-0.31012,-4.98119 0.23255,-10.01487 0,-15c-0.30053,-6.44249 -1.00483,-12.65914 -1.00483,-19.15534c0,-16.94299 -1.51464,-33.96513 -2.99371,-50.82278c-0.18138,-2.06731 -0.27202,-4.15331 -0.30585,-6.24979c-0.21149,-1.86258 -0.43438,-3.72359 -0.67176,-5.58264c-0.02218,-5.83555 -0.73616,-11.40508 -1.02486,-17.20654c-0.51351,-10.31908 -0.00383,-20.80767 -0.00383,-31.13825c0,-3.72973 0,-7.45946 0,-11.18919c-0.26235,-3.18229 -0.58559,-6.35127 -0.98009,-9.49596c-0.95654,-7.62481 -2.27634,-15.17954 -3.15906,-22.78261c-0.70609,-2.39352 -1.41751,-4.78712 -2.11736,-7.18956c-1.35852,-4.6635 -2.28794,-8.86902 -4.47955,-13.22464c0,0 -1.11803,-2.23607 1.11803,-3.3541c0.8845,-0.44225 1.59406,-0.35969 2.12868,-0.09831c-1.97924,-2.1815 -4.69492,-3.60496 -8.80847,-3.94798c-1.27157,-0.10603 -2.53012,0.33352 -3.79624,0.49202c0,0 -0.90238,0.11296 -1.26398,-0.62462l-0.74578,0.06931c-3.21848,1.07341 -5.70816,2.77079 -9.19442,2.43053c-2.3924,-0.43715 -4.48429,-1.83667 -6.8683,-2.1272c-3.62437,-0.44171 -7.47467,-0.10377 -11.08658,0.25577c-2.01367,0.20044 -6.1756,0.22039 -7.22195,1.97561c0,0 -0.45462,0.65041 -1.15698,0.55272c-1.00536,0.94176 -1.91598,1.41753 -3.3688,1.99951c-3.70698,1.85898 -4.81425,4.10157 -7.44409,7.06564c-2.09987,2.36676 -11.6011,6.07182 -6.00487,9.7753c0.8288,0.54848 1.80277,0.84633 2.64906,1.36732c2.16543,3.24171 -0.30365,6.26404 -4.07443,5.93193c-1.75245,-0.15436 -2.98943,-0.90573 -4.43118,-1.81635c-0.41501,-0.26212 -0.85235,-0.48827 -1.26196,-0.75879c-0.17278,-0.11411 -0.46058,-0.30714 -0.71648,-0.50237c0.15157,0.58809 0.24453,1.4021 0.45896,1.62817c1.27178,1.34079 2.05817,2.63755 1.75163,3.97211c0.02563,0.00513 0.05128,0.01023 0.07695,0.0153c-0.04336,0.07692 -0.09151,0.1515 -0.14368,0.22416c-0.20112,0.61331 -0.639,1.23557 -1.372,1.87464c0,0 -0.33224,0.24954 -0.75734,0.26918c-0.12964,0.18922 -0.23447,0.3924 -0.30293,0.61557c-0.47825,1.55894 -0.04504,3.5954 -0.33691,5.23366c-0.62709,3.14067 -1.48129,6.6334 -1.35438,9.84283c0.03308,0.83662 0.67902,1.56487 0.7405,2.39989c0.19162,2.60285 -1.4666,1.93673 -2.04257,3.78371c-1.01127,3.24283 4.08399,3.52036 5.92863,3.51795c9.15193,0 18.73949,-0.4345 27.5858,2.2163c0.58193,0.32793 1.33505,0.45657 1.74581,0.9838c0.45381,0.5825 0.73164,1.37736 0.66715,2.11336c-0.47586,5.43057 -7.15918,0.43635 -9.88475,1.6606c-0.51513,0.23138 -0.40648,1.9457 -0.36907,2.30233c0.30275,2.88606 0.36137,4.68993 -1.17308,7.26607c0,0 -0.03056,0.05101 -0.08946,0.12411c-0.05653,0.07495 -0.09852,0.11701 -0.09852,0.11701l-0.14719,0.13374c-1.99342,2.54215 -1.15998,5.4237 -1.75655,8.46694c-0.334,1.7038 -1.57637,2.32132 -2.03378,3.77089c-0.6884,2.18162 0.67658,4.18319 -0.64812,6.57871c-0.4696,2.25162 1.839,4.27893 2.30248,6.58327c1.07196,5.3296 1.81766,10.53332 0.54073,15.82266c0.3316,0.61556 -0.1014,1.26601 -0.1014,1.26601c-0.84929,1.17619 -0.55636,2.0015 -0.80857,3.40096c-0.48601,2.69678 -1.0937,5.80715 -2.06381,8.36911c-0.89337,2.35931 -2.87008,3.71817 -3.92731,5.87683c-0.84535,1.72605 -1.44185,3.65549 -2.10309,5.46247c-0.91037,1.64164 -2.45931,2.89881 -3.27191,4.55227c-1.33666,2.71981 -1.57552,5.85811 -1.87157,8.82305l0.0062,0.50136c0,0 0,0.35431 -0.18822,0.68594c-0.22729,3.3121 -0.26968,6.63574 -0.56691,9.94287c-0.41296,4.50089 -0.1651,9.24975 -1.41816,13.62596c-0.4595,1.60476 -1.13293,3.65619 -2.88705,4.33244c-2.32959,0.89811 -5.30066,-0.92421 -7.46759,-1.45356c-1.14361,-0.27936 -2.56528,-0.09384 -3.72206,-0.09384c-6.11689,0 -16.79622,-4.05989 -21.37804,2.08528c0.31535,1.19368 0.32355,2.31379 0.5946,3.51078c0.59666,2.63497 4.7113,3.8301 4.65558,6.83783c-0.01544,0.8331 -0.58399,1.56049 -0.87598,2.34073c-0.76112,0.07134 -1.52426,0.30436 -2.28336,0.21401c-0.66777,-0.07949 -1.24042,-1.01231 -1.86653,-0.76661c-0.81725,0.32071 -1.0786,1.49701 -1.88709,1.83924c-0.60282,0.25516 -1.66916,-0.75565 -1.95631,-0.16668c-0.2665,0.5466 1.29423,3.65589 1.36708,4.39805c0.14558,1.48314 -0.46662,3.62973 0.04451,5.04022c0.81901,2.2601 4.22563,2.16979 6.07371,2.33803c2.91345,0.26811 5.85224,0.18059 8.62277,1.34517c2.6995,1.13473 5.04439,3.39081 8.14469,3.4067c3.64952,0.0187 2.26734,-3.78551 4.75738,-5.01702c2.96404,-1.46595 2.69786,-0.23546 3.45355,1.72498c0.74189,2.72426 0.61718,6.59229 2.76286,8.63751c1.08348,1.03275 2.53245,0.55773 3.56995,1.45354c2.91598,2.51776 1.57782,8.25741 2.18047,11.50432c0,0 0.20375,1.1223 -0.8475,1.41905c-1.10618,1.98185 -3.2124,3.814 -3.66578,5.85245c-0.8788,3.95128 3.08189,5.8282 3.76448,9.25956c0.4516,2.27023 -0.02317,3.83089 -2.31428,4.56407c-0.49572,0.15863 -1.03573,0.10308 -1.55359,0.15462c-1.01552,0.09154 -5.05808,-0.47407 -5.64251,0.41835c-2.15789,3.29507 -0.95111,6.34903 -5.61148,7.79616l-0.58081,0.25614c-0.07815,0.11467 -0.14449,0.18111 -0.14449,0.18111l-0.25,0.25037c-2.13249,2.12553 -3.58899,5.26654 -5.80488,7.18725c-1.88901,1.63736 -4.74477,1.47441 -7.0899,1.6867c-0.03323,0.00302 -2.95322,-0.03032 -3.08484,0.21486c-0.49289,0.91815 -0.18048,3.91206 -0.4474,5.04929c-0.58742,0.55428 -1.74438,1.74851 -2.53267,2.12485c-1.3904,0.66379 -3.06869,0.07465 -3.46134,1.68209c-0.14017,0.57382 -0.11925,1.23339 -0.46947,1.70875c-0.11268,0.15294 -0.42678,0.28619 -0.72682,0.37897c0.88834,-0.00281 2.02858,0.46949 2.7025,0.66212c4.29192,1.22677 7.20154,3.42581 9.33012,7.33962c3.07059,-0.16521 3.60907,2.80903 2.61753,5.20417c-0.76549,1.84911 -2.25099,1.34022 -3.14171,2.64573c-0.89658,1.3141 -0.31617,3.66447 -1.19891,5.17819c-1.56464,2.68302 -5.10075,3.82198 -6.9644,6.26564c0,0 -0.47053,0.60585 -1.14842,0.49978c-0.8042,0.09687 -1.2063,-0.70852 -1.2063,-0.70852c-3.14501,-6.96341 -10.58183,0.26651 -14.30003,2.17547c-1.89175,0.97124 -2.90828,0.55104 -4.57206,2.0142c-1.29863,0.87001 -3.52231,3.057 -5.01729,3.36368c-3.02319,0.62015 -5.61421,-2.65256 -8.24642,-3.3533c-0.39681,-0.10564 0.50715,0.65859 0.6658,1.03785c0.19091,0.45638 0.31988,0.93834 0.42849,1.42106c0.27055,1.20234 0.60016,2.56124 -0.33569,3.66585c-2.39042,2.82149 -4.74516,-0.41003 -6.91649,-1.61708c-1.55419,-0.7225 -2.11245,0.13219 -3.80739,-0.98292c-1.14074,-0.75049 -2.20456,-3.23021 -3.42617,-3.59187c-2.29942,-0.68074 -4.56396,1.41329 -6.9606,-0.17205c-2.91778,-1.93007 -4.58293,-5.86525 -8.53188,-6.07663c-0.10044,0.07393 -0.26724,0.18367 -0.43667,0.28063c1.08897,0.38602 3.32955,2.3719 3.44737,2.52439c1.43942,1.86298 2.9282,6.02974 0.6607,7.86318c-1.6229,1.31222 -6.32413,0.54033 -7.88952,-0.58568c-0.04066,-0.02925 -1.01088,-0.88283 -1.60739,-1.70296c-0.24673,0.58319 -0.32956,1.28614 -0.79198,1.71172c-0.7419,0.68279 -2.0398,0.25957 -2.93573,0.7213c-0.82817,0.42681 -1.32469,1.42535 -2.21158,1.71023c-0.92329,0.29657 -3.98494,-0.44133 -4.44119,0.38124c-1.21319,2.18723 2.63992,4.71529 3.43255,6.31386c1.49054,3.00609 -1.32421,5.02429 -3.36383,6.54018c-1.21897,0.61025 2.14129,1.81272 2.73927,2.05089l0.13345,0.06575c0.22577,-0.00954 0.39298,0.03231 0.39298,0.03231l1.05584,0.29508c0.41027,0.20562 0.82054,0.41123 1.23081,0.61685c0.85902,0.49375 2.85006,1.43173 3.05253,2.56783c0.11412,0.64036 -0.67478,1.11646 -0.93161,1.71392c-0.43079,1.00215 -1.20222,3.50335 -0.64744,4.57622c0.34342,0.66412 2.54316,0.73013 3.02388,0.84184c1.8979,0.44105 5.7175,0.75646 6.16089,3.15208c0.12192,0.65875 -0.67684,1.15613 -0.99517,1.74539c-0.99738,1.84626 -2.44697,3.9875 -1.12315,5.89952c3.76159,3.08791 6.09244,6.94699 8.70405,10.94894c0.98295,1.50624 2.84848,2.07416 3.67692,3.73478c0.77283,1.54915 0.29823,3.10027 0.68138,4.58402c0.24179,-0.07493 0.4778,-0.15586 0.70839,-0.2426c-0.1143,1.12194 -0.25236,2.23165 -0.25051,3.24312c0,2.87599 0.59891,6.49649 -0.03344,9.30088c-0.1648,0.73085 -1.05866,1.28323 -0.9697,2.02718c0.09881,0.82628 0.98775,1.39268 1.1697,2.20466c0.43746,1.95219 0.01487,7.35882 -0.91853,9.09793c-1.15576,2.15342 -3.60622,2.46064 -5.02578,4.25137c-1.34387,3.20152 -2.97281,6.95374 -5.34084,9.60532c-0.54267,0.60766 -3.61848,2.42685 -3.72551,3.10001c-0.1607,1.01074 0.70633,2.11586 0.30132,3.05554c-0.21141,0.4905 -0.96855,0.48032 -1.3629,0.84009c-0.39596,0.36126 0.01126,1.07646 0.09312,1.60659c0.26644,1.72566 0.07094,3.42186 0.25068,5.1408c1.08161,-0.35332 1.80892,-0.3064 2.80924,-0.99173c1.83915,-1.26002 4.28491,-4.60988 7.04413,-2.89708c2.23305,1.38618 1.66922,2.5509 0.38828,4.16823c-0.41427,0.52306 -0.96339,0.94567 -1.54533,1.27135c-0.06766,0.03786 -0.1615,0.07382 -0.26929,0.10612c1.11095,0.53421 2.34808,2.17005 2.32789,2.52447c-0.00613,0.10769 -2.17615,1.85345 -2.66218,2.2477c0,0 -0.67816,0.54333 -1.35616,0.15812c-0.78366,0.08295 -1.87472,0.18612 -2.15002,0.97767c-0.38913,1.11886 0.11532,2.11922 -1.19035,3.02934c-0.80025,0.55781 -1.96051,-0.21404 -2.92427,-0.06615c-1.83617,0.28178 -2.9748,4.79689 -4.14263,5.92357c-1.83771,1.77298 -3.75641,0.25699 -4.17576,2.69091c-0.95063,2.82954 -3.19846,9.38991 -7.37459,7.24734c-1.99322,-1.02264 -2.54785,-4.84593 -4.83354,-5.31533c-0.9341,-0.19184 -0.4805,1.92593 -1.11611,2.63778c-0.26173,0.29313 -0.80506,0.00689 -1.16721,0.15884c-0.02873,0.01206 1.58972,2.76539 1.85232,3.01764c0.41637,0.34885 0.99028,0.56864 1.24912,1.04652c0.63944,1.18059 -0.33697,3.43262 1.41827,3.6773c2.22211,0.30975 1.90064,-1.2206 4.26361,-1.27444c1.72196,-0.03922 2.00535,1.04709 3.5,1.00147c1.12843,-0.03444 3.82019,-0.33116 4.63389,0.61702c1.75576,2.04594 -0.10564,3.34754 -1.09658,4.83849c-0.1463,0.22012 -0.49598,1.02224 -0.92046,1.49123c0.42838,-0.2185 0.8378,-0.24918 1.69217,0.19573c0.95716,0.49843 1.07187,1.89355 1.78737,2.70215c1.3968,1.57859 5.23252,-0.00098 6.49137,2.55774c1.5261,3.10195 -1.20209,2.63389 -2.30266,3.82228c-0.25144,0.2715 0.32904,3.76656 0.44064,4.31041l0.09778,0.48963c0.00252,-0.00049 0.00505,-0.00097 0.00758,-0.00144c-0.0709,0.78206 -0.07034,1.55879 0.00624,2.30463c-0.0231,0.04074 -0.04672,0.07949 -0.07088,0.11615c-0.12093,0.18352 -0.24845,0.38572 -0.37852,0.60276c-1.5747,0.45101 -3.32236,0.10077 -4.40268,1.51007c-1.39288,1.81706 -0.15054,5.09104 -2.03447,6.52543c-0.52078,0.3965 -1.29753,0.18007 -1.95078,0.21524c-0.3607,0.01941 -1.07739,-0.41566 -1.08232,-0.05395c-0.01,0.73344 2.23064,2.1921 2.65132,2.6134c3.48721,2.69864 0.75176,6.64591 3.31489,9.32416c1.54363,1.61295 4.84983,0.15138 6.7614,0.94943c2.55859,1.06818 1.51464,3.13952 2.84686,4.93276c0.80003,1.07689 2.08836,1.65715 2.94371,2.86929c0.0701,1.8007 0.08207,3.60105 0.06414,5.40325c-0.00487,0.48928 -0.49437,1.26541 -0.04922,1.46708c0.55032,0.24931 1.19522,-0.21524 1.79922,-0.21524c2.30684,0 5.53383,-0.38173 7.73639,0.27296c0.73228,0.21766 1.57484,0.42818 2.0487,1.02817c0.41792,0.52917 0.12826,1.33648 0.16572,2.0298c0.48356,0.13337 0.81257,0.35271 0.81257,0.35271zM356.08412,464.60365c3.80018,-1.15557 6.7116,-1.61291 10.71237,-1.60364c2.63158,0.00609 4.7148,-0.55775 7.28763,-0.89636c0.37748,-0.04968 0.89644,0.28558 1.1422,-0.00521c0.62033,-0.734 -1.30929,-2.71392 -1.8248,-3.02381c-0.24546,-0.14755 -0.48467,-0.28461 -0.7187,-0.41193c-5.1057,1.16179 -10.50761,0.04837 -15.61605,-0.41671c-3.08872,-0.28122 -6.08682,0.3094 -9.06339,-0.36187c1.23244,1.65992 3.08346,2.88527 4.57864,4.50952l0.82079,0.18097c0,0 1.87042,0.46761 1.91551,2.2241c0.26164,-0.05681 0.51815,-0.11975 0.7658,-0.19506zM350.06041,467.88198c0.0208,-0.05842 0.04232,-0.11556 0.06455,-0.17144c-0.12896,-0.26442 -0.26244,-0.5272 -0.40133,-0.788c-1.10291,-0.13694 -2.19041,-0.43096 -3.27802,-0.70268c0.97064,1.14368 2.15752,2.10397 3.40635,3.00564c-0.00339,-0.45774 0.05318,-0.90733 0.20844,-1.34353zM398.81786,479.82785c-3.54507,-1.20889 -6.70254,-2.61401 -10.65963,-2.83166c-9.77485,-0.53764 -19.71859,-1.0677 -29.47254,-2.43474c10.51627,4.86213 22.1524,6.20625 33.87858,6.50595c2.08706,-0.38461 4.16654,-0.83429 6.25359,-1.23955zM510.89262,51.92731c2.01621,17.39828 3.00384,34.84905 5.29553,52.22971c0.00783,0.05942 0.01571,0.11884 0.02364,0.17827c-0.00045,-13.6826 -0.05807,-27.22807 -0.99408,-40.8535c-0.33909,-4.93617 0.47173,-9.99847 -0.03074,-14.92168c-0.50639,-4.9617 -1.42517,-9.8567 -1.96302,-14.81376c-0.46264,-4.26391 0.48697,-8.68422 0.00656,-12.94089c-0.44035,-3.90172 -1.0203,-6.99639 -1,-11c-0.89914,-3.59654 -0.49583,-6.47138 -1,-10c-0.24227,-1.69557 -0.97333,-3.28551 -1.4991,-4.92039c0.34638,6.53328 0.47815,13.08404 0.47977,19.55994c-0.01124,5.66813 0.91752,11.30891 1.00028,17.01455c0.09763,6.73162 -0.41622,13.65983 -0.31884,20.46775z" fill="#000000" stroke-width="0.5"/><path d="M344.17066,452.46829c0,0 -0.32918,-0.21938 -0.81274,-0.35275c-0.03746,-0.69332 0.25207,-1.50066 -0.16585,-2.02983c-0.47386,-0.59999 -1.31685,-0.81063 -2.04913,-1.02829c-2.20256,-0.65469 -5.43096,-0.27337 -7.7378,-0.27337c-0.604,0 -1.24921,0.46445 -1.79953,0.21514c-0.44515,-0.20167 0.04428,-0.97782 0.04915,-1.4671c0.01793,-1.8022 0.00564,-3.60265 -0.06446,-5.40335c-0.85535,-1.21214 -2.14438,-1.79263 -2.94441,-2.86952c-1.33222,-1.79324 -0.2891,-3.86487 -2.84769,-4.93305c-1.91157,-0.79805 -5.21904,0.66304 -6.76267,-0.94991c-2.56313,-2.67825 0.17106,-6.62603 -3.31615,-9.32467c-0.42068,-0.4213 -2.66199,-1.88025 -2.65199,-2.61369c0.00493,-0.36171 0.76167,-0.01827 1.12237,-0.03768c0.65325,-0.03517 1.42967,0.18112 1.95045,-0.21538c1.88393,-1.43439 0.64173,-4.70831 2.03461,-6.52537c1.08032,-1.4093 2.82728,-1.05936 4.40198,-1.51037c0.13007,-0.21704 0.25757,-0.41925 0.3785,-0.60277c0.02416,-0.03666 0.00977,0.01709 0.03287,-0.02365c-0.07658,-0.74584 -0.07732,-1.52265 -0.00642,-2.30471c-0.00253,0.00047 -0.00506,0.00095 -0.00758,0.00144l-0.09784,-0.48965c-0.1116,-0.54385 -0.65316,-4.13102 -0.40172,-4.40252c1.10057,-1.18839 3.78954,-0.62834 2.26344,-3.73029c-1.25885,-2.55872 -5.09605,-0.97981 -6.49285,-2.5584c-0.7155,-0.8086 -0.8308,-2.204 -1.78796,-2.70243c-0.85437,-0.44491 -1.26413,-0.41439 -1.69251,-0.19589c0.42448,-0.46899 0.81803,-1.36097 0.96433,-1.58109c0.99094,-1.49095 2.80826,-2.70279 1.0525,-4.74873c-0.8137,-0.94818 -3.50641,-0.65194 -4.63484,-0.6175c-1.49465,0.04562 -1.77879,-1.04109 -3.50075,-1.00187c-2.36297,0.05384 -2.04215,1.58383 -4.26426,1.27408c-1.75524,-0.24468 -0.77946,-2.49707 -1.4189,-3.67766c-0.25884,-0.47788 -0.83308,-0.69786 -1.24945,-1.04671c-0.2626,-0.25225 -1.88169,-3.00597 -1.85296,-3.01803c0.36215,-0.15195 0.90567,0.1344 1.1674,-0.15873c0.63561,-0.71185 0.23394,-2.91508 1.16804,-2.72324c2.28569,0.4694 2.83888,4.29185 4.8321,5.31449c4.17613,2.14257 6.42332,-4.41815 7.37395,-7.24769c0.41935,-2.43392 2.33751,-0.91822 4.17522,-2.6912c1.16783,-1.12668 2.30625,-5.6419 4.14242,-5.92368c0.96376,-0.14789 2.12339,0.62363 2.92364,0.06582c1.30567,-0.91012 0.80129,-1.91044 1.19042,-3.0293c0.2753,-0.79155 1.36599,-0.8949 2.14965,-0.97785c0.678,0.38521 1.35587,-0.15826 1.35587,-0.15826c0.48603,-0.39425 2.61249,-2.05 2.61862,-2.15769c0.02019,-0.35442 -1.21776,-1.99066 -2.32871,-2.52487c0.10779,-0.0323 0.24643,-0.15766 0.31409,-0.19552c0.58194,-0.32568 1.13085,-0.7484 1.54512,-1.27146c1.28094,-1.61733 1.79986,-2.6927 -0.43319,-4.07888c-2.75922,-1.7128 -5.20624,1.63639 -7.04539,2.89641c-1.00032,0.68533 -1.72812,0.63814 -2.80973,0.99146c-0.17974,-1.71894 0.01507,-3.41554 -0.25137,-5.1412c-0.08186,-0.53013 -0.43848,-1.33158 -0.04252,-1.69284c0.39435,-0.35977 1.10086,-0.26336 1.31227,-0.75386c0.40501,-0.93968 -0.46248,-2.04507 -0.30178,-3.05581c0.10703,-0.67316 3.23379,-2.5784 3.77646,-3.18606c2.36803,-2.65158 3.99704,-6.40376 5.34091,-9.60528c1.41956,-1.79073 3.82001,-2.01136 4.97577,-4.16478c0.9334,-1.73911 1.35482,-7.14642 0.91736,-9.09861c-0.18195,-0.81198 -1.07156,-1.37879 -1.17037,-2.20507c-0.08896,-0.74395 0.80482,-1.29638 0.96962,-2.02723c0.63235,-2.80439 0.0318,-6.42597 0.0318,-9.30196c-0.00185,-1.01147 0.13567,-2.12156 0.24997,-3.2435c-0.23059,0.08674 -0.46675,0.16757 -0.70854,0.2425c-0.38315,-1.48375 0.09037,-3.03566 -0.68246,-4.58481c-0.82844,-1.66062 -2.69568,-2.22988 -3.67863,-3.73612c-2.61161,-4.00195 -4.94676,-7.865 -8.70835,-10.95291c-1.32382,-1.91202 0.12472,-4.05439 1.1221,-5.90065c0.31833,-0.58926 1.1169,-1.08685 0.99498,-1.7456c-0.44339,-2.39562 -4.26483,-2.71321 -6.16273,-3.15426c-0.48072,-0.11171 -2.68114,-0.17859 -3.02456,-0.84271c-0.55478,-1.07287 0.21579,-3.57524 0.64658,-4.57739c0.25683,-0.59746 1.04551,-1.07388 0.93139,-1.71424c-0.20247,-1.1361 -2.19449,-2.07552 -3.05351,-2.56927c-0.41027,-0.20562 -0.82083,-0.41168 -1.2311,-0.6173l-1.05603,-0.29539c0,0 -0.16727,-0.04194 -0.39304,-0.0324l-0.13348,-0.0658c-0.59798,-0.23817 -3.95896,-1.44184 -2.73999,-2.05209c2.03962,-1.51589 4.85348,-3.53568 3.36294,-6.54177c-0.79263,-1.59857 -4.64722,-4.12961 -3.43403,-6.31684c0.45625,-0.82257 3.60862,-0.12673 4.53191,-0.4233c0.88689,-0.28488 1.38354,-1.28315 2.21171,-1.70996c0.89593,-0.46173 2.10329,0.00394 2.84519,-0.67885c0.46242,-0.42558 0.63593,-1.17068 0.88266,-1.75387c0.59651,0.82013 1.56624,1.67267 1.6069,1.70192c1.56539,1.12601 6.17767,1.94354 7.80057,0.63132c2.2675,-1.83344 0.77689,-6.00395 -0.66253,-7.86693c-0.11782,-0.15249 -2.35919,-2.14029 -3.44816,-2.52631c0.16943,-0.09696 0.42944,-0.24291 0.52988,-0.31684c3.94895,0.21138 5.61193,4.14175 8.52971,6.07182c2.39664,1.58534 4.66014,-0.5106 6.95956,0.17014c1.22161,0.36166 2.28377,2.83867 3.42451,3.58916c1.69494,1.11511 2.25207,0.25878 3.80626,0.98128c2.17133,1.20705 4.52369,4.4355 6.91411,1.61401c0.93585,-1.10461 0.52853,-2.40061 0.25798,-3.60295c-0.10861,-0.48272 -0.23822,-0.96552 -0.42913,-1.4219c-0.15865,-0.37926 -0.98184,-1.20244 -0.58503,-1.0968c2.63221,0.70074 5.21936,3.96869 8.24255,3.34854c1.49498,-0.30668 3.71809,-2.49428 5.01672,-3.36429c1.66378,-1.46316 2.67914,-1.04415 4.57089,-2.01539c3.7182,-1.90896 11.14649,-9.14561 14.2915,-2.1822c0,0 0.40061,0.80449 1.20481,0.70762c0.67789,0.10607 1.14759,-0.50025 1.14759,-0.50025c1.86365,-2.44366 5.39523,-3.58483 6.95987,-6.26785c0.88274,-1.51372 0.30402,-3.86333 1.2006,-5.17743c0.89072,-1.30551 2.33715,-0.70466 3.10264,-2.55377c0.99154,-2.39514 0.4425,-5.3749 -2.62809,-5.20969c-2.12858,-3.91381 -5.05653,-6.13597 -9.34845,-7.36274c-0.67392,-0.19263 -1.81529,-0.66816 -2.70363,-0.66535c0.30004,-0.09278 0.61404,-0.22634 0.72672,-0.37928c0.35022,-0.47536 0.32841,-1.13827 0.46858,-1.71209c0.39265,-1.60744 2.07046,-1.02066 3.46086,-1.68445c0.78829,-0.37634 1.94458,-1.57596 2.532,-2.13024c0.26692,-1.13723 -0.04385,-4.14778 0.44904,-5.06593c0.13162,-0.24518 3.05286,-0.21579 3.08609,-0.21881c2.34513,-0.21229 5.21766,-0.07207 7.10667,-1.70943c2.21589,-1.92071 3.70768,-5.07163 5.84017,-7.19716l0.25083,-0.25028c0,0 0.06678,-0.06639 0.14493,-0.18106l0.58274,-0.25586c4.66037,-1.44713 3.46256,-4.49871 5.62045,-7.79378c0.58443,-0.89242 4.63601,-0.32243 5.65153,-0.41397c0.51786,-0.05154 1.05981,0.00527 1.55553,-0.15336c2.29111,-0.73318 2.71036,-2.21068 2.25876,-4.48091c-0.68259,-3.43136 -4.63371,-5.30341 -3.75491,-9.25469c0.45338,-2.03845 2.59651,-3.96353 3.70269,-5.94538c1.05125,-0.29675 0.80898,-1.32677 0.80898,-1.32677c-0.60265,-3.24691 0.74086,-8.98466 -2.17512,-11.50242c-1.0375,-0.89581 -2.48324,-0.41996 -3.56672,-1.45271c-2.14568,-2.04522 -2.01755,-5.91262 -2.75944,-8.63688c-0.75569,-1.96044 -0.48678,-3.1906 -3.45082,-1.72465c-2.49004,1.23151 -1.10439,5.03592 -4.75391,5.01722c-3.1003,-0.01589 -5.43888,-2.27222 -8.13838,-3.40695c-2.77053,-1.16458 -5.70319,-1.07808 -8.61664,-1.34619c-1.84808,-0.16824 -5.25108,-0.07891 -6.07009,-2.33901c-0.51113,-1.41049 0.07223,-3.65283 -0.07335,-5.13597c-0.07285,-0.74216 -1.63363,-3.85144 -1.36713,-4.39804c0.28715,-0.58897 1.35458,0.42153 1.9574,0.16637c0.80849,-0.34223 1.0712,-1.51887 1.88845,-1.83958c0.62611,-0.2457 1.19975,0.6869 1.86752,0.76639c0.7591,0.09035 1.52363,-0.14295 2.28475,-0.21429c0.29199,-0.78024 0.87815,-1.4092 0.89359,-2.2423c0.05572,-3.00773 -4.05705,-4.20322 -4.65371,-6.83819c-0.27105,-1.19699 -0.29976,-2.41497 -0.61511,-3.60865c4.58182,-6.14517 15.27254,-2.08632 21.38943,-2.08632c1.15678,0 2.58043,-0.18543 3.72404,0.09393c2.16693,0.52935 5.14202,2.35209 7.47161,1.45398c1.75412,-0.67625 2.42868,-2.7275 2.88818,-4.33226c1.25306,-4.37621 0.98899,-9.02639 1.40195,-13.52728c0.29723,-3.30713 0.34003,-6.63071 0.56732,-9.94281c0.18822,-0.33163 0.18819,-0.68595 0.18819,-0.68595l-0.00617,-0.50136c0.29605,-2.96494 0.55011,-6.20208 1.88677,-8.92189c0.8126,-1.65346 2.36245,-2.91048 3.27282,-4.55212c0.66124,-1.80698 1.25813,-3.73635 2.10348,-5.4624c1.05723,-2.15866 3.03486,-3.51734 3.92823,-5.87665c0.97011,-2.56196 1.55784,-5.57434 2.04385,-8.27112c0.25221,-1.39946 -0.02061,-2.32273 0.82868,-3.49892c0,0 0.4129,-0.55249 0.0813,-1.16805c1.27693,-5.28934 0.53225,-10.49286 -0.53971,-15.82246c-0.46348,-2.30434 -2.77116,-4.33149 -2.30156,-6.58311c1.3247,-2.39552 -0.02423,-4.49579 0.66417,-6.67741c0.45741,-1.44957 1.70014,-2.06703 2.03414,-3.77083c0.59657,-3.04324 -0.23679,-5.92478 1.75663,-8.46693l0.14722,-0.13373c0,0 0.04201,-0.04206 0.09854,-0.11701c0.0589,-0.0731 0.08948,-0.12411 0.08948,-0.12411c1.53445,-2.57614 1.45891,-4.28145 1.15616,-7.16751c-0.03741,-0.35663 -0.12916,-2.16951 0.38597,-2.40089c2.72557,-1.22425 9.41103,3.77039 9.88689,-1.66018c0.06449,-0.736 -0.23427,-1.43307 -0.68808,-2.01557c-0.41076,-0.52723 -1.16345,-0.65578 -1.74538,-0.98371c-8.84631,-2.6508 -18.42761,-2.21544 -27.57954,-2.21544c-1.84464,0.00241 -6.93851,-0.27504 -5.92724,-3.51787c0.57597,-1.84698 2.23914,-1.28074 2.04752,-3.88359c-0.06148,-0.83502 -0.71259,-1.4634 -0.74567,-2.30002c-0.12691,-3.20943 0.73245,-6.80203 1.35954,-9.9427c0.29187,-1.63826 -0.14133,-3.67472 0.33692,-5.23366c0.06846,-0.22317 0.17335,-0.42635 0.30299,-0.61557c0.4251,-0.01964 0.75749,-0.26917 0.75749,-0.26917c0.733,-0.63907 1.17114,-1.26131 1.37226,-1.87462c0.05217,-0.07266 0.10035,-0.14724 0.14371,-0.22416c-0.02567,-0.00507 -0.05765,0.08963 -0.08328,0.0845c0.30654,-1.33456 -0.47945,-2.6313 -1.75123,-3.97209c-0.21443,-0.22607 -0.30198,-1.13993 -0.45355,-1.72802c0.2559,0.19523 0.54385,0.38827 0.71663,0.50238c0.40961,0.27052 0.84721,0.49669 1.26222,0.75881c1.44175,0.91062 2.67964,1.66205 4.43209,1.81641c3.77078,0.33211 6.23122,-2.5906 4.06579,-5.83231c-0.84629,-0.52099 -1.81972,-0.81879 -2.64852,-1.36727c-5.59623,-3.70348 3.91423,-7.50811 6.0141,-9.87487c2.62984,-2.96407 3.73832,-5.20652 7.4453,-7.0655c1.45282,-0.58198 2.36399,-1.05768 3.36935,-1.99944c0.70236,0.09769 1.15717,-0.55269 1.15717,-0.55269c1.04635,-1.75522 5.20949,-1.77498 7.22316,-1.97542c3.61191,-0.35954 7.4641,-0.69712 11.08847,-0.25541c2.38401,0.29053 4.47714,1.69032 6.86954,2.12747c3.48626,0.34026 5.97736,-1.35676 9.19584,-2.43017l0.7459,-0.06928c0.3616,0.73758 1.26421,0.62468 1.26421,0.62468c1.26612,-0.1585 2.52526,-0.59788 3.79683,-0.49185c4.11355,0.34302 6.83082,1.76697 8.81006,3.94847c-0.53462,-0.26138 -1.27457,-0.24867 -2.15907,0.19358c-2.23606,1.11803 -1.08798,3.25872 -1.08798,3.25872c2.19161,4.35562 3.12247,8.56162 4.48099,13.22512c0.69985,2.40244 1.41204,4.79632 2.11813,7.18984c0.88272,7.60307 2.20457,15.15861 3.16111,22.78342c0.3945,3.14469 0.71863,6.31405 0.98098,9.49634c0,3.72973 0.00091,7.45987 0.00091,11.1896c0,10.33058 -0.50673,20.82066 0.00678,31.13974c0.2887,5.80146 1.00483,11.37224 1.02701,17.20779c0.23738,1.85905 0.46109,3.72058 0.67258,5.58316c0.03383,2.09648 0.12534,4.18305 0.30672,6.25036c1.47907,16.85765 3.00227,33.88706 3.00227,50.83005c0,6.4962 0.70802,12.7173 1.00855,19.15979c0.23255,4.98513 -0.30729,10.02306 0.00283,15.00425c0.16699,2.68223 0.87632,5.31831 1.00155,8.00281c0.51163,10.96791 -0.76604,22.08381 0.00606,33.03534c0.42177,5.98232 0.93068,11.81796 0.99461,17.84456c-0.00003,4.6268 -0.5453,9.70393 0.01833,14.29906c0.16732,1.36415 0.84562,2.6361 0.99975,4.0018c1.0027,8.8844 -0.977,18.11673 -0.00324,27.01139c0.14957,1.36621 0.8453,2.63561 0.99943,4.00131c0.51946,4.60264 -0.56704,9.40126 -0.0024,14.00464c0.16732,1.36415 0.84526,2.63531 0.99939,4.00101c0.37162,3.29273 -0.33094,6.6457 -0.00835,9.94359c0.16244,1.66071 0.79343,3.25171 0.98042,4.90983c0.43068,3.81904 0.00457,8.00318 0.00457,11.84747l-0.00052,3.0006c0,0 -0.0002,0.95439 0.58928,1.68377c0.09114,23.63018 1.42357,47.33459 -0.39581,70.94511c-0.13171,8.36987 -0.63735,16.64421 -1.03437,24.99545c-0.20524,4.31721 0.20828,8.68649 -0.08478,12.99486c-0.70807,10.4095 -1.50676,20.70159 -1.50676,31.14336l-0.00005,0.67659c-1.00101,1.16159 -0.2363,2.69157 -0.2363,2.69157c0.60099,1.15212 1.40408,2.21964 1.803,3.45633c0.45293,1.40413 -0.06719,2.95038 -0.06719,4.42575c0,3.24607 0.4548,6.80133 -1.18023,9.77553c-1.77434,3.22762 -5.70458,4.34071 -8.63663,6.09885c-6.15791,3.69246 -12.02739,6.1404 -19.34445,6.13258c-16.64689,2.06152 -33.46664,1.99695 -50.0998,3.50903c-6.47842,0.58893 -13.03895,1.90647 -19.4634,2.99658c-2.65813,-0.00811 -5.35163,0.01992 -8.06438,0.05235c0.19431,-0.36891 0.29673,-0.76473 0.26586,-1.18965c-0.13337,-1.83554 -2.53814,-2.72311 -4.09594,-3.70302c-0.77528,-0.48768 -1.81248,-0.30087 -2.68962,-0.56456c-1.84204,-0.55377 -3.59687,-1.37064 -5.42281,-1.97538c-6.13649,-2.03237 -12.76319,-1.77394 -19.17194,-2.35396c-6.59941,-0.59727 -13.4815,-1.78144 -20.15911,-1.6292c1.75481,-0.58941 3.73226,-1.65799 4.79775,-1.75649c4.48445,-0.41456 9.10408,0.59757 13.46358,-1.09185c1.34986,-0.52311 3.03011,-0.80668 3.85712,-1.99487c0.79386,-1.14056 0.48814,-2.66131 0.40651,-4.04854c-0.46112,-7.836 -10.0211,-8.75415 -15.99114,-8.75415c0,0 -2.50039,-0.00007 -2.50039,2.49993c0,0.86749 0.3012,1.434 0.69433,1.80391c-1.59783,-0.19451 -3.18075,-0.41324 -4.71858,-0.55324c-2.44426,-0.22252 -4.96913,0.22143 -7.39033,-0.05309c-0.13382,-0.54704 -0.62692,-0.953 -1.21441,-0.953c-0.39096,0 -0.74017,0.17973 -0.96938,0.46121c-0.10584,-0.03808 -0.21141,-0.0785 -0.31659,-0.12137c-0.26543,-0.10352 -0.59884,-0.23945 -0.95917,-0.4013l-2.24239,-2.26398z" data-paper-data="{&quot;noHover&quot;:false,&quot;origItem&quot;:[&quot;Path&quot;,{&quot;applyMatrix&quot;:true,&quot;segments&quot;:[[344.18323,452.41988],[[346.42511,454.68373],[0,0],[0.36033,0.16185]],[[347.38409,455.08498],[-0.26543,-0.10352],[0.10518,0.04287]],[[347.70062,455.20633],[-0.10584,-0.03808],[0.22921,-0.28148]],[[348.66984,454.74508],[-0.39096,0],[0.58749,0]],[[349.88399,455.69802],[-0.13382,-0.54704],[2.4212,0.27452]],[[357.27295,455.75081],[-2.44426,-0.22252],[1.53783,0.14]],[[361.99062,456.30387],[-1.59783,-0.19451],[-0.39313,-0.36991]],[[361.29648,454.5],[0,0.86749],[0,-2.5]],[[363.79648,452],[0,0],[5.97004,0]],[[379.78431,460.75366],[-0.46112,-7.836],[0.08163,1.38723]],[[379.36664,464.90158],[0.79386,-1.14056],[-0.82701,1.18819]],[[375.50884,466.89637],[1.34986,-0.52311],[-4.3595,1.68942]],[[362.04282,467.98785],[4.48445,-0.41456],[-1.06549,0.0985]],[[357.26325,469.64601],[1.75481,-0.58941],[6.67761,-0.15224]],[[377.41867,471.27464],[-6.59941,-0.59727],[6.40875,0.58002]],[[396.58704,473.62831],[-6.13649,-2.03237],[1.82594,0.60474]],[[402.00884,475.60366],[-1.84204,-0.55377],[0.87714,0.26369]],[[404.69796,476.16821],[-0.77528,-0.48768],[1.5578,0.97991]],[[408.79315,479.87122],[-0.13337,-1.83554],[0.03087,0.42492]],[[408.52734,481.06087],[0.19431,-0.36891],[2.71275,-0.03243]],[[416.59026,481.00854],[-2.65813,-0.00811],[6.42445,-1.09011]],[[436.05012,478.01219],[-6.47842,0.58893],[16.63316,-1.51208]],[[486.14112,474.50485],[-16.64689,2.06152],[7.31706,0.00782]],[[505.48214,468.37339],[-6.15791,3.69246],[2.93205,-1.75814]],[[514.11706,462.2752],[-1.77434,3.22762],[1.63503,-2.9742]],[[515.29647,452.50001],[0,3.24607],[0,-1.47537]],[[515.36335,448.07439],[0.45293,1.40413],[-0.39892,-1.23669]],[[513.5604,444.61804],[0.60099,1.15212],[0,0]],[[513.79647,441.92657],[-1.00101,1.16159],[0,0]],[[513.79647,441.25],[0,0],[0,-10.44177]],[[515.30051,410.10795],[-0.70807,10.4095],[0.29306,-4.30837]],[[515.38408,397.11374],[-0.20524,4.31721],[0.39702,-8.35124]],[[516.41565,372.11996],[-0.13171,8.36987],[1.81938,-23.61052]],[[516.80125,301.18354],[0.09114,23.63018],[-0.58948,-0.72938]],[516.21177,299.49999],[[516.21177,296.49999],[0,0],[0,-3.84429]],[[516.20511,284.65513],[0.43068,3.81904],[-0.18699,-1.65812]],[[515.22394,279.74633],[0.16244,1.66071],[-0.32259,-3.29789]],[[515.2305,269.80544],[0.37162,3.29273],[-0.15413,-1.3657]],[[514.2305,265.80544],[0.16732,1.36415],[-0.56464,-4.60338]],[[514.2305,251.80544],[0.51946,4.60264],[-0.15413,-1.3657]],[[513.2305,247.80544],[0.14957,1.36621],[-0.97376,-8.89466]],[[513.2305,220.80544],[1.0027,8.8844],[-0.15413,-1.3657]],[[512.2305,216.80544],[0.16732,1.36415],[-0.56363,-4.59513]],[[512.2118,202.51323],[-0.00003,4.6268],[-0.06393,-6.0266]],[[511.21805,184.67721],[0.42177,5.98232],[-0.7721,-10.95153]],[[511.21659,151.65533],[0.51163,10.96791],[-0.12523,-2.6845]],[[510.21659,143.65533],[0.16699,2.68223],[-0.31012,-4.98119]],[[510.21659,128.65533],[0.23255,4.98513],[-0.30053,-6.44249]],[[509.21176,109.49999],[0,6.4962],[0,-16.94299]],[[506.21805,58.67721],[1.47907,16.85765],[-0.18138,-2.06731]],[[505.9122,52.42742],[0.03383,2.09648],[-0.21149,-1.86258]],[[505.24044,46.84478],[0.23738,1.85905],[-0.02218,-5.83555]],[[504.21558,29.63824],[0.2887,5.80146],[-0.51351,-10.31908]],[[504.21175,-1.50001],[0,10.33058],[0,-3.72973]],[[504.21175,-12.6892],[0,3.72973],[-0.26235,-3.18229]],[[503.23166,-22.18516],[0.3945,3.14469],[-0.95654,-7.62481]],[[500.0726,-44.96777],[0.88272,7.60307],[-0.70609,-2.39352]],[[497.95524,-52.15733],[0.69985,2.40244],[-1.35852,-4.6635]],[[493.47569,-65.38197],[2.19161,4.35562],[0,0]],[[494.59372,-68.73607],[-2.23606,1.11803],[0.8845,-0.44225]],[[496.7224,-68.83438],[-0.53462,-0.26138],[-1.97924,-2.1815]],[[487.91393,-72.78236],[4.11355,0.34302],[-1.27157,-0.10603]],[[484.11769,-72.29034],[1.26612,-0.1585],[0,0]],[[482.85371,-72.91496],[0.3616,0.73758],[0,0]],[[482.10793,-72.84565],[0,0],[-3.21848,1.07341]],[[472.91351,-70.41512],[3.48626,0.34026],[-2.3924,-0.43715]],[[466.04521,-72.54232],[2.38401,0.29053],[-3.62437,-0.44171]],[[454.95863,-72.28655],[3.61191,-0.35954],[-2.01367,0.20044]],[[447.73668,-70.31094],[1.04635,-1.75522],[0,0]],[[446.5797,-69.75822],[0.70236,0.09769],[-1.00536,0.94176]],[[443.2109,-67.75871],[1.45282,-0.58198],[-3.70698,1.85898]],[[435.76681,-60.69307],[2.62984,-2.96407],[-2.09987,2.36676]],[[429.76194,-50.91777],[-5.59623,-3.70348],[0.8288,0.54848]],[[432.411,-49.55045],[-0.84629,-0.52099],[2.16543,3.24171]],[[428.33657,-43.61852],[3.77078,0.33211],[-1.75245,-0.15436]],[[423.90539,-45.43487],[1.44175,0.91062],[-0.41501,-0.26212]],[[422.64343,-46.19366],[0.40961,0.27052],[-0.17278,-0.11411]],[[421.92695,-46.69603],[0.2559,0.19523],[0.15157,0.58809]],[[422.38591,-45.06786],[-0.21443,-0.22607],[1.27178,1.34079]],[[424.13754,-41.09575],[0.30654,-1.33456],[0.02563,0.00513]],[[424.21449,-41.08045],[-0.02567,-0.00507],[-0.04336,0.07692]],[[424.07081,-40.85629],[0.05217,-0.07266],[-0.20112,0.61331]],[[422.69881,-38.98165],[0.733,-0.63907],[0,0]],[[421.94147,-38.71247],[0.4251,-0.01964],[-0.12964,0.18922]],[[421.63854,-38.0969],[0.06846,-0.22317],[-0.47825,1.55894]],[[421.30163,-32.86324],[0.29187,-1.63826],[-0.62709,3.14067]],[[419.94725,-23.02041],[-0.12691,-3.20943],[0.03308,0.83662]],[[420.68775,-20.62052],[-0.06148,-0.83502],[0.19162,2.60285]],[[418.64518,-16.83681],[0.57597,-1.84698],[-1.01127,3.24283]],[[424.57381,-13.31886],[-1.84464,0.00241],[9.15193,0]],[[452.15961,-11.10256],[-8.84631,-2.6508],[0.58193,0.32793]],[[453.90542,-10.11876],[-0.41076,-0.52723],[0.45381,0.5825]],[[454.57257,-8.0054],[0.06449,-0.736],[-0.47586,5.43057]],[[444.68782,-6.3448],[2.72557,-1.22425],[-0.51513,0.23138]],[[444.31875,-4.04247],[-0.03741,-0.35663],[0.30275,2.88606]],[[443.14567,3.2236],[1.53445,-2.57614],[0,0]],[[443.05621,3.34771],[0.0589,-0.0731],[-0.05653,0.07495]],[442.95769,3.46472],[[442.8105,3.59846],[0,0],[-1.99342,2.54215]],[[441.05395,12.0654],[0.59657,-3.04324],[-0.334,1.7038]],[[439.02017,15.83629],[0.45741,-1.44957],[-0.6884,2.18162]],[[438.37205,22.415],[1.3247,-2.39552],[-0.4696,2.25162]],[[440.67453,28.99827],[-0.46348,-2.30434],[1.07196,5.3296]],[[441.21526,44.82093],[1.27693,-5.28934],[0.3316,0.61556]],[[441.11386,46.08694],[0,0],[-0.84929,1.17619]],[[440.30529,49.4879],[0.25221,-1.39946],[-0.48601,2.69678]],[[438.24148,57.85701],[0.97011,-2.56196],[-0.89337,2.35931]],[[434.31417,63.73384],[1.05723,-2.15866],[-0.84535,1.72605]],[[432.21108,69.19631],[0.66124,-1.80698],[-0.91037,1.64164]],[[428.93917,73.74858],[0.8126,-1.65346],[-1.33666,2.71981]],[[427.0676,82.57163],[0.29605,-2.96494],[0,0]],[427.0738,83.07299],[[426.88558,83.75893],[0.18822,-0.33163],[-0.22729,3.3121]],[[426.31867,93.7018],[0.29723,-3.30713],[-0.41296,4.50089]],[[424.90051,107.32776],[1.25306,-4.37621],[-0.4595,1.60476]],[[422.01346,111.6602],[1.75412,-0.67625],[-2.32959,0.89811]],[[414.54587,110.20664],[2.16693,0.52935],[-1.14361,-0.27936]],[[410.82381,110.1128],[1.15678,0],[-6.11689,0]],[[389.44577,112.19808],[4.58182,-6.14517],[0.31535,1.19368]],[[390.04037,115.70886],[-0.27105,-1.19699],[0.59666,2.63497]],[[394.69595,122.54669],[0.05572,-3.00773],[-0.01544,0.8331]],[[393.81997,124.88742],[0.29199,-0.78024],[-0.76112,0.07134]],[[391.53661,125.10143],[0.7591,0.09035],[-0.66777,-0.07949]],[[389.67008,124.33482],[0.62611,-0.2457],[-0.81725,0.32071]],[[387.78299,126.17406],[0.80849,-0.34223],[-0.60282,0.25516]],[[385.82668,126.00738],[0.28715,-0.58897],[-0.2665,0.5466]],[[387.19376,130.40543],[-0.07285,-0.74216],[0.14558,1.48314]],[[387.23827,135.44565],[-0.51113,-1.41049],[0.81901,2.2601]],[[393.31198,137.78368],[-1.84808,-0.16824],[2.91345,0.26811]],[[401.93475,139.12885],[-2.77053,-1.16458],[2.6995,1.13473]],[[410.07944,142.53555],[-3.1003,-0.01589],[3.64952,0.0187]],[[414.83682,137.51853],[-2.49004,1.23151],[2.96404,-1.46595]],[[418.29037,139.24351],[-0.75569,-1.96044],[0.74189,2.72426]],[[421.05323,147.88102],[-2.14568,-2.04522],[1.08348,1.03275]],[[424.62318,149.33456],[-1.0375,-0.89581],[2.91598,2.51776]],[[426.80365,160.83888],[-0.60265,-3.24691],[0,0]],[[425.95615,162.25793],[1.05125,-0.29675],[-1.10618,1.98185]],[[422.29037,168.11038],[0.45338,-2.03845],[-0.8788,3.95128]],[[426.05485,177.36994],[-0.68259,-3.43136],[0.4516,2.27023]],[[423.74057,181.93401],[2.29111,-0.73318],[-0.49572,0.15863]],[[422.18698,182.08863],[0.51786,-0.05154],[-1.01552,0.09154]],[[416.54447,182.50698],[0.58443,-0.89242],[-2.15789,3.29507]],[[410.93299,190.30314],[4.66037,-1.44713],[0,0]],[[410.35218,190.55928],[0,0],[-0.07815,0.11467]],[410.20769,190.74039],[[409.95769,190.99076],[0,0],[-2.13249,2.12553]],[[404.15281,198.17801],[2.21589,-1.92071],[-1.88901,1.63736]],[[397.06291,199.86471],[2.34513,-0.21229],[-0.03323,0.00302]],[[393.97807,200.07957],[0.13162,-0.24518],[-0.49289,0.91815]],[[393.53067,205.12886],[0.26692,-1.13723],[-0.58742,0.55428]],[[390.998,207.25371],[0.78829,-0.37634],[-1.3904,0.66379]],[[387.53666,208.9358],[0.39265,-1.60744],[-0.14017,0.57382]],[[387.06719,210.64455],[0.35022,-0.47536],[-0.11268,0.15294]],[[386.34037,211.02352],[0.30004,-0.09278],[0.88834,-0.00281]],[[389.04287,211.68564],[-0.67392,-0.19263],[4.29192,1.22677]],[[398.37299,219.02526],[-2.12858,-3.91381],[3.07059,-0.16521]],[[400.99052,224.22943],[0.99154,-2.39514],[-0.76549,1.84911]],[[397.84881,226.87516],[0.89072,-1.30551],[-0.89658,1.3141]],[[396.6499,232.05335],[0.88274,-1.51372],[-1.56464,2.68302]],[[389.6855,238.31899],[1.86365,-2.44366],[0,0]],[[388.53708,238.81877],[0.67789,0.10607],[-0.8042,0.09687]],[[387.33078,238.11025],[0,0],[-3.14501,-6.96341]],[[373.03075,240.28572],[3.7182,-1.90896],[-1.89175,0.97124]],[[368.45869,242.29992],[1.66378,-1.46316],[-1.29863,0.87001]],[[363.4414,245.6636],[1.49498,-0.30668],[-3.02319,0.62015]],[[355.19498,242.3103],[2.63221,0.70074],[-0.39681,-0.10564]],[[355.86078,243.34815],[-0.15865,-0.37926],[0.19091,0.45638]],[[356.28927,244.76921],[-0.10861,-0.48272],[0.27055,1.20234]],[[355.95358,248.43506],[0.93585,-1.10461],[-2.39042,2.82149]],[[349.03709,246.81798],[2.17133,1.20705],[-1.55419,-0.7225]],[[345.2297,245.83506],[1.69494,1.11511],[-1.14074,-0.75049]],[[341.80353,242.24319],[1.22161,0.36166],[-2.29942,-0.68074]],[[334.84293,242.07114],[2.39664,1.58534],[-2.91778,-1.93007]],[[326.31105,235.99451],[3.94895,0.21138],[-0.10044,0.07393]],[[325.87438,236.27514],[0.16943,-0.09696],[1.08897,0.38602]],[[329.32175,238.79953],[-0.11782,-0.15249],[1.43942,1.86298]],[[329.98245,246.66271],[2.2675,-1.83344],[-1.6229,1.31222]],[[322.09293,246.07703],[1.56539,1.12601],[-0.04066,-0.02925]],[[320.48554,244.37407],[0.59651,0.82013],[-0.24673,0.58319]],[[319.69356,246.08579],[0.46242,-0.42558],[-0.7419,0.68279]],[[316.75783,246.80709],[0.89593,-0.46173],[-0.82817,0.42681]],[[314.54625,248.51732],[0.88689,-0.28488],[-0.92329,0.29657]],[[310.10506,248.89856],[0.45625,-0.82257],[-1.21319,2.18723]],[[313.53761,255.21242],[-0.79263,-1.59857],[1.49054,3.00609]],[[310.17378,261.7526],[2.03962,-1.51589],[-1.21897,0.61025]],[[312.91305,263.80349],[-0.59798,-0.23817],[0,0]],[[313.0465,263.86924],[0,0],[0.22577,-0.00954]],[313.43948,263.90155],[[314.49532,264.19663],[0,0],[0.41027,0.20562]],[[315.72613,264.81348],[-0.41027,-0.20562],[0.85902,0.49375]],[[318.77866,267.38131],[-0.20247,-1.1361],[0.11412,0.64036]],[[317.84705,269.09523],[0.25683,-0.59746],[-0.43079,1.00215]],[[317.19961,273.67145],[-0.55478,-1.07287],[0.34342,0.66412]],[[320.22349,274.51329],[-0.48072,-0.11171],[1.8979,0.44105]],[[326.38438,277.66537],[-0.44339,-2.39562],[0.12192,0.65875]],[[325.38921,279.41076],[0.31833,-0.58926],[-0.99738,1.84626]],[[324.26606,285.31028],[-1.32382,-1.91202],[3.76159,3.08791]],[[332.97011,296.25922],[-2.61161,-4.00195],[0.98295,1.50624]],[[336.64703,299.994],[-0.82844,-1.66062],[0.77283,1.54915]],[[337.32841,304.57802],[-0.38315,-1.48375],[0.24179,-0.07493]],[[338.0368,304.33542],[-0.23059,0.08674],[-0.1143,1.12194]],[[337.78629,307.57854],[-0.00185,-1.01147],[0,2.87599]],[[337.75285,316.87942],[0.63235,-2.80439],[-0.1648,0.73085]],[[336.78315,318.9066],[-0.08896,-0.74395],[0.09881,0.82628]],[[337.95285,321.11126],[-0.18195,-0.81198],[0.43746,1.95219]],[[337.03432,330.20919],[0.9334,-1.73911],[-1.15576,2.15342]],[[332.00854,334.46056],[1.41956,-1.79073],[-1.34387,3.20152]],[[326.6677,344.06588],[2.36803,-2.65158],[-0.54267,0.60766]],[[322.94219,347.16589],[0.10703,-0.67316],[-0.1607,1.01074]],[[323.24351,350.22143],[0.40501,-0.93968],[-0.21141,0.4905]],[[321.88061,351.06152],[0.39435,-0.35977],[-0.39596,0.36126]],[[321.97373,352.66811],[-0.08186,-0.53013],[0.26644,1.72566]],[[322.22441,357.80891],[-0.17974,-1.71894],[1.08161,-0.35332]],[[325.03365,356.81718],[-1.00032,0.68533],[1.83915,-1.26002]],[[332.07778,353.9201],[-2.75922,-1.7128],[2.23305,1.38618]],[[332.46606,358.08833],[1.28094,-1.61733],[-0.41427,0.52306]],[[330.92073,359.35968],[0.58194,-0.32568],[-0.06766,0.03786]],[[330.65144,359.4658],[0.10779,-0.0323],[1.11095,0.53421]],[[332.97933,361.99027],[0.02019,-0.35442],[-0.00613,0.10769]],[[330.31715,364.23797],[0.48603,-0.39425],[0,0]],[[328.96099,364.39609],[0.678,0.38521],[-0.78366,0.08295]],[[326.81097,365.37376],[0.2753,-0.79155],[-0.38913,1.11886]],[[325.62062,368.4031],[1.30567,-0.91012],[-0.80025,0.55781]],[[322.69635,368.33695],[0.96376,-0.14789],[-1.83617,0.28178]],[[318.55372,374.26052],[1.16783,-1.12668],[-1.83771,1.77298]],[[314.37796,376.95143],[0.41935,-2.43392],[-0.95063,2.82954]],[[307.00337,384.19877],[4.17613,2.14257],[-1.99322,-1.02264]],[[302.16983,378.88344],[2.28569,0.4694],[-0.9341,-0.19184]],[[301.05372,381.52122],[0.63561,-0.71185],[-0.26173,0.29313]],[[299.88651,381.68006],[0.36215,-0.15195],[-0.02873,0.01206]],[[301.73883,384.6977],[-0.2626,-0.25225],[0.41637,0.34885]],[[302.98795,385.74422],[-0.25884,-0.47788],[0.63944,1.18059]],[[304.40622,389.42152],[-1.75524,-0.24468],[2.22211,0.30975]],[[308.66983,388.14708],[-2.36297,0.05384],[1.72196,-0.03922]],[[312.16983,389.14855],[-1.49465,0.04562],[1.12843,-0.03444]],[[316.80372,389.76557],[-0.8137,-0.94818],[1.75576,2.04594]],[[315.70714,394.60406],[0.99094,-1.49095],[-0.1463,0.22012]],[[314.78668,396.09529],[0.42448,-0.46899],[0.42838,-0.2185]],[[316.47885,396.29102],[-0.85437,-0.44491],[0.95716,0.49843]],[[318.26622,398.99317],[-0.7155,-0.8086],[1.3968,1.57859]],[[324.75759,401.55091],[-1.25885,-2.55872],[1.5261,3.10195]],[[322.45493,405.37319],[1.10057,-1.18839],[-0.25144,0.2715]],[[322.89557,409.6836],[-0.1116,-0.54385],[0,0]],[[322.99335,410.17323],[0,0],[0.00252,-0.00049]],[[323.00093,410.17179],[-0.00253,0.00047],[-0.0709,0.78206]],[[323.00717,412.47642],[-0.07658,-0.74584],[-0.0231,0.04074]],[[322.93629,412.59257],[0.02416,-0.03666],[-0.12093,0.18352]],[[322.55777,413.19533],[0.13007,-0.21704],[-1.5747,0.45101]],[[318.15509,414.7054],[1.08032,-1.4093],[-1.39288,1.81706]],[[316.12062,421.23083],[1.88393,-1.43439],[-0.52078,0.3965]],[[314.16984,421.44607],[0.65325,-0.03517],[-0.3607,0.01941]],[[313.08752,421.39212],[0.00493,-0.36171],[-0.01,0.73344]],[[315.73884,424.00552],[-0.42068,-0.4213],[3.48721,2.69864]],[[319.05373,433.32968],[-2.56313,-2.67825],[1.54363,1.61295]],[[325.81513,434.27911],[-1.91157,-0.79805],[2.55859,1.06818]],[[328.66199,439.21187],[-1.33222,-1.79324],[0.80003,1.07689]],[[331.6057,442.08116],[-0.85535,-1.21214],[0.0701,1.8007]],[[331.66984,447.48441],[0.01793,-1.8022],[-0.00487,0.48928]],[[331.62062,448.95149],[-0.44515,-0.20167],[0.55032,0.24931]],[[333.41984,448.73625],[-0.604,0],[2.30684,0]],[[341.15623,449.00921],[-2.20256,-0.65469],[0.73228,0.21766]],[[343.20493,450.03738],[-0.47386,-0.59999],[0.41792,0.52917]],[[343.37065,452.06718],[-0.03746,-0.69332],[0.48356,0.13337]],[344.18322,452.41989]],&quot;closed&quot;:true,&quot;fillColor&quot;:[0,0,0,1]}]}" fill="#d0d0d0" stroke-width="0.5"/><path d="M398.77438,-66.78939c-0.40089,0.01459 -0.80671,0.02402 -1.18426,-0.02375c-0.09292,-0.01175 -0.27154,-0.09835 -0.38592,-0.15895c0.65877,0.42159 0.8566,1.45551 1.45269,1.91851c0.40121,0.31163 2.16496,0.30519 1.85228,0.09661c-0.38952,-0.25983 -0.79793,-0.52662 -1.07538,-0.90408c0,-0.32707 -0.06397,-0.69383 -0.27621,-0.94225c-0.00081,0.00002 -0.00162,0.00006 -0.00243,0.00008l0.12157,0.2435c0,0 -0.32033,0 -0.50233,-0.22967zM400.1421,-67.56396l0.00961,0.00275c0.26218,0.3801 0.46792,0.84231 0.46792,1.30428c0.23007,0.28625 0.74137,0.27978 0.92462,0.59813c0.70716,1.22846 -0.32359,2.24514 -1.45413,2.22564c-1.63313,-0.02817 -6.02237,-3.62768 -3.20167,-4.73844c0.47413,-0.18671 2.06115,0.10968 2.63826,0.10968c0,0 0.53663,0 0.61539,0.49799z" fill="#000000" stroke-width="0.5"/><path d="M398.76882,-66.83908c0.182,0.22967 0.53362,0.23649 0.53362,0.23649l-0.16196,-0.15283c0.00081,-0.00002 0.03107,-0.09562 0.03188,-0.09564c0.21224,0.24842 0.31136,0.66557 0.31136,0.99264c0.27745,0.37746 0.67935,0.66643 1.06887,0.92625c0.31268,0.20858 -1.50711,0.2386 -1.90832,-0.07303c-0.59609,-0.463 -0.82328,-1.57247 -1.48205,-1.99406c0.11438,0.0606 0.29436,0.1452 0.38728,0.15695c0.37755,0.04777 0.81841,0.01781 1.2193,0.00323z" data-paper-data="{&quot;noHover&quot;:false,&quot;origItem&quot;:[&quot;Path&quot;,{&quot;applyMatrix&quot;:true,&quot;segments&quot;:[[[797.54876,-133.57881],[0,0],[-0.80178,0.02918]],[[795.18024,-133.62631],[0.7551,0.09554],[-0.18584,-0.0235]],[[794.4084,-133.94421],[0.22876,0.1212],[1.31754,0.84318]],[[797.31378,-130.10719],[-1.19218,-0.926],[0.80242,0.62326]],[[801.01834,-129.91397],[0.62536,0.41716],[-0.77904,-0.51966]],[[798.86758,-131.72213],[0.5549,0.75492],[0,-0.65414]],[[798.31516,-133.60663],[0.42448,0.49684],[-0.00162,0.00004]],[[798.3103,-133.60647],[0.00162,-0.00004],[0,0]],[798.55344,-133.11947],[[797.54878,-133.57881],[0.364,0.45934],[0,0]]],&quot;closed&quot;:true,&quot;fillColor&quot;:[0,0,0],&quot;strokeWidth&quot;:0.5}]}" fill="#d0d0d0" stroke-width="0.25"/><path d="M441.82667,-80.3817c-2.37499,0.03554 -4.89986,0.53052 -6.86597,0.95423c-0.94356,0.20334 -2.58445,0.15643 -3.37681,0.86137c-1.7551,1.56146 0.86647,4.3015 2.73524,2.54003c2.85942,-2.16181 8.44178,-1.47392 11.98087,-1.47392c0.7379,0 4.57472,0.18506 4.75,-0.95c0.04725,-0.30597 -3.612,-0.91183 -3.91943,-1.00584c-0.41028,-0.12546 -0.78422,-0.2467 -1.14683,-0.35363c-0.16685,-0.01728 -0.27903,-0.05468 -0.27903,-0.05468c-0.13549,-0.04745 -0.27369,-0.09122 -0.41436,-0.13146c-0.55446,-0.13041 -1.12038,-0.211 -1.79035,-0.2044h-1c0,0 -0.34559,0 -0.67334,-0.18171zM446.69424,-82.14487c0.79552,0.23045 1.59269,0.48677 2.46646,0.67237c0.91525,0.19441 2.63333,0.19566 3.3376,0.86063c2.15792,2.03752 0.59381,4.38088 -1.62559,5.15502c-3.06527,1.0692 -7.36156,0.65686 -10.57271,0.65686c-1.59259,0 -3.17715,-0.36554 -4.41913,0.72608c-3.41465,2.50634 -8.25105,0.1875 -6.99743,-4.46327c0.57239,-2.12351 2.21926,-2.70979 4.15587,-3.13533c4.04105,-0.88795 9.43454,-1.85478 13.45598,-0.56334c0,0 0.08357,0.02786 0.19895,0.09097z" fill="#000000" stroke-width="0.5"/><path d="M441.84209,-80.42927c0.32775,0.18171 0.68502,0.18726 0.68502,0.18726l1.00963,0.00811c0.66997,-0.0066 1.2441,0.08599 1.79856,0.2164c0.14067,0.04024 0.28008,0.08671 0.41557,0.13416c0,0 0.11273,0.03878 0.27958,0.05606c0.36261,0.10693 0.73832,0.23378 1.1486,0.35924c0.30743,0.09401 3.96812,0.70943 3.92087,1.01541c-0.17528,1.13506 -4.01218,0.95661 -4.75008,0.95661c-3.53909,0 -9.21942,-0.67828 -12.07884,1.48353c-1.86877,1.76147 -4.49211,-0.99556 -2.73701,-2.55702c0.79236,-0.70494 2.43462,-0.66667 3.37817,-0.87001c1.96611,-0.42371 4.55493,-0.95419 6.92992,-0.98973z" data-paper-data="{&quot;noHover&quot;:false,&quot;origItem&quot;:[&quot;Path&quot;,{&quot;applyMatrix&quot;:true,&quot;segments&quot;:[[[883.65334,-160.76343],[0,0],[-4.74998,0.07108]],[[869.9214,-158.85497],[3.93222,-0.84742],[-1.88712,0.40668]],[[863.16778,-157.13223],[1.58472,-1.40988],[-3.5102,3.12292]],[[868.63826,-152.05217],[-3.73754,3.52294],[5.71884,-4.32362]],[[892.6,-155.00001],[-7.07818,0],[1.4758,0]],[[902.1,-156.90001],[-0.35056,2.27012],[0.0945,-0.61194]],[[894.26114,-158.91169],[0.61486,0.18802],[-0.82056,-0.25092]],[[891.96748,-159.61895],[0.72522,0.21386],[-0.3337,-0.03456]],[[891.40942,-159.72831],[0,0],[-0.27098,-0.0949]],[[890.5807,-159.99123],[0.28134,0.08048],[-1.10892,-0.26082]],[[887,-160.40003],[1.33994,-0.0132],[0,0]],[885,-160.40003],[[883.65332,-160.76345],[0.6555,0.36342],[0,0]]],&quot;closed&quot;:true,&quot;fillColor&quot;:[0,0,0],&quot;strokeWidth&quot;:0.5}]}" fill="#d0d0d0" stroke-width="0.25"/><path d="M426.25414,-72.1368c-0.63952,-0.18158 -1.27894,-0.36354 -1.91824,-0.54592c-0.16077,0.05805 -0.28086,0.07306 -0.28086,0.07306c-4.85437,0.59975 -10.06091,1.20965 -14.95504,1.20965c-1.82029,0 -3.74713,-0.19723 -5.53931,0.17252c-0.16166,0.03335 -3.25288,1.06871 -1.76105,0.63169c2.71808,1.01671 6.62003,2.20021 9.57952,1.33767c2.70648,-0.78879 4.21411,-2.23753 7.24317,-2.43946c2.12614,-0.14175 4.26465,-0.05823 6.38906,-0.19927c0.17017,-0.0113 0.69687,-0.1432 1.24275,-0.23994zM421.78512,-74.84794c0.3718,-0.79316 1.32038,-0.63505 1.32038,-0.63505l1.3379,0.23109c0.90603,0.25886 1.81182,0.5186 2.7173,0.77939c2.55426,0.55787 4.42537,2.74593 1.23564,4.56975c-2.63605,1.50724 -8.03576,0.51711 -11.00773,0.69962c-2.15938,0.1326 -3.39613,1.80515 -5.36777,2.36127c-3.53048,0.99581 -7.98419,-0.24578 -11.22048,-1.46232c-0.62874,-0.45017 -1.6812,-0.60491 -1.88621,-1.35052c-0.66856,-2.43145 2.51001,-3.66228 4.12516,-4.0178c2.91634,-0.64192 6.01589,-0.02808 8.97208,-0.22434c3.2015,-0.21255 6.54351,-0.56167 9.77373,-0.95108z" fill="#000000" stroke-width="0.5"/><path d="M424.96162,-71.89208c-2.12441,0.14104 -4.26233,0.06172 -6.38847,0.20347c-3.02906,0.20193 -4.52963,1.66862 -7.23611,2.45741c-2.95949,0.86254 -6.86931,-0.34695 -9.58739,-1.36366c-1.49183,0.43702 1.59942,-0.60126 1.76108,-0.63461c1.79218,-0.36975 3.71935,-0.17662 5.53964,-0.17662c4.89413,0 10.19955,-0.61243 15.05392,-1.21218c0,0 0.12007,-0.01512 0.28084,-0.07317c0.6393,0.18238 1.27921,0.3678 1.91873,0.54937c-0.54588,0.09674 -1.17208,0.23868 -1.34224,0.24998z" data-paper-data="{&quot;noHover&quot;:false,&quot;origItem&quot;:[&quot;Path&quot;,{&quot;applyMatrix&quot;:true,&quot;segments&quot;:[[[852.50828,-144.27361],[-1.09176,0.19348],[-1.27904,-0.36316]],[[848.6718,-145.36545],[1.2786,0.36476],[-0.32154,0.1161]],[[848.11008,-145.21933],[0,0],[-9.70874,1.1995]],[[818.2,-142.80003],[9.78826,0],[-3.64058,0]],[[807.12138,-142.45499],[3.58436,-0.7395],[-0.32332,0.0667]],[[803.59928,-141.19161],[-2.98366,0.87404],[5.43616,2.03342]],[[822.75832,-138.51627],[-5.91898,1.72508],[5.41296,-1.57758]],[[837.24466,-143.39519],[-6.05812,0.40386],[4.25228,-0.2835]],[[850.02278,-143.79373],[-4.24882,0.28208],[0.34034,-0.0226]]],&quot;closed&quot;:true,&quot;fillColor&quot;:[0,0,0],&quot;strokeWidth&quot;:0.5}]}" fill="#d0d0d0" stroke-width="0.25"/><path d="M394.92566,-59.5285c-0.58089,0.89843 -1.58467,0.39655 -1.58467,0.39655c-1.38785,-0.70153 -3.29421,-1.34759 -4.87876,-0.92167c-1.45145,0.39014 -2.05055,1.95396 -3.762,2.23749c-2.017,0.33415 -4.0624,-0.56453 -5.97829,-0.74957c-0.12304,-0.01189 1.77698,2.10474 2.00547,2.23457c1.41983,0.80678 2.60045,1.54656 3.86527,2.60614c0.5065,0.62732 0.86852,1.39313 1.49317,1.90291c0.27207,0.22204 1.59823,0.68586 1.90134,0.75553c5.19484,1.19396 -2.05763,-3.7765 0.42892,-6.46733c0.52327,-0.56626 1.51665,-0.28987 2.28389,-0.36612c1.30313,-0.12951 2.71049,0.22048 3.99977,0.01614c0.72814,-0.1154 1.07695,-0.43238 1.60685,-0.56182c-0.07732,-0.09481 -0.15563,-0.18826 -0.24027,-0.27291c-0.35745,-0.28558 -0.73964,-0.56001 -1.1407,-0.80992zM388.57449,-62.62469l0.13023,-0.21116c3.29509,-1.02005 6.43075,0.17366 9.02893,2.25444c0.64472,0.64472 2.48078,2.24262 2.16517,3.28544c-0.23756,0.78493 -1.35457,0.94723 -2.11163,1.26253c-2.19705,0.91504 -5.45816,0.91585 -7.6033,0.26732c-0.40721,-0.12311 0.4002,0.75106 0.61415,1.11876c0.42201,0.72528 1.45492,1.37189 1.68151,2.1836c0.41573,1.48927 0.06001,3.14858 -1.43805,3.94039c-2.96301,1.5661 -6.63376,-1.42851 -8.23416,-3.45163c-1.77968,-1.47308 -6.84841,-3.28942 -6.55678,-6.23829c0.09199,-0.93012 0.46338,-1.98279 1.22752,-2.52101c0.91264,-0.64281 4.73285,0.30546 5.74511,0.44038c2.1683,0.289 2.62016,-1.59264 4.5146,-2.15245c0.2731,-0.0807 0.5527,-0.13935 0.83671,-0.17833z" fill="#000000" stroke-width="0.5"/><path d="M394.96968,-59.55221c0.40106,0.24991 0.78609,0.53061 1.14354,0.81619c0.08464,0.08465 0.16355,0.17983 0.24087,0.27464c-0.5299,0.12944 -0.97371,0.47763 -1.70185,0.59304c-1.28928,0.20434 -2.68928,-0.13139 -3.99241,-0.00188c-0.76724,0.07625 -1.69981,-0.27546 -2.22308,0.2908c-2.48655,2.69083 4.75058,7.75655 -0.44426,6.56259c-0.30311,-0.06967 -1.65247,-0.53653 -1.92454,-0.75857c-0.62465,-0.50978 -1.01124,-1.2959 -1.51774,-1.92321c-1.26482,-1.05958 -2.45262,-1.83154 -3.87245,-2.63833c-0.22849,-0.12983 -2.12613,-2.25694 -2.00308,-2.24505c1.91589,0.18504 3.96972,1.06853 5.98672,0.73438c1.71145,-0.28353 2.35969,-1.86479 3.81114,-2.25493c1.58455,-0.42592 3.52317,0.24283 4.91102,0.94436c0,0 1.00525,0.50442 1.58614,-0.394z" data-paper-data="{&quot;noHover&quot;:false,&quot;origItem&quot;:[&quot;Path&quot;,{&quot;applyMatrix&quot;:true,&quot;segments&quot;:[[[789.85132,-119.05703],[0,0],[-1.16178,1.79686]],[[786.68198,-118.26393],[0,0],[-2.7757,-1.40306]],[[776.92446,-120.10727],[3.1691,-0.85184],[-2.9029,0.78028]],[[769.40046,-115.63229],[3.4229,-0.56706],[-4.034,0.6683]],[[757.44388,-117.13143],[3.83178,0.37008],[-0.24608,-0.02378]],[[761.45482,-112.66229],[-0.45698,-0.25966],[2.83966,1.61356]],[[769.18536,-107.45001],[-2.52964,-2.11916],[1.013,1.25464]],[[772.1717,-103.64419],[-1.2493,-1.01956],[0.54414,0.44408]],[[775.97438,-102.13313],[-0.60622,-0.13934],[10.38968,2.38792]],[[776.83222,-115.06779],[-4.9731,5.38166],[1.04654,-1.13252]],[[781.4,-115.80003],[-1.53448,0.1525],[2.60626,-0.25902]],[[789.39954,-115.76775],[-2.57856,0.40868],[1.45628,-0.2308]],[[792.61324,-116.89139],[-1.0598,0.25888],[-0.15464,-0.18962]],[[792.1327,-117.43721],[0.16928,0.1693],[-0.7149,-0.57116]],[[789.8513,-119.05705],[0.80212,0.49982],[0,0]]],&quot;closed&quot;:true,&quot;fillColor&quot;:[0,0,0],&quot;strokeWidth&quot;:0.5}]}" fill="#d0d0d0" stroke-width="0.25"/><path d="M482.90686,-84.09109c-0.03379,-0.10862 -0.04429,-0.18212 -0.04429,-0.18212c0.23773,-1.00961 -2.39083,-0.98818 -3.52848,-1.13784c-3.09899,-0.40766 -8.00389,-1.28082 -11.02841,-0.2566c-1.17757,0.39878 -3.42924,3.02438 -1.55434,3.59319c2.3682,-0.05263 4.0002,-0.70628 6.28798,-1.19804c3.07715,-0.66144 6.58833,-0.79018 9.86755,-0.81858zM485.30366,-84.09995c0.07403,0.0012 1.24634,0.03943 1.24634,1.24996c0,1.25 -1.25,1.25 -1.25,1.25h-0.2c-3.67719,-0.00671 -7.93198,0.00227 -11.53931,0.77251c-2.63581,0.5628 -4.53485,1.24489 -7.31203,1.20196c-3.2925,-1.55684 -3.52358,-4.97237 -0.56119,-7.37437c3.19585,-2.59131 10.17476,-1.4025 13.97843,-0.88904c0.95317,0.12867 4.47408,0.53858 5.11018,1.14734c0.52693,0.50428 0.37423,1.40989 0.56134,2.11482c0,0 0.03454,0.24175 -0.03378,0.52681z" fill="#000000" stroke-width="0.5"/><path d="M482.95687,-84.09097c-3.27922,0.0284 -6.88354,0.18231 -9.96069,0.84375c-2.28778,0.49176 -3.92499,1.13288 -6.29319,1.18551c-1.8749,-0.56881 0.37664,-3.21941 1.55421,-3.61819c3.02452,-1.02422 8.0262,-0.15173 11.12519,0.25593c1.13765,0.14966 3.7679,0.14017 3.53017,1.14978c0,0 0.01051,0.07458 0.0443,0.1832z" data-paper-data="{&quot;noHover&quot;:false,&quot;origItem&quot;:[&quot;Path&quot;,{&quot;applyMatrix&quot;:true,&quot;segments&quot;:[[[482.90686,-84.0911],[0,0],[-0.03379,-0.10862]],[[482.86257,-84.27322],[0,0],[0.23773,-1.00961]],[[479.33409,-85.41106],[1.13765,0.14966],[-3.09899,-0.40766]],[[468.30568,-85.66766],[3.02452,-1.02422],[-1.17757,0.39878]],[[466.75134,-82.07448],[-1.8749,-0.56881],[2.3682,-0.05263]],[[473.03932,-83.27251],[-2.28778,0.49176],[3.07715,-0.66144]],[[482.90687,-84.09109],[-3.27922,0.0284],[0,0]]],&quot;closed&quot;:true,&quot;fillColor&quot;:[0,0,0],&quot;strokeWidth&quot;:0.5}]}" fill="#d0d0d0" stroke-width="0.25"/><path d="M459.08897,-81.55415c-1.0154,-0.18018 -0.74527,0.75722 -1.92858,1.22398c-0.47982,0.18927 -0.99996,0.14513 -1.49773,0.14748c-0.04131,0.00019 -0.10617,-0.00164 -0.17431,-0.00457c0.51307,0.13028 1.12007,0.65548 1.60675,0.77513c1.05444,0.25923 2.11848,0.19655 3.19367,0.21186c2.16861,-0.75102 1.21135,-1.13162 -0.43086,-1.67903l-0.33333,-0.11111c0,0 -0.43818,-0.14606 -0.43561,-0.56373zM460.35473,-82.03052c2.79969,0.9761 3.40512,3.00166 0.13428,4.06413c-1.32093,0.0139 -6.41183,0.12275 -6.49821,-2.09612c-0.01682,-0.43191 0.27592,-0.86471 0.6019,-1.14854c0.51826,-0.45125 1.52086,-0.10637 2.1358,-0.29211c0.77434,-0.23389 0.49629,-1.05481 1.49356,-1.34914c0.65738,-0.19402 1.10498,0.0406 1.69781,0.23161c0,0 0.45661,0.1522 0.43487,0.59017z" fill="#000000" stroke-width="0.5"/><path d="M459.11096,-81.59904c-0.00257,0.41767 0.45653,0.58297 0.45653,0.58297l0.33737,0.11958c1.64221,0.54741 2.59404,0.97307 0.42543,1.72409c-1.07519,-0.01531 -2.22198,0.04779 -3.27642,-0.21144c-0.48668,-0.11965 -1.10234,-0.66982 -1.61541,-0.8001c0.06814,0.00293 0.23276,-0.00215 0.27407,-0.00234c0.49777,-0.00235 0.91809,0.04753 1.39791,-0.14174c1.18331,-0.46676 0.98512,-1.45121 2.00052,-1.27103z" data-paper-data="{&quot;noHover&quot;:false,&quot;origItem&quot;:[&quot;Path&quot;,{&quot;applyMatrix&quot;:true,&quot;segments&quot;:[[[459.08897,-81.55415],[0,0],[-1.0154,-0.18018]],[[457.16039,-80.33017],[1.18331,-0.46676],[-0.47982,0.18927]],[[455.66266,-80.18269],[0.49777,-0.00235],[-0.04131,0.00019]],[[455.48835,-80.18726],[0.06814,0.00293],[0.51307,0.13028]],[[457.0951,-79.41214],[-0.48668,-0.11965],[1.05444,0.25923]],[[460.28877,-79.20028],[-1.07519,-0.01531],[2.16861,-0.75102]],[[459.85791,-80.8793],[1.64221,0.54741],[0,0]],[459.52458,-80.99041],[[459.08897,-81.55415],[-0.00257,0.41767],[0,0]]],&quot;closed&quot;:true,&quot;fillColor&quot;:[0,0,0],&quot;strokeWidth&quot;:0.5}]}" fill="#d0d0d0" stroke-width="0.25"/><path d="M405.27971,-65.04554c-0.7042,0.26091 -1.53365,0.52934 -1.86895,1.03473c-0.10348,0.15597 1.71847,2.55588 2.22575,2.32806c0.42704,-0.19178 -0.16285,-2.78448 -0.28499,-3.14737zM406.33296,-65.73521c0.06565,0.09351 0.0933,0.17647 0.0933,0.17647l0.11111,0.33334c0.34913,1.05637 0.98306,3.90629 -0.28499,4.6304c-1.60133,0.91443 -4.48865,-2.47076 -3.99647,-3.89416c0.38987,-1.12753 2.26224,-1.42616 3.14475,-1.96343c0,0 0.53593,-0.32156 0.85749,0.21438c0.11945,0.19908 0.12058,0.36858 0.07481,0.503z" fill="#000000" stroke-width="0.5"/><path d="M405.37429,-64.87464c0.12214,0.36289 0.71562,3.04259 0.28859,3.23437c-0.50728,0.22782 -2.39938,-2.23871 -2.2959,-2.39468c0.3353,-0.50539 1.22726,-0.79605 1.93146,-1.05696z" data-paper-data="{&quot;noHover&quot;:false,&quot;origItem&quot;:[&quot;Path&quot;,{&quot;applyMatrix&quot;:true,&quot;segments&quot;:[[[810.55942,-130.09111],[0,0],[-1.4084,0.52182]],[[806.82152,-128.02165],[0.6706,-1.01078],[-0.20696,0.31194]],[[811.27302,-123.36553],[-1.01456,0.45564],[0.85408,-0.38356]],[[810.70304,-129.66027],[0.24428,0.72578],[0,0]]],&quot;closed&quot;:true,&quot;fillColor&quot;:[0,0,0],&quot;strokeWidth&quot;:0.5}]}" fill="#d0d0d0" stroke-width="0.25"/><path d="M433.95291,60.64754c-0.88389,-0.88388 0,-1.76777 0,-1.76777l0.22329,-0.08036c0.83026,-2.04021 1.22352,-4.24992 1.66668,-6.40893c-0.02663,-4.93397 0.24392,-9.90973 0.24392,-14.87683c0,-3.06241 -0.51118,-6.59487 0.5894,-9.46424c0,0 0.46424,-1.16059 1.62483,-0.69635c1.1606,0.46424 0.69636,1.62483 0.69636,1.62483c-1.02513,2.41911 -0.4106,5.91303 -0.4106,8.53576c0,5.0554 -0.23382,10.09884 -0.25608,15.12317c-0.46991,2.40321 -0.93565,4.81467 -1.83332,7.09107l-0.77672,0.91965c0,0 -0.88388,0.88388 -1.76776,0z" fill="#000000" stroke-width="0.5"/></g><path d="M447.64548,37.30953c-0.04069,2.94326 -0.78078,6.30765 -3.11245,7.70076c-1.8843,1.12582 -0.00979,4.39004 -0.0304,6.58495c-0.02177,2.31819 0.57721,11.31394 -3.38258,11.75984c-1.88546,0.21232 -0.91555,2.99941 -3.90799,2.1833c-3.87023,-1.05551 0.65734,-7.53995 0.71914,-9.96188c0.19503,-7.64301 -1.0566,-17.57218 0.3483,-23.96573c0.66147,-3.01026 0.80263,-6.2326 2.1963,-8.98158c1.947,-3.8404 4.74111,1.32254 4.74111,3.32419c0.57641,0.01617 1.10403,0.22746 1.51913,0.57015c2.28586,0.39326 0.92113,9.94039 0.90944,10.786z" fill="#d0d0d0" stroke-width="0.5"/><path d="M435.03385,61.63141c2.29025,0.08076 2.74139,1.72142 2.92698,3.41208c0.18322,1.66903 -0.12536,3.07941 -0.88157,4.34147c-0.00591,0.04018 -0.01123,0.07981 -0.01581,0.11883c-0.23753,2.02326 -1.46641,3.81792 -1.67417,5.93011c0,0 -0.1212,1.21201 -1.32074,1.12354l-0.14214,0.49748c-0.06434,0.24629 -0.20191,0.46298 -0.38806,0.6254v0.48634c0,0.69035 -0.55964,1.25 -1.25,1.25c-0.47891,0 -0.89492,-0.26932 -1.10483,-0.66477l-0.08605,-0.15488c-0.22506,0.36506 -0.50915,0.63568 -0.90767,0.6627c-0.0615,0.00417 -0.12146,0.00682 -0.17991,0.00799l-0.46528,0.40713c-0.22046,0.19495 -0.51026,0.31327 -0.82769,0.31327c-0.69036,0 -1.25,-0.55965 -1.25,-1.25c0,-0.17413 0.03561,-0.33995 0.09993,-0.49056l0.29892,-0.7473c-0.1689,-0.81512 -0.10111,-1.73278 -0.11314,-2.33357c-0.03026,-1.5114 -0.31956,-6.43461 1.27472,-7.3283c0.17591,-0.09861 0.3631,-0.14752 0.55782,-0.16335c0.4418,-0.5391 0.8841,-1.29279 1.42894,-1.5454c0.0078,-0.07448 0.01589,-0.14894 0.02422,-0.22338v-0.16814c0,-0.14453 0.02453,-0.28333 0.06965,-0.41246c0.04048,-0.31874 0.08409,-0.63699 0.12834,-0.95467c1.00849,-1.95949 2.5961,-3.04413 3.79752,-2.73955zM433.50703,67.62254c0.17873,-0.14959 0.37265,-0.29866 0.57623,-0.43789c0.13975,-0.76324 0.38139,-2.10604 0.37628,-2.77159c-0.44934,0.44316 -0.73584,1.30531 -0.9212,1.96641v0.93005h-0.15924c-0.00015,0.0123 -0.00028,0.02469 -0.00038,0.03715l0.15648,0.05146c-0.01027,0.07259 -0.01962,0.14745 -0.02817,0.22441z" fill="#d0d0d0" stroke-width="0.5"/><path d="M433.5218,67.4463l-0.16192,-0.05331c0.0001,-0.01246 0.03835,-0.1173 0.0385,-0.1296l0.12581,0.09409l-0.02212,-0.94358c0.18536,-0.6611 0.52407,-1.60507 0.97341,-2.04823c0.00511,0.66555 -0.24552,2.10525 -0.38527,2.86849c-0.20358,0.13923 -0.4169,0.28722 -0.59563,0.43681c0.00855,-0.07696 0.01694,-0.15208 0.02721,-0.22467z" data-paper-data="{&quot;noHover&quot;:false,&quot;origItem&quot;:[&quot;Path&quot;,{&quot;applyMatrix&quot;:true,&quot;segments&quot;:[[[433.50703,67.62254],[0.00855,-0.07696],[0.17873,-0.14959]],[[434.08326,67.18465],[-0.20358,0.13923],[0.13975,-0.76324]],[[434.45954,64.41306],[0.00511,0.66555],[-0.44934,0.44316]],[[433.53834,66.37947],[0.18536,-0.6611],[0,0]],[433.53834,67.30952],[[433.3791,67.30952],[0,0],[-0.00015,0.0123]],[[433.37872,67.34667],[0.0001,-0.01246],[0,0]],[[433.5352,67.39813],[0,0],[-0.01027,0.07259]]],&quot;closed&quot;:true,&quot;fillColor&quot;:[0,0,0,1]}]}" fill="#d0d0d0" stroke-width="0.5"/><path d="M426.00262,80.70238c-1.25,0 -1.25,-1.25 -1.25,-1.25l0.00765,-0.2809c0.36859,-3.29116 1.11183,-6.98382 2.72354,-9.90198c2.10995,-3.82028 5.14032,-6.85204 7.11035,-10.79527c0.0639,-0.44506 0.38173,-0.76288 0.38173,-0.76288l0.55517,-0.36854c0.13117,-0.3862 0.26236,-0.77239 0.39353,-1.15859c0.97219,-9.13354 -0.3026,-18.50971 0.40315,-27.68486c0,0 0.09587,-1.24632 1.34219,-1.15045c1.24632,0.09587 1.15045,1.34219 1.15045,1.34219c-0.71425,9.28478 0.60397,18.7919 -0.45399,28.02943c-0.15454,0.47095 -0.30908,0.9419 -0.46362,1.41285l-0.95881,1.11318c-0.04115,0.20053 -0.10901,0.33627 -0.10901,0.33627c-1.99737,3.98595 -5.02406,7.0711 -7.17065,10.90957c-1.4585,2.60805 -2.09478,6.00888 -2.41932,8.95516l0.00765,0.00482c0,0 0,1.25 -1.25,1.25z" fill="#000000" stroke-width="0.5"/></g></g></svg>