<svg version="1.1" xmlns="http://www.w3.org/2000/svg" xmlns:xlink="http://www.w3.org/1999/xlink" width="347.21233" height="150.75179" viewBox="0,0,347.21233,150.75179"><g transform="translate(4.40519,-302.31247)"><g data-paper-data="{&quot;isPaintingLayer&quot;:true}" fill="#000000" fill-rule="nonzero" stroke="none" stroke-width="0.5" stroke-linecap="butt" stroke-linejoin="miter" stroke-miterlimit="10" stroke-dasharray="" stroke-dashoffset="0" style="mix-blend-mode: normal"><path d="M203.48458,312.52778c0,0.04379 -0.00307,0.08451 -0.00877,0.12238c0.0149,0.11482 0.00027,0.20259 0.00027,0.20259c-0.18517,1.08441 -0.83442,3.75342 -2.27608,3.95541c-1.01581,0.14232 -4.12748,-2.40247 -3.71827,-3.56624c0.43545,-1.23839 3.90673,-1.33416 4.9334,-1.33914h0.44445c0,0 0.625,0 0.625,0.625zM202.14235,313.17981c-0.82864,0.12291 -2.84889,0.61689 -3.35768,0.47241c0.17763,0.18039 0.48202,0.51177 0.62796,0.65584c0.03459,0.03415 1.46587,1.29572 1.55097,1.27266c0.60448,-0.16382 0.99457,-1.53677 1.17874,-2.40091z"/><path d="M317.59008,431.51331c2.64083,2.1617 7.85567,-0.46285 9.89731,2.8093c0.0247,0.03958 0.18878,2.27759 0.22405,2.74955c0.78878,1.11889 2.15224,1.92409 2.86635,3.02137c1.25204,1.92383 0.26687,3.77002 0.35083,5.78084c0.04874,1.16724 0.72509,2.01246 0.77791,3.17032c0.0186,0.40759 0.44003,-0.73467 0.80032,-0.92616c0.53084,-0.28213 1.1549,-0.35343 1.75083,-0.4325c2.5276,-0.33537 5.39951,0.01954 7.74349,0.93908c0,0 1.1606,0.46424 0.69636,1.62484c-0.46424,1.1606 -1.62484,0.69635 -1.62484,0.69635c-2.03911,-0.83532 -4.34418,-0.91197 -6.54222,-0.7752c-0.8041,0.05003 -1.27403,1.13693 -2.07263,1.24333c-0.85577,0.11401 -1.83366,-0.07707 -2.51909,-0.60198c-0.49574,-0.37964 -0.36794,-1.19425 -0.58898,-1.77823c-0.9577,-2.53019 -0.31122,-4.25266 -0.61813,-6.76256c-0.16622,-1.35939 -2.60008,-3.15189 -3.36921,-4.34382c-0.10414,-0.79121 0.22988,-1.65043 -0.06166,-2.3933c-0.16519,-0.42094 -2.87018,-0.48923 -3.1062,-0.5001c-2.53152,-0.1166 -3.99659,0.05964 -6.13935,-1.54774l-0.12775,-0.31918c-0.01588,0.01924 -0.03175,0.0385 -0.04761,0.05777c-0.04119,-0.16227 -0.08404,-0.32968 -0.12919,-0.49952l-0.42642,-1.06545c0,0 -0.0413,-0.16523 -0.03243,-0.38895c-0.27558,-0.70185 -0.62892,-1.3055 -1.11229,-1.59235c-1.0927,-0.64844 -3.91772,-0.10781 -5.15738,-0.10886c-2.48854,0.21339 -4.75919,1.12931 -7.3248,0.54361c-0.86726,-0.19799 -1.46971,-1.15926 -2.35383,-1.25764c-1.05806,-0.11773 -1.80564,1.52882 -2.86396,1.41345c-0.89427,-0.09748 -1.19095,-1.68824 -2.09032,-1.7069c-0.3426,-0.00711 -0.59867,0.37195 -0.9378,0.42118c-1.99802,0.29005 -3.45826,-0.69156 -4.7984,-2.06426c-0.30802,-0.3155 -0.77931,-0.93373 -0.9726,-1.42482c-0.41042,1.28755 -1.36598,3.91701 -1.43054,4.14983c-1.41017,0.83899 -4.02811,2.13565 -5.79871,1.02585c-3.12165,-1.95664 0.02082,-7.57065 -0.82492,-10.27251c-0.62225,-1.98791 -3.11732,-1.75012 -4.3496,-2.85764c-3.30657,-2.97179 -0.06619,-9.7287 2.54086,-11.81981c3.6322,-0.10194 4.62473,-4.486 5.85854,-7.18264c0.50207,-1.09733 1.62673,-1.66503 2.32656,-2.58569c0.27841,-0.36626 -0.6543,0.68972 -1.0838,0.85461c-0.83832,0.32183 -1.87077,1.03511 -2.63446,0.56276c-1.2364,-0.76473 -0.76922,-2.45989 -0.12775,-3.81716c-0.04416,-0.33893 0.05161,-0.62624 0.05161,-0.62624l0.28864,-0.72667c1.3009,-1.92471 3.38823,-3.13016 4.25317,-5.31267c0.20815,-2.53753 -0.75011,-6.75326 1.02029,-8.85149c0.59469,-0.70481 1.92903,-0.41057 2.53658,-1.10432c1.19007,-1.35894 -0.07376,-3.86154 1.5093,-5.5133c0.5229,-0.54559 1.92239,-0.01265 2.14468,-0.73492c0.21764,-0.70719 -1.1633,-1.11377 -1.22505,-1.85111c-0.16997,-2.02945 0.77136,-2.86723 2.13075,-3.45763c0.05863,-0.11667 0.11105,-0.18654 0.11105,-0.18654l0.2823,-0.35706c0.65544,-1.03604 0.17148,-2.49935 -0.52689,-2.8007c-0.10039,0.46798 -0.48799,0.76944 -0.48799,0.76944l-1.48676,1.07065c-4.28438,0.08238 -5.33508,-2.61266 -6.05039,-6.26249l-0.10528,-0.04485c-1.78262,-0.01584 -2.71787,0.68503 -4.38862,0.97744c-2.06165,0.36083 -3.31169,-0.75142 -5.00644,-1.59076c-2.7086,-1.34146 -7.53084,-0.24847 -8.09886,-4.63851c-0.01675,-0.1295 -0.01446,-0.2581 0.0009,-0.38609c-1.39806,-0.01707 -2.31066,0.07516 -3.16609,-1.76915c-0.8082,-1.74248 0.82586,-4.24321 0.01425,-6.09112c-0.84796,-1.9307 -3.30164,-1.11473 -4.46278,-3.17247c-0.25853,-0.45815 -1.02621,-3.95436 -2.75848,-2.07045c-0.54119,0.58857 0.13801,1.76281 -0.385,2.36759c-0.48768,0.56394 -1.34167,0.65064 -2.0125,0.97597c-0.73208,0.00811 -1.58758,-0.32878 -2.19492,0.08006c-0.70837,0.47686 -0.8026,1.63464 -1.55736,2.03405c-2.9583,1.56548 -5.61994,-1.00275 -8.22879,-1.3473c-1.48906,-0.19666 -1.16936,1.11935 -2.14333,1.76538c-1.28325,0.85118 -2.9733,0.31908 -4.37461,0.59262c-3.17326,0.61944 -6.00516,0.91533 -6.23609,-3.1589c0.13349,-1.48302 0.29383,-2.79715 0.65827,-4.23521c0.11927,-0.47061 0.83956,-1.26355 0.3758,-1.40715c-1.02697,-0.31798 -2.77439,-1.54513 -3.89963,-1.68124c-2.02837,-0.24536 -2.59642,2.76646 -5.05163,2.49418c-2.75732,-0.30579 -3.97983,-4.76601 -3.7077,-6.95149c-0.00139,-0.02404 -0.00139,-0.03745 -0.00139,-0.03745l0.02017,-0.52639c-0.30841,-1.88012 -1.17477,-2.4612 -2.64626,-3.58201c-2.68728,-3.41089 -2.53529,-6.23066 -0.31222,-9.92377c0.35528,-0.59021 1.19111,-0.90362 1.33549,-1.57722c0.14947,-0.6974 -0.84479,-1.17479 -1.07589,-1.84955c-0.06589,-0.19239 -0.01023,-2.85841 -0.5878,-3.02778c-1.7454,-0.51181 -3.27018,0.91942 -4.95987,-0.8578c-0.01316,-0.01384 -0.53524,-1.21251 -0.37311,-1.90299c-0.15311,0.18379 -0.32416,0.38654 -0.40836,0.50785c-0.22815,0.32871 -0.35833,0.71553 -0.5375,1.07331c-0.08662,1.44006 0.15395,3.27326 -0.25753,4.65109c-0.57891,1.93843 -2.11802,2.32995 -3.50794,3.46373c-2.34623,1.91384 -2.7488,5.07411 -6.39864,5.5405c-3.02659,0.38675 -4.38297,-2.09251 -6.81082,-2.80313c-1.47951,-0.43304 -3.87977,0.06529 -5.4632,-0.06557c-2.11241,-0.19204 -6.85449,-0.70887 -4.99361,-4.3351c1.22287,-2.38296 3.9095,-1.08183 5.78071,-1.24316c0.52662,-0.04541 1.03008,-2.65189 1.22242,-3.01266c0.35282,-0.66179 1.09652,-1.2044 1.1151,-1.95414c0.01336,-0.53897 -1.03684,-0.35148 -1.47257,-0.66899c-1.36864,-0.99732 -1.16291,-1.91756 -2.75781,-2.49565c0,0 -0.34426,-0.13771 -0.5828,-0.45062c-0.15903,-0.04047 -0.26198,-0.09194 -0.26198,-0.09194l-0.44099,-0.36804c-0.40427,-0.01114 -0.80854,-0.02229 -1.21281,-0.03344c-2.69177,1.37779 -3.64615,5.07066 -6.23996,6.83729c-0.35934,0.24475 -1.73892,0.42126 -2.19009,0.85598c-1.87223,1.80402 0.74549,4.02082 -2.57647,5.3975c-1.50321,0.62296 -3.68244,-0.24931 -5.17212,-0.44037c-2.34354,-0.30057 -4.55484,0.15927 -6.73019,0.94939c-5.07405,1.29129 -5.24715,-2.94172 -4.06972,-6.69472c0.08329,-0.26548 1.78164,-3.38119 1.10704,-3.71738c-2.8395,-1.41505 -6.91675,2.67705 -9.3065,3.41803c0,0 -0.00968,0.0029 -0.02757,0.00732c-0.28054,0.28985 -0.65345,0.38307 -0.65345,0.38307l-0.83893,0.19792c-0.57633,0.22922 -1.28343,0.20364 -1.7619,0.59832c-0.38821,0.32022 0.53829,0.8509 0.82751,1.26273c0.38995,2.00563 -1.05997,3.73749 -0.6774,5.36697c0.803,3.42032 6.66104,4.18926 3.91161,8.34227c-2.83961,4.28922 -6.37394,2.12226 -9.60944,0.24321c-1.37184,-0.7967 -4.60381,-0.98696 -6.15462,-0.9741c-1.15089,0 -2.39526,-0.1334 -3.53365,-0.07554c-0.20608,0.01047 0.23329,0.36395 0.41739,0.45716c1.11058,0.5623 1.98868,0.46495 2.7752,1.66591c0.86106,1.3148 -0.05703,3.1353 0.73012,4.22158c1.49122,2.05793 4.80642,0.82763 6.12708,3.72068c0.72002,1.57729 0.27186,3.83206 -0.56753,5.27542c-0.74896,1.28787 -1.66159,1.19585 -1.23576,2.68229c0.055,0.76622 0.6399,1.69484 0.16502,2.29867c-1.17785,1.49766 -4.96729,0.177 -5.71667,-1.13215c-0.83021,-1.45037 0.05071,-3.63538 0.73252,-4.94595c0.39178,-0.75308 1.81236,-1.89377 1.07244,-2.30987c-1.09929,-0.61819 -2.45175,-0.89879 -3.50169,-1.76086c-1.91289,-1.57062 -2.15573,-3.63121 -3.09516,-5.70419c-0.28365,-0.62592 -0.62843,1.23237 -0.8142,1.89398c-1.06239,2.57866 -3.08391,3.7302 -5.09965,5.52214c-4.4545,3.95992 -9.65138,11.44408 -16.39249,9.68487c-0.14311,0.00711 -0.23974,-0.00669 -0.23974,-0.00669l-0.07345,-0.0958c-0.05166,-0.02364 -0.11386,-0.05542 -0.18017,-0.09644c-1.94649,0.88957 -2.15168,2.74086 -3.94344,3.78666c-1.22206,0.71328 -2.783,0.09422 -3.97691,0.67789c-1.62096,0.79246 -1.70534,3.28841 -3.73707,3.58181c-5.32642,0.76918 -0.94973,-6.27929 -3.72974,-3.63735c-1.92156,1.59575 -5.41986,2.20527 -7.71461,0.7341c-2.21188,-1.41805 -1.89147,-4.09194 -1.5819,-6.35334c0.09189,-0.67125 0.73633,-1.46195 0.33162,-2.0053c-0.41826,-0.56153 -2.98108,-0.76373 -3.61459,-0.83835c-3.78842,-0.44617 -6.87728,-0.23321 -10.41199,-1.99829c-0.86409,-0.43205 -4.29362,-2.73232 -5.19019,-2.30087c-1.38383,0.66593 -1.05164,1.59006 -3.14088,1.2794c-1.90371,-0.28307 -2.23156,-1.84886 -4.50238,-0.5621c-0.29812,0.16893 1.51465,3.71227 1.20332,4.73582c-0.60183,1.97858 -2.80988,2.50724 -4.50769,2.94239c0,0 -0.30364,0.0759 -0.64503,-0.00018c-1.9053,0.29628 -5.25377,0.78044 -6.62296,0.0146c-1.78493,-0.99838 -0.66167,-2.98356 -2.14114,-3.63379c-1.06818,-0.46947 -2.41453,-0.38454 -3.31355,-1.12829c-1.87212,-1.54879 -0.44,-2.73535 -1.30459,-4.24464c-0.54398,-0.9496 -1.86621,-1.58351 -1.90016,-2.67735c-0.06583,-2.12117 2.12161,-3.75274 3.28634,-5.22021c-0.01823,-0.6189 -0.98786,-0.8064 -1.26523,-1.35997c-0.38511,-0.76863 0.46164,-1.86377 -0.01523,-2.5791c-0.12125,-0.18189 -2.84032,0.26648 -3.06394,0.32522c-2.64531,0.69486 -5.98871,4.25422 -8.70219,3.90878c-1.4183,-0.18056 -2.01358,-1.06673 -2.57421,-2.04194c0.5377,1.36485 1.71339,5.99955 0.15951,6.70929c-4.23335,1.9336 -2.56025,-2.7841 -3.36585,-3.59171c-0.26884,-0.26952 -0.80024,-0.56385 -1.27678,-0.89994c0.14218,0.50018 0.17638,1.00705 -0.0486,1.48123c-0.58339,1.22956 -2.17003,1.27404 -3.21012,1.65107c-1.69778,0.61545 -3.28871,1.5681 -4.86183,2.44049c-4.86412,2.21401 -8.54531,5.63285 -12.30372,9.39266l-0.14085,0.42513c0,0 -0.55902,1.11804 -1.67705,0.55902c-1.11804,-0.55901 -0.55902,-1.67705 -0.55902,-1.67705l0.60915,-1.07487c3.94166,-3.94024 7.83858,-7.53898 12.94628,-9.85734c1.66211,-0.92518 3.3445,-1.90529 5.13817,-2.55951c0.57106,-0.20828 1.56647,0.21638 1.78988,-0.34893c0.70719,-1.78954 -3.04315,-2.34965 0.04244,-4.74917c0.50186,-0.39027 1.36719,-0.41817 2.21482,-0.23014c-0.01684,-0.63182 0.41352,-1.26676 1.65853,-1.90479c2.20167,-1.12829 3.87871,1.16695 4.77503,2.61534c0.01492,0.02411 0.56998,1.16614 0.95325,1.17569c0.82956,0.02067 2.66616,-1.54224 3.28799,-1.86586c2.3223,-1.20862 7.83215,-4.10427 10.19588,-1.40013c0.64284,0.73542 -0.28367,2.09306 0.23476,2.9209c0.28153,0.44955 1.01836,0.51139 1.24511,0.99091c0.30813,0.65163 0.15978,1.43274 0.23967,2.14912c-0.70335,1.1404 -3.08047,3.12662 -3.21366,4.52979c-0.07066,0.74444 1.26517,0.90393 1.59984,1.57265c0.43894,0.87707 0.06445,1.97923 0.32774,2.924c0.3569,1.28068 2.47812,0.95153 3.30412,1.45307c0.65769,0.39935 1.22226,0.98333 1.62626,1.63817c0.35636,0.57761 -0.16481,1.77438 0.4826,1.97804c1.36462,0.42928 4.28897,-0.15975 5.72011,-0.38337c0,0 0.18266,-0.0281 0.41831,0.00754c0.80286,-0.1729 1.83172,-0.45441 2.0859,-1.16736c0.74934,-2.10177 -3.42557,-2.99768 -0.54669,-5.76418c2.24721,-2.15949 4.68194,-0.95324 6.74762,-0.0621c0.19138,0.08256 2.84206,-1.43869 3.79847,-1.23847c1.6339,0.34207 3.61786,1.7157 5.12046,2.467c4.25763,2.13173 8.88906,0.65543 13.15588,2.5827c0.64236,0.29014 1.42388,0.49599 1.81754,1.08066c1.44359,2.14401 -2.11599,7.42306 1.54279,7.97081c0.71755,0.10742 1.45246,0.03498 2.1766,-0.01006c0.5904,-0.03672 1.13686,-0.42788 1.56572,-0.8353c0.60712,-0.45583 1.08109,-1.19911 1.82138,-1.3675c3.11803,-0.70927 3.65107,2.48616 2.91585,4.61124c-0.09059,0.26183 0.36431,-0.41824 0.52966,-0.64055c1.06227,-1.42816 0.96567,-1.99699 2.7663,-2.90873c1.06392,-0.53872 2.80425,0.00741 3.77309,-0.57211c1.71788,-1.02756 2.14169,-2.92215 4.22734,-3.92809l1.44975,0.02071c0.30692,-0.03345 0.55826,0.04195 0.55826,0.04195c5.30441,1.7219 10.74488,-6.05404 14.18536,-9.11197c1.59341,-1.41625 3.61864,-2.43301 4.40034,-4.47786c0.14807,-0.47032 0.19496,-0.9855 0.44421,-1.41094c0.35242,-0.60155 0.71014,-1.29368 1.32873,-1.61525c0.71971,-0.37414 1.30619,-0.49095 1.79626,-0.42016c-0.35786,-0.27563 -0.6328,-0.72626 -0.74281,-1.53684c-0.50487,-3.72007 3.80988,-2.97968 5.97872,-2.97968c2.00202,0.01329 5.52944,0.31417 7.34538,1.2759c1.82343,0.96569 3.32862,3.18285 5.49746,1.37405c2.93808,-2.45033 -2.86564,-4.12991 -3.44528,-7.28857c-0.35744,-1.94777 1.20921,-3.07253 0.8226,-4.88303c-1.81654,-2.84841 -0.38662,-4.05255 2.31561,-5.13895l1.13962,-0.29651c0.26135,-0.26646 0.59043,-0.36518 0.59043,-0.36518c3.01596,-0.86469 7.92323,-5.85601 11.4435,-3.08197c2.85691,2.2513 -0.14887,5.20759 -0.47037,7.69518c-0.11927,0.9228 -1.0456,2.24742 -0.28073,2.77728c0.43452,0.301 1.03244,-0.23163 1.53843,-0.38455c2.49957,-0.91001 5.08814,-1.37815 7.7698,-1.05061c0.32419,0.0396 4.31587,1.14798 4.48566,0.31778c0.1827,-0.89333 -0.27248,-1.88824 0.06664,-2.73465c0.96082,-2.39812 2.03471,-1.90892 3.75902,-3.02002c3.00979,-1.93943 3.64416,-5.50052 7.01004,-7.16271c0.59573,-0.01114 1.19146,-0.02229 1.78719,-0.03344l1.55902,0.63196c0,0 0.27051,0.13526 0.47888,0.40577c0.10889,0.02469 0.17634,0.05167 0.17634,0.05167c1.68321,0.71484 1.92312,1.86031 3.24218,2.75435c0.9487,0.64302 2.31011,1.20572 2.52744,2.33101c0.36165,1.87255 -1.45892,3.04503 -1.90044,4.64494c-0.15083,0.54656 0.07954,1.22224 -0.252,1.6822c-0.48377,0.67116 -1.23273,1.1727 -2.01003,1.45606c-0.1755,0.06398 -7.23313,0.26022 -2.5879,0.54674c0.45935,0.02833 0.91666,0.08333 1.375,0.125c1.81188,0.15234 4.32466,-0.33611 6.03679,0.18443c1.92227,0.58443 3.36568,3.01127 5.68919,2.69687c2.16691,-0.29321 2.91123,-2.30442 4.04801,-3.77089c0.90445,-1.16674 3.46573,-2.02136 3.79541,-3.47488c0.31585,-1.39256 0.11679,-3.18176 0.24246,-4.59891c0.78725,-1.57588 2.5044,-4.95006 5.073,-3.29629c0.78236,0.50372 0.00952,2.012 0.60804,2.72446c0.48753,0.58034 1.51599,0.00866 2.27361,0.03049c1.81039,0.05217 2.20304,-0.19051 3.25092,1.70704c0.38186,0.69149 1.69223,5.38561 1.60191,6.02735c-0.08098,0.5754 -1.31038,1.83036 -1.66451,2.42278c-1.58731,2.65542 -1.95656,4.34784 -0.06222,6.82623c1.90085,1.39911 2.89282,2.55131 3.35374,4.91799l0.02016,0.97361c0,0 0,0.03039 -0.00474,0.0817c0.0041,0.17028 -0.01953,0.28844 -0.01953,0.28844c-0.19077,0.73561 0.49811,4.10622 1.56519,4.14092c0.85375,0.02776 2.33035,-1.87806 3.13334,-2.17696c2.61351,-0.97287 3.3458,0.87367 5.44919,1.59798c0.55482,0.19106 1.31673,-0.0379 1.71622,0.39192c1.54051,1.65747 -0.03228,5.60883 -0.21594,7.60764c-0.29136,2.11566 3.55865,0.50986 4.81964,0.44464c0.60575,-0.03133 1.37029,0.3965 1.81966,-0.01092c1.30288,-1.18123 1.56402,-2.43097 3.85667,-2.23462c1.86748,0.15993 4.70003,2.75044 6.77121,1.6527c0.71819,-0.38065 0.74756,-1.54459 1.44264,-1.96595c0.91177,-0.55271 2.06029,-0.43292 3.05508,-0.41994c0.90581,-0.04465 0.22716,-1.79777 1.1025,-2.65644c0.91343,-0.89605 4.24755,-1.14609 5.32067,-0.41054c1.37388,0.94169 0.93551,1.86157 1.42085,3.09009c0.40158,1.0165 2.39855,0.81793 3.15999,1.4678c0.58674,0.50077 1.03509,1.16836 1.37722,1.85972c0.96708,1.95423 -1.27067,6.607 1.35514,6.37681l0.80864,0.13873c0.18023,-0.04011 0.39365,-0.0383 0.64525,0.03032c1.20596,0.32889 0.87706,1.53485 0.87706,1.53485c-0.75545,2.06869 1.67854,2.66237 3.36662,2.93682c2.1701,0.35281 3.60861,1.49871 5.65562,2.00529c1.52267,0.37682 3.9488,-1.00882 5.64681,-1.02101l1.52029,0.43914c0,0 0.69828,0.23276 0.84456,0.8769c0.08775,0.18554 0.11498,0.33535 0.11498,0.33535c0.31336,1.77323 0.55109,4.26705 2.3976,4.72285c3.04088,-4.31715 7.74647,-0.31121 6.26143,3.92109c0.04681,0.0824 0.08867,0.17613 0.12416,0.28259c0.39529,1.18586 -0.79057,1.58114 -0.79057,1.58114c-0.26168,0.08512 -2.19473,0.3754 -1.8799,1.16105c0.53533,1.33587 1.91369,0.93492 1.06066,3.29175c-0.76779,2.12131 -1.69325,0.62009 -2.71246,1.55079c-1.25239,1.14363 -0.1565,3.9179 -1.34784,5.34385c-0.61156,0.73199 -1.94936,0.48982 -2.60628,1.1814c-0.36588,0.38518 -0.23258,2.10619 -0.23089,2.42817c0.00934,1.78438 -0.00419,3.515 -0.17738,5.29176c-0.88229,2.19356 -2.44675,3.39041 -3.8084,5.04288c0.00869,0.41577 -0.20422,0.75642 -0.20422,0.75642c-0.03505,0.05518 -0.10261,0.21019 -0.19261,0.41218c1.78003,-0.48717 3.18295,-0.15546 3.52406,2.15171c0.29389,1.98784 -1.97237,2.32141 -2.53058,3.70003c-1.19574,2.95315 -3.23854,8.67115 -7.28433,8.53165c-1.57079,1.61572 -1.78726,3.42656 -1.89889,5.5899c-0.03478,0.67401 -0.42451,1.6713 0.15403,2.01886c2.00053,1.20182 4.15655,1.31639 5.07897,3.99951c0.88988,2.58848 -2.65031,10.54935 2.23352,8.46762c0.28003,-1.70515 1.79106,-6.27017 4.39397,-5.71982c0.70304,0.14865 0.61406,1.3043 1.0056,1.90686c0.50999,0.78484 1.70898,1.93241 2.62696,2.21182c0.77459,0.23577 1.75068,-0.56384 2.40556,-0.45978c0.91847,0.14594 1.27548,1.58521 2.1954,1.72167c0.97039,0.14395 1.58416,-1.47694 2.56461,-1.44369c1.02707,0.03483 1.78399,1.09935 2.78903,1.3138c2.30036,0.49083 4.42647,-0.38583 6.67521,-0.59924c1.87372,-0.00148 4.88153,-0.54713 6.55691,0.46256c1.18858,0.71632 1.84599,2.11664 2.32675,3.54265c-0.02649,0.02687 -0.05293,0.05382 -0.07932,0.08085zM135.70834,336.14523c0.55936,0.24883 1.05156,0.50935 1.30314,0.80908c2.04737,2.43917 -0.87222,4.88579 -1.41459,7.22788c-0.07447,0.32157 0.45968,0.71723 0.89339,0.99374c-0.26683,-2.70034 3.05714,-4.85868 1.97122,-7.35321c-0.43372,-0.99631 -1.5643,-1.34519 -2.75316,-1.67748zM129.89089,329.22884c1.03788,0.83159 1.52922,2.73685 2.26566,4.21632c-0.16899,-1.10529 0.26327,-2.22185 -0.33785,-3.18018c-0.47413,-0.75587 -1.22937,-0.84731 -1.92781,-1.03613zM20.2452,329.9077c-0.1232,0.2384 -0.16365,0.44288 0.03578,0.56775c0.16768,0.10499 0.36396,0.17145 0.56393,0.23122c-0.02059,-0.04246 -0.04263,-0.08562 -0.06622,-0.12952c-0.15557,-0.22274 -0.33907,-0.44589 -0.53349,-0.66945zM17.78382,329.94374c0.13454,-0.18609 0.34256,-0.38162 0.64104,-0.5875c0.22694,-0.15653 -0.79379,0.18652 -0.69728,0.44476c0.01749,0.04679 0.03631,0.09439 0.05624,0.14274zM22.21621,328.20556c0.14757,0.20745 0.29191,0.46479 0.5161,0.80601c-0.15874,-0.27429 -0.32515,-0.54736 -0.51609,-0.80601z"/><path d="M-3.20861,427.82138c-0.46424,-1.1606 0.69636,-1.62483 0.69636,-1.62483l0.61951,-0.24315c1.44796,-0.71123 2.66659,-2.22077 4.22535,-2.65804c1.78304,-0.50018 3.81059,1.51014 5.32549,0.32743c1.8318,-1.43012 2.35198,-4.08752 5.35278,-3.32434c1.75718,0.44689 2.52418,2.15902 3.50505,3.44168c2.03341,2.65905 3.24021,4.55071 4.25244,7.74148c0.4338,0.5446 0.5714,1.50865 1.24739,1.67539c2.04326,0.50398 4.08599,-1.02019 5.49347,1.94865c0.91402,1.92796 0.75489,5.6989 -0.69366,7.29809c-0.25849,0.28537 -0.82908,0.07641 -1.10118,0.34884c-0.52884,0.52948 0.2815,1.47303 0.34075,2.21902c0.20935,2.63575 0.84228,3.99849 2.56021,6.00064c0,0 0.81349,0.94907 -0.13558,1.76256c-0.94907,0.81349 -1.76256,-0.13558 -1.76256,-0.13558c-2.03849,-2.38059 -2.90184,-4.29578 -3.15408,-7.42794c-0.06275,-0.77921 -0.36333,-3.07677 0.05503,-3.78098c0.28448,-0.47886 1.05146,-0.42679 1.47025,-0.79401c0.77119,-0.67624 0.48224,-3.58484 0.16348,-4.4162c-0.67125,-1.75071 -2.89877,-0.2743 -3.9351,-0.62278c-0.94404,-0.31744 -2.19228,-2.16346 -2.75261,-2.89604c-1.06451,-3.09575 -2.02579,-4.77618 -4.03328,-7.40137c-0.63819,-0.83457 -1.14873,-2.11397 -2.20923,-2.55832c-0.91754,-0.38444 -3.78396,3.52384 -5.19474,3.75042c-1.44055,0.23136 -2.86188,-1.17695 -4.12699,-0.74734c-1.31586,0.44684 -2.50176,1.83914 -3.77465,2.48482l-0.80906,0.32828c0,0 -1.1606,0.46424 -1.62483,-0.69636z"/></g></g></svg>