<svg version="1.1" xmlns="http://www.w3.org/2000/svg" xmlns:xlink="http://www.w3.org/1999/xlink" width="111.0837" height="113.97019" viewBox="0,0,111.0837,113.97019"><g transform="translate(-330.3536,35.60324)"><g data-paper-data="{&quot;isPaintingLayer&quot;:true}" fill="#000000" fill-rule="nonzero" stroke="none" stroke-width="0.5" stroke-linecap="butt" stroke-linejoin="miter" stroke-miterlimit="10" stroke-dasharray="" stroke-dashoffset="0" style="mix-blend-mode: normal"><path d=""/><path d="M439.62466,48.11055c-0.70844,2.60685 -1.95649,3.17808 -1.95649,6.0064c-0.00338,1.97396 -0.53144,5.74174 -2.0534,7.23736c-0.57095,0.56107 -1.74828,0.39456 -2.13788,1.09384c-0.89921,1.61396 -0.42577,3.49699 -1.76741,5.13845c-1.25697,1.53785 -3.46527,2.87241 -4.32314,4.72108c-0.53136,1.14505 0.00514,2.54477 -0.39421,3.62867c-0.01777,0.04822 -0.03642,0.09603 -0.05588,0.14346l0.02793,0.00698l-0.32699,1.30797c-0.12632,0.55665 -0.62414,0.9722 -1.21902,0.9722c-0.47329,0 -0.88514,-0.26303 -1.09734,-0.65089l-0.65463,-1.1456l0.02059,-0.01176l-0.05423,-0.05121c-0.45904,-1.0666 -0.99382,-3.52119 -1.8797,-4.29095c-1.50201,-1.30514 -4.09247,-1.45443 -4.4063,-4.09542c-0.26149,-2.20055 3.99609,-4.39132 1.97953,-6.01077c-4.17292,-2.35774 -5.93957,-6.93667 -8.86591,-10.35707c-2.07587,-2.42635 -4.19455,-4.93725 -6.13091,-7.53598c-0.09179,0.01733 -0.18369,0.03481 -0.27566,0.05249c-0.00589,-0.01084 -0.01179,-0.02163 -0.01769,-0.03237c-0.81673,-1.48692 -2.16429,-2.31441 -3.29418,-3.47852c-1.60331,-1.65187 -2.21411,-3.21131 -4.18511,-4.68957c-1.19871,-1.19871 -2.5434,-2.5809 -3.60924,-3.85714c-1.11456,-1.33458 -0.76997,-3.24977 -2.5225,-3.92128c-2.13554,-0.81826 -4.79055,0.11465 -6.92608,0.32802c-0.96053,0.09597 -2.35864,-0.35158 -3.15634,0.03944c-0.52859,-0.09455 -1.03257,-0.1841 -1.48282,-0.27066c-0.2181,-0.04193 -0.71426,0.05488 -1.24674,0.1735c-0.00993,-0.08504 -0.00914,-0.16788 -0.00094,-0.24689l-0.31485,-0.06234c-0.51429,-0.33239 -1.18407,-0.50094 -1.54287,-0.99716c-0.71333,-0.98653 -0.02101,-2.94776 -0.95406,-3.61438c-0.94128,-0.6725 -1.46109,0.17364 -2.54842,-0.87438c-0.71212,-0.68637 -0.35843,-1.98014 -0.83325,-2.84775c-0.10814,-0.19761 -3.21922,-1.01351 -3.6008,-1.41965c-0.89171,-0.94912 -1.02323,-2.70061 -1.61806,-3.82191c-0.72899,-1.37419 -4.18661,-1.36363 -5.49859,-0.86964c-0.52175,0.74218 -0.23704,1.9449 -0.89386,2.57072c-1.70554,1.62504 -4.37959,-0.20558 -6.0632,2.0476c-2.78413,3.726 -0.58882,14.70682 -7.72291,13.47001c-1.34418,-0.23304 -1.55883,-0.40128 -2.76287,-0.91315c-1.408,-0.60597 -2.18736,-1.45908 -3.3388,-2.25688c-0.69371,-0.48065 -2.57394,-0.13952 -3.33546,-0.14205c-1.68758,-0.0056 -3.14139,-0.167 -4.54628,-1.22326c-0.51815,-0.38957 -1.13788,-0.74576 -1.41904,-1.32989c-0.1461,-0.30354 -0.11802,-2.67175 -0.11802,-3.19686c0,-3.01565 -0.51216,-6.76955 0.37521,-9.65417c0.50316,-1.63565 1.04191,-1.7539 2.27754,-2.66857c0.78729,-0.6511 1.88193,-1.49874 2.50039,-2.27677c0.35545,-0.44716 -1.31811,-2.88992 -1.31981,-3.06716c-0.02112,-2.20456 2.55242,-3.03976 3.05963,-4.7148c0.35373,-1.1682 -0.43235,-2.73956 -0.01776,-3.93936c0.24228,-0.70111 0.60748,-1.41595 1.18142,-1.8859c0.30931,-0.25327 0.86484,0.15923 1.19771,-0.06216c0.99068,-0.6589 0.02733,-5.24786 -0.46232,-6.0948c-0.56138,-0.50929 -1.54858,-0.31432 -2.12698,-0.8042c-1.04391,-0.88415 -0.48996,-3.09589 -1.33651,-3.66907c-1.90963,-1.29297 -3.91654,0.71834 -4.803,-2.74505c-0.22468,-0.87782 -0.21781,-4.21252 0.18092,-4.93944c0.21418,-0.39048 0.9475,-0.20479 1.21144,-0.56351c0.29482,-0.40068 -0.10228,-1.14915 0.28156,-1.46559c2.53733,-2.09177 8.68088,-0.27072 10.71948,1.47024c0.56273,2.6345 5.75313,-2.72628 7.0317,-3.24623c3.12534,-1.27098 6.30732,-1.49464 9.52504,-1.70309c-0.11907,-0.14224 -0.23974,-0.28296 -0.36159,-0.42213c3.10346,-0.18849 6.35458,0.00519 9.01092,-0.00658c1.88748,0.01019 3.96574,-0.41246 5.63759,-1.3397c1.65236,-0.91643 2.37992,-2.57854 4.16166,-3.3262c4.62011,-1.9387 10.95832,-1.21051 15.84603,-1.01995c1.44499,1.03563 1.66126,1.72306 2.71695,2.98949c0.36419,0.43689 0.35288,-1.28162 0.89537,-1.45256c0.80289,-0.25299 5.43879,1.27337 6.18051,1.85538c2.43978,1.91444 1.40321,2.76185 -0.02044,4.48968c-0.03298,0.04003 2.72685,3.04253 2.76818,3.15858c0.62447,1.75342 0.06414,4.77508 0.06414,6.64529c0,0.62265 -0.32361,2.39547 0.20166,2.93953c0.76547,0.79285 2.56377,1.15186 3.49583,1.77316c2.47449,1.64945 4.59397,3.57377 7.4478,4.60145c1.28065,0.46117 4.4381,0.05178 5.74853,-0.26233c0.651,-0.15604 1.33804,-0.7906 1.94368,-0.5054c2.80951,1.32302 1.5948,2.32349 0.75221,3.81598c-0.53737,1.37981 -1.13791,2.61953 -0.86226,4.15121c0.39148,2.17525 5.027,5.04661 7.14573,5.24247c2.34526,0.2168 4.32566,-0.15901 6.51297,-0.60534c0.30874,-0.15075 0.61386,-0.15075 0.61386,-0.15075l0.02497,0.02081c0.15983,-0.02522 1.22417,-0.1489 1.45076,0.98405c0.03355,0.16776 0.03955,0.31715 0.02491,0.45006c0.01738,2.86854 0.3744,6.39896 -0.8595,9.0553c-0.37142,0.79961 -1.31935,1.19012 -1.83363,1.90625c-0.41631,0.5797 -0.00127,2.56826 -0.06359,3.2067c-0.21101,2.1614 -0.3537,3.22914 -2.07624,4.57296c-0.30901,0.24107 0.68694,0.39501 0.96621,0.66999c1.11773,1.10054 1.78365,2.46992 2.34356,3.8975c0.05379,3.54484 0.16956,7.00485 0.10696,10.4804c-0.03006,-0.0016 -0.06013,-0.00317 -0.09023,-0.0047c0.12807,3.10647 0.52517,6.66173 -0.24515,9.49625zM405.602,41.72374c2.08093,2.93311 4.52484,5.67163 6.77415,8.42357c2.75118,3.36597 4.48615,7.67762 8.46743,9.97626c1.45859,1.58283 2.21766,3.17959 0.96665,5.32458c-0.289,0.49551 -2.15135,1.42158 -1.98712,2.33132c0.27826,1.54137 2.72233,1.76051 3.5937,2.57124c0.55156,0.51318 0.97392,1.28293 1.33057,2.11192c0.38756,-1.10588 0.98249,-2.16607 1.38368,-2.65365c1.28934,-1.56698 3.27649,-2.9455 4.16817,-4.74923c0.61182,-1.2376 0.313,-2.77456 1.06022,-3.94067c0.53556,-0.8358 1.74279,-0.96653 2.52879,-1.57283c0.96616,-0.74528 1.28222,-4.24129 1.27993,-5.4293c0,-0.28052 -0.01265,-2.95386 0.04188,-3.15417c0.36898,-1.35545 1.65296,-2.15878 2.00164,-3.5061c0.80102,-3.0952 0.12316,-7.14917 0.12316,-10.33973v-1.16667c0,0 0,-0.19586 0.07753,-0.43253c-0.02229,-2.28727 -0.06593,-4.57993 -0.01417,-6.90634c-0.83659,-2.01832 -3.81624,-3.52619 -3.19023,-5.93251c0.20362,-0.78268 1.52696,-0.91681 1.73182,-1.69916c0.51884,-1.98145 -0.46099,-4.6533 0.62835,-6.52118c0.58287,-0.99943 1.27709,-0.64072 1.66637,-1.59375c0.82045,-2.00859 0.73124,-4.47281 0.66868,-6.72097c-2.57731,0.51194 -5.28925,0.96416 -7.88373,0.17936c-2.77522,-0.83948 -7.25102,-4.03819 -7.87126,-6.96179c-0.41424,-1.95262 0.2489,-3.6751 0.96196,-5.41933c-1.87356,0.64096 -5.79698,0.46315 -6.8798,0.1188c-3.043,-0.96772 -5.46702,-3.17482 -8.0522,-4.89855c-1.18554,-0.79049 -3.07261,-1.1178 -4.00417,-2.22684c-1.09453,-1.30306 -0.79834,-3.02789 -0.79834,-4.56047c0,-1.67793 0.50994,-4.26828 0.06414,-5.85471c-0.29999,-1.06757 -2.01785,-1.41525 -2.45528,-2.63508c-0.2502,-0.6977 -0.47299,-1.49165 -0.27654,-2.20634c0.17176,-0.62485 1.70385,-0.70924 1.4432,-1.30254c-0.22251,-0.50652 -2.28835,-0.69946 -2.63171,-0.80315c-0.46607,-0.14074 -0.94712,-0.2765 -1.35806,-0.53758c-0.16594,-0.10543 -0.16318,-0.65899 -0.29336,-0.51167c-0.23827,0.26963 0.11632,0.87828 -0.19303,1.06207c-0.70496,0.41882 -1.61308,0.67176 -2.4116,0.48537c-1.47181,-0.34354 -1.79551,-2.16193 -2.78305,-3.01051c-4.63322,0.34772 -9.68072,-0.66702 -14.15397,0.98005c-1.4631,0.53871 -2.40544,2.37671 -3.83834,3.1738c-2.05599,1.14371 -4.53978,1.65001 -6.86241,1.6603c-1.07472,-0.0058 -2.27135,-0.04488 -3.52386,-0.07315c-0.20013,0.08483 -0.36277,0.10516 -0.36277,0.10516v-0.00003c-4.5486,0.56073 -8.96637,0.2051 -13.35567,1.91953c-2.08035,0.81257 -3.23876,3.13126 -5.40409,3.85931c-2.10809,0.70881 -3.52707,0.42514 -4.56422,-1.43888c-1.56648,-1.23829 -3.25455,-0.99519 -5.1644,-0.99697c-0.59797,-0.00056 -1.4841,-0.71748 -1.78278,-0.19945c-0.20016,0.34716 0.18167,0.87536 -0.05177,1.20108c-0.23376,0.32615 -0.86267,0.13018 -1.12189,0.43649c-0.04989,0.05895 0.09229,3.34662 0.34034,3.59467c0.71634,0.71635 2.72537,-0.03608 3.70425,0.72084c0.54871,0.42429 0.8371,1.12496 1.09771,1.76776c0.23931,0.59023 -0.3469,1.63191 0.23244,1.89651c0.85113,0.38875 1.81117,0.6086 2.53969,1.1958c1.2679,2.23145 2.36556,7.36032 0.20435,9.57186c-0.34801,0.35611 -1.01376,0.06936 -1.46896,0.27117c-0.53994,0.23938 -0.00638,4.03935 -0.16967,4.50808c-0.42831,1.22948 -2.90189,2.62949 -2.94037,3.95186c-0.02389,0.82118 1.19714,1.27433 1.30906,2.08819c0.32345,2.35195 -1.86764,3.89817 -3.46181,5.23455c-2.53587,1.72405 -1.68059,6.2018 -1.68059,9.01059c0,0.76777 -0.39056,2.79872 -0.11802,3.46981c0.76255,1.87763 5.16709,0.90971 6.52075,1.12289c2.01502,0.31733 2.99456,1.80466 4.83967,2.5917c0.6821,0.29509 3.08687,1.49581 3.811,0.7449c0.47659,-0.4942 0.29488,-1.3437 0.51201,-1.99503c1.14538,-3.43591 0.88611,-7.58907 3.19121,-10.52635c1.09775,-1.39881 2.58384,-2.23977 4.34065,-2.48189c0.64042,-0.08826 1.65267,0.78037 1.92948,0.19616c0.42473,-0.89641 0.52732,-1.95706 1.10615,-2.76261c2.74158,-1.23735 7.22198,-1.29343 9.16807,1.4637c0.65443,0.92715 0.65323,2.64784 1.38194,3.51142c0.88303,1.04647 2.74472,0.32998 3.73253,1.58035c0.5239,0.66315 -0.17058,1.97133 0.50008,2.48558c0.68152,0.52257 1.8084,0.2232 2.45158,0.79229c1.67536,1.48238 0.45717,3.66014 2.16974,4.38846l0.72327,0.01453c0,0 0.05695,0.00814 0.14467,0.03314c1.09862,-0.30484 2.78661,0.10821 3.84705,0.00205c3.08112,-0.30844 7.06092,-1.55339 9.71035,0.81567c1.31171,1.17291 0.77573,2.45397 1.84107,3.59107c1.1117,1.18659 2.22106,2.47316 3.39076,3.64286c0.96413,0.7231 2.45417,1.73712 3.17314,2.68396c0.48654,0.64075 0.56096,1.56972 1.14174,2.12647c0.78921,0.75656 1.61084,1.4383 2.34467,2.21392c0.46285,0.11973 0.74782,0.51868 0.74782,0.51868z"/></g></g></svg>