<svg version="1.1" xmlns="http://www.w3.org/2000/svg" xmlns:xlink="http://www.w3.org/1999/xlink" width="186.44636" height="133.15153" viewBox="0,0,186.44636,133.15153"><g transform="translate(-190.90149,50.39705)"><g data-paper-data="{&quot;isPaintingLayer&quot;:true}" fill="#000000" fill-rule="nonzero" stroke="none" stroke-width="0.5" stroke-linecap="butt" stroke-linejoin="miter" stroke-miterlimit="10" stroke-dasharray="" stroke-dashoffset="0" style="mix-blend-mode: normal"><path d=""/><path d=""/><path d=""/><path d=""/><path d=""/><path d=""/><path d=""/><path d=""/><path d=""/><g><path d="M221.01491,-5.28909c-0.27219,0.59546 -0.17279,1.49531 -0.34772,2.13701c-0.21391,0.7847 -0.48994,1.27245 -0.96041,1.93833c-0.0471,0.06665 -0.12782,0.17972 -0.20822,0.28262c0.36956,-0.08182 1.05077,-0.00885 1.28006,-0.22852c0.9517,-0.91179 1.67439,-1.89246 2.91631,-2.39156c0.73296,0.02794 1.21821,-0.79695 0.88485,-1.49003c-0.24652,-0.51253 -1.13688,0.15258 -1.70325,0.10071c-0.61261,-0.0561 -1.24869,-0.23336 -1.86164,-0.34855zM219.9412,-5.86373c-0.00202,-0.02356 -0.00306,-0.04814 -0.00306,-0.07376c0,-0.625 0.625,-0.625 0.625,-0.625l0.00223,0.00004c0.07826,-0.01872 0.16629,-0.02149 0.26173,0.00466l0.21379,0.00381c0.92106,0.15361 3.94419,0.07214 4.50559,0.72025c1.07896,1.24559 -0.22251,3.46886 -1.61515,3.50997c-1.23367,0.48852 -1.76863,2.16497 -3.04555,2.6042c-0.35489,0.12208 -2.2885,0.11001 -2.51458,-0.15098c-0.27154,-0.31346 -0.22036,-0.82341 -0.16038,-1.23377c0.10052,-0.68769 0.89801,-1.17768 1.14437,-1.80854c0.39637,-1.01499 0.19026,-2.02084 0.58602,-2.95086z"/><path d="M234.94458,2.97464c-0.4396,-0.09186 -1.05611,-0.21342 -1.28105,-0.1446c-0.49386,0.15111 -0.45432,1.45772 0.05411,1.54845c0.75394,0.13454 2.86669,-1.07634 2.16429,-0.77113l-0.55092,-0.21456c0,0 -0.3106,-0.12424 -0.38644,-0.41816zM236.06303,2.34154l0.43131,0.1761c1.80436,1.84644 -1.4795,4.0595 -3.33571,2.97887c-0.9489,-0.55243 -1.14914,-3.03298 -0.19589,-3.70155c0.50449,-0.35384 2.00336,-0.06821 2.57814,0.02604c0,0 0.47868,0.07978 0.52215,0.52054z"/><path d="M215.47821,-5.24203c-0.16188,0.04637 -0.32029,0.05529 -0.44905,0.05018c-0.27541,0.16485 -0.65875,0.24303 -1.15004,-0.00262c-0.11549,-0.05774 -0.2131,-0.12146 -0.29526,-0.18928c-1.88763,0.0869 -4.00619,1.60853 -5.3226,2.76197c-1.66154,1.45585 -3.58833,2.54294 -5.24587,3.99638c-2.67439,2.34509 -4.01083,4.85262 -7.6989,5.87926c-0.72693,0.22534 -2.19985,1.0777 -1.92602,2.17473c0.21896,0.87722 1.76654,-0.38631 2.64843,-0.58563c0.55058,-0.12444 2.86882,-0.08325 3.2655,-0.39884c0.63767,-0.50731 0.92608,-2.91775 1.54963,-3.68324c2.29503,-2.81744 7.4129,-3.84689 10.6465,-5.3146c1.26057,-0.6976 6.37634,-4.14673 3.97769,-4.6883zM214.53521,-7.79136l0.02792,-0.02114c3.84268,0.04967 5.16531,3.09372 2.88905,6.23089c-1.06709,1.47069 -3.25318,2.38356 -4.82644,3.26034c-2.82332,1.28509 -6.60182,2.14982 -9.05273,4.00129c-2.29863,1.73644 -1.23686,4.57275 -4.57489,5.24372c-1.41935,0.2853 -4.43882,1.32922 -5.7636,0.99707c-4.71988,-1.18338 -1.23346,-6.03968 1.32525,-7.04966c2.65676,-0.70741 3.94102,-2.27383 5.68405,-4.25264c1.27894,-1.45194 2.90708,-2.4741 4.47235,-3.57642c3.05946,-2.15459 5.90048,-5.26314 9.81905,-4.83344z"/><path d="M261.49272,-30.95386c-0.24977,0.67961 -1.05521,0.76015 -1.05521,0.76015c-3.28242,0.29057 -5.98065,2.66693 -8.90833,3.91608c-2.84798,1.21514 -6.39365,1.29513 -9.42249,1.70371c-1.88974,0.25492 -3.60158,1.03299 -5.47588,1.34538c-2.20264,0.81056 -6.67651,1.72695 -8.30879,3.42492c-0.51387,0.53455 -3.64162,3.60744 -3.51614,4.3566c0.13153,0.7853 1.41251,1.89697 2.27003,1.56315c1.6597,-0.64611 3.4844,-2.42787 4.91823,-3.49795c3.31194,-3.25599 7.66542,-2.60838 11.78181,-3.52225c2.21505,-0.49176 3.40023,-3.06939 5.76475,-3.62839c2.95035,-0.6975 5.80206,0.49668 8.53639,-1.16536c0.97968,-0.86058 1.69383,-2.13955 2.67275,-2.93893c1.03578,-0.84581 7.02062,-0.91552 2.60148,-2.097c-0.41324,-0.11048 -0.8399,-0.17379 -1.26628,-0.20802c-0.19698,-0.01581 -0.39456,-0.01627 -0.59231,-0.0121zM258.68391,-32.40171c0.23649,-0.41101 0.69031,-0.5812 0.69031,-0.5812l1.4389,-0.45459c1.94432,0.00561 5.41725,0.20121 6.48372,2.29773c0.68595,1.34848 -0.03854,3.2388 -1.29971,3.9453c-1.17566,0.65859 -1.8974,-0.11908 -2.99546,0.092c-1.09834,0.21113 -2.6006,2.68203 -3.4525,3.42527c-3.26414,1.94129 -6.02477,0.85016 -9.46361,1.58464c-2.26879,0.48457 -3.43485,3.0014 -5.73525,3.62161c-3.6211,0.97629 -7.81799,0.0191 -10.71819,2.97775c-1.59219,1.19898 -3.90882,3.45662 -5.83177,4.00205c-3.24909,0.92159 -6.40433,-2.62575 -4.97313,-5.64443c0.68249,-1.43951 1.20484,-1.37305 2.25292,-2.33599c0.62975,-0.57859 0.86205,-1.50254 1.4741,-2.09983c2.09228,-2.04186 6.72724,-3.09799 9.44121,-4.07508c1.97279,-0.3288 3.78088,-1.13021 5.77412,-1.40462c2.81611,-0.3877 6.18545,-0.40747 8.82751,-1.54629c2.7407,-1.18134 5.18735,-3.04692 8.08683,-3.80434z"/><path d="M287.62431,-32.0171c-2.43772,0.22534 -5.48432,0.51701 -7.79756,0.05705c-0.92568,-0.18406 -3.67948,-2.09122 -4.49854,-1.88087c-0.67975,0.17457 -0.93295,1.05732 -1.47796,1.49948c-0.44103,0.3578 -1.34211,0.37578 -1.42228,0.93801c-0.05567,0.39041 2.64865,2.5879 2.99418,3.05788c3.22474,2.18013 5.24251,-1.55432 8.27308,-2.19311c2.83801,-0.59821 5.11438,1.20802 7.81139,0.86443c1.62223,-0.20667 2.47185,-1.94909 3.86822,-2.62913c1.41679,-0.68998 2.87219,-0.50945 4.38165,-0.50783c1.41095,-0.12964 2.83497,-0.30785 4.25,-0.375c1.24604,-0.05913 2.50615,0.08362 3.75013,0.01196c0.43823,-0.02524 1.50243,-0.90814 1.13349,-0.67032c-1.2097,0.77976 -4.21923,-0.02926 -5.63924,-0.09448c-3.07358,-0.14117 -6.01601,0.5205 -8.96866,1.32827c-1.84295,0.55098 -3.43241,0.67328 -5.34407,0.67328h-0.875c0,0 -0.19934,0 -0.43882,-0.07961zM288.63668,-34.4375h0.30145c1.69485,0 3.02478,-0.08556 4.65593,-0.57672c4.20722,-1.1442 8.05898,-1.5065 12.40634,-1.29673c0.93261,0.045 4.19645,0.13917 4.73576,0.78052c0.95074,1.13062 0.19945,3.38739 -0.76439,4.19179c-1.87959,1.56865 -7.69669,0.80834 -10.10199,1.02485c-1.03319,0.00101 -2.40481,-0.26134 -3.36835,0.24217c-1.74673,0.91277 -2.48134,2.5442 -4.63178,2.87087c-2.70432,0.4108 -4.98326,-1.38285 -7.68861,-0.88557c-3.34564,0.61497 -4.95339,4.30387 -8.97126,2.55367c-0.55183,-0.24038 -1.00377,-0.66452 -1.50566,-0.99678c-0.8157,-1.06882 -2.22433,-1.92768 -2.90503,-3.05218c-0.39751,-0.65668 -0.93189,-1.37662 -0.85079,-2.13994c0.11136,-1.04811 3.81841,-4.34371 4.84976,-4.56252c1.79074,-0.3799 3.82783,1.53156 5.50146,1.86912c2.24958,0.45372 5.37055,0.06707 7.65044,-0.14242c0,0 0.34396,-0.03127 0.68672,0.11986z"/><path d="M319.39941,-34.28081c-0.14197,0.05679 -0.2631,0.06495 -0.36509,0.04488c-1.14858,0.01847 -3.08993,1.47626 -3.83228,1.32847c-1.63756,-0.32601 -1.02776,-2.61108 -0.26486,-3.38495c1.65137,-1.67512 3.0746,-0.93747 4.44983,0.4338l0.36058,0.76538c0,0 0.23212,0.58029 -0.34818,0.81242zM318.03869,-35.46285c-0.50485,-0.53408 -0.80079,-0.75437 -1.68481,-0.29315c-0.55945,0.29188 -1.23541,2.19301 -0.99911,1.60791c0.4004,-0.99137 1.61345,-1.24822 2.68392,-1.31476z"/><path d="M346.69833,-38.55513c-3.18509,0.44174 -4.69887,2.48978 -7.63205,3.63622c-2.36981,0.92625 -4.82871,-0.18885 -7.09942,0.47851c-1.73244,0.50916 -3.97702,4.16359 -5.54062,4.16208c-0.78357,-0.00076 -1.27391,-0.91273 -1.91086,-1.36909c-2.0489,-3.52073 -1.55435,-8.21646 2.6907,-9.72938c2.71758,-0.96854 5.65471,-0.29692 8.46483,-0.39991c3.71031,-0.13599 6.98053,-1.4737 10.296,-2.96164c1.69725,-0.13946 3.90622,-0.63387 5.33262,0.69362c2.93602,2.73244 -0.16026,4.84418 -2.71795,5.5074l-1.52539,0.03732c0,0 -0.15604,0 -0.35786,-0.05513zM347.77164,-40.97094l0.2036,0.00827c3.79955,-0.90385 0.67859,-1.4706 -1.38533,-1.35453c-3.41877,1.63974 -6.97066,2.87346 -10.81511,3.03835c-2.5483,0.1093 -5.29148,-0.56008 -7.75739,0.26676c-2.4351,0.81651 -2.81852,3.80655 -1.53152,5.82617c-0.22191,0.68147 0.24068,-0.56331 0.99316,-1.19173c1.05016,-0.87703 2.44531,-2.07294 3.77758,-2.45972c2.24194,-0.65088 4.65886,0.4683 6.90058,-0.41038c3.3009,-1.29384 5.04821,-3.55123 8.91422,-3.85967c0,0 0.35471,-0.02728 0.70021,0.13649z"/><path d="M354.12357,-43.49686c0.29413,-0.1382 0.73829,-0.33754 1.15746,-0.52633c-0.18018,-0.00563 -0.36503,0.01443 -0.55608,0.06878c-0.04942,0.01405 -0.35272,0.26995 -0.60138,0.45755zM357.44607,-44.29734c0.00275,0.00701 0.00546,0.01414 0.0081,0.02139c0.21394,0.58725 -0.37331,0.80119 -0.37331,0.80119l-0.03663,0.00042c-0.89035,0.54106 -3.55288,2.30888 -4.3989,0.66298c-1.22035,-2.37414 3.46397,-2.40498 4.43177,-1.96482c0,0 0.33026,0.15389 0.36897,0.47884z"/><path d="M361.90895,-48.97289c-0.06403,-0.01833 -0.13792,-0.03771 -0.22564,-0.05943c-2.84228,-0.70387 -0.63693,1.4906 -0.7336,2.7454c0.04411,-0.24873 0.12409,-0.69045 0.1555,-0.89199c0.08448,-0.54202 0.2515,-1.08446 0.52616,-1.55931zM363.16608,-48.45651c-0.07731,0.12999 -0.17933,0.20651 -0.17933,0.20651l-0.28351,0.1549c-0.47721,0.75442 -0.18921,2.34285 -1.05351,2.84785c-1.79956,1.05147 -4.42329,-4.48061 -1.24921,-5.11968c0.41021,-0.08259 1.18186,0.02022 1.58411,0.12147c0.75619,0.19035 0.7581,0.24967 1.39312,0.6262c0,0 0.53593,0.32155 0.21438,0.85749c-0.12441,0.20735 -0.28091,0.28634 -0.42605,0.30526z"/><path d="M377.0978,-45.89872c-0.00137,0.00432 -0.00279,0.00867 -0.00424,0.01303c-0.19764,0.59293 -0.79056,0.39528 -0.79056,0.39528c-1.46675,-0.51084 -4.09436,0.66866 -4.92047,-0.04958c-0.84308,-0.733 -0.46627,-2.34877 0.35671,-2.85979c2.00214,-1.24321 4.41498,-0.37494 5.51955,1.43933l0.08907,0.54378c0,0 0.00001,0.33935 -0.25005,0.51795zM375.72255,-46.7994c-1.00672,-0.80194 -3.14571,-1.70016 -3.53339,-0.37808c-0.26362,0.899 1.93152,0.36246 3.53339,0.37808z"/><path d="M357.88648,50.90472l0.03595,0.10847c0.49515,0.57425 0.90516,1.15892 0.57701,2.24084c-0.00426,0.01402 -0.00856,0.02792 -0.0129,0.04169c-0.04225,-0.02883 -0.08437,-0.05709 -0.1264,-0.08482c0.03141,1.86096 -1.20212,2.27035 -3.06015,3.6501c-0.49653,0.36871 -0.67434,1.63651 -0.90134,2.03636c-1.00359,1.76774 -3.09472,3.41378 -4.59704,4.87272c0.06787,0.07408 0.13775,0.14614 0.21,0.21652c-0.03625,0.02639 -0.07378,0.05152 -0.11269,0.07529c-3.61962,2.21135 -3.64227,-1.4206 -5.31967,-3.31716c-0.96613,-1.09235 -2.46454,-1.2321 -3.82729,-1.02026c-1.26668,0.19691 -1.57371,1.69667 -2.28465,2.56802c-1.25723,1.54089 -2.92633,2.78572 -4.16154,4.32386c-0.02742,0.10886 -0.05622,0.17605 -0.05622,0.17605c-2.16246,4.77275 -9.47617,7.18182 -13.92894,8.99301c-1.68961,0.68726 0.26403,4.21076 -2.29916,4.92271c-0.95937,0.26647 -2.29295,-1.02903 -3.01717,-1.66089c-0.79537,-0.91612 0.71161,0.65108 -0.72049,0.95839c-0.92368,0.19821 -1.95972,-0.07769 -2.78147,-0.54374c-2.29294,-1.30044 -0.59813,-3.90197 -3.80148,-3.52802c-2.00529,0.23409 -1.15126,1.92113 -1.62069,3.1799c-0.29775,0.79843 -1.64024,2.10717 -2.40618,2.49698c-3.82049,1.94441 -5.95233,-0.75074 -9.3596,-0.93121c-1.31399,1.25003 -2.28947,2.86714 -4.54465,1.63452c-1.50543,-0.82282 -1.43029,-4.53994 -3.1442,-5.56203c-1.20531,-0.71878 -2.79948,0.23576 -4.00142,-0.03299c-0.72899,-0.163 -2.31532,-1.69744 -3.23488,-1.57218c-1.09298,0.14888 -2.41624,0.54724 -3.30761,-0.10254c-0.63423,-0.46233 -0.51787,-1.73219 -1.25936,-1.98946c-0.721,-0.25017 -2.21162,0.10869 -2.92429,0.34318c-1.47134,1.18995 -2.00448,3.31079 -4.03512,3.89833c-3.20163,0.92634 -6.42266,-2.47036 -9.33494,-3.40322c-1.92728,-0.61735 -3.52782,0.74634 -5.44105,0.1864c-2.34779,-0.68712 -5.54328,-2.75277 -7.47012,-4.29565c-1.45919,-1.85111 -2.79835,-4.97237 -0.17328,-6.7472c0.56319,-0.38077 1.34365,-0.21355 2.0072,-0.36144c0.11023,-0.02457 0.47857,-0.11429 0.95518,-0.23646c0.00963,0.07493 0.01952,0.15121 0.02959,0.2282c1.88366,-1.66702 -0.00486,-2.8552 0.21834,-5.0556c0.10054,-0.99117 1.13715,-1.65882 1.49201,-2.58975c0.53675,-1.40812 -0.13709,-3.28767 -1.02123,-4.34078l-0.18182,-0.62099c-0.10629,0.0134 -0.20841,0.04014 -0.30466,0.0785l0.01256,-0.03838c0,-0.37494 0.00303,-0.75077 0.00603,-1.12705c-0.00239,-0.05146 -0.00276,-0.11214 0.00142,-0.17877c0.01457,-1.88083 0.01631,-3.77146 -0.37648,-5.61767c-0.47964,-2.25442 -2.71623,-4.31671 -2.42018,-6.64041c0.12745,-1.00035 1.09035,-1.71149 1.45968,-2.64986c0.11663,-0.29633 -0.21963,-1.5429 -0.36735,-2.05846l-0.07695,-0.03752c-0.00448,-0.09771 -0.00686,-0.19415 -0.00726,-0.28941c-0.01645,-0.1186 -0.03087,-0.32654 0.0202,-0.54979c0.18021,-2.30114 1.52839,-3.97097 2.66367,-6.54739c0.93633,-2.12493 0.02266,-5.91524 0.3047,-8.24006c0.50886,-4.19441 3.31198,-7.81121 6.45195,-10.43183c4.73145,-3.78516 7.88359,-9.56159 12.90641,-12.8779c3.08841,-2.03911 7.06139,-2.45817 10.04171,-4.82612c3.14162,-1.37079 5.82433,-3.66412 8.98932,-4.89271c6.18791,-2.40203 12.74315,-3.79507 19.08373,-5.62919c5.76777,-1.92259 11.70835,-2.65584 17.76943,-2.65584c1.64957,0 4.01611,-0.46887 5.21405,1.11911c1.33481,1.76941 0.49441,6.86257 0.8025,9.0437c0.12979,0.41031 -0.16654,1.36806 0.2516,1.26629c0.65983,-0.1606 0.8653,-1.17146 1.51808,-1.35863c1.73975,-0.49883 5.26559,0.73592 7.21376,0.92953c0.76724,0.07625 1.7387,-0.17907 2.28388,0.36612c0.95628,0.95628 0.09002,2.51227 0.33267,3.5967c0.44092,1.97044 1.71633,4.17906 0.20878,6.20215c-0.62302,0.83609 -1.8548,1.04362 -2.88386,1.21167c-0.30447,0.04973 -0.09149,2.6604 -0.09149,2.67337c-0.04113,0.64716 0.14387,1.35065 -0.12337,1.94149c-0.4731,1.04597 -2.3002,1.56196 -2.7471,2.67228c-0.41328,1.02682 1.18016,2.03876 1.4,2.77248c0.30513,1.01837 0.06853,2.7529 -0.51622,3.67092c-1.35373,2.12531 -4.63642,1.72111 -5.74528,3.90185c-0.63501,1.24884 -0.06804,4.05071 -0.06804,5.44099c0,0 0,0.44544 -0.26591,0.80451c0.06591,0.21972 0.06591,0.39549 0.06591,0.39549l-0.06414,0.00472c0.39712,1.1949 0.73459,3.69433 1.65888,4.47391c1.89123,1.59514 4.09201,0.36512 6.24246,0.90481c1.35441,0.33992 2.60399,1.58746 3.74022,2.33542c0.58879,0.38759 1.32565,0.67888 1.67469,1.29132c0.03949,0.06929 -0.14983,2.92475 0.51166,3.01029c1.59623,0.2064 4.96639,-0.71185 6.04955,1.12237c0.39293,0.66538 -0.0272,1.54524 -0.0408,2.31786c-1.42579,4.86644 3.11867,9.11746 5.44974,13.09683c0.01463,0.02497 0.02959,0.04964 0.04485,0.07401c0.48694,0.22774 0.66875,0.77318 0.66875,0.77318zM352.2026,57.70264c0.47994,-0.93158 0.70674,-2.0773 1.49866,-2.76364c1.46732,-1.27169 2.75983,-0.46729 1.99747,-2.69561l-0.18395,-0.54812c0,0 -0.03233,-0.097 -0.05076,-0.24476c-0.10839,0.00312 -0.21332,0.02003 -0.31309,0.04905c-0.04841,-0.04946 -0.09025,-0.10152 -0.12255,-0.1571c-0.72857,-1.25395 -1.15298,-2.52746 -1.96781,-3.7491c-2.5032,-3.75292 -5.17462,-6.16951 -3.78245,-11.15407c0.11973,-0.16072 0.39858,-0.28563 0.3592,-0.48214c-0.10645,-0.53122 -1.0847,0.02552 -1.62529,-0.01031c-1.84632,-0.12239 -3.57061,0.55795 -4.7968,-1.42686c-0.49728,-0.80493 0.1933,-1.97746 -0.21668,-2.83017c-0.32517,-0.6763 -1.42088,-0.53581 -2.0288,-0.97577c-0.61404,-0.4444 -0.93756,-1.23803 -1.7563,-1.39749c-1.99268,-0.38812 -3.85039,0.43918 -5.83747,-0.482c-2.68955,-1.24684 -3.01682,-4.01307 -3.86119,-6.53927l-0.06414,-0.79528c0,0 0,-0.44544 0.26591,-0.80451c-0.06591,-0.21972 -0.06591,-0.39549 -0.06591,-0.39549c0,-1.89009 -0.52935,-4.82211 0.33197,-6.55901c1.2591,-2.53903 4.59158,-2.10909 5.85472,-4.09815c1.21847,-1.91871 -1.86124,-3.53935 -1.11622,-5.95659c0.53228,-1.72702 2.97165,-2.10139 2.72953,-3.78624c0,-1.87101 -0.47689,-3.74455 1.50851,-4.92663c0.74176,-0.44163 1.46335,0.40864 1.91614,-0.38833c0.82578,-1.45346 -0.31968,-2.88628 -0.59122,-4.19785c-0.12755,-0.61609 -0.11971,-1.26397 -0.03344,-1.88719c0.02892,-0.20894 0.51526,-0.36696 0.36611,-0.51611c-0.14915,-0.14915 -0.30893,0.32653 -0.51611,0.36611c-0.97352,0.18601 -1.99308,0.13408 -2.97338,-0.01208c-0.63088,-0.09406 -2.72561,-1.36228 -3.41287,-1.05839c-2.84777,1.25925 -3.78397,1.93748 -5.03032,-1.69234c-0.28769,-1.99698 -0.43344,-4.06901 -0.43344,-6.08719c0,-0.68981 0.34687,-1.45335 0.03595,-2.06911c-0.24811,-0.49135 -4.2836,-0.0805 -4.78595,-0.08089c-5.22297,-0.00404 -10.47713,0.89301 -15.43057,2.54416c-6.29111,1.77226 -12.7745,3.23358 -18.91627,5.57081c-3.03495,1.15494 -5.57742,3.43514 -8.61068,4.70729c-2.94106,2.36998 -6.93666,2.73254 -9.95829,4.77388c-3.48199,2.35234 -5.21523,6.32854 -8.23945,9.07524c-1.39003,1.26248 -2.97344,2.4623 -4.45414,3.64686c-2.61446,2.17509 -5.14909,5.25018 -5.54805,8.76817c-0.3086,2.72124 0.5353,6.3992 -0.4953,8.95994c-0.90016,2.23664 -2.39357,3.57199 -2.53009,5.61871c0.21642,0.8804 0.51464,1.75374 0.51323,2.65774c0.01612,0.04408 0.03218,0.08884 0.04815,0.13423c-0.01646,-0.01365 -0.03291,-0.0273 -0.04937,-0.04094c-0.00772,0.3116 -0.05242,0.62699 -0.14962,0.94768c-0.24496,0.80826 -1.19234,1.31865 -1.34032,2.15014c-0.20175,1.13361 1.56705,3.29796 1.94664,4.44082c0.85836,2.58432 0.87141,5.23035 0.86563,7.91331c1.40992,1.87744 2.10619,4.41727 1.30336,6.76033c-0.24131,0.70426 -1.27948,1.06635 -1.308,1.81025c-0.0353,0.92121 0.75375,1.72634 0.80149,2.647c0.10376,2.00117 -0.8393,3.25326 -2.26747,4.44048c0,0 -0.80284,0.64227 -1.53478,0.03372c-1.5433,0.44469 -2.36937,1.14905 -0.7622,3.10631c1.79336,1.43269 4.46556,2.84874 6.52988,3.70435c0.46812,0.19402 1.72252,-0.41666 1.98601,-0.45433c0.82118,-0.1174 2.57958,0.00402 3.37294,0.24072c1.03038,0.30742 2.87909,0.98307 3.82464,1.49511c1.23172,0.66701 2.37414,2.36453 4.04041,1.90166c1.30883,-0.36356 2.50805,-2.86092 3.56488,-3.70166c3.17782,-1.06615 5.18778,-0.88886 7.01635,1.95372c0.28398,0.44146 0.96809,-0.47727 1.49239,-0.50254c1.60737,-0.07747 2.65143,1.30911 3.96512,1.62782c1.66892,0.40488 2.92596,-0.71342 4.79857,0.36701c1.83864,1.06083 2.69572,3.88008 3.25581,5.63797c0.12556,0.39408 0.52555,-0.64346 0.83546,-0.91736c0.4408,-0.38957 0.94659,-0.69875 1.41989,-1.04812c3.14445,-0.05541 5.82935,2.62546 9.0404,1.06879c2.64263,-1.2811 0.60799,-5.19667 4.77313,-5.92312c2.3166,-0.40404 3.50874,0.13947 4.68137,2.00645c0.2557,0.4071 0.5713,0.77715 0.8,1.2c0.18568,0.34332 0.19634,1.48637 0.33569,1.12179c0.14313,-0.37449 -0.05099,-1.02132 0.32601,-1.15769c0.80124,-0.28983 1.70234,0.07739 2.5535,0.11608c0.3251,0.24568 0.86546,0.52775 1.18428,0.84186c0.00932,-0.36293 0.04852,-0.76116 0.10282,-0.98181c0.27864,-1.13225 0.72733,-2.33039 1.79657,-2.99822c0.43708,-0.27299 1.04724,-0.06538 1.52365,-0.26183c1.12516,-0.46397 2.21989,-1.50803 3.41798,-2.00762c2.30442,-0.96091 5.84823,-2.35068 7.4119,-4.58458c0.00218,-0.41764 0.22639,-0.75395 0.22639,-0.75395c1.35285,-1.98999 3.33842,-3.42898 4.87338,-5.29911c1.3033,-1.58788 1.42462,-2.8662 3.71535,-3.43198c4.47783,-1.10597 5.76832,1.90722 7.71126,4.79923c1.30293,-1.26037 3.45138,-2.83743 4.24204,-4.37211z"/></g></g></g></svg>