<svg version="1.1" xmlns="http://www.w3.org/2000/svg" xmlns:xlink="http://www.w3.org/1999/xlink" width="139.1864" height="117.38433" viewBox="0,0,139.1864,117.38433"><g transform="translate(-85.87817,-161.30151)"><g data-paper-data="{&quot;isPaintingLayer&quot;:true}" fill="#000000" fill-rule="nonzero" stroke="none" stroke-width="0.5" stroke-linecap="butt" stroke-linejoin="miter" stroke-miterlimit="10" stroke-dasharray="" stroke-dashoffset="0" style="mix-blend-mode: normal"><path d=""/><path d=""/><path d=""/><path d=""/><path d=""/><path d=""/><path d=""/><path d=""/><g><path d="M136.58979,262.08602c0.05044,0.00606 0.08185,0.01462 0.08185,0.01462l0.65447,0.18741c0.94708,0.45452 3.20078,2.02463 2.63662,3.35744c-0.66515,1.57137 -2.82827,0.50869 -3.84605,0.20895c-2.3105,0.02442 -4.03217,-0.64444 -5.17229,-2.75217c-0.22061,-0.40783 -0.79704,-1.46042 -0.45032,-1.89594c0.14458,-0.1816 0.44028,-0.26867 0.82846,-0.28886c-1.28405,-0.279 -2.69482,-0.86592 -3.12022,-1.19762c-1.93001,-1.50489 -0.70597,-3.38261 -1.93237,-4.50893c-1.32446,-1.21637 -5.91899,-3.94327 -7.79189,-4.45144c-1.42252,-0.38596 -3.25124,-0.02798 -4.52876,-0.90829c-0.3536,-0.24366 -1.7572,-1.71893 -2.7336,-3.04606c-0.00339,0.00835 -0.00679,0.01669 -0.01017,0.02503c-0.83828,-0.50979 -1.67572,-1.0231 -2.38284,-1.59521c-0.16897,-0.13671 -0.32743,-0.27955 -0.47597,-0.428c-0.07255,-0.08359 -0.18817,-0.2097 -0.33962,-0.369c-1.9015,-2.24744 -1.87082,-5.55654 -1.6412,-8.40604c-1.41015,0.06413 -3.66977,0.25865 -4.55846,-0.6188c-1.32958,-1.31276 -0.5703,-3.53852 0.17834,-5.2766c-0.01461,0.01595 -0.02905,0.03248 -0.04332,0.04959c0.34256,-1.54538 0.77369,-3.07772 0.92181,-4.72079c0,0 0.04214,-0.46348 0.35779,-0.79913c0.00269,-0.21817 0.00881,-0.40826 0.02515,-0.55342c1.02063,-3.53119 3.20285,-4.88145 6.82876,-3.73157c0.85878,0.27235 2.96299,1.20833 3.08649,2.26173c0.06617,0.56438 -0.04565,1.18563 -0.29712,1.73215c0.26748,-0.31687 0.66882,-0.56718 1.25663,-0.71988c0.81073,-0.2106 1.54308,0.6671 2.25605,1.10677c2.39478,1.4768 4.05461,3.91401 6.46822,5.29637c0.37784,0.21641 0.82522,0.27967 1.22907,0.44246c2.69187,1.08508 0.2154,-0.74384 -1.00173,-1.95728c-0.7056,-0.70345 -1.49289,-1.32182 -2.19664,-2.02712c-1.30824,-0.98118 -4.74756,-3.20658 -5.478,-4.66082c-1.6846,-3.35385 1.92829,-5.19012 3.90234,-6.96096c1.18961,-1.06715 1.0455,-2.21708 1.86904,-3.39974c0.88993,-1.27799 2.55139,-1.72682 3.63676,-2.80509c1.03867,-1.03189 1.62017,-2.52041 2.49945,-3.69946c0,0 0.0376,-0.05014 0.10719,-0.11954c0.69586,-1.05701 1.43322,-2.08494 2.24565,-3.06113c2.12124,-2.54881 5.23479,-4.18517 7.2297,-6.85162c1.94817,-2.60397 3.16323,-5.76543 5.08757,-8.35971c2.40317,-3.57369 5.55993,-6.42729 7.12514,-10.62733c0.56124,-1.50601 0.31649,-3.10439 0.6835,-4.58361c0.89324,-3.60009 2.83044,-7.08598 5.42663,-9.69303c0,0 0.62798,-0.62797 1.35461,-0.29597c0.56471,0.12607 0.84707,0.69078 0.84707,0.69078l0.2104,0.56423c2.68357,2.68767 4.41775,2.12218 8.00717,2.15302c1.19813,0.0103 3.07424,-0.18586 3.77745,1.26819c0.38656,0.79932 -0.20293,1.76414 -0.30441,2.64621c-1.45947,1.53424 -4.30391,2.57005 -4.93879,4.79305c-0.55981,1.96012 1.26373,4.01328 0.20279,6.01326c-0.1355,0.25545 -0.35946,0.55584 -0.62094,0.82033c0.43182,-0.02242 0.86504,-0.04601 1.28199,0.05175c1.94214,0.45533 1.99891,1.69875 3.64162,1.25956c0.10264,-0.09492 0.18301,-0.14515 0.18301,-0.14515c2.7514,-1.704 4.84888,-2.42036 8.01967,-2.69299c0.7208,-0.06197 1.54221,-0.69122 2.14976,-0.29844c0.46467,0.30041 0.76129,3.60205 1.05398,3.71423c2.62348,1.0055 4.79746,-4.31333 7.46205,-3.16242c1.05545,0.45588 0.96044,2.0899 1.48233,3.11433c0.35268,0.79384 0.73731,2.53442 1.4598,3.13959c0.66467,0.55674 1.52906,0.33182 2.26612,0.72138c0.86774,0.45864 1.31744,1.46067 2.05168,2.11198c1.69159,1.50051 3.53937,0.40373 3.04447,3.76664c-0.071,0.48243 -1.46223,2.05857 -1.76171,2.54055c-0.56727,0.91298 0.02643,2.47395 -0.83705,3.11406c-1.6439,1.21867 -2.99547,-0.17267 -4.0911,-0.96005c-0.3692,-0.26532 -1.38371,-1.43269 -1.88008,-0.627c-0.33534,0.54433 -0.40444,1.21314 -0.61937,1.81527c1.0132,0.88189 2.65866,1.2815 3.20714,2.65936c0.56785,1.42649 -0.89057,3.58177 -0.49183,4.64079c0.09933,0.26381 3.08191,0.389 3.1841,0.40102l0.12961,0.09489l0.01859,-0.04957l1.15815,0.4343c0.48815,0.17015 0.83842,0.6345 0.83842,1.18066c0,0.47891 -0.26932,0.89492 -0.66477,1.10483l-1.31183,0.72879l-0.05361,-0.09649c-1.02312,0.82309 -2.07813,1.50767 -3.37224,2.17812c-0.05288,0.10864 -0.0992,0.17349 -0.0992,0.17349l-0.77795,1.08652c-0.34577,0.39516 -0.70522,0.77874 -1.03729,1.18547c-2.51288,3.0779 4.29538,-1.00479 5.64064,2.1152c0.88614,2.05518 -1.95883,3.89038 -3.40999,4.37042c-0.08961,0.02964 -0.19063,0.06532 -0.29814,0.10232c1.10318,0.35996 2.40669,0.94251 2.49311,1.02157c1.57763,1.44335 1.21649,2.99192 1.02914,4.86537c-0.02425,4.65575 3.84118,-0.53558 5.63111,-1.10446c1.22552,-0.38949 2.60147,0.38184 3.74654,-0.33034c1.4023,-0.87216 1.43954,-2.48844 3.38815,-2.82314c0.69134,-0.11875 1.41523,0.13446 2.06742,0.39272c0.49213,0.19487 0.99354,1.15622 1.37682,0.79116c1.04613,-0.99643 1.11485,-2.87324 3.62362,-1.22433c0.78868,0.51836 0.60316,2.78901 0.58388,3.65257c0.41801,1.19325 3.14948,0.67647 4.1578,0.82961c2.16389,0.32866 5.66484,1.94879 5.65272,4.58351c-0.0021,0.45648 -1.51063,2.59275 -1.74131,3.10197c-0.78048,1.72287 -0.81439,3.80812 -2.46069,5.07174c-0.09568,0.07344 -3.14934,0.7771 -3.17031,0.85563c-0.15572,0.58301 0.2073,1.36123 -0.20882,1.79827c-0.40799,0.4285 -1.10104,0.39768 -1.71465,0.44828l0.09454,0.10804c0.19494,0.22046 0.31327,0.51026 0.31327,0.82769c0,0.69036 -0.55964,1.25 -1.25,1.25h-1.33366c-0.29417,0 -1.69036,0.08073 -2.90679,0.04315c0.04282,0.03227 0.08289,0.0633 0.11963,0.09254c1.6522,1.31445 2.71898,3.32824 1.25015,5.31494c-1.68203,2.27507 -5.93506,1.71989 -8.45261,1.15817c-0.54536,0.16622 -1.01323,-0.17183 -1.16579,-0.30071c-1.20647,-0.42068 -2.03124,-0.25391 -3.37566,-0.03863c-1.99403,1.0056 -2.44331,2.92275 -4.56798,3.69592c-2.97188,1.08148 -6.83027,-0.4892 -9.45236,1.45735c-2.39375,1.77704 -2.36639,4.49462 -3.63896,6.84348c-0.93701,1.72949 -3.74163,2.94858 -5.45262,3.7092c-3.10575,0.69937 -6.11857,1.0398 -9.12189,2.19912c-2.42739,0.937 -3.94849,2.90423 -6.69242,3.1909c-2.60049,0.27168 -3.89256,-0.97402 -6.14611,-1.68132c-1.51487,-0.47546 -3.14341,-0.45648 -4.69207,-0.8744c0,0 -0.16504,-0.04501 -0.35636,-0.16278c-0.12023,-0.03605 -0.19477,-0.07333 -0.19477,-0.07333l-0.88911,-0.44455c-0.39239,-0.1963 -0.76467,-0.40927 -1.12065,-0.6355c-0.18322,-0.06058 -0.30202,-0.13618 -0.30202,-0.13618c-1.55089,-0.99813 -3.29586,-1.03233 -4.85619,-1.90889c-1.7323,-0.97318 -2.66735,-2.98542 -4.4952,-3.73708c-1.07479,-0.44198 -2.22576,-0.59736 -3.38899,-0.71845c1.20394,0.27974 2.39356,0.67103 2.89567,0.85637zM115.31851,247.73119c4.34118,1.79818 8.98488,2.11623 12.68524,5.678c1.08865,1.04788 0.51906,3.02869 1.13116,3.67077c0.7937,0.83258 2.67081,0.95732 3.76991,1.5905l0.01506,-0.02381c1.19219,0.16987 2.38316,0.24664 3.58512,0.51815c2.98459,0.67417 3.85397,2.94717 6.28007,4.33092c1.29152,0.73663 2.78265,0.929 4.16393,1.54897c0.01741,-0.04294 0.03453,-0.08608 0.05134,-0.12939c0.60705,0.44479 1.25746,0.85589 1.97486,1.21438l0.88911,0.44455c0,0 0.04351,0.02176 0.10907,0.06526c1.58031,0.43251 3.21665,0.40492 4.77354,0.89881c1.93285,0.61316 2.94008,1.81018 5.11589,1.57874c2.36062,-0.2511 3.90899,-2.18453 6.05142,-3.03284c3.03916,-1.20337 6.1,-1.55813 9.25295,-2.24641c0.98862,-0.43923 3.59774,-1.50932 4.03116,-2.51454c1.20554,-2.79591 1.65825,-5.71132 4.363,-7.67857c3.06804,-2.23148 6.69803,-0.83217 10.10794,-1.80271c0.72723,-0.20699 1.03637,-1.10261 1.51855,-1.68501c0.94651,-1.14323 1.79285,-1.37796 3.10089,-2.02827c1.99813,-0.34249 3.29591,-0.52507 5.18766,0.13693c0.11887,0.00946 0.195,0.02849 0.195,0.02849c1.05875,0.27097 2.16037,0.40789 3.25325,0.40723c0.49788,-0.0003 0.9974,0.04795 1.49363,0.00746c5.06173,-0.41297 -2.29971,-3.88037 -2.1503,-5.01972c0.32771,-2.49902 4.138,-2.14595 6.37222,-1.9962c0.00169,-0.00715 0.00365,-0.01439 0.0059,-0.02173c0.26873,-0.87881 1.18166,-1.4596 1.97482,-1.92374c0.29472,-0.17246 0.79395,0.44309 1.00889,0.17775c0.24841,-0.30667 -0.40319,-0.82193 -0.20882,-1.16541c0.38127,-0.67377 1.04303,-1.20059 1.73924,-1.53914c0.33893,-0.16482 1.69879,0.1464 2.20329,-0.27255c1.05751,-0.8782 1.1683,-2.97464 1.68846,-4.11568c0.37336,-0.819 1.28593,-1.3632 1.51875,-2.23265c0.11785,-0.44013 -2.14406,-1.57451 -2.48679,-1.71924c-1.94627,-0.82189 -4.49812,0.37089 -6.25831,-1.08928c-0.54119,-0.44895 -0.66979,-1.23659 -1.00469,-1.85489c-0.00593,-0.34793 -0.09199,-0.78702 -0.1179,-1.19108c-0.14163,0.16584 -0.28936,0.30098 -0.41649,0.35927c-0.69646,0.3193 -1.52986,0.4107 -2.28275,0.26868c-0.75117,-0.1417 -1.22796,-1.30392 -1.97859,-1.15939c-0.7799,0.15016 -1.84813,2.10475 -2.53922,2.51149c-1.58247,0.93136 -2.70813,0.1773 -4.2554,0.55876c-0.93236,0.22986 -1.98137,1.97475 -2.93988,2.44955c-3.64666,1.8064 -5.93679,-0.14901 -5.95107,-3.85037c0.06329,-0.63288 0.58192,-2.323 -0.15632,-2.84021c-1.52956,-1.0716 -5.20204,-0.3367 -4.86648,-3.37857c0.20588,-1.86629 2.40976,-1.6908 3.50502,-2.01765c0.06965,-0.02078 0.59291,-0.35991 1.07639,-0.63724c-0.24794,-0.01351 -0.5003,-0.04002 -0.6811,-0.03877c-1.68133,0.01162 -4.36263,0.84283 -5.1897,-1.45618c-0.59287,-1.64801 1.51739,-3.67421 2.43136,-4.71875l0.0847,-0.1189c-0.06324,-0.65601 0.52416,-1.09656 0.52416,-1.09656l0.78372,-0.56259c0.58828,-0.29349 1.28805,-0.83172 1.99516,-1.26146c-1.08404,-0.15553 -2.13099,-0.50479 -2.6919,-1.48657c-0.85124,-1.48995 0.85246,-3.38369 0.39728,-4.843c-0.06838,-0.21923 -3.19026,-2.81732 -3.31296,-2.97164c0.31314,-2.21108 0.46716,-4.86646 3.3379,-5.27339c1.01404,-0.14374 2.30756,0.86392 3.05371,1.42339c0.20864,0.15644 0.55291,0.57274 0.78104,0.86821c-0.66785,-1.2234 0.76109,-2.65651 1.47296,-3.56157c0.21869,-0.27804 0.93049,-0.70505 0.61492,-0.8649c-0.766,-0.38803 -1.70665,-0.46966 -2.36516,-1.02075c-0.51759,-0.43315 -0.80792,-1.42303 -1.50473,-1.74081c-0.89977,-0.41034 -2.01874,-0.41625 -2.77215,-1.05682c-1.13611,-0.96595 -1.51735,-2.67049 -2.09661,-3.97325c-0.20681,-0.42014 -0.59901,-1.16208 -0.56327,-1.59581c-0.55504,0.53378 -1.73473,1.53934 -1.89358,1.64652c-1.4326,0.9666 -3.70094,2.19427 -5.49178,1.08667c-0.61416,-0.37984 -1.02604,-1.06528 -1.29872,-1.73395c-0.19882,-0.48755 -0.1261,-1.05742 -0.05217,-1.57873c0.0051,-0.03596 0.02859,-0.08 0.06117,-0.12573c-0.90994,0.7276 -1.79126,0.06707 -2.97697,0.31679c-1.1091,0.23359 -2.65665,1.25168 -3.79901,1.99635c-0.24011,0.39284 -0.67541,0.55607 -0.67541,0.55607c-1.21142,0.43577 -1.95694,0.89367 -3.35332,0.45999c-0.85574,-0.26577 -1.38453,-1.27371 -2.26286,-1.45113c-0.76066,-0.15365 -2.24087,0.33892 -2.90978,-0.0262c-0.79083,-0.43167 -1.84469,-1.01785 -1.90573,-1.91676c-0.12793,-1.88387 1.85138,-1.48989 2.51287,-2.5196c0.66133,-1.02945 -0.75681,-4.20287 -0.38994,-5.54511c0.74273,-2.71738 3.27052,-3.62642 5.13773,-5.28348c0.55685,-0.61313 -3.34672,-0.12037 -4.02209,-0.08812c-3.04538,0.14545 -4.80729,-0.85067 -6.89381,-2.90506c-1.78006,2.12381 -3.09205,4.74402 -3.76571,7.41377c-0.39116,1.55017 -0.17158,3.28347 -0.77191,4.87659c-1.65758,4.39875 -4.94053,7.43389 -7.429,11.20389c-1.94986,2.56704 -3.1452,5.77609 -5.10032,8.37756c-2.04273,2.71804 -5.16628,4.38903 -7.32445,6.97482c-1.43907,1.72421 -2.63744,3.61969 -3.78959,5.55094l0.0065,-0.09749c-0.35532,0.56583 -0.73941,1.11169 -1.22257,1.59715c-0.78091,0.78463 -2.75563,1.49508 -3.32174,2.4138c-0.85169,1.38217 -0.96574,2.65699 -2.30606,3.90669c-0.52769,0.49201 -4.28805,2.69643 -3.40409,3.82473c1.08123,1.3801 3.51663,2.95497 4.95976,4.03732c1.11218,1.10982 2.26601,2.07034 3.27261,3.27542c1.76544,2.11355 3.39032,5.85655 -1.21161,5.50395c-3.21711,-0.2465 -4.79191,-3.30024 -7.09014,-4.90742c-0.52088,-0.36425 -1.97358,-0.79196 -2.57931,-1.52086c0.02125,0.19812 0.03521,0.38338 0.03717,0.50681c0.00829,0.52182 0.01681,1.04405 0,1.56567c-0.04366,1.35447 -0.8436,2.72391 -1.86825,3.61081c-1.24348,0.04663 -2.47292,0.27894 -3.50832,0.03683c-0.10964,-0.15112 -0.25228,-0.27673 -0.41735,-0.36626c-0.21065,-0.16164 -0.47425,-0.25773 -0.76029,-0.25773c-0.01049,0 -0.02094,0.00013 -0.03136,0.00038c-0.32207,-0.29629 -0.60394,-0.70485 -0.83531,-1.26341c-0.30681,-0.74069 -0.66963,-1.67211 -0.30441,-2.38581c0.13103,-0.25605 0.43585,-0.51294 0.7829,-0.7007c-0.64073,-0.16543 -1.40236,-0.25251 -1.6444,-0.81816c-0.97237,-2.27244 0.83753,-4.15994 2.75637,-4.16183c-0.36794,-0.1216 -0.74066,-0.22402 -1.12281,-0.27991c-1.62362,-0.23747 -1.91266,0.78485 -2.29039,2.13036c-0.11106,1.01587 -0.05049,2.01026 -0.22663,2.9641l-0.20725,-0.41451c-0.04828,1.0874 -0.0951,2.16103 -0.40335,3.23442c-0.03746,0.13045 -0.07482,0.26108 -0.11253,0.39169c-0.06067,-0.05099 -0.12143,-0.10077 -0.18221,-0.14917c-0.1664,0.62369 -0.24091,1.28047 -0.46378,1.88667c-0.13926,0.37878 -1.055,0.94887 -0.65718,1.01684c1.0584,0.18084 2.42261,-0.01005 3.47749,-0.01005l1.52179,0.86665c0,0 0.65429,0.52343 0.46295,1.24888c-0.20933,2.27688 -0.69099,6.02196 1.45184,7.633c0.34987,0.26305 0.71904,0.51467 1.09818,0.76072c0.62639,0.00111 1.14469,0.46295 1.2341,1.06473c0.94438,1.02116 1.84402,2.31783 2.62503,2.64134zM136.42192,263.32666c-0.11087,-0.00937 -0.18972,-0.03969 -0.18972,-0.03969c-0.44632,-0.17194 -3.52051,-0.78075 -4.47235,-1.1365c0.35236,0.42073 0.91476,1.34611 1.00569,1.44796c0.91399,1.02375 2.27408,1.00796 3.52452,1.0181c2.59467,0.72512 3.27658,0.01137 0.51223,-1.19351zM112.54925,224.91904c-0.13755,0.19033 -0.29514,0.36142 -0.47034,0.50494c-0.77884,0.638 -1.99256,-0.31285 -2.99782,-0.36855c-0.27043,-0.01498 -0.82372,0.46363 -0.57599,0.57311c1.13142,0.50003 3.9157,-0.5617 3.45691,2.62414c-0.27621,1.918 -1.58116,1.70734 -2.57878,1.4238c-0.31881,-0.09061 0.39849,0.57844 0.70728,0.69884c0.66298,0.25851 1.42375,-0.11038 2.13382,-0.06387c1.27085,-0.84644 -0.3309,-3.65363 0.32491,-5.3924z"/><path d="M100.75366,230.64127c0.0366,0.0453 0.07346,0.09024 0.11043,0.13486c-0.01652,0.00605 -0.03287,0.01243 -0.04906,0.01914c-0.0208,-0.05116 -0.04125,-0.10249 -0.06137,-0.154z"/><path d="M89.51718,260.76945c-0.16081,-0.31779 -0.38063,-0.82344 -0.53761,-1.20547c-0.13662,0.01967 -0.27331,0.03853 -0.41098,0.04676c-2.95225,0.17654 0.02532,0.71012 0.94859,1.15871zM89.77291,258.79915l0.22604,-0.04222c0.21984,0.92755 1.70253,2.67714 0.16581,3.48087c-0.61115,0.31964 -1.13099,-0.54413 -1.6017,-0.69836c-1.06495,-0.34891 -4.27947,-1.55855 -1.716,-3.03737c0.52681,-0.3039 1.62147,-0.13607 2.2327,-0.21374c0,0 0.59871,-0.07484 0.69315,0.51081z"/><path d="M96.89001,256.08083c-0.3083,0.4683 -0.61711,0.89587 -1.1738,1.18827c-0.16514,0.08674 -0.42419,0.2865 -0.65935,0.46121c1.59382,-0.12207 6.02245,0.95031 2.74948,-1.09377c-0.22218,-0.09819 -0.44437,-0.19638 -0.66654,-0.29456zM97.28573,254.7817c0.17386,0.07111 0.28218,0.20651 0.28218,0.20651l0.07956,0.21151c0.24846,0.11099 0.49694,0.22198 0.74541,0.33297c0.43473,0.27186 1.05809,0.60914 1.37599,1.03015c2.57662,3.41242 -5.7512,3.36818 -6.42057,1.7559c-0.43048,-1.03686 2.3351,-2.73419 2.90923,-3.5387c0,0 0.36327,-0.50858 0.87185,-0.14531c0.06584,0.04702 0.11706,0.09649 0.15636,0.14696z"/><path d="M104.44377,262.38887c0.04834,0.04784 0.0905,0.10818 0.11996,0.18428c0.74927,0.63803 2.13308,1.8152 2.08322,2.67179c-0.0945,1.62363 -2.18469,1.7828 -3.27188,1.19647c-1.20946,-0.65227 -1.04976,-1.78582 -1.66022,-2.8292c-1.11401,-1.90405 -1.8855,-3.40758 0.92613,-4.07357c1.85674,0.47696 1.51011,1.41278 1.80278,2.85024zM103.26606,262.79062c-0.07643,-0.68559 0.07534,-1.92878 -0.60862,-2.0021c-1.67191,0.46443 0.1653,3.26228 0.94668,4.31395c0.51358,0.69124 2.38648,0.86637 1.08648,-0.60342c-0.37415,-0.42302 -0.77229,-0.82688 -1.19788,-1.1981c0,0 -0.24489,-0.21429 -0.22665,-0.51032z"/><path d="M106.74597,246.03213c0.00085,0.01953 0.00159,0.03884 0.00222,0.05794c0.08971,0.02862 0.17696,0.05272 0.26145,0.07195c4.6153,4.94242 11.2601,8.25874 17.06269,11.48129c4.23757,2.84483 6.59684,7.19818 11.36904,9.48722c2.24586,1.07725 6.05032,0.38088 8.02103,1.81617c0.72481,0.52789 1.69543,1.1646 1.72913,2.06064c0.0149,0.3963 -2.70175,3.01423 -3.17506,3.62154c-0.37069,0.67053 -1.1749,2.23281 -1.71883,2.63855c-2.19923,1.64051 -7.08447,1.27812 -9.71552,1.40522c-0.66082,0.03193 -2.64443,0.02549 -3.17874,-0.24792c-1.80715,-0.92471 -1.0309,-2.89907 -1.97233,-3.57911c-0.16984,-0.12268 -3.10319,0.17475 -3.54444,0.02877c-1.96845,-0.65119 -2.56422,-2.49262 -4.15953,-3.54644c-2.4318,-0.70109 -6.77431,-0.25127 -8.68296,-1.99989c-1.62323,-1.48713 -0.65163,-2.70995 -1.13468,-4.41655c-0.38587,-1.36329 -2.10972,-1.06458 -2.87065,-2.36043c-1.99212,-3.39258 0.41855,-8.2303 -5.01649,-9.18397c-2.11165,-0.19204 -3.74652,-0.25474 -5.4828,1.14019c-1.61599,1.29829 -1.86129,4.28429 -4.78693,3.62268c-3.25365,-0.73579 -3.21961,-7.08964 -1.47384,-9.14611c1.91888,-2.26039 5.48964,-1.48253 8.01986,-2.50132c2.24575,-1.24662 3.91878,-2.55895 6.31191,-2.96371c1.06261,-0.63854 4.10039,1.70616 4.13548,2.5133zM103.41698,246.28071c-0.21548,-0.01578 -0.41578,-0.08618 -0.58713,-0.19741c-0.08331,-0.00463 -0.15768,-0.0208 -0.22387,-0.04686c-1.94843,0.41851 -3.37628,1.67121 -5.23395,2.70391c-1.90159,0.75683 -5.83154,0.37208 -7.20917,1.8867c-0.52169,0.57356 -0.80135,4.93376 0.07487,5.05045c0.95731,0.12749 2.11559,-2.60022 2.69853,-3.08843c2.25965,-1.89243 4.6461,-1.95151 7.42316,-1.69912c2.8601,0.5337 5.15041,2.2192 6.17547,5.08984c0.53414,1.49585 0.02772,4.02355 0.68152,5.34325c0.66641,1.34516 2.26663,0.71502 3.0661,2.80195c0.24738,0.64578 -0.23727,2.84679 0.41403,3.32702c1.75665,1.29524 5.94098,0.95034 8.09479,1.61377c1.24311,0.83299 2.42758,3.01511 3.84217,3.42278c1.17979,0.34001 3.18384,-0.4366 4.19914,0.28689c0.68105,0.48531 0.8278,3.09787 1.64133,3.39011c2.0213,0.72611 6.20367,-0.18101 8.3139,-0.49383c0.68071,-0.10091 1.47438,0.00215 2.02257,-0.41383c0.6105,-0.46326 0.74699,-1.33839 1.12048,-2.00759c0.26412,-0.34013 0.9988,-1.62941 1.7655,-2.17431c-0.12626,-0.01141 -0.23953,-0.02555 -0.32256,-0.04059c-0.4317,-0.07816 -0.8604,-0.17207 -1.29059,-0.25812c-1.93733,-0.3875 -3.90829,-0.54183 -5.70884,-1.38589c-4.92239,-2.30752 -7.2847,-6.76011 -11.60357,-9.61359c-6.39306,-3.55315 -13.609,-7.2198 -18.43168,-12.85744c-0.35666,-0.23606 -0.68376,-0.48073 -0.92218,-0.63967z"/></g></g></g></svg>